<?xml version="1.0" encoding="UTF-8"?>
<!DOCTYPE svg PUBLIC "-//W3C//DTD SVG 1.1//EN" "http://www.w3.org/Graphics/SVG/1.1/DTD/svg11.dtd">
<!-- Creator: CorelDRAW X6 -->
<svg xmlns="http://www.w3.org/2000/svg" xml:space="preserve" width="42.3332mm" height="42.3332mm" version="1.1" style="shape-rendering:geometricPrecision; text-rendering:geometricPrecision; image-rendering:optimizeQuality; fill-rule:evenodd; clip-rule:evenodd"
viewBox="0 0 4233 4233"
 xmlns:xlink="http://www.w3.org/1999/xlink"
 enable-background="new 0 0 768 1024">
 <defs>
  <style type="text/css">
   <![CDATA[
    .str2 {stroke:black;stroke-width:7.62}
    .str0 {stroke:#A4AAAB;stroke-width:16.93}
    .str1 {stroke:#FEFEFE;stroke-width:135.48}
    .str3 {stroke:#FEFEFE;stroke-width:135.48;stroke-linecap:round;stroke-linejoin:round}
    .fil9 {fill:none}
    .fil6 {fill:#1F92BF}
    .fil4 {fill:#2299CA}
    .fil3 {fill:#5B6678}
    .fil7 {fill:#95D84B}
    .fil1 {fill:#B3BBBE}
    .fil5 {fill:#E1E6E9}
    .fil8 {fill:#E38B44}
    .fil0 {fill:white}
    .fil2 {fill:url(#id4)}
   ]]>
  </style>
   <clipPath id="id0">
    <rect x="5012" y="1050" width="3006" height="3006"/>
   </clipPath>
   <clipPath id="id1">
    <rect x="11971" y="-1771" width="3810" height="3979"/>
   </clipPath>
   <clipPath id="id2">
    <path d="M13999 8619l11566 0 0 -6502 -11566 0 0 6502 0 0z"/>
   </clipPath>
   <clipPath id="id3">
    <path d="M13999 8619l11566 0 0 -6502 -11566 0 0 6502 0 0z"/>
   </clipPath>
  <linearGradient id="id4" gradientUnits="userSpaceOnUse" x1="78.41" y1="3249.03" x2="4152" y2="981.7">
   <stop offset="0" style="stop-color:white"/>
   <stop offset="1" style="stop-color:#D4D9DC"/>
  </linearGradient>
 </defs>
 <g id="Layer_x0020_1">
  <metadata id="CorelCorpID_0Corel-Layer"/>
  <path class="fil0" d="M4072 3129l0 -2037c0,-511 -418,-928 -928,-928l-2024 0c0,0 -266,28 -409,143 -144,116 3107,2983 3107,2983l61 308c0,0 168,-166 193,-469z"/>
  <path class="fil1 str0" d="M3113 4069l-2024 0c-511,0 -928,-418 -928,-928l0 -2037c0,0 18,-436 296,-607 295,-182 3326,3226 3326,3226 0,0 -139,346 -670,346z"/>
  <rect class="fil2" x="211" y="211" width="3809" height="3809" rx="905" ry="905"/>
  <rect class="fil3" x="11197" y="2483" width="873" height="68" rx="36" ry="36"/>
  <path class="fil3" d="M10941 2150l-421 -348 1040 -841c63,-41 136,-41 199,0l1013 841 -470 389 0 -452c-23,-77 -50,-122 -145,-145l-1058 0c-81,18 -136,63 -149,149l-9 407z"/>
  <rect class="fil3" x="11203" y="1856" width="873" height="68" rx="36" ry="36"/>
  <path class="fil3" d="M10439 1892l0 1230 597 -534c32,-23 77,14 50,50l-556 538c-9,14 23,27 51,29l2129 0c41,-2 54,-16 63,-29l-579 -543c-36,-27 5,-104 59,-59l547 529c36,18 45,0 59,-59l0 -1153 -1054 859c-104,68 -208,59 -299,0l-1068 -859z"/>
  <rect class="fil3" x="11197" y="2057" width="873" height="68" rx="36" ry="36"/>
  <rect class="fil3" x="11197" y="2265" width="873" height="68" rx="36" ry="36"/>
  <path class="fil0" d="M18174 3916c0,1169 -948,2117 -2117,2117 -1169,0 -2117,-948 -2117,-2117 0,-1169 948,-2117 2117,-2117 1169,0 2117,948 2117,2117zm8467 0c0,1169 -948,2117 -2117,2117 -1169,0 -2117,-948 -2117,-2117 0,-1169 948,-2117 2117,-2117 1169,0 2117,948 2117,2117zm4233 5027c0,1169 -948,2117 -2117,2117 -1169,0 -2117,-948 -2117,-2117 0,-1169 948,-2117 2117,-2117 1169,0 2117,948 2117,2117z"/>
  <g style="clip-path:url(#id0)">
   <image id="sms.jpg" transform="matrix(1 0 0 1 2895.6 1938.86)" x="2117" y="-889" width="3006" height="3006" xlink:href="api_Images\api_ImgID1.png"/>
  </g>
  <g style="clip-path:url(#id1)">
   <image id="stock-vector-chatbot-icon-bot-sign-design-chat-bot-logo-concept-robot-head-in-speech-bubble-online-support-740191156.jpg" transform="matrix(1 0 0 1 9854.77 91.48)" x="2117" y="-1863" width="3810" height="3979" xlink:href="api_Images\api_ImgID2.png"/>
  </g>
  <path class="fil4" d="M2962 2303l213 -52 0 -269 -213 -52c-22,-101 -62,-194 -116,-279l114 -188 -190 -190 -188 114c-84,-54 -178,-94 -279,-116l-52 -213 -269 0 -52 213c-101,22 -194,62 -279,116l-188 -114 -190 190 114 188c-54,84 -94,178 -116,279l-213 52 0 269 213 52c22,101 62,194 116,279l-114 188 190 190 188 -114c84,54 178,94 279,116l52 213 269 0 52 -213c101,-22 194,-62 279,-116l188 114 190 -190 -114 -188c54,-84 94,-178 116,-279z"/>
  <circle class="fil5" cx="2117" cy="2117" r="673"/>
  <circle class="fil6" cx="2117" cy="2117" r="385"/>
  <g id="_1141565504">
  </g>
  <g id="_1141566112">
  </g>
  <g id="_1141554688">
  </g>
  <g id="_1141555520">
  </g>
  <g id="_1141556032">
  </g>
  <g id="_1141556320">
  </g>
  <g id="_1141555968">
  </g>
  <g id="_1141555232">
  </g>
  <g id="_1141555712">
  </g>
  <g id="_1141556416">
  </g>
  <g id="_1141555296">
  </g>
  <g id="_1141555104">
  </g>
  <g id="_1141555072">
  </g>
  <g id="_1141555328">
  </g>
  <g id="_1141553056">
  </g>
 </g>
 <g id="Layer_x0020_1_0">
  <metadata id="CorelCorpID_1Corel-Layer"/>
  <circle class="fil7 str1" cx="-9330" cy="-881" r="1943"/>
 </g>
 <g id="Layer_x0020_1_1">
  <metadata id="CorelCorpID_2Corel-Layer"/>
 </g>
 <g id="Layer_x0020_1_0">
  <metadata id="CorelCorpID_3Corel-Layer"/>
  <circle class="fil7" cx="13911" cy="3611" r="1943"/>
 </g>
 <g id="Layer_x0020_1_0_1">
  <metadata id="CorelCorpID_4Corel-Layer"/>
 </g>
 <g id="Layer_x0020_1_2">
  <metadata id="CorelCorpID_5Corel-Layer"/>
  <circle class="fil8" cx="8615" cy="4683" r="1943"/>
  <g style="clip-path:url(#id2)">
   <g id="_1141547392">
   </g>
  </g>
  <polyline class="fil9" points="13999,8619 25565,8619 25565,2117 13999,2117 13999,8619 "/>
  <g style="clip-path:url(#id3)">
   <path id="1" class="fil9 str2" d="M13999 2117l11566 6502m0 -6502l-11566 6502"/>
  </g>
  <g id="_701069104">
   <path class="fil9 str1" d="M8748 4021l527 0c68,0 123,55 123,123l0 858c0,68 -55,123 -123,123l-650 0 -675 0 0 0 -3 0 0 0 -3 0 0 0 -3 0 0 0 -3 0 0 0 -3 0 0 0 -3 0 0 0 -3 -1 0 0 -3 -1 0 0 -3 -1 0 0 -3 -1 0 0 -3 -1 0 0 -3 -1 0 0 -3 -1 0 0 -3 -1 -3 -1 0 0 -3 -1 0 0 -3 -1 0 0 -3 -1 0 0 -3 -1 0 0 -3 -1c-2,-1 -3,-2 -5,-3l0 0 -3 -2 -2 -2 0 0 -2 -2 0 0 -2 -2 0 0 -2 -2 0 0 -2 -2 0 0 -2 -2 0 0 -2 -2 0 0 -2 -2 0 0 -2 -2 -2 -2 0 0 -2 -2 0 0 -2 -2 0 0 -2 -2 0 0 -2 -2 0 0 -2 -2 0 0 -2 -2 0 0 -2 -2 0 0 -2 -2 -2 -3 0 0c-1,-2 -2,-3 -3,-5l-1 -3 0 0 -1 -3 0 0 -1 -3 0 0 -1 -3 0 0 -1 -3 0 0 -1 -3 -1 -3 0 0 -1 -3 0 0 -1 -3 0 0 -1 -3 0 0 -1 -3 0 0 -1 -3 0 0 -1 -3 0 0 -1 -3 0 0 0 -3 0 0 0 -3 0 0 0 -3 0 0 0 -3 0 0 0 -3 0 0 0 -3 0 0 0 -858 0 -262c0,-68 55,-123 123,-123l675 0c68,0 123,55 123,123l0 139 0 0zm-211 0l176 0"/>
   <circle class="fil9 str1" cx="8610" cy="5472" r="122"/>
   <path class="fil9 str3" d="M7689 5474l799 0m244 0l806 0"/>
   <line class="fil9 str1" x1="8611" y1="5119" x2="8611" y2= "5350" />
   <line class="fil9 str3" x1="8538" y1="4021" x2="8714" y2= "4021" />
  </g>
 </g>
</svg>
