<?xml version="1.0" encoding="UTF-8"?>
<!DOCTYPE svg PUBLIC "-//W3C//DTD SVG 1.1//EN" "http://www.w3.org/Graphics/SVG/1.1/DTD/svg11.dtd">
<!-- Creator: CorelDRAW X6 -->
<svg xmlns="http://www.w3.org/2000/svg" xml:space="preserve" width="42.3332mm" height="42.3332mm" version="1.1" style="shape-rendering:geometricPrecision; text-rendering:geometricPrecision; image-rendering:optimizeQuality; fill-rule:evenodd; clip-rule:evenodd"
viewBox="0 0 4233 4233"
 xmlns:xlink="http://www.w3.org/1999/xlink"
 enable-background="new 0 0 768 1024">
 <defs>
  <style type="text/css">
   <![CDATA[
    .str2 {stroke:#2B2A29;stroke-width:7.62}
    .str1 {stroke:#5B6678;stroke-width:7.62}
    .str0 {stroke:#A4AAAB;stroke-width:16.93}
    .str3 {stroke:#FEFEFE;stroke-width:135.48}
    .str4 {stroke:#FEFEFE;stroke-width:135.48;stroke-linecap:round;stroke-linejoin:round}
    .fil5 {fill:none}
    .fil8 {fill:#FEFEFE}
    .fil3 {fill:#2299CA}
    .fil7 {fill:#5B6678}
    .fil6 {fill:#95D84B}
    .fil1 {fill:#B3BBBE}
    .fil4 {fill:#DCAC07}
    .fil0 {fill:white}
    .fil2 {fill:url(#id9)}
   ]]>
  </style>
   <clipPath id="id0">
    <rect x="17820" y="-2288" width="4145" height="4145"/>
   </clipPath>
   <clipPath id="id1">
    <path d="M13999 8619l11566 0 0 -6502 -11566 0 0 6502 0 0z"/>
   </clipPath>
    <clipPath id="id2">
     <path d="M25563 2117l-3810 0 0 1465 3810 0 0 -1465z"/>
    </clipPath>
    <clipPath id="id3">
     <path d="M13999 8619l11566 0 0 -6502 -11566 0 0 6502 0 0z"/>
    </clipPath>
    <clipPath id="id4">
     <path d="M17237 2117l-1473 0 0 656 1473 0 0 -656z"/>
    </clipPath>
    <clipPath id="id5">
     <path d="M13999 8619l11566 0 0 -6502 -11566 0 0 6502 0 0z"/>
    </clipPath>
   <clipPath id="id6">
    <path d="M13644 14199l11566 0 0 -6502 -11566 0 0 6502 0 0z"/>
   </clipPath>
    <clipPath id="id7">
     <path d="M25210 14199l0 -6502 -11565 0 0 6502 11565 0z"/>
    </clipPath>
    <clipPath id="id8">
     <path d="M13644 14199l11566 0 0 -6502 -11566 0 0 6502 0 0z"/>
    </clipPath>
  <linearGradient id="id9" gradientUnits="userSpaceOnUse" x1="78.41" y1="3249.03" x2="4152" y2="981.7">
   <stop offset="0" style="stop-color:white"/>
   <stop offset="1" style="stop-color:#D4D9DC"/>
  </linearGradient>
 </defs>
 <g id="Layer_x0020_1">
  <metadata id="CorelCorpID_0Corel-Layer"/>
  <path class="fil0" d="M4072 3129l0 -2037c0,-511 -418,-928 -928,-928l-2024 0c0,0 -266,28 -409,143 -144,116 3107,2983 3107,2983l61 308c0,0 168,-166 193,-469z"/>
  <path class="fil1 str0" d="M3113 4069l-2024 0c-511,0 -928,-418 -928,-928l0 -2037c0,0 18,-436 296,-607 295,-182 3326,3226 3326,3226 0,0 -139,346 -670,346z"/>
  <rect class="fil2" x="211" y="211" width="3809" height="3809" rx="905" ry="905"/>
  <path class="fil0" d="M18174 3916c0,1169 -948,2117 -2117,2117 -1169,0 -2117,-948 -2117,-2117 0,-1169 948,-2117 2117,-2117 1169,0 2117,948 2117,2117zm8467 0c0,1169 -948,2117 -2117,2117 -1169,0 -2117,-948 -2117,-2117 0,-1169 948,-2117 2117,-2117 1169,0 2117,948 2117,2117zm4233 5027c0,1169 -948,2117 -2117,2117 -1169,0 -2117,-948 -2117,-2117 0,-1169 948,-2117 2117,-2117 1169,0 2117,948 2117,2117z"/>
  <g style="clip-path:url(#id0)">
   <image id="sms.jpg" transform="matrix(1.37912 0 0 1.37912 14900.7 -1062.45)" x="2117" y="-889" width="3006" height="3006" xlink:href="canvas_Images\canvas_ImgID1.png"/>
  </g>
  <path class="fil3" d="M3146 1572l0 -451 -922 0 0 -147 -221 0 0 147 -922 0 0 1475 394 0 -184 664 298 0 82 -295 886 0 82 295 298 0 -184 -664 394 0 0 -745c15,138 -2,-34 0,-279zm-1069 -524l74 0 0 74 -74 0 0 -74zm-544 2139l-145 0 164 -590 145 0 -164 590zm158 -295l21 -74 586 0 0 -74 -566 0 41 -147 681 0 41 147 -124 0 0 74 144 0 21 74 -845 0zm1148 295l-145 0 -164 -590 145 0 164 590zm233 -664l-341 0 -298 0 -640 0 -298 0 -341 0 0 -1327 848 0 221 0 848 0 0 365 -87 -13c-87,-13 -176,-20 -264,-20l-932 0c-24,-10 -100,-37 -229,-37 -200,0 -354,190 -361,198l-18 23 18 23c6,8 161,198 361,198 128,0 205,-27 229,-37l932 0c88,0 177,-7 263,-20l87 -13 0 660zm-1327 -933l0 244c-29,10 -91,25 -184,25 -127,0 -238,-101 -282,-147 45,-47 156,-147 282,-147 94,0 155,16 184,25zm1229 213c-83,13 -168,19 -252,19l-903 0 0 -221 903 0c84,0 169,6 252,19 190,97 -19,121 0,183z"/>
  <rect class="fil4 str1" x="2630" y="2375" width="74" height="74"/>
  <rect class="fil3" x="1127" y="1158" width="1965" height="1395"/>
  <rect class="fil5 str2" x="11409" y="5228" width="593" height="1863"/>
 </g>
 <g id="Layer_x0020_1_0">
  <metadata id="CorelCorpID_1Corel-Layer"/>
  <circle class="fil6 str3" cx="-9330" cy="-881" r="1943"/>
 </g>
 <g id="Layer_x0020_1_1">
  <metadata id="CorelCorpID_2Corel-Layer"/>
 </g>
 <g id="Layer_x0020_1_0_0">
  <metadata id="CorelCorpID_3Corel-Layer"/>
 </g>
 <g id="Layer_x0020_1_1">
  <metadata id="CorelCorpID_4Corel-Layer"/>
  <g style="clip-path:url(#id1)">
   <g id="_669930528">
    <rect class="fil7" x="20978" y="3856" width="873" height="68" rx="36" ry="36"/>
    <path class="fil7" d="M20722 3524l-421 -348 1040 -841c63,-41 136,-41 199,0l1013 841 -470 389 0 -452c-23,-77 -50,-122 -145,-145l-1058 0c-81,18 -136,63 -149,149l-9 407z"/>
    <rect class="fil7" x="20985" y="3230" width="873" height="68" rx="36" ry="36"/>
    <path class="fil7" d="M20220 3266l0 1230 597 -534c32,-23 77,14 50,50l-556 538c-9,14 23,27 51,29l2129 0c41,-2 54,-16 63,-29l-579 -543c-36,-27 5,-104 59,-59l547 529c36,18 45,0 59,-59l0 -1153 -1054 859c-104,68 -208,59 -299,0l-1068 -859z"/>
    <rect class="fil7" x="20978" y="3431" width="873" height="68" rx="36" ry="36"/>
    <rect class="fil7" x="20978" y="3639" width="873" height="68" rx="36" ry="36"/>
   </g>
   <g style="clip-path:url(#id2)">
    <image id="stock-vector-chatbot-icon-bot-sign-design-chat-bot-logo-concept-robot-head-in-speech-bubble-online-support-740191156.jpg" transform="matrix(1 0 0 1 19635.9 1465.33)" x="2117" y="-1863" width="3810" height="3979" xlink:href="canvas_Images\canvas_ImgID2.png"/>
   </g>
   <g style="clip-path:url(#id3)">
   </g>
   <g style="clip-path:url(#id4)">
    <image id="ftp.jpg" transform="matrix(1 0 0 1 13647.6 656.16)" x="2117" y="745" width="1473" height="1372" xlink:href="canvas_Images\canvas_ImgID3.png"/>
   </g>
   <g style="clip-path:url(#id5)">
    <circle class="fil6" cx="23692" cy="4985" r="1943"/>
    <g id="_701069104">
     <path class="fil5 str3" d="M18529 5395l527 0c68,0 123,55 123,123l0 858c0,68 -55,123 -123,123l-650 0 -675 0 0 0 -3 0 0 0 -3 0 0 0 -3 0 0 0 -3 0 0 0 -3 0 0 0 -3 0 0 0 -3 -1 0 0 -3 -1 0 0 -3 -1 0 0 -3 -1 0 0 -3 -1 0 0 -3 -1 0 0 -3 -1 0 0 -3 -1 -3 -1 0 0 -3 -1 0 0 -3 -1 0 0 -3 -1 0 0 -3 -1 0 0 -3 -1c-2,-1 -3,-2 -5,-3l0 0 -3 -2 -2 -2 0 0 -2 -2 0 0 -2 -2 0 0 -2 -2 0 0 -2 -2 0 0 -2 -2 0 0 -2 -2 0 0 -2 -2 0 0 -2 -2 -2 -2 0 0 -2 -2 0 0 -2 -2 0 0 -2 -2 0 0 -2 -2 0 0 -2 -2 0 0 -2 -2 0 0 -2 -2 0 0 -2 -2 -2 -3 0 0c-1,-2 -2,-3 -3,-5l-1 -3 0 0 -1 -3 0 0 -1 -3 0 0 -1 -3 0 0 -1 -3 0 0 -1 -3 -1 -3 0 0 -1 -3 0 0 -1 -3 0 0 -1 -3 0 0 -1 -3 0 0 -1 -3 0 0 -1 -3 0 0 -1 -3 0 0 0 -3 0 0 0 -3 0 0 0 -3 0 0 0 -3 0 0 0 -3 0 0 0 -3 0 0 0 -858 0 -262c0,-68 55,-123 123,-123l675 0c68,0 123,55 123,123l0 139 0 0zm-211 0l176 0"/>
     <circle class="fil5 str3" cx="18391" cy="6846" r="122"/>
     <path class="fil5 str4" d="M17470 6848l799 0m244 0l806 0"/>
     <line class="fil5 str3" x1="18392" y1="6493" x2="18392" y2= "6724" />
     <line class="fil5 str4" x1="18319" y1="5395" x2="18495" y2= "5395" />
    </g>
   </g>
  </g>
  <polyline class="fil5" points="13999,8619 25565,8619 25565,2117 13999,2117 13999,8619 "/>
 </g>
 <g id="Layer_x0020_1_2">
  <metadata id="CorelCorpID_5Corel-Layer"/>
  <g id="_739396224">
   <g>
    <path class="fil7" d="M6013 11788c-33,0 -55,2 -67,5l0 212c14,3 31,4 54,4 86,0 139,-44 139,-116 0,-66 -45,-105 -127,-105l1 0z"/>
    <path class="fil7" d="M5652 10825c-91,-91 -239,-91 -330,0l-1036 1036c-91,91 -91,239 0,330l1036 1036c91,91 239,91 330,0l1036 -1036c44,-44 68,-103 68,-165 0,-62 -25,-121 -68,-165l-1036 -1036zm-542 978l-276 0 0 164 258 0 0 132 -258 0 0 288 -162 0 0 -717 437 0 0 133 1 0zm619 3l-196 0 0 581 -162 0 0 -581 -194 0 0 -136 551 0 0 136 1 0zm506 252c-55,51 -138,76 -234,76 -21,0 -40,-1 -55,-4l0 258 -161 0 0 -708c50,-9 120,-15 219,-15 100,0 172,19 220,59 46,35 76,95 76,165 0,71 -22,131 -65,170l0 -1z"/>
    <path class="fil7" d="M6705 10440c-23,-2 -44,-13 -57,-32 -167,-231 -438,-374 -727,-374 -21,0 -42,1 -63,2 -19,1 -37,-4 -52,-16 -175,-134 -388,-207 -611,-207 -399,0 -753,234 -914,587 -11,24 -34,41 -60,44 -441,55 -783,432 -783,888 0,404 269,746 637,857 -22,-51 -34,-106 -34,-164 0,-74 20,-144 56,-206 -181,-88 -306,-273 -306,-488 0,-299 243,-542 543,-542 15,0 30,1 45,2 86,7 164,-49 185,-133 73,-291 333,-494 632,-494 171,0 333,66 456,186 42,41 102,58 159,46 37,-8 74,-11 111,-11 209,0 396,118 488,307 32,67 103,106 176,99 18,-2 37,-3 54,-3 299,0 543,243 543,542 0,214 -125,399 -306,488 36,62 56,132 56,206 0,57 -12,113 -34,164 368,-111 637,-453 637,-857 0,-472 -367,-860 -830,-893l-1 2z"/>
   </g>
  </g>
 </g>
 <g id="Layer_x0020_1_3">
  <metadata id="CorelCorpID_6Corel-Layer"/>
  <g style="clip-path:url(#id6)">
   <g id="_708925424">
   </g>
   <g style="clip-path:url(#id7)">
    <image id="cm_x0020_copy.jpg" transform="matrix(1 0 0 1 11527.8 12082)" x="2117" y="-4386" width="11566" height="6502" xlink:href="canvas_Images\canvas_ImgID4.png"/>
   </g>
   <g style="clip-path:url(#id8)">
   </g>
  </g>
  <polyline class="fil5" points="13644,14199 25210,14199 25210,7696 13644,7696 13644,14199 "/>
  <g id="_701069104_4">
   <path class="fil5 str3" d="M8392 9600l527 0c68,0 123,55 123,123l0 858c0,68 -55,123 -123,123l-650 0 -675 0 0 0 -3 0 0 0 -3 0 0 0 -3 0 0 0 -3 0 0 0 -3 0 0 0 -3 0 0 0 -3 -1 0 0 -3 -1 0 0 -3 -1 0 0 -3 -1 0 0 -3 -1 0 0 -3 -1 0 0 -3 -1 0 0 -3 -1 -3 -1 0 0 -3 -1 0 0 -3 -1 0 0 -3 -1 0 0 -3 -1 0 0 -3 -1c-2,-1 -3,-2 -5,-3l0 0 -3 -2 -2 -2 0 0 -2 -2 0 0 -2 -2 0 0 -2 -2 0 0 -2 -2 0 0 -2 -2 0 0 -2 -2 0 0 -2 -2 0 0 -2 -2 -2 -2 0 0 -2 -2 0 0 -2 -2 0 0 -2 -2 0 0 -2 -2 0 0 -2 -2 0 0 -2 -2 0 0 -2 -2 0 0 -2 -2 -2 -3 0 0c-1,-2 -2,-3 -3,-5l-1 -3 0 0 -1 -3 0 0 -1 -3 0 0 -1 -3 0 0 -1 -3 0 0 -1 -3 -1 -3 0 0 -1 -3 0 0 -1 -3 0 0 -1 -3 0 0 -1 -3 0 0 -1 -3 0 0 -1 -3 0 0 -1 -3 0 0 0 -3 0 0 0 -3 0 0 0 -3 0 0 0 -3 0 0 0 -3 0 0 0 -3 0 0 0 -858 0 -262c0,-68 55,-123 123,-123l675 0c68,0 123,55 123,123l0 139 0 0zm-211 0l176 0"/>
   <circle class="fil5 str3" cx="8254" cy="11051" r="122"/>
   <path class="fil5 str4" d="M7333 11053l799 0m244 0l806 0"/>
   <line class="fil5 str3" x1="8255" y1="10698" x2="8255" y2= "10929" />
   <line class="fil5 str4" x1="8182" y1="9600" x2="8358" y2= "9600" />
  </g>
 </g>
 <g id="Layer_x0020_1_1_5">
  <metadata id="CorelCorpID_7Corel-Layer"/>
  <rect class="fil4 str2" x="-2908" y="1376" width="965" height="914"/>
  <g id="_706921984">
   <path class="fil8" d="M2860 1870l97 -10c50,-5 86,-32 86,-64 0,-32 -36,-59 -86,-64l-97 -10c1,-1 2,-1 4,-2m-3 150l0 -1m0 0l0 1m2 -150l-2 2 -10 -1m0 0l-124 -12c-72,-7 -145,-11 -218,-11l-772 0c-20,-5 -83,-19 -189,-19 -165,0 -293,100 -299,104l-15 12 15 12c5,4 133,104 299,104 106,0 169,-14 189,-19l772 0c73,0 146,-4 218,-11l133 -13m-1160 -138l0 129c-24,5 -75,13 -153,13 -105,0 -197,-53 -234,-78 37,-25 129,-78 234,-78 78,0 128,8 153,13zm1248 90l-230 23c-69,7 -139,10 -209,10l-747 0 0 -117 747 0c70,0 140,3 209,10l115 11 86 8 29 3c20,2 34,13 34,26 0,13 -15,24 -34,26z"/>
   <polygon class="fil8" points="2895,1766 2879,1829 2832,1834 2850,1762 "/>
   <path class="fil8" d="M2825 1723c1,-3 66,3 66,3l-9 38 -56 -6 0 -35z"/>
  </g>
  <path class="fil8" d="M1724 1718l-270 -8 -166 79 150 101 177 3c0,0 118,-37 123,-24 5,13 796,2 796,2l343 -23 125 -21 1 -52 -93 -28 -324 -32 -860 3z"/>
  <rect class="fil3" x="1755" y="1700" width="63" height="194"/>
  <path class="fil3" d="M5403 2182c-708,-358 -528,-1056 98,-1236 396,-114 913,4 1073,424 162,426 -254,868 -742,864 -122,156 -400,365 -625,359 87,-133 162,-266 197,-411z"/>
 </g>
</svg>
