<?xml version="1.0" encoding="UTF-8"?>
<!DOCTYPE svg PUBLIC "-//W3C//DTD SVG 1.1//EN" "http://www.w3.org/Graphics/SVG/1.1/DTD/svg11.dtd">
<!-- Creator: CorelDRAW X6 -->
<svg xmlns="http://www.w3.org/2000/svg" xml:space="preserve" width="42.3332mm" height="42.3332mm" version="1.1" style="shape-rendering:geometricPrecision; text-rendering:geometricPrecision; image-rendering:optimizeQuality; fill-rule:evenodd; clip-rule:evenodd"
viewBox="0 0 4233 4233"
 xmlns:xlink="http://www.w3.org/1999/xlink">
 <defs>
  <style type="text/css">
   <![CDATA[
    .str0 {stroke:#A4AAAB;stroke-width:16.93}
    .fil3 {fill:#2299CA}
    .fil1 {fill:#B3BBBE}
    .fil0 {fill:white}
    .fil2 {fill:url(#id0)}
   ]]>
  </style>
  <linearGradient id="id0" gradientUnits="userSpaceOnUse" x1="78.41" y1="3249.03" x2="4152" y2="981.7">
   <stop offset="0" style="stop-color:white"/>
   <stop offset="1" style="stop-color:#D4D9DC"/>
  </linearGradient>
 </defs>
 <g id="Layer_x0020_1">
  <metadata id="CorelCorpID_0Corel-Layer"/>
  <path class="fil0" d="M4072 3129l0 -2037c0,-511 -418,-928 -928,-928l-2024 0c0,0 -266,28 -409,143 -144,116 3107,2983 3107,2983l61 308c0,0 168,-166 193,-469z"/>
  <path class="fil1 str0" d="M3113 4069l-2024 0c-511,0 -928,-418 -928,-928l0 -2037c0,0 18,-436 296,-607 295,-182 3326,3226 3326,3226 0,0 -139,346 -670,346z"/>
  <rect class="fil2" x="211" y="211" width="3809" height="3809" rx="905" ry="905"/>
  <rect class="fil3" x="1670" y="2525" width="873" height="68" rx="36" ry="36"/>
  <path class="fil3" d="M1414 2192l-421 -348 1040 -841c63,-41 136,-41 199,0l1013 841 -470 389 0 -452c-23,-77 -50,-122 -145,-145l-1058 0c-81,18 -136,63 -149,149l-9 407z"/>
  <rect class="fil3" x="1676" y="1898" width="873" height="68" rx="36" ry="36"/>
  <path class="fil3" d="M912 1934l0 1230 597 -534c32,-23 77,14 50,50l-556 538c-9,14 23,27 51,29l2129 0c41,-2 54,-16 63,-29l-579 -543c-36,-27 5,-104 59,-59l547 529c36,18 45,0 59,-59l0 -1153 -1054 859c-104,68 -208,59 -299,0l-1068 -859z"/>
  <rect class="fil3" x="1670" y="2100" width="873" height="68" rx="36" ry="36"/>
  <rect class="fil3" x="1670" y="2308" width="873" height="68" rx="36" ry="36"/>
  <path class="fil3" d="M10326 2135c-708,-358 -528,-1056 98,-1236 396,-114 913,4 1073,424 162,426 -254,868 -742,864 -122,156 -400,365 -625,359 87,-133 162,-266 197,-411z"/>
 </g>
</svg>
