<?xml version="1.0" encoding="UTF-8"?>
<!DOCTYPE svg PUBLIC "-//W3C//DTD SVG 1.1//EN" "http://www.w3.org/Graphics/SVG/1.1/DTD/svg11.dtd">
<!-- Creator: CorelDRAW X6 -->
<svg xmlns="http://www.w3.org/2000/svg" xml:space="preserve" width="42.3332mm" height="42.3332mm" version="1.1" style="shape-rendering:geometricPrecision; text-rendering:geometricPrecision; image-rendering:optimizeQuality; fill-rule:evenodd; clip-rule:evenodd"
viewBox="0 0 4233 4233"
 xmlns:xlink="http://www.w3.org/1999/xlink">
 <defs>
  <style type="text/css">
   <![CDATA[
    .str0 {stroke:#A4AAAB;stroke-width:16.93}
    .fil4 {fill:#2299CA}
    .fil3 {fill:#5B6678}
    .fil1 {fill:#B3BBBE}
    .fil0 {fill:white}
    .fil2 {fill:url(#id0)}
   ]]>
  </style>
  <linearGradient id="id0" gradientUnits="userSpaceOnUse" x1="78.41" y1="3249.03" x2="4152" y2="981.7">
   <stop offset="0" style="stop-color:white"/>
   <stop offset="1" style="stop-color:#D4D9DC"/>
  </linearGradient>
 </defs>
 <g id="Layer_x0020_1">
  <metadata id="CorelCorpID_0Corel-Layer"/>
  <path class="fil0" d="M4072 3129l0 -2037c0,-511 -418,-928 -928,-928l-2024 0c0,0 -266,28 -409,143 -144,116 3107,2983 3107,2983l61 308c0,0 168,-166 193,-469z"/>
  <path class="fil1 str0" d="M3113 4069l-2024 0c-511,0 -928,-418 -928,-928l0 -2037c0,0 18,-436 296,-607 295,-182 3326,3226 3326,3226 0,0 -139,346 -670,346z"/>
  <rect class="fil2" x="211" y="211" width="3809" height="3809" rx="905" ry="905"/>
  <rect class="fil3" x="11197" y="2483" width="873" height="68" rx="36" ry="36"/>
  <path class="fil3" d="M10941 2150l-421 -348 1040 -841c63,-41 136,-41 199,0l1013 841 -470 389 0 -452c-23,-77 -50,-122 -145,-145l-1058 0c-81,18 -136,63 -149,149l-9 407z"/>
  <rect class="fil3" x="11203" y="1856" width="873" height="68" rx="36" ry="36"/>
  <path class="fil3" d="M10439 1892l0 1230 597 -534c32,-23 77,14 50,50l-556 538c-9,14 23,27 51,29l2129 0c41,-2 54,-16 63,-29l-579 -543c-36,-27 5,-104 59,-59l547 529c36,18 45,0 59,-59l0 -1153 -1054 859c-104,68 -208,59 -299,0l-1068 -859z"/>
  <rect class="fil3" x="11197" y="2057" width="873" height="68" rx="36" ry="36"/>
  <rect class="fil3" x="11197" y="2265" width="873" height="68" rx="36" ry="36"/>
  <path class="fil0" d="M15545 1796c0,1169 -948,2117 -2117,2117 -1169,0 -2117,-948 -2117,-2117 0,-1169 948,-2117 2117,-2117 1169,0 2117,948 2117,2117zm8467 0c0,1169 -948,2117 -2117,2117 -1169,0 -2117,-948 -2117,-2117 0,-1169 948,-2117 2117,-2117 1169,0 2117,948 2117,2117zm4233 5027c0,1169 -948,2117 -2117,2117 -1169,0 -2117,-948 -2117,-2117 0,-1169 948,-2117 2117,-2117 1169,0 2117,948 2117,2117z"/>
  <g id="excel-b.svg">
   <g>
    <g>
     <path class="fil4" d="M3236 1296l-970 0 0 -224c0,-22 -10,-43 -27,-57 -17,-14 -40,-20 -61,-16l-1194 224c-35,7 -61,37 -61,73l0 1641c0,36 26,67 61,73l1194 224c4,1 9,1 14,1 17,0 34,-6 48,-17 17,-14 27,-35 27,-57l0 -224 970 0c41,0 75,-33 75,-75l0 -1492c0,-41 -33,-75 -75,-75zm-1287 1070c27,31 24,78 -7,105 -14,12 -32,19 -49,19 -21,0 -41,-9 -56,-26l-217 -248 -190 245c-15,19 -37,29 -59,29 -16,0 -32,-5 -46,-16 -33,-25 -38,-72 -13,-105l208 -267 -205 -235c-27,-31 -24,-78 7,-105 31,-27 78,-24 105,7l186 213 221 -284c25,-32 72,-38 105,-13 33,25 38,72 13,105l-239 307 236 270zm1212 422l-895 0 0 -149 224 0c41,0 75,-33 75,-75 0,-41 -33,-75 -75,-75l-224 0 0 -149 224 0c41,0 75,-33 75,-75 0,-41 -33,-75 -75,-75l-224 0 0 -149 224 0c41,0 75,-33 75,-75 0,-41 -33,-75 -75,-75l-224 0 0 -149 224 0c41,0 75,-33 75,-75 0,-41 -33,-75 -75,-75l-224 0 0 -149 895 0 0 1343z"/>
    </g>
   </g>
   <g>
    <g>
     <path class="fil4" d="M2937 1594l-149 0c-41,0 -75,33 -75,75 0,41 33,75 75,75l149 0c41,0 75,-33 75,-75 0,-41 -33,-75 -75,-75z"/>
    </g>
   </g>
   <g>
    <g>
     <path class="fil4" d="M2937 1893l-149 0c-41,0 -75,33 -75,75 0,41 33,75 75,75l149 0c41,0 75,-33 75,-75 0,-41 -33,-75 -75,-75z"/>
    </g>
   </g>
   <g>
    <g>
     <path class="fil4" d="M2937 2191l-149 0c-41,0 -75,33 -75,75 0,41 33,75 75,75l149 0c41,0 75,-33 75,-75 0,-41 -33,-75 -75,-75z"/>
    </g>
   </g>
   <g>
    <g>
     <path class="fil4" d="M2937 2490l-149 0c-41,0 -75,33 -75,75 0,41 33,75 75,75l149 0c41,0 75,-33 75,-75 0,-41 -33,-75 -75,-75z"/>
    </g>
   </g>
   <g>
   </g>
   <g>
   </g>
   <g>
   </g>
   <g>
   </g>
   <g>
   </g>
   <g>
   </g>
   <g>
   </g>
   <g>
   </g>
   <g>
   </g>
   <g>
   </g>
   <g>
   </g>
   <g>
   </g>
   <g>
   </g>
   <g>
   </g>
   <g>
   </g>
  </g>
 </g>
</svg>
