<?xml version="1.0" encoding="UTF-8"?>
<!DOCTYPE svg PUBLIC "-//W3C//DTD SVG 1.1//EN" "http://www.w3.org/Graphics/SVG/1.1/DTD/svg11.dtd">
<!-- Creator: CorelDRAW X6 -->
<svg xmlns="http://www.w3.org/2000/svg" xml:space="preserve" width="42.3332mm" height="42.3332mm" version="1.1" style="shape-rendering:geometricPrecision; text-rendering:geometricPrecision; image-rendering:optimizeQuality; fill-rule:evenodd; clip-rule:evenodd"
viewBox="0 0 4233 4233"
 xmlns:xlink="http://www.w3.org/1999/xlink"
 enable-background="new 0 0 768 1024">
 <defs>
  <style type="text/css">
   <![CDATA[
    .str1 {stroke:#2B2A29;stroke-width:7.62}
    .str0 {stroke:#A4AAAB;stroke-width:16.93}
    .str5 {stroke:#2299CA;stroke-width:33.87}
    .str4 {stroke:#2299CA;stroke-width:135.47}
    .str2 {stroke:#FEFEFE;stroke-width:135.48}
    .str3 {stroke:#FEFEFE;stroke-width:135.48;stroke-linecap:round;stroke-linejoin:round}
    .fil3 {fill:none}
    .fil6 {fill:#2299CA}
    .fil5 {fill:#5B6678}
    .fil4 {fill:#95D84B}
    .fil1 {fill:#B3BBBE}
    .fil0 {fill:white}
    .fil2 {fill:url(#id9)}
   ]]>
  </style>
   <clipPath id="id0">
    <rect x="17820" y="-2288" width="4145" height="4145"/>
   </clipPath>
   <clipPath id="id1">
    <path d="M13999 8619l11566 0 0 -6502 -11566 0 0 6502 0 0z"/>
   </clipPath>
    <clipPath id="id2">
     <path d="M25563 2117l-3810 0 0 1465 3810 0 0 -1465z"/>
    </clipPath>
    <clipPath id="id3">
     <path d="M13999 8619l11566 0 0 -6502 -11566 0 0 6502 0 0z"/>
    </clipPath>
    <clipPath id="id4">
     <path d="M17237 2117l-1473 0 0 656 1473 0 0 -656z"/>
    </clipPath>
    <clipPath id="id5">
     <path d="M13999 8619l11566 0 0 -6502 -11566 0 0 6502 0 0z"/>
    </clipPath>
   <clipPath id="id6">
    <path d="M13644 14199l11566 0 0 -6502 -11566 0 0 6502 0 0z"/>
   </clipPath>
    <clipPath id="id7">
     <path d="M25210 14199l0 -6502 -11565 0 0 6502 11565 0z"/>
    </clipPath>
    <clipPath id="id8">
     <path d="M13644 14199l11566 0 0 -6502 -11566 0 0 6502 0 0z"/>
    </clipPath>
  <linearGradient id="id9" gradientUnits="userSpaceOnUse" x1="78.41" y1="3249.03" x2="4152" y2="981.7">
   <stop offset="0" style="stop-color:white"/>
   <stop offset="1" style="stop-color:#D4D9DC"/>
  </linearGradient>
 </defs>
 <g id="Layer_x0020_1">
  <metadata id="CorelCorpID_0Corel-Layer"/>
  <path class="fil0" d="M4072 3129l0 -2037c0,-511 -418,-928 -928,-928l-2024 0c0,0 -266,28 -409,143 -144,116 3107,2983 3107,2983l61 308c0,0 168,-166 193,-469z"/>
  <path class="fil1 str0" d="M3113 4069l-2024 0c-511,0 -928,-418 -928,-928l0 -2037c0,0 18,-436 296,-607 295,-182 3326,3226 3326,3226 0,0 -139,346 -670,346z"/>
  <rect class="fil2" x="211" y="211" width="3809" height="3809" rx="905" ry="905"/>
  <path class="fil0" d="M18174 3916c0,1169 -948,2117 -2117,2117 -1169,0 -2117,-948 -2117,-2117 0,-1169 948,-2117 2117,-2117 1169,0 2117,948 2117,2117zm8467 0c0,1169 -948,2117 -2117,2117 -1169,0 -2117,-948 -2117,-2117 0,-1169 948,-2117 2117,-2117 1169,0 2117,948 2117,2117zm4233 5027c0,1169 -948,2117 -2117,2117 -1169,0 -2117,-948 -2117,-2117 0,-1169 948,-2117 2117,-2117 1169,0 2117,948 2117,2117z"/>
  <g style="clip-path:url(#id0)">
   <image id="sms.jpg" transform="matrix(1.37912 0 0 1.37912 14900.7 -1062.45)" x="2117" y="-889" width="3006" height="3006" xlink:href="pn_Images\pn_ImgID1.png"/>
  </g>
  <rect class="fil3 str1" x="11409" y="5228" width="593" height="1863"/>
 </g>
 <g id="Layer_x0020_1_0">
  <metadata id="CorelCorpID_1Corel-Layer"/>
  <circle class="fil4 str2" cx="-9330" cy="-881" r="1943"/>
 </g>
 <g id="Layer_x0020_1_1">
  <metadata id="CorelCorpID_2Corel-Layer"/>
 </g>
 <g id="Layer_x0020_1_0_0">
  <metadata id="CorelCorpID_3Corel-Layer"/>
 </g>
 <g id="Layer_x0020_1_1">
  <metadata id="CorelCorpID_4Corel-Layer"/>
  <g style="clip-path:url(#id1)">
   <g id="_710903664">
    <rect class="fil5" x="20978" y="3856" width="873" height="68" rx="36" ry="36"/>
    <path class="fil5" d="M20722 3524l-421 -348 1040 -841c63,-41 136,-41 199,0l1013 841 -470 389 0 -452c-23,-77 -50,-122 -145,-145l-1058 0c-81,18 -136,63 -149,149l-9 407z"/>
    <rect class="fil5" x="20985" y="3230" width="873" height="68" rx="36" ry="36"/>
    <path class="fil5" d="M20220 3266l0 1230 597 -534c32,-23 77,14 50,50l-556 538c-9,14 23,27 51,29l2129 0c41,-2 54,-16 63,-29l-579 -543c-36,-27 5,-104 59,-59l547 529c36,18 45,0 59,-59l0 -1153 -1054 859c-104,68 -208,59 -299,0l-1068 -859z"/>
    <rect class="fil5" x="20978" y="3431" width="873" height="68" rx="36" ry="36"/>
    <rect class="fil5" x="20978" y="3639" width="873" height="68" rx="36" ry="36"/>
   </g>
   <g style="clip-path:url(#id2)">
    <image id="stock-vector-chatbot-icon-bot-sign-design-chat-bot-logo-concept-robot-head-in-speech-bubble-online-support-740191156.jpg" transform="matrix(1 0 0 1 19635.9 1465.33)" x="2117" y="-1863" width="3810" height="3979" xlink:href="pn_Images\pn_ImgID2.png"/>
   </g>
   <g style="clip-path:url(#id3)">
   </g>
   <g style="clip-path:url(#id4)">
    <image id="ftp.jpg" transform="matrix(1 0 0 1 13647.6 656.16)" x="2117" y="745" width="1473" height="1372" xlink:href="pn_Images\pn_ImgID3.png"/>
   </g>
   <g style="clip-path:url(#id5)">
    <circle class="fil4" cx="23692" cy="4985" r="1943"/>
    <g id="_701069104">
     <path class="fil3 str2" d="M18529 5395l527 0c68,0 123,55 123,123l0 858c0,68 -55,123 -123,123l-650 0 -675 0 0 0 -3 0 0 0 -3 0 0 0 -3 0 0 0 -3 0 0 0 -3 0 0 0 -3 0 0 0 -3 -1 0 0 -3 -1 0 0 -3 -1 0 0 -3 -1 0 0 -3 -1 0 0 -3 -1 0 0 -3 -1 0 0 -3 -1 -3 -1 0 0 -3 -1 0 0 -3 -1 0 0 -3 -1 0 0 -3 -1 0 0 -3 -1c-2,-1 -3,-2 -5,-3l0 0 -3 -2 -2 -2 0 0 -2 -2 0 0 -2 -2 0 0 -2 -2 0 0 -2 -2 0 0 -2 -2 0 0 -2 -2 0 0 -2 -2 0 0 -2 -2 -2 -2 0 0 -2 -2 0 0 -2 -2 0 0 -2 -2 0 0 -2 -2 0 0 -2 -2 0 0 -2 -2 0 0 -2 -2 0 0 -2 -2 -2 -3 0 0c-1,-2 -2,-3 -3,-5l-1 -3 0 0 -1 -3 0 0 -1 -3 0 0 -1 -3 0 0 -1 -3 0 0 -1 -3 -1 -3 0 0 -1 -3 0 0 -1 -3 0 0 -1 -3 0 0 -1 -3 0 0 -1 -3 0 0 -1 -3 0 0 -1 -3 0 0 0 -3 0 0 0 -3 0 0 0 -3 0 0 0 -3 0 0 0 -3 0 0 0 -3 0 0 0 -858 0 -262c0,-68 55,-123 123,-123l675 0c68,0 123,55 123,123l0 139 0 0zm-211 0l176 0"/>
     <circle class="fil3 str2" cx="18391" cy="6846" r="122"/>
     <path class="fil3 str3" d="M17470 6848l799 0m244 0l806 0"/>
     <line class="fil3 str2" x1="18392" y1="6493" x2="18392" y2= "6724" />
     <line class="fil3 str3" x1="18319" y1="5395" x2="18495" y2= "5395" />
    </g>
   </g>
  </g>
  <polyline class="fil3" points="13999,8619 25565,8619 25565,2117 13999,2117 13999,8619 "/>
 </g>
 <g id="Layer_x0020_1_2">
  <metadata id="CorelCorpID_5Corel-Layer"/>
  <g id="_739396224">
   <g>
    <path class="fil5" d="M6013 11788c-33,0 -55,2 -67,5l0 212c14,3 31,4 54,4 86,0 139,-44 139,-116 0,-66 -45,-105 -127,-105l1 0z"/>
    <path class="fil5" d="M5652 10825c-91,-91 -239,-91 -330,0l-1036 1036c-91,91 -91,239 0,330l1036 1036c91,91 239,91 330,0l1036 -1036c44,-44 68,-103 68,-165 0,-62 -25,-121 -68,-165l-1036 -1036zm-542 978l-276 0 0 164 258 0 0 132 -258 0 0 288 -162 0 0 -717 437 0 0 133 1 0zm619 3l-196 0 0 581 -162 0 0 -581 -194 0 0 -136 551 0 0 136 1 0zm506 252c-55,51 -138,76 -234,76 -21,0 -40,-1 -55,-4l0 258 -161 0 0 -708c50,-9 120,-15 219,-15 100,0 172,19 220,59 46,35 76,95 76,165 0,71 -22,131 -65,170l0 -1z"/>
    <path class="fil5" d="M6705 10440c-23,-2 -44,-13 -57,-32 -167,-231 -438,-374 -727,-374 -21,0 -42,1 -63,2 -19,1 -37,-4 -52,-16 -175,-134 -388,-207 -611,-207 -399,0 -753,234 -914,587 -11,24 -34,41 -60,44 -441,55 -783,432 -783,888 0,404 269,746 637,857 -22,-51 -34,-106 -34,-164 0,-74 20,-144 56,-206 -181,-88 -306,-273 -306,-488 0,-299 243,-542 543,-542 15,0 30,1 45,2 86,7 164,-49 185,-133 73,-291 333,-494 632,-494 171,0 333,66 456,186 42,41 102,58 159,46 37,-8 74,-11 111,-11 209,0 396,118 488,307 32,67 103,106 176,99 18,-2 37,-3 54,-3 299,0 543,243 543,542 0,214 -125,399 -306,488 36,62 56,132 56,206 0,57 -12,113 -34,164 368,-111 637,-453 637,-857 0,-472 -367,-860 -830,-893l-1 2z"/>
   </g>
  </g>
 </g>
 <g id="Layer_x0020_1_3">
  <metadata id="CorelCorpID_6Corel-Layer"/>
  <g style="clip-path:url(#id6)">
   <g id="_710898512">
   </g>
   <g style="clip-path:url(#id7)">
    <image id="cm_x0020_copy.jpg" transform="matrix(1 0 0 1 11527.8 12082)" x="2117" y="-4386" width="11566" height="6502" xlink:href="pn_Images\pn_ImgID4.png"/>
   </g>
   <g style="clip-path:url(#id8)">
   </g>
  </g>
  <polyline class="fil3" points="13644,14199 25210,14199 25210,7696 13644,7696 13644,14199 "/>
  <g id="_701069104_4">
   <path class="fil3 str2" d="M8392 9600l527 0c68,0 123,55 123,123l0 858c0,68 -55,123 -123,123l-650 0 -675 0 0 0 -3 0 0 0 -3 0 0 0 -3 0 0 0 -3 0 0 0 -3 0 0 0 -3 0 0 0 -3 -1 0 0 -3 -1 0 0 -3 -1 0 0 -3 -1 0 0 -3 -1 0 0 -3 -1 0 0 -3 -1 0 0 -3 -1 -3 -1 0 0 -3 -1 0 0 -3 -1 0 0 -3 -1 0 0 -3 -1 0 0 -3 -1c-2,-1 -3,-2 -5,-3l0 0 -3 -2 -2 -2 0 0 -2 -2 0 0 -2 -2 0 0 -2 -2 0 0 -2 -2 0 0 -2 -2 0 0 -2 -2 0 0 -2 -2 0 0 -2 -2 -2 -2 0 0 -2 -2 0 0 -2 -2 0 0 -2 -2 0 0 -2 -2 0 0 -2 -2 0 0 -2 -2 0 0 -2 -2 0 0 -2 -2 -2 -3 0 0c-1,-2 -2,-3 -3,-5l-1 -3 0 0 -1 -3 0 0 -1 -3 0 0 -1 -3 0 0 -1 -3 0 0 -1 -3 -1 -3 0 0 -1 -3 0 0 -1 -3 0 0 -1 -3 0 0 -1 -3 0 0 -1 -3 0 0 -1 -3 0 0 -1 -3 0 0 0 -3 0 0 0 -3 0 0 0 -3 0 0 0 -3 0 0 0 -3 0 0 0 -3 0 0 0 -858 0 -262c0,-68 55,-123 123,-123l675 0c68,0 123,55 123,123l0 139 0 0zm-211 0l176 0"/>
   <circle class="fil3 str2" cx="8254" cy="11051" r="122"/>
   <path class="fil3 str3" d="M7333 11053l799 0m244 0l806 0"/>
   <line class="fil3 str2" x1="8255" y1="10698" x2="8255" y2= "10929" />
   <line class="fil3 str3" x1="8182" y1="9600" x2="8358" y2= "9600" />
  </g>
 </g>
 <g id="Layer_x0020_1_1_5">
  <metadata id="CorelCorpID_7Corel-Layer"/>
  <circle class="fil5" cx="1595" cy="1620" r="66"/>
  <path class="fil3 str4" d="M2926 2087l-1 766c0,126 -103,229 -229,229l-1299 0c-126,0 -229,-103 -229,-229l0 -1285c0,-126 103,-229 229,-229l1088 2"/>
  <line class="fil3 str4" x1="1168" y1="1928" x2="2527" y2= "1926" />
  <circle class="fil5" cx="1403" cy="1623" r="66"/>
  <path class="fil6 str5" d="M3320 1688c0,-1 0,-1 -1,-2 -5,-10 -11,-18 -19,-23 -55,-37 -88,-138 -98,-300 -8,-120 -81,-218 -175,-248 7,-13 11,-28 11,-45 0,-46 -32,-83 -71,-83 -39,0 -71,37 -71,83 0,16 4,32 11,45 -94,30 -167,128 -175,248 -11,162 -44,263 -98,300 -16,11 -26,33 -30,66 -2,21 -3,65 11,82 4,4 9,7 14,7l216 0c10,69 60,121 121,121 61,0 112,-52 121,-121l216 0c5,0 11,-3 14,-7 14,-17 13,-61 11,-82 -2,-16 -5,-30 -10,-41l0 0zm-352 -653c17,0 30,16 30,36 0,20 -14,36 -30,36 -17,0 -30,-16 -30,-36 0,-20 14,-36 30,-36zm0 857c-39,0 -71,-31 -80,-74l160 0c-9,42 -42,74 -80,74l0 0zm322 -121l-645 0c-1,-8 -1,-19 0,-32 2,-21 7,-32 10,-34 68,-46 106,-156 118,-337 8,-120 93,-213 194,-213 101,0 187,94 194,213 6,87 18,158 36,213 8,17 16,34 19,48 9,18 19,34 31,48 21,24 21,39 40,48 1,4 2,10 2,16 1,13 1,24 0,32l0 -1z"/>
  <ellipse class="fil6" cx="2977" cy="1078" rx="49" ry="54"/>
  <path class="fil6" d="M1170 1910l1361 -47c-179,-114 -72,-306 8,-593l-1219 57 -167 152 16 432z"/>
  <path class="fil6" d="M5488 1936c-708,-358 -528,-1056 98,-1236 396,-114 913,4 1073,424 162,426 -254,868 -742,864 -122,156 -400,365 -625,359 87,-133 162,-266 197,-411z"/>
 </g>
</svg>
