<?xml version="1.0" encoding="UTF-8"?>
<!DOCTYPE svg PUBLIC "-//W3C//DTD SVG 1.1//EN" "http://www.w3.org/Graphics/SVG/1.1/DTD/svg11.dtd">
<!-- Creator: CorelDRAW X6 -->
<svg xmlns="http://www.w3.org/2000/svg" xml:space="preserve" width="42.3332mm" height="42.3332mm" version="1.1" style="shape-rendering:geometricPrecision; text-rendering:geometricPrecision; image-rendering:optimizeQuality; fill-rule:evenodd; clip-rule:evenodd"
viewBox="0 0 4233 4233"
 xmlns:xlink="http://www.w3.org/1999/xlink">
 <defs>
  <style type="text/css">
   <![CDATA[
    .str1 {stroke:#2B2A29;stroke-width:7.62}
    .str0 {stroke:#A4AAAB;stroke-width:16.93}
    .fil4 {fill:#2299CA}
    .fil5 {fill:#51C23B}
    .fil3 {fill:#5B6678}
    .fil1 {fill:#B3BBBE}
    .fil0 {fill:white}
    .fil2 {fill:url(#id0)}
   ]]>
  </style>
  <linearGradient id="id0" gradientUnits="userSpaceOnUse" x1="78.41" y1="3249.03" x2="4152" y2="981.7">
   <stop offset="0" style="stop-color:white"/>
   <stop offset="1" style="stop-color:#D4D9DC"/>
  </linearGradient>
 </defs>
 <g id="Layer_x0020_1">
  <metadata id="CorelCorpID_0Corel-Layer"/>
  <path class="fil0" d="M4072 3129l0 -2037c0,-511 -418,-928 -928,-928l-2024 0c0,0 -266,28 -409,143 -144,116 3107,2983 3107,2983l61 308c0,0 168,-166 193,-469z"/>
  <path class="fil1 str0" d="M3113 4069l-2024 0c-511,0 -928,-418 -928,-928l0 -2037c0,0 18,-436 296,-607 295,-182 3326,3226 3326,3226 0,0 -139,346 -670,346z"/>
  <rect class="fil2" x="211" y="211" width="3809" height="3809" rx="905" ry="905"/>
  <rect class="fil3" x="11197" y="2483" width="873" height="68" rx="36" ry="36"/>
  <path class="fil3" d="M10941 2150l-421 -348 1040 -841c63,-41 136,-41 199,0l1013 841 -470 389 0 -452c-23,-77 -50,-122 -145,-145l-1058 0c-81,18 -136,63 -149,149l-9 407z"/>
  <rect class="fil3" x="11203" y="1856" width="873" height="68" rx="36" ry="36"/>
  <path class="fil3" d="M10439 1892l0 1230 597 -534c32,-23 77,14 50,50l-556 538c-9,14 23,27 51,29l2129 0c41,-2 54,-16 63,-29l-579 -543c-36,-27 5,-104 59,-59l547 529c36,18 45,0 59,-59l0 -1153 -1054 859c-104,68 -208,59 -299,0l-1068 -859z"/>
  <rect class="fil3" x="11197" y="2057" width="873" height="68" rx="36" ry="36"/>
  <rect class="fil3" x="11197" y="2265" width="873" height="68" rx="36" ry="36"/>
  <path class="fil0" d="M15545 1796c0,1169 -948,2117 -2117,2117 -1169,0 -2117,-948 -2117,-2117 0,-1169 948,-2117 2117,-2117 1169,0 2117,948 2117,2117zm8467 0c0,1169 -948,2117 -2117,2117 -1169,0 -2117,-948 -2117,-2117 0,-1169 948,-2117 2117,-2117 1169,0 2117,948 2117,2117zm4233 5027c0,1169 -948,2117 -2117,2117 -1169,0 -2117,-948 -2117,-2117 0,-1169 948,-2117 2117,-2117 1169,0 2117,948 2117,2117z"/>
  <g id="magnifier-tool.svg">
   <g>
    <g>
     <path class="fil4" d="M2591 1880c0,-393 -318,-711 -711,-711 -393,0 -711,318 -711,711 0,393 318,711 711,711 393,0 711,-318 711,-711zm-711 533c-294,0 -533,-239 -533,-533 0,-294 239,-533 533,-533 294,0 533,239 533,533 0,294 -239,533 -533,533z"/>
     <path class="fil4" d="M3013 2761l-435 -435c-65,101 -151,187 -251,251l435 435c69,69 182,69 251,0 69,-69 69,-182 0,-251z"/>
    </g>
   </g>
   <g>
   </g>
   <g>
   </g>
   <g>
   </g>
   <g>
   </g>
   <g>
   </g>
   <g>
   </g>
   <g>
   </g>
   <g>
   </g>
   <g>
   </g>
   <g>
   </g>
   <g>
   </g>
   <g>
   </g>
   <g>
   </g>
   <g>
   </g>
   <g>
   </g>
  </g>
  <rect class="fil5 str1" x="-2908" y="1376" width="965" height="914"/>
  <path class="fil4" d="M5399 1602c-708,-358 -528,-1056 98,-1236 396,-114 913,4 1073,424 162,426 -254,868 -742,864 -122,156 -400,365 -625,359 87,-133 162,-266 197,-411z"/>
 </g>
</svg>
