<?xml version="1.0" encoding="UTF-8"?>
<!DOCTYPE svg PUBLIC "-//W3C//DTD SVG 1.1//EN" "http://www.w3.org/Graphics/SVG/1.1/DTD/svg11.dtd">
<!-- Creator: CorelDRAW X6 -->
<svg xmlns="http://www.w3.org/2000/svg" xml:space="preserve" width="42.3332mm" height="42.3332mm" version="1.1" style="shape-rendering:geometricPrecision; text-rendering:geometricPrecision; image-rendering:optimizeQuality; fill-rule:evenodd; clip-rule:evenodd"
viewBox="0 0 4233 4233"
 xmlns:xlink="http://www.w3.org/1999/xlink"
 enable-background="new 0 0 768 1024">
 <defs>
  <style type="text/css">
   <![CDATA[
    .str0 {stroke:#A4AAAB;stroke-width:16.93}
    .str1 {stroke:#FEFEFE;stroke-width:135.48}
    .fil3 {fill:#5B6678}
    .fil4 {fill:#95D84B}
    .fil1 {fill:#B3BBBE}
    .fil0 {fill:white}
    .fil5 {fill:#2299CA;fill-rule:nonzero}
    .fil2 {fill:url(#id0)}
   ]]>
  </style>
  <linearGradient id="id0" gradientUnits="userSpaceOnUse" x1="78.41" y1="3249.03" x2="4152" y2="981.7">
   <stop offset="0" style="stop-color:white"/>
   <stop offset="1" style="stop-color:#D4D9DC"/>
  </linearGradient>
 </defs>
 <g id="Layer_x0020_1">
  <metadata id="CorelCorpID_0Corel-Layer"/>
  <path class="fil0" d="M4072 3129l0 -2037c0,-511 -418,-928 -928,-928l-2024 0c0,0 -266,28 -409,143 -144,116 3107,2983 3107,2983l61 308c0,0 168,-166 193,-469z"/>
  <path class="fil1 str0" d="M3113 4069l-2024 0c-511,0 -928,-418 -928,-928l0 -2037c0,0 18,-436 296,-607 295,-182 3326,3226 3326,3226 0,0 -139,346 -670,346z"/>
  <rect class="fil2" x="211" y="211" width="3809" height="3809" rx="905" ry="905"/>
  <rect class="fil3" x="11197" y="2483" width="873" height="68" rx="36" ry="36"/>
  <path class="fil3" d="M10941 2150l-421 -348 1040 -841c63,-41 136,-41 199,0l1013 841 -470 389 0 -452c-23,-77 -50,-122 -145,-145l-1058 0c-81,18 -136,63 -149,149l-9 407z"/>
  <rect class="fil3" x="11203" y="1856" width="873" height="68" rx="36" ry="36"/>
  <path class="fil3" d="M10439 1892l0 1230 597 -534c32,-23 77,14 50,50l-556 538c-9,14 23,27 51,29l2129 0c41,-2 54,-16 63,-29l-579 -543c-36,-27 5,-104 59,-59l547 529c36,18 45,0 59,-59l0 -1153 -1054 859c-104,68 -208,59 -299,0l-1068 -859z"/>
  <rect class="fil3" x="11197" y="2057" width="873" height="68" rx="36" ry="36"/>
  <rect class="fil3" x="11197" y="2265" width="873" height="68" rx="36" ry="36"/>
  <path class="fil0" d="M18174 3916c0,1169 -948,2117 -2117,2117 -1169,0 -2117,-948 -2117,-2117 0,-1169 948,-2117 2117,-2117 1169,0 2117,948 2117,2117zm8467 0c0,1169 -948,2117 -2117,2117 -1169,0 -2117,-948 -2117,-2117 0,-1169 948,-2117 2117,-2117 1169,0 2117,948 2117,2117zm4233 5027c0,1169 -948,2117 -2117,2117 -1169,0 -2117,-948 -2117,-2117 0,-1169 948,-2117 2117,-2117 1169,0 2117,948 2117,2117z"/>
 </g>
 <g id="Layer_x0020_1_0">
  <metadata id="CorelCorpID_1Corel-Layer"/>
  <circle class="fil4 str1" cx="-9330" cy="-881" r="1943"/>
 </g>
 <g id="Layer_x0020_1_1">
  <metadata id="CorelCorpID_2Corel-Layer"/>
 </g>
 <g id="Layer_x0020_1_0">
  <metadata id="CorelCorpID_3Corel-Layer"/>
  <circle class="fil4" cx="13911" cy="3611" r="1943"/>
  <g id="_704429072">
   <path class="fil5" d="M2285 1024c-54,-8 -110,-12 -166,-12 -57,0 -112,5 -166,12l0 349c116,61 227,132 331,210l0 -559 1 0z"/>
   <path class="fil5" d="M1075 1759c350,45 669,196 922,418 58,-96 123,-185 197,-268 -268,-228 -594,-391 -954,-459 -70,93 -127,197 -165,310l0 -1z"/>
   <path class="fil5" d="M1017 2060c-1,18 -1,37 -1,57 0,98 14,194 37,285 419,78 755,393 863,801 67,12 133,19 203,19 47,0 94,-3 139,-9 -118,-607 -620,-1078 -1242,-1152l0 0 0 -1z"/>
   <path class="fil5" d="M2225 2400c84,106 156,223 214,347 112,-365 408,-650 779,-746 -12,-113 -41,-220 -84,-321 -393,103 -722,368 -909,720l0 0z"/>
  </g>
 </g>
 <g id="Layer_x0020_1_0_1">
  <metadata id="CorelCorpID_4Corel-Layer"/>
 </g>
</svg>
