<?xml version="1.0" encoding="iso-8859-1"?>
<!-- Generator: Adobe Illustrator 16.0.0, SVG Export Plug-In . SVG Version: 6.00 Build 0)  -->
<!DOCTYPE svg PUBLIC "-//W3C//DTD SVG 1.1//EN" "http://www.w3.org/Graphics/SVG/1.1/DTD/svg11.dtd">
<svg xmlns="http://www.w3.org/2000/svg" xmlns:xlink="http://www.w3.org/1999/xlink" version="1.1" id="Capa_1" x="0px" y="0px" width="512px" height="512px" viewBox="0 0 73.736 73.736" style="enable-background:new 0 0 73.736 73.736;" xml:space="preserve">
<g>
	<g id="_x31_2">
		<g>
			<path d="M62.947,17.131c0.072-0.477-0.072-0.967-0.422-1.318l-7.457-7.46L47.58,0.478C47.289,0.173,46.886,0,46.466,0H18.44     c-0.102,0-0.2,0.011-0.296,0.03c-0.001,0-0.002,0-0.003,0c-0.136,0.027-0.262,0.076-0.382,0.136     c-0.026,0.013-0.051,0.026-0.075,0.041c-0.122,0.069-0.236,0.148-0.334,0.247L11.217,6.59c-0.073,0.073-0.14,0.152-0.197,0.238     c-0.006,0.009-0.01,0.02-0.016,0.029c-0.048,0.075-0.091,0.152-0.125,0.234c-0.011,0.026-0.015,0.054-0.025,0.081     c-0.024,0.067-0.048,0.134-0.063,0.206c-0.019,0.099-0.03,0.201-0.03,0.304v64.52c0,0.141,0.025,0.274,0.061,0.405     c0.009,0.031,0.018,0.06,0.028,0.09c0.043,0.126,0.097,0.248,0.17,0.357c0,0,0,0,0.001,0c0.074,0.112,0.167,0.209,0.268,0.297     c0.022,0.021,0.046,0.039,0.07,0.059c0.107,0.083,0.222,0.156,0.35,0.21h0.001c0.018,0.007,0.036,0.01,0.054,0.017     c0.075,0.028,0.151,0.055,0.231,0.07c0.101,0.02,0.202,0.029,0.303,0.029h42.999c0.849,0,1.534-0.688,1.534-1.535v-4.608h4.607     c0.85,0,1.536-0.688,1.536-1.536V17.282C62.975,17.23,62.951,17.183,62.947,17.131z M47.617,5.245l5.238,5.24l4.639,4.877h-9.877     V5.245z M13.832,8.317l3.071-3.072V65.42l-3.071,3.072V8.317z M53.76,70.665H16.004l3.071-3.072H53.76V70.665z M59.904,64.52     H19.976V3.072h24.57v13.826c0,0.85,0.688,1.536,1.535,1.536h13.822V64.52L59.904,64.52z M30.725,29.188     c0,0.85,0.688,1.536,1.536,1.536h18.428c0.85,0,1.536-0.687,1.536-1.536s-0.687-1.536-1.536-1.536H32.261     C31.412,27.651,30.725,28.339,30.725,29.188z M50.689,33.797H32.261c-0.849,0-1.536,0.687-1.536,1.536s0.688,1.536,1.536,1.536     h18.428c0.85,0,1.536-0.688,1.536-1.536C52.225,34.483,51.539,33.797,50.689,33.797z M50.689,39.941H32.261     c-0.849,0-1.536,0.687-1.536,1.535c0,0.85,0.688,1.537,1.536,1.537h18.428c0.85,0,1.536-0.688,1.536-1.537     S51.539,39.941,50.689,39.941z" fill="#FFFFFF"/>
		</g>
	</g>
</g>
<g>
</g>
<g>
</g>
<g>
</g>
<g>
</g>
<g>
</g>
<g>
</g>
<g>
</g>
<g>
</g>
<g>
</g>
<g>
</g>
<g>
</g>
<g>
</g>
<g>
</g>
<g>
</g>
<g>
</g>
</svg>
