<?xml version="1.0" encoding="UTF-8"?>
<!DOCTYPE svg PUBLIC "-//W3C//DTD SVG 1.1//EN" "http://www.w3.org/Graphics/SVG/1.1/DTD/svg11.dtd">
<!-- Creator: CorelDRAW X6 -->
<svg xmlns="http://www.w3.org/2000/svg" xml:space="preserve" width="207mm" height="150mm" version="1.1" style="shape-rendering:geometricPrecision; text-rendering:geometricPrecision; image-rendering:optimizeQuality; fill-rule:evenodd; clip-rule:evenodd"
viewBox="0 0 20700 15000"
 xmlns:xlink="http://www.w3.org/1999/xlink">
 <defs>
  <style type="text/css">
   <![CDATA[
    .fil0 {fill:#a2acb3}
   ]]>
  </style>
 </defs>
 <g id="Layer_x0020_1">
  <metadata id="CorelCorpID_0Corel-Layer"/>
  <g id="_674338688">
   <g>
    <path class="fil0" d="M12519 13580l-599 -3508c-65,-378 -333,-682 -700,-792l-1616 -488c-33,-395 -195,-768 -465,-1063 -216,-236 -487,-408 -786,-503 51,-57 99,-113 142,-169 384,-489 590,-1027 643,-1395l125 0c324,0 588,-264 588,-588l0 -302c0,-216 -122,-413 -305,-514l0 -725c0,-110 -89,-198 -198,-198 -110,0 -198,89 -198,198l0 814c-77,13 -169,37 -264,76 -10,4 -19,8 -28,12 -21,10 -43,20 -64,31l0 -1599c0,-442 -359,-801 -801,-801l-548 0c-189,0 -373,66 -520,185l-54 44c-99,81 -223,125 -351,125 -128,0 -252,-44 -351,-125l-54 -44c-146,-120 -331,-185 -520,-185l-548 0c-442,0 -801,359 -801,801l0 1599c-21,-12 -43,-22 -64,-31 -9,-5 -18,-9 -28,-12 -94,-40 -187,-63 -264,-76l0 -2058c0,-642 523,-1165 1165,-1165l2926 0c642,0 1165,523 1165,1165l0 312c0,110 89,198 198,198 110,0 198,-89 198,-198l0 -312c0,-861 -701,-1562 -1562,-1562l-2926 0c-861,0 -1562,701 -1562,1562l0 1969c-183,102 -305,298 -305,514l0 302c0,324 264,588 588,588l125 0c52,368 258,906 643,1395 43,55 91,112 142,169 -687,218 -1189,836 -1251,1566l-1616 488c-367,111 -635,414 -700,792l-243 1425c-18,108 54,210 162,229 108,18 210,-54 229,-162l243 -1425c39,-229 201,-412 423,-479l1495 -451 0 392c-343,63 -634,298 -754,625 -32,87 -52,177 -59,269l-144 1855c-11,140 37,279 133,382 95,103 230,162 370,162l247 0c110,0 198,-89 198,-198 0,-110 -89,-198 -198,-198l-247 0c-30,0 -59,-13 -79,-35 -20,-22 -31,-52 -28,-81l144 -1855c4,-56 16,-111 36,-163 84,-227 309,-381 562,-382l33 0c2,0 3,0 5,0 245,0 462,139 554,355 26,61 41,125 46,190l145 1855c2,30 -8,59 -28,81 -20,22 -49,34 -79,34l-247 0c-110,0 -198,89 -198,198 0,110 89,198 198,198l247 0c140,0 275,-59 370,-162 95,-103 143,-242 133,-382l-145 -1855c-8,-109 -34,-214 -77,-314 -131,-308 -410,-523 -739,-581l0 -511 682 -206c62,131 185,413 429,1022 245,614 551,1401 843,2167 2,6 5,13 7,19 195,511 385,1011 547,1443 29,77 103,129 186,129 83,0 157,-51 186,-129 162,-432 351,-932 547,-1443 3,-6 5,-12 7,-19 292,-765 597,-1552 843,-2166 244,-610 367,-892 429,-1023l682 206 0 1172c-472,92 -830,509 -830,1007 0,566 460,1026 1026,1026 566,0 1026,-460 1026,-1026 0,-497 -356,-913 -826,-1007l0 -1053 1495 451c222,67 384,251 423,479l599 3508c10,58 -6,115 -44,160 -38,45 -92,70 -151,70l-10827 0c-59,0 -112,-25 -151,-70 -38,-45 -54,-102 -44,-160l198 -1158c18,-108 -54,-210 -162,-229 -108,-19 -210,54 -229,162l-198 1158c-30,173 18,349 131,483 113,134 278,211 454,211l10827 0c175,0 341,-77 454,-211 113,-134 161,-310 131,-483zm-3368 -8829c106,-26 191,-26 192,-26 34,0 67,-8 97,-23 9,22 14,46 14,70l0 302c0,106 -86,191 -191,191l-111 0 0 -514zm-5261 514l0 0 -111 0c-106,0 -191,-86 -191,-191l0 -302c0,-25 5,-48 14,-70 30,15 63,23 97,23 2,0 86,0 192,26l0 514zm397 222l0 -521c60,18 126,16 187,-10 104,-43 171,-144 171,-257l0 -1831c0,-223 181,-404 404,-404l548 0c98,0 193,34 268,96l54 44c169,138 383,215 602,215 219,0 433,-76 602,-215l54 -44c76,-62 171,-96 268,-96l548 0c223,0 404,181 404,404l0 1831c0,113 67,214 171,257 35,15 71,22 107,22 27,0 54,-4 79,-12l0 521c0,290 -200,852 -571,1324 -123,156 -281,324 -475,471 -6,4 -12,9 -18,13 -301,223 -689,394 -1169,394 -480,0 -868,-171 -1169,-394 -6,-5 -12,-9 -18,-13 -195,-147 -353,-315 -476,-471 -371,-472 -571,-1034 -571,-1324zm3533 3205l-1300 971 -1300 -971c129,-164 201,-374 201,-562l0 -320c306,164 670,275 1099,275 428,0 793,-111 1099,-275l0 320c0,188 72,398 201,562zm-2930 -221c-106,-40 -223,-47 -334,-17 -5,1 -10,2 -14,4l-685 207c116,-570 579,-1024 1170,-1111l0 577c0,124 -56,253 -135,340zm538 1592c0,-1 -1,-2 -1,-3 -10,-25 -20,-51 -30,-75 -2,-5 -4,-9 -5,-13 -10,-24 -19,-48 -29,-72 -1,-2 -1,-3 -2,-5 -29,-74 -58,-145 -85,-213 -2,-5 -4,-10 -6,-15 -8,-19 -16,-39 -23,-58 -3,-7 -6,-14 -8,-21 -7,-18 -15,-37 -22,-54 -2,-5 -4,-11 -6,-16 -13,-32 -26,-64 -39,-95 -3,-8 -7,-17 -10,-25 -5,-12 -10,-24 -15,-35 -5,-13 -10,-25 -15,-38 -2,-5 -4,-10 -6,-14 -2,-4 -3,-7 -4,-11 -23,-56 -45,-108 -65,-157 0,0 0,-1 -1,-1 -11,-26 -22,-52 -32,-76 -5,-13 -11,-25 -16,-37l1118 835 -467 198c-1,0 -2,1 -2,1l-195 83c-11,-28 -22,-55 -33,-83zm473 1215c-39,-102 -79,-204 -118,-306 -62,-160 -121,-312 -177,-456l74 -31 302 352 -81 442zm623 1612c-6,-12 -12,-23 -20,-33 -90,-237 -203,-537 -329,-867l185 -1014 321 0 185 1014c-132,346 -250,658 -342,900zm231 -2311l-470 0 -222 -259 457 -194 457 194 -222 259zm502 392c-40,102 -79,204 -118,306l-81 -442 302 -352 74 31c-57,145 -116,297 -177,456zm760 -1906c-10,23 -20,47 -30,72 -1,3 -3,6 -4,10 -10,25 -21,50 -32,76 -1,2 -1,4 -2,5 -9,23 -19,46 -29,70 -2,4 -4,9 -5,13 -2,5 -5,11 -7,16 -4,11 -9,21 -13,32 -5,13 -11,27 -16,40 -2,4 -4,9 -5,13 -14,34 -28,69 -42,105 -2,6 -5,11 -7,17 -7,18 -14,36 -22,54 -3,7 -6,14 -9,21 -8,19 -15,38 -23,57 -2,5 -4,11 -7,16 -27,67 -55,137 -84,210 -1,2 -2,5 -3,7 -9,24 -19,47 -28,72 -2,5 -4,9 -5,14 -10,25 -20,50 -30,76 0,0 0,1 -1,1 -11,28 -22,55 -33,84l-195 -83c-1,0 -1,-1 -2,-1l-467 -199 1118 -835c-5,12 -11,25 -16,37zm482 -608c0,0 0,0 0,0 0,0 0,0 -1,0 -115,-35 -238,-29 -348,13 -80,-87 -135,-216 -135,-340l0 -578c594,88 1056,537 1170,1112l-686 -207zm1540 2809c0,347 -283,630 -630,630 -347,0 -630,-282 -630,-630 0,-347 283,-630 630,-630 347,0 630,282 630,630z"/>
   </g>
  </g>
  <g id="_674339040">
  </g>
  <g id="_674338336">
  </g>
  <g id="_674338240">
  </g>
  <g id="_677725472">
  </g>
  <g id="_677727808">
  </g>
  <g id="_677727712">
  </g>
  <g id="_677727552">
  </g>
  <g id="_677727424">
  </g>
  <g id="_677727232">
  </g>
  <g id="_677727200">
  </g>
  <g id="_677728064">
  </g>
  <g id="_677727008">
  </g>
  <g id="_677726816">
  </g>
  <g id="_677728704">
  </g>
  <g id="_677726944">
  </g>
  <g id="_677725056">
   <g>
    <path class="fil0" d="M15262 2844l-135 0 0 -135c0,-98 -79,-177 -177,-177 -98,0 -177,79 -177,177l0 135 -135 0c-98,0 -177,79 -177,177 0,98 79,177 177,177l135 0 0 135c0,98 79,177 177,177 98,0 177,-79 177,-177l0 -135 135 0c98,0 177,-79 177,-177 0,-98 -79,-177 -177,-177z"/>
   </g>
  </g>
  <path class="fil0" d="M20131 13593l-517 -3027c-56,-328 -289,-592 -608,-688l-2321 -700c-102,-31 -209,-17 -297,31 -82,-73 -143,-199 -143,-315l0 -579c6,-5 12,-10 18,-15 9,-8 18,-16 28,-25l227 0c316,0 608,-127 824,-357 216,-230 324,-530 304,-845l-63 -995 0 -15c0,-27 -2,-54 -6,-80l-71 -1115c-6,-98 -90,-172 -188,-165 -98,6 -172,90 -165,188l42 660c-46,-13 -95,-20 -145,-20l-10 0c-52,-79 -138,-133 -240,-142 -1836,-165 -2365,-714 -2751,-1114 -80,-83 -212,-90 -391,-19 -312,123 -842,520 -854,1229 0,1 0,2 0,3l0 46c-35,3 -69,9 -102,18l55 -862c29,-459 260,-867 628,-1127l13 35c89,232 315,388 564,388l2019 0c248,0 475,-156 564,-388l3 -8c191,144 345,331 449,549 30,63 94,101 160,101 26,0 52,-6 76,-17 88,-42 125,-148 83,-236 -144,-301 -363,-553 -638,-738l122 -318c46,-121 37,-256 -25,-369 -62,-114 -171,-193 -298,-219l-1015 -206c-325,-66 -655,-66 -981,0l-1015 206c-127,26 -236,106 -298,219 -62,114 -72,248 -25,369l113 294c-499,317 -814,846 -852,1444l-84 1324c-3,24 -6,48 -6,73l0 15 -63 995c-20,315 88,615 304,845 216,230 509,357 824,357l227 0c10,9 19,17 28,25 6,5 12,10 18,15l0 579c0,116 -60,242 -143,315 -88,-48 -194,-62 -297,-31l-1662 501 85 344 1679 -507c15,-5 31,2 39,16 0,0 0,0 0,0l1108 2189c29,58 67,108 113,151 99,94 232,148 374,148 90,0 177,-22 253,-62 98,-52 180,-133 233,-237l1108 -2189c7,-14 23,-21 39,-16l2321 700c190,57 328,214 361,409l517 3027c11,65 -18,112 -36,133 -18,22 -59,58 -125,58l-1096 0 -289 -1693c-16,-96 -108,-161 -204,-145 -96,16 -161,108 -145,204l279 1633 -5698 0 -69 354 7223 0c153,0 297,-67 396,-184 99,-117 140,-270 115,-421zm-6652 -10865c7,-13 24,-36 58,-43l1015 -206c139,-28 280,-42 420,-42 140,0 281,14 420,42l1015 206c0,0 0,0 0,0 34,7 51,30 58,43 7,13 17,40 5,72l-256 668c-37,96 -131,161 -233,161l-2019 0c-103,0 -197,-65 -233,-161l-256 -668c-12,-32 -2,-59 5,-72zm3815 4366c14,216 -60,423 -209,581 -120,128 -276,210 -446,236 195,-241 386,-559 439,-922 73,-4 143,-23 205,-53l10 159zm-4480 581c-148,-158 -223,-364 -209,-581l10 -159c63,31 132,50 205,53 54,363 245,681 439,922 -170,-26 -325,-108 -446,-236zm2328 3844l-22 44c-3,6 -7,12 -11,18 -1,2 -2,4 -3,6 -2,3 -5,6 -7,9 -9,11 -18,21 -28,30 -2,2 -5,3 -7,5 -32,24 -72,38 -115,38 -74,0 -137,-39 -171,-105l-735 -1452 1811 0 -713 1408zm892 -1762l-2169 0 -137 -270c167,-139 279,-367 279,-594l0 -305c232,149 521,264 940,269 1,0 1,0 2,0 1,0 1,0 2,0 419,-5 708,-120 940,-269l0 305c0,227 112,455 279,594l-137 270zm-2 -1727c-327,282 -579,467 -1083,473 -504,-6 -756,-191 -1083,-473 -434,-374 -699,-831 -707,-1222 -2,-96 -81,-173 -177,-173l-135 0c-99,0 -179,-80 -179,-179l0 -395c0,-8 1,-16 2,-24 1,-3 1,-5 1,-8 15,-83 88,-147 176,-147l134 0c98,0 177,-79 177,-177l0 -219c11,-599 520,-879 682,-922 519,529 1156,1011 2902,1172 14,83 87,146 174,146l134 0c88,0 161,63 176,147 0,3 1,5 1,8 1,8 2,16 2,24l0 395c0,99 -80,179 -179,179l-135 0c-96,0 -175,77 -177,173 -8,391 -273,848 -707,1222z"/>
  <g id="_677725824">
  </g>
  <g id="_677725536">
  </g>
  <g id="_677725856">
  </g>
  <g id="_677725920">
  </g>
  <g id="_677726432">
  </g>
  <g id="_677726176">
  </g>
  <g id="_677723968">
  </g>
  <g id="_677723616">
  </g>
  <g id="_677723264">
  </g>
  <g id="_677722976">
  </g>
  <g id="_677722784">
  </g>
  <g id="_677723136">
  </g>
  <g id="_677724352">
  </g>
  <g id="_677724576">
  </g>
  <g id="_677722880">
  </g>
 </g>
</svg>
