<?xml version="1.0" encoding="UTF-8"?>
<!DOCTYPE svg PUBLIC "-//W3C//DTD SVG 1.1//EN" "http://www.w3.org/Graphics/SVG/1.1/DTD/svg11.dtd">
<!-- Creator: CorelDRAW X6 -->
<svg xmlns="http://www.w3.org/2000/svg" xml:space="preserve" width="150mm" height="150mm" version="1.1" style="shape-rendering:geometricPrecision; text-rendering:geometricPrecision; image-rendering:optimizeQuality; fill-rule:evenodd; clip-rule:evenodd"
viewBox="0 0 15000 15000"
 xmlns:xlink="http://www.w3.org/1999/xlink">
 <defs>
  <style type="text/css">
   <![CDATA[
    .fil3 {fill:none}
    .fil4 {fill:#2B2A29}
    .fil0 {fill:black}
    .fil1 {fill:#2B2A29}
    .fil5 {fill:#E31E24}
    .fil2 {fill:black;fill-opacity:0.000000}
   ]]>
  </style>
   <clipPath id="id0">
    <path d="M43471 -13137l14313 0 0 -12806 -14313 0 0 12806z"/>
   </clipPath>
   <clipPath id="id1">
    <path d="M43471 -13137l14313 0 0 -12806 -14313 0 0 12806z"/>
   </clipPath>
    <clipPath id="id2">
     <path d="M57783 -25943l-14312 0 0 12806 14312 0 0 -12806z"/>
    </clipPath>
    <clipPath id="id3">
     <path d="M43471 -13137l14313 0 0 -12806 -14313 0 0 12806z"/>
    </clipPath>
 </defs>
 <g id="Layer_x0020_1">
  <metadata id="CorelCorpID_0Corel-Layer"/>
  <path class="fil0" d="M-9450 -3747l-282 0 0 -282c0,-468 -379,-847 -847,-847l-564 0 0 -3669c-1,-779 -632,-1410 -1411,-1411l-847 0c-567,0 -1079,340 -1298,864 -707,84 -1240,682 -1242,1394l0 564c0,156 126,282 282,282l282 0c0,468 379,847 847,847 468,0 847,-379 847,-847l282 0c156,0 282,-126 282,-282l0 -564c-2,-608 -394,-1146 -972,-1334 158,-225 415,-359 689,-359l847 0c468,0 847,379 847,847l0 3669 -564 0c-468,0 -847,379 -847,847l0 282 -6260 0 -519 -2597c-27,-131 -142,-226 -277,-226l-3387 0c-8,2 -17,3 -25,6 -27,2 -54,8 -80,18 -11,5 -21,10 -31,15 -24,13 -45,30 -64,50 -6,6 -13,8 -18,14 -5,6 -3,8 -6,12 -17,23 -30,49 -38,76 -4,9 -8,19 -11,28 0,3 -2,5 -3,7l-519 2596 -333 0c-468,0 -847,379 -847,847l0 9031c0,468 379,847 847,847 468,0 847,-379 847,-847l0 -5927 13547 0 0 5927c0,468 379,847 847,847 468,0 847,-379 847,-847l0 -9031c0,-468 -379,-847 -847,-847l-1 0zm-5080 -2822c-156,0 -282,-126 -282,-282l564 0c0,156 -126,282 -282,282zm847 -1129l0 282 -1693 0 0 -282c0,-468 379,-847 847,-847 468,0 847,379 847,847l-1 0zm1129 3669c0,-156 126,-282 282,-282l1693 0c156,0 282,126 282,282l0 282 -2258 0 0 -282 1 0zm-7851 -1976l-4680 -1693 4680 1693zm-3438 5644l0 -1129 13547 0 0 1129 -13547 0zm14676 6491c0,156 -126,282 -282,282 -156,0 -282,-126 -282,-282l0 -7902c0,-156 -126,-282 -282,-282l-14111 0c-156,0 -282,126 -282,282l0 7902c0,156 -126,282 -282,282 -156,0 -282,-126 -282,-282l0 -9031c0,-156 126,-282 282,-282l15240 0c156,0 282,126 282,282l0 9031 -1 0z"/>
  <g id="_709475264">
   <circle class="fil1" cx="65546" cy="-1702" r="1244"/>
   <circle class="fil1" cx="72246" cy="-1702" r="1244"/>
   <path class="fil1" d="M66055 -3281c226,-369 628,-595 1061,-595 687,0 1244,557 1244,1244 0,654 -507,1197 -1160,1241 15,-1000 -253,-1438 -1144,-1889l-1 -1z"/>
   <path class="fil1" d="M72775 -3281c226,-369 628,-595 1061,-595 687,0 1244,557 1244,1244 0,654 -507,1197 -1160,1241 15,-1000 -253,-1438 -1144,-1889l-1 -1z"/>
   <path class="fil1" d="M67048 1728c0,0 -450,-1429 -648,-1614 0,0 -605,-711 -1316,0 0,0 -351,232 -165,1303l443 2877c0,0 -60,992 880,1164l1984 0 -972 2302c0,0 -17,1161 1158,489l1382 -3304c0,0 112,-595 -576,-781l-2309 0c0,0 -483,-50 -632,-529l-999 -2464 1184 2090c0,0 185,605 605,605l1677 0c0,0 476,-169 417,-652 0,0 -88,-343 -437,-437l-1290 0 -1257 -2156 870 1105 1 2z"/>
   <path class="fil1" d="M73748 1728c0,0 -450,-1429 -648,-1614 0,0 -605,-711 -1316,0 0,0 -351,232 -165,1303l443 2877c0,0 -60,992 880,1164l1984 0 -972 2302c0,0 -17,1161 1158,489l1382 -3304c0,0 112,-595 -576,-781l-2309 0c0,0 -483,-50 -632,-529l-999 -2464 1184 2090c0,0 185,605 605,605l1677 0c0,0 476,-169 417,-652 0,0 -88,-343 -437,-437l-1290 0 -1257 -2156 870 1105 1 2z"/>
   <path class="fil1" d="M66481 -348l439 507 708 2259c0,0 850,20 1270,20 559,193 466,450 535,450l841 0c0,0 476,-169 417,-652 0,0 -88,-343 -437,-437l-1290 0 -1257 -2156 870 1105c0,0 -450,-1429 -648,-1614 0,0 -115,-356 -812,-300 -19,2 -43,-3 -51,11 -86,158 -147,607 -585,806l0 1zm3630 5269c-197,847 -958,2515 -965,2531 -67,132 546,205 794,-182l1382 -3304c0,0 114,-569 -574,-754 -385,0 -1204,9 -1204,9 47,117 -122,626 -122,626 178,-22 866,315 689,1074z"/>
   <path class="fil1" d="M73241 -348c529,369 1304,2152 1647,2803 0,0 351,-17 771,-17 559,193 466,450 535,450l841 0c0,0 476,-169 417,-652 0,0 -88,-343 -437,-437l-1290 0 -1257 -2156 870 1105c0,0 -450,-1429 -648,-1614 0,0 -115,-356 -812,-300 -19,2 -43,-3 -51,11 -86,158 -147,607 -585,806l-1 1zm3630 5269c-197,847 -958,2515 -965,2531 -67,132 546,205 794,-182l1382 -3304c0,0 114,-569 -574,-754 -385,0 -1204,9 -1204,9 47,117 -122,626 -122,626 178,-22 866,315 689,1074z"/>
   <path class="fil1" d="M64610 1833l556 3942 1786 0c0,0 370,50 360,453 0,0 26,294 -380,397l-2107 0c0,0 -390,-3 -417,-501l-624 -4233c0,0 0,-470 566,-410 0,0 258,73 260,352z"/>
   <path class="fil1" d="M71340 1833l556 3942 1786 0c0,0 370,50 360,453 0,0 26,294 -380,397l-2107 0c0,0 -390,-3 -417,-501l-624 -4233c0,0 0,-470 566,-410 0,0 258,73 260,352z"/>
   <polygon class="fil1" points="74351,2417 74509,2417 74040,1329 "/>
  </g>
  <g style="clip-path:url(#id0)">
   <polygon class="fil2" points="43471,-25943 57784,-25943 57784,-13137 43471,-13137 "/>
  </g>
  <g style="clip-path:url(#id1)">
   <g id="_698245616">
   </g>
   <g style="clip-path:url(#id2)">
    <image id="departments.jpg" transform="matrix(1.33459 0 0 1.33459 33461.4 -23146.8)" x="7500" y="-2096" width="10724" height="9596" xlink:href="error-red_Images\error-red_ImgID1.png"/>
   </g>
   <g style="clip-path:url(#id3)">
   </g>
  </g>
  <polygon class="fil3" points="43471,-13137 57784,-13137 57784,-25943 43471,-25943 "/>
  <g id="_709472384">
   <circle class="fil4" cx="-17522" cy="11155" r="739"/>
   <path class="fil4" d="M-17522 9685c812,0 1470,658 1470,1470 0,812 -658,1470 -1470,1470 -812,0 -1470,-658 -1470,-1470 0,-812 658,-1470 1470,-1470zm0 730c408,0 739,331 739,739 0,408 -331,739 -739,739 -408,0 -739,-331 -739,-739 0,-408 331,-739 739,-739z"/>
   <path class="fil4" d="M-18612 14880l2223 0c216,-1984 -2412,-2065 -2223,0z"/>
   <path class="fil4" d="M-19358 15545l3695 9c57,-1190 44,-2814 -1891,-2884 -2045,157 -1812,2170 -1804,2875zm746 -666l2223 0c216,-1984 -2412,-2065 -2223,0z"/>
  </g>
  <g id="_696117552">
   <circle class="fil4" cx="-17522" cy="11155" r="739"/>
   <path class="fil4" d="M-17522 9685c812,0 1470,658 1470,1470 0,812 -658,1470 -1470,1470 -812,0 -1470,-658 -1470,-1470 0,-812 658,-1470 1470,-1470zm0 730c408,0 739,331 739,739 0,408 -331,739 -739,739 -408,0 -739,-331 -739,-739 0,-408 331,-739 739,-739z"/>
   <path class="fil4" d="M-18612 14880l2223 0c216,-1984 -2412,-2065 -2223,0z"/>
   <path class="fil4" d="M-19358 15545l3695 9c57,-1190 44,-2814 -1891,-2884 -2045,157 -1812,2170 -1804,2875zm746 -666l2223 0c216,-1984 -2412,-2065 -2223,0z"/>
  </g>
  <g id="_707719904">
   <circle class="fil4" cx="-17522" cy="11155" r="739"/>
   <path class="fil4" d="M-17522 9685c812,0 1470,658 1470,1470 0,812 -658,1470 -1470,1470 -812,0 -1470,-658 -1470,-1470 0,-812 658,-1470 1470,-1470zm0 730c408,0 739,331 739,739 0,408 -331,739 -739,739 -408,0 -739,-331 -739,-739 0,-408 331,-739 739,-739z"/>
   <path class="fil4" d="M-18612 14880l2223 0c216,-1984 -2412,-2065 -2223,0z"/>
   <path class="fil4" d="M-19358 15545l3695 9c57,-1190 44,-2814 -1891,-2884 -2045,157 -1812,2170 -1804,2875zm746 -666l2223 0c216,-1984 -2412,-2065 -2223,0z"/>
  </g>
  <g id="_709237232">
   <circle class="fil4" cx="-17522" cy="11155" r="739"/>
   <path class="fil4" d="M-17522 9685c812,0 1470,658 1470,1470 0,812 -658,1470 -1470,1470 -812,0 -1470,-658 -1470,-1470 0,-812 658,-1470 1470,-1470zm0 730c408,0 739,331 739,739 0,408 -331,739 -739,739 -408,0 -739,-331 -739,-739 0,-408 331,-739 739,-739z"/>
   <path class="fil4" d="M-18612 14880l2223 0c216,-1984 -2412,-2065 -2223,0z"/>
   <path class="fil4" d="M-19358 15545l3695 9c57,-1190 44,-2814 -1891,-2884 -2045,157 -1812,2170 -1804,2875zm746 -666l2223 0c216,-1984 -2412,-2065 -2223,0z"/>
  </g>
  <path class="fil4" d="M-22329 6703l3898 3c-160,186 -257,428 -257,693 0,6 0,12 0,17l-2917 -2 0 2319c-237,-80 -554,-78 -724,-10l0 -3020zm5506 4l4133 3 -1 3027c-240,-87 -519,-35 -724,-18l1 -2300 -3153 -2c0,-6 0,-13 0,-19 0,-264 -97,-506 -256,-692l0 1zm4131 8806l-1 3018 -9637 7 0 -2994 724 0 0 2283 8189 -6 1 -2277 718 0 5 -31 1 0z"/>
  <g id="error.svg">
   <g>
    <g>
     <path class="fil5" d="M11251 1861c-1424,-946 -3133,-1318 -4819,-1047 -29,1 -59,3 -88,8 -1782,309 -3337,1294 -4379,2772 -1041,1479 -1445,3275 -1136,5057 51,294 123,590 213,878 373,1212 281,2510 -258,3656 -94,199 -63,435 78,603 142,169 366,239 581,181l2530 -691c1071,656 2280,995 3515,995 449,0 901,-45 1350,-135 1774,-357 3302,-1383 4303,-2889 2067,-3109 1219,-7321 -1890,-9389l0 1zm950 8764c-835,1256 -2108,2110 -3586,2408 -1476,297 -2982,2 -4238,-833 -94,-62 -203,-94 -313,-94 -50,0 -100,7 -149,20l-1722 470c291,-1109 269,-2284 -74,-3401 -76,-243 -137,-491 -179,-736 -257,-1485 79,-2982 947,-4214 853,-1212 2120,-2025 3574,-2296 27,-1 54,-4 81,-8 1427,-247 2877,60 4084,862 2591,1723 3297,5232 1574,7823l1 -1z"/>
    </g>
   </g>
   <g>
    <g>
     <path class="fil5" d="M7502 4059c-312,0 -564,252 -564,564l0 3386c0,312 252,564 564,564 312,0 564,-253 564,-564l0 -3386c0,-312 -252,-564 -564,-564z"/>
    </g>
   </g>
   <g>
    <g>
     <path class="fil5" d="M8021 10108c-28,-73 -68,-135 -119,-186 -28,-23 -56,-51 -90,-68 -28,-23 -62,-39 -96,-51 -34,-17 -68,-28 -107,-34 -180,-40 -378,23 -507,152 -51,51 -90,113 -119,186 -28,68 -45,141 -45,214 0,73 17,147 45,214 28,68 68,130 119,186 56,51 119,90 186,119 68,28 141,45 214,45 73,0 146,-17 214,-45 68,-28 129,-68 186,-119 51,-56 90,-119 119,-186 28,-68 45,-141 45,-214 0,-73 -17,-147 -45,-214l0 1z"/>
    </g>
   </g>
   <g>
   </g>
   <g>
   </g>
   <g>
   </g>
   <g>
   </g>
   <g>
   </g>
   <g>
   </g>
   <g>
   </g>
   <g>
   </g>
   <g>
   </g>
   <g>
   </g>
   <g>
   </g>
   <g>
   </g>
   <g>
   </g>
   <g>
   </g>
   <g>
   </g>
  </g>
 </g>
</svg>
