<?xml version="1.0" encoding="UTF-8" standalone="no"?>
<!-- Created with Inkscape (http://www.inkscape.org/) -->

<svg
   xmlns:dc="http://purl.org/dc/elements/1.1/"
   xmlns:cc="http://creativecommons.org/ns#"
   xmlns:rdf="http://www.w3.org/1999/02/22-rdf-syntax-ns#"
   xmlns:svg="http://www.w3.org/2000/svg"
   xmlns="http://www.w3.org/2000/svg"
   xmlns:sodipodi="http://sodipodi.sourceforge.net/DTD/sodipodi-0.dtd"
   xmlns:inkscape="http://www.inkscape.org/namespaces/inkscape"
   width="130mm"
   height="130mm"
   viewBox="0 0 130 130"
   version="1.1"
   id="svg2619"
   inkscape:version="0.92.4 (5da689c313, 2019-01-14)"
   sodipodi:docname="patient-journey.svg">
  <defs
     id="defs2613" />
  <sodipodi:namedview
     id="base"
     pagecolor="#ffffff"
     bordercolor="#666666"
     borderopacity="1.0"
     inkscape:pageopacity="0.0"
     inkscape:pageshadow="2"
     inkscape:zoom="0.7"
     inkscape:cx="400"
     inkscape:cy="217.14286"
     inkscape:document-units="mm"
     inkscape:current-layer="layer1"
     showgrid="false"
     inkscape:window-width="1366"
     inkscape:window-height="705"
     inkscape:window-x="-8"
     inkscape:window-y="-8"
     inkscape:window-maximized="1" />
  <metadata
     id="metadata2616">
    <rdf:RDF>
      <cc:Work
         rdf:about="">
        <dc:format>image/svg+xml</dc:format>
        <dc:type
           rdf:resource="http://purl.org/dc/dcmitype/StillImage" />
        <dc:title></dc:title>
      </cc:Work>
    </rdf:RDF>
  </metadata>
  <g
     inkscape:label="Layer 1"
     inkscape:groupmode="layer"
     id="layer1"
     transform="translate(0,-167)">
    <g
       id="g1231"
       transform="translate(6.9747429,-0.4516637)">
      <path
         inkscape:transform-center-y="-34.11081"
         inkscape:transform-center-x="-38.296363"
         style="fill:#4c5051;fill-opacity:1;stroke:none;stroke-width:0.81299996;stroke-linecap:butt;stroke-linejoin:miter;stroke-miterlimit:4;stroke-dasharray:none;stroke-opacity:1"
         d="M 51.983237,181.67444 C 28.92824,185.03877 13.010528,198.07905 6.1026909,223.334 4.9690754,225.87242 1.500309,225.48183 2.1039228,221.33408 6.3185913,199.17126 26.093962,179.36839 52.250641,177.11333 l 0.03342,-3.04234 c 0.277283,-4.06795 1.853278,-2.18225 3.491282,-1.26569 l 5.60593,4.08226 c 1.780308,1.50324 2.257359,2.86168 -0.04293,3.91157 l -6.691173,5.68596 c -2.257278,0.77507 -2.334265,-0.58279 -2.588634,-1.76712 z"
         id="path1156"
         inkscape:connector-curvature="0"
         sodipodi:nodetypes="ccccccccccc" />
      <g
         transform="translate(2.9459345e-7,-1.5412862e-6)"
         id="g1222">
        <circle
           style="fill:none;fill-opacity:1;stroke:#4c5051;stroke-width:3.91928911;stroke-linecap:round;stroke-linejoin:miter;stroke-miterlimit:4;stroke-dasharray:none;stroke-opacity:1;paint-order:markers stroke fill"
           id="path1160"
           cx="58.844204"
           cy="218.19592"
           r="15.503096" />
        <path
           style="fill:#4c5051;fill-opacity:1;stroke:none;stroke-width:0.81299996;stroke-linecap:butt;stroke-linejoin:miter;stroke-miterlimit:4;stroke-dasharray:none;stroke-opacity:1"
           d="m 108.88253,227.18246 c -3.61719,-23.01668 -16.831414,-38.7903 -42.160666,-45.4205 -2.55071,-1.10569 -2.198222,-4.57853 1.95591,-4.02048 22.207747,3.97114 42.226486,23.52794 44.768536,49.6583 h 3.04251 c 4.07075,0.23261 2.20247,1.82921 1.30393,3.47717 l -4.02047,5.6504 c -1.48361,1.79671 -2.83673,2.28864 -3.9118,0 l -5.75907,-6.62835 c -0.7998,-2.24863 0.55713,-2.34052 1.7386,-2.60788 z"
           id="path1148"
           inkscape:connector-curvature="0"
           sodipodi:nodetypes="ccccccccccc" />
        <path
           sodipodi:nodetypes="ccccccccccc"
           inkscape:connector-curvature="0"
           id="path1152"
           d="m 62.683391,284.70693 c 23.030131,-3.53053 38.853369,-16.68529 45.578849,-41.98942 1.11528,-2.54653 4.58677,-2.18097 4.01309,1.97103 -4.05469,22.19265 -23.686695,42.13764 -49.826436,44.58134 l -0.01147,3.04248 c -0.247937,4.06986 -1.837487,2.19558 -3.482053,1.29084 l -5.635235,-4.04171 c -1.791115,-1.49037 -2.277948,-2.84532 0.01472,-3.91177 l 6.649988,-5.73409 c 2.251627,-0.79133 2.338411,0.56593 2.601319,1.7484 z"
           style="fill:#4c5051;fill-opacity:1;stroke:none;stroke-width:0.81299996;stroke-linecap:butt;stroke-linejoin:miter;stroke-miterlimit:4;stroke-dasharray:none;stroke-opacity:1"
           inkscape:transform-center-x="39.911212"
           inkscape:transform-center-y="31.115118" />
        <path
           inkscape:transform-center-y="-38.802065"
           inkscape:transform-center-x="32.440796"
           style="fill:#4c5051;fill-opacity:1;stroke:none;stroke-width:0.81299996;stroke-linecap:butt;stroke-linejoin:miter;stroke-miterlimit:4;stroke-dasharray:none;stroke-opacity:1"
           d="m 5.7200352,239.40728 c 4.4093298,22.87814 18.1600288,38.18634 43.7030108,43.93848 2.587341,1.01699 2.354918,4.49994 -1.815996,4.08558 C 25.27548,284.22895 4.5937541,265.37465 1.1514549,239.34758 l -3.0406897,0.10498 c -4.0763644,-0.092 -2.2642955,-1.75211 -1.4231523,-3.4301 l 3.82307667,-5.78578 C 1.9314187,228.38984 3.2667455,227.8515 4.4201605,230.10167 l 5.9843905,6.42568 c 0.87692,2.21968 -0.476027,2.35835 -1.6475665,2.66632 z"
           id="path1154"
           inkscape:connector-curvature="0"
           sodipodi:nodetypes="ccccccccccc" />
        <path
           style="fill:none;fill-opacity:1;stroke:#4c5051;stroke-width:4.28100014;stroke-linecap:butt;stroke-linejoin:miter;stroke-miterlimit:4;stroke-dasharray:none;stroke-opacity:1"
           d="m 49.354241,239.95469 c 6.31536,4.39413 16.98058,0.38418 16.98058,0.38418 l 8.56637,5.08455 c 3.46327,1.85468 6.98849,4.67788 8.52054,8.08496 1.69299,3.89982 -0.25163,6.87648 -5.024,6.58229 l -40.33841,0.0673 c -8.73069,-0.30228 -7.4781,-9.41634 0.38429,-13.51865 z"
           id="path1177"
           inkscape:connector-curvature="0"
           sodipodi:nodetypes="cccccccc" />
      </g>
    </g>
  </g>
</svg>
