<?xml version="1.0" encoding="UTF-8"?>
<!DOCTYPE svg PUBLIC "-//W3C//DTD SVG 1.1//EN" "http://www.w3.org/Graphics/SVG/1.1/DTD/svg11.dtd">
<!-- Creator: CorelDRAW X6 -->
<svg xmlns="http://www.w3.org/2000/svg" xml:space="preserve" width="120mm" height="100mm" version="1.1" style="shape-rendering:geometricPrecision; text-rendering:geometricPrecision; image-rendering:optimizeQuality; fill-rule:evenodd; clip-rule:evenodd"
viewBox="0 0 12000 10000"
 xmlns:xlink="http://www.w3.org/1999/xlink">
 <defs>
  <style type="text/css">
   <![CDATA[
    .str0 {stroke:#EAF8FB;stroke-width:211.67}
    .fil0 {fill:none}
    .fil1 {fill:#EAF8FB}
   ]]>
  </style>
 </defs>
 <g id="Layer_x0020_1">
  <metadata id="CorelCorpID_0Corel-Layer"/>
  <g id="_816247232">
   <polyline class="fil0 str0" points="1392,9819 3801,8644 6532,8874 9009,7687 11717,7929 10669,2053 7938,1868 5506,3021 4688,2940 "/>
   <polyline class="fil0 str0" points="1700,3268 283,3959 1358,9822 "/>
   <path class="fil1" d="M3117 4870c206,-408 2587,-2857 1146,-4276 -626,-547 -1650,-560 -2278,-2 -1101,1054 -88,2598 550,3541 249,368 504,619 583,737zm-12 -4050c535,0 968,433 968,968 0,535 -433,968 -968,968 -535,0 -968,-433 -968,-968 0,-535 433,-968 968,-968z"/>
   <rect class="fil1" transform="matrix(1.03373 0.510366 -0.510366 1.03373 672.474 5651.85)" width="441" height="223"/>
   <polygon class="fil1" points="3790,6458 4230,6249 4332,6480 3888,6704 "/>
   <polygon class="fil1" points="4725,5964 5120,5678 5261,5888 4860,6181 "/>
   <polygon class="fil1" points="5580,5331 6030,4954 6171,5163 5727,5528 "/>
   <polygon class="fil1" points="6541,4486 6907,4137 7060,4338 6699,4674 "/>
   <polygon class="fil0" points="7450,3672 7858,3373 7984,3593 7582,3879 "/>
   <polygon class="fil1" points="7450,3672 7858,3373 7984,3593 7582,3879 "/>
   <polygon class="fil1" points="8614,3201 9134,3281 9066,3525 8621,3470 "/>
   <polygon class="fil1" points="9794,3592 10209,3868 10090,4087 9681,3835 "/>
   <polygon class="fil1" points="10759,4246 11158,4546 11007,4770 10614,4441 "/>
   <polygon class="fil1" points="2753,6502 3208,6552 3211,6822 2706,6752 "/>
   <polygon class="fil1" points="1719,6178 2161,6340 2094,6584 1625,6417 "/>
  </g>
 </g>
</svg>
