<?xml version="1.0" encoding="UTF-8"?>
<!DOCTYPE svg PUBLIC "-//W3C//DTD SVG 1.1//EN" "http://www.w3.org/Graphics/SVG/1.1/DTD/svg11.dtd">
<!-- Creator: CorelDRAW X6 -->
<svg xmlns="http://www.w3.org/2000/svg" xml:space="preserve" width="63.5mm" height="16.9332mm" version="1.1" style="shape-rendering:geometricPrecision; text-rendering:geometricPrecision; image-rendering:optimizeQuality; fill-rule:evenodd; clip-rule:evenodd"
viewBox="0 0 6350 1693"
 xmlns:xlink="http://www.w3.org/1999/xlink">
 <defs>
  <style type="text/css">
   <![CDATA[
    .fil0 {fill:#04ADE6}
    .fil1 {fill:#04ADE6;fill-rule:nonzero}
   ]]>
  </style>
 </defs>
 <g id="Layer_x0020_1">
  <metadata id="CorelCorpID_0Corel-Layer"/>
  <path class="fil0" d="M914 148c386,0 698,313 698,699 0,204 -87,387 -226,515 -5,-6 -12,-14 -22,-22 -155,-152 -348,-354 -403,-379 -26,-17 -97,-9 -57,109l-140 0c-45,-2 -95,-14 -100,-111l0 -237c0,-43 28,-102 102,-102l287 0c74,9 88,52 92,92l0 237c-4,42 8,75 31,100l108 108c53,53 67,-66 89,-154l0 -353c0,-126 -130,-243 -251,-243l-436 0c-129,0 -252,136 -251,265l10 382c3,124 119,234 240,234l341 0 242 106 80 0c-119,95 -271,152 -435,152 -386,0 -699,-313 -699,-698 0,-386 313,-699 699,-699z"/>
  <path class="fil1" d="M2373 657l-229 0c-4,-22 -14,-39 -31,-51 -17,-12 -37,-18 -59,-18 -26,0 -48,7 -65,20 -18,14 -26,34 -26,61 0,0 0,0 0,0 0,0 0,0 0,0 0,1 0,2 0,2 0,0 0,0 0,0 -1,22 7,40 25,52 18,12 36,22 56,29 9,2 19,5 27,7 9,2 17,5 24,7 79,24 149,54 212,93 62,38 93,106 93,204 0,46 -8,88 -25,128 -16,39 -41,75 -74,107 -26,24 -56,44 -91,60 -35,16 -70,28 -107,35 -9,1 -19,2 -28,4 -9,1 -19,2 -28,2 -100,0 -183,-31 -250,-93 -66,-62 -101,-143 -105,-243l240 0c6,32 19,58 41,79 21,21 49,32 83,32 28,0 54,-8 76,-24 22,-16 34,-39 34,-70 0,-29 -11,-52 -33,-68 -22,-16 -46,-29 -73,-38 -11,-5 -21,-9 -31,-11 -10,-3 -20,-6 -29,-10 -8,-2 -16,-5 -23,-7 -7,-2 -14,-5 -21,-7 -13,-5 -25,-9 -37,-14 -12,-5 -24,-10 -35,-16 -9,-5 -19,-10 -29,-17 -10,-6 -20,-15 -31,-24 -32,-27 -56,-58 -71,-92 -16,-34 -24,-72 -24,-113 0,-91 34,-164 101,-219 67,-56 143,-83 229,-83 81,0 154,29 219,87 65,58 97,128 97,211z"/>
  <path class="fil1" d="M2485 1372l0 -977 215 0 0 90 4 0c15,-32 39,-57 72,-75 33,-18 68,-31 104,-38 13,-2 26,-4 40,-5 14,-1 26,-2 38,-2 51,0 99,10 146,31 46,21 85,51 116,91 5,5 9,9 12,14 4,5 7,10 11,16 4,-6 7,-11 11,-17 4,-5 9,-10 13,-13 31,-36 68,-65 113,-85 45,-20 91,-32 138,-35 6,-1 12,-2 18,-2 6,0 12,0 18,0 58,0 112,9 163,27 51,18 96,50 135,94 45,48 73,101 84,158 11,57 17,117 17,181l0 547 -235 0 0 -520c0,-12 0,-25 -1,-39 -1,-14 -1,-28 -3,-42 -2,-19 -6,-37 -11,-56 -5,-18 -12,-34 -21,-49 -13,-20 -31,-36 -55,-49 -24,-12 -48,-20 -74,-24 -2,0 -5,0 -8,0 -3,0 -6,0 -10,0 -33,0 -64,7 -93,21 -29,14 -52,35 -70,64 -12,18 -20,38 -25,60 -5,22 -8,45 -11,67 -1,15 -2,30 -2,44 0,14 0,28 0,42 0,2 0,5 0,8 0,3 0,6 0,8l0 464 -235 0 0 -520c0,-31 -1,-61 -4,-91 -3,-30 -14,-59 -33,-87 -16,-26 -39,-46 -66,-59 -28,-14 -57,-20 -87,-20 -76,0 -126,25 -150,74 -24,49 -36,103 -39,162 -1,13 -2,26 -2,39 0,13 0,26 0,39l0 464 -235 0z"/>
  <path class="fil1" d="M5129 1369l0 -977 213 0 0 88 4 0c26,-40 55,-70 88,-89 33,-19 74,-29 122,-29l18 -2 0 228c-8,1 -16,2 -25,3 -8,1 -16,2 -25,4 -16,4 -33,9 -49,15 -16,6 -31,15 -44,26 -29,24 -48,51 -56,82 -8,31 -11,64 -11,100 0,5 0,9 0,13 0,4 0,9 0,13l0 526 -235 0z"/>
  <path class="fil1" d="M5759 588l-115 0 0 -223 115 0 0 -190 235 0 0 190 141 0 0 223 -141 0 0 484c4,12 -1,37 54,48 12,2 51,2 68,2l0 240 -199 1c-92,0 -123,-16 -148,-75 -23,-57 -10,-595 -10,-698z"/>
  <path class="fil0" d="M4767 1033l0 288c-652,257 -1033,-568 -461,-910 157,-93 381,-55 470,0 174,89 275,275 274,475l0 482 -189 0 -42 0 2 -40 0 -510c-15,-195 -315,-330 -499,-134 -221,289 141,637 446,350z"/>
 </g>
</svg>
