<?xml version="1.0" encoding="utf-8"?>
<!-- Svg Vector Icons : http://www.onlinewebfonts.com/icon -->
<!DOCTYPE svg PUBLIC "-//W3C//DTD SVG 1.1//EN" "http://www.w3.org/Graphics/SVG/1.1/DTD/svg11.dtd">
<svg version="1.1" xmlns="http://www.w3.org/2000/svg" xmlns:xlink="http://www.w3.org/1999/xlink" x="0px" y="0px" viewBox="0 0 1000 1000" enable-background="new 0 0 1000 1000" xml:space="preserve">
<metadata> Svg Vector Icons : http://www.onlinewebfonts.com/icon </metadata>
<g><path d="M327.7,444.6c49.2,46.6,113.6,74.5,172.3,74.5c62.4,0,126.3-27.2,175.3-74.5c24.5-23.7,43.8-50.9,57.5-80.8c14.5-31.8,21.8-65.1,21.8-99.2c0-68-26.5-131.9-74.6-180C631.9,36.5,568,10,500,10c-68,0-131.9,26.5-180,74.5c-48.1,48.1-74.5,112-74.5,180c0,33.9,7.7,67.3,22.9,99.3C282.6,393.6,302.5,420.8,327.7,444.6z M357.6,122.2c38-38,88.6-59,142.4-59c53.8,0,104.3,20.9,142.4,59c38,38,59,88.6,59,142.4c0,26.4-5.7,52.3-17,77.1c-10.9,23.9-26.4,45.6-46,64.6c-19.1,18.5-41.7,33.6-65.5,43.9c-24.1,10.4-48.6,15.7-72.8,15.7c-45.4,0-96.1-22.4-135.7-59.9c-20.1-19-36.7-41.5-47.8-65c-11.8-24.8-17.8-50.5-17.8-76.4C298.7,210.8,319.6,160.2,357.6,122.2z"/><path d="M324.1,519.6c-71.9,33.3-131.7,78.4-178,134.2C109,698.5,80.7,750,61.7,807c-32.3,97-26.2,174.9-25.9,178.1l0.4,4.9H481L329.5,517L324.1,519.6z M89.6,936.8c2.1-28.6,8-70.3,23.6-116.1c17.1-50.1,42.4-95.4,75.1-134.5c30.1-35.9,67-67.1,109.8-92.8l110,343.4H89.6L89.6,936.8z"/><path d="M938.3,807c-19-57-47.4-108.5-84.4-153.2c-46.2-55.8-106.1-101-178-134.2l-5.5-2.5L519,990h444.8l0.4-4.9C964.5,981.9,970.6,903.9,938.3,807z M591.9,936.8l110-343.4c42.8,25.7,79.7,56.9,109.8,92.8c32.8,39.1,58,84.4,75.1,134.5c15.6,45.8,21.5,87.5,23.6,116.1L591.9,936.8L591.9,936.8z"/><path d="M544.5,734c8.1-24.6,11.3-50.6,9.3-76.4l-8.1-103.2c-0.2-2.4-0.9-4.6-2.1-6.6c-0.2-0.4-0.5-0.8-0.8-1.1c-2.4-3.3-6.2-5.5-10.4-5.9c-0.5,0-0.9-0.1-1.4-0.1h-62c-1.9,0-3.8,0.4-5.5,1c-0.6,0.2-1.1,0.5-1.7,0.8c-0.6,0.4-1.3,0.8-1.9,1.2c-0.4,0.3-0.7,0.6-1,0.9c-0.7,0.6-1.3,1.3-1.8,2c-0.5,0.7-1,1.5-1.4,2.3c-0.3,0.5-0.5,1.1-0.7,1.7c-0.4,1.2-0.7,2.4-0.8,3.7l-8.2,104.3c-2,25.1,1,50.4,8.6,74.4L499,871.7l0,0l0,0L544.5,734z"/></g>
</svg>