<?xml version="1.0" encoding="UTF-8"?>
<!DOCTYPE svg PUBLIC "-//W3C//DTD SVG 1.1//EN" "http://www.w3.org/Graphics/SVG/1.1/DTD/svg11.dtd">
<!-- Creator: CorelDRAW X6 -->
<svg xmlns="http://www.w3.org/2000/svg" xml:space="preserve" width="35mm" height="50mm" version="1.1" style="shape-rendering:geometricPrecision; text-rendering:geometricPrecision; image-rendering:optimizeQuality; fill-rule:evenodd; clip-rule:evenodd"
viewBox="0 0 3500 5000"
 xmlns:xlink="http://www.w3.org/1999/xlink">
 <defs>
  <style type="text/css">
   <![CDATA[
    .str0 {stroke:#2B2A29;stroke-width:7.62}
    .str1 {stroke:#FEFEFE;stroke-width:169.33}
    .fil1 {fill:none}
    .fil0 {fill:#2B2A29}
    .fil2 {fill:#FEFEFE}
   ]]>
  </style>
   <clipPath id="id0">
    <rect x="34300" y="-5055" width="17033" height="15240"/>
   </clipPath>
 </defs>
 <g id="Layer_x0020_1">
  <metadata id="CorelCorpID_0Corel-Layer"/>
  <rect class="fil0 str0" x="7355" y="437" width="3500" height="5000"/>
  <path class="fil0" d="M14809 5486c-691,0 -1254,562 -1254,1253 0,691 562,1253 1254,1253 691,0 1253,-562 1253,-1253 0,-691 -562,-1253 -1253,-1253zm0 2063c-447,0 -810,-363 -810,-810 0,-447 363,-810 810,-810 446,0 810,363 810,810 0,447 -363,810 -810,810z"/>
  <path class="fil0" d="M14875 6131c-4,-30 -28,-55 -60,-60 -38,-5 -73,22 -78,60l-79 608c0,1 0,2 0,4 0,4 -1,8 -1,11 0,2 0,4 0,6 0,4 0,9 1,14 0,1 0,3 0,4 10,77 76,132 152,130 5,0 10,-1 15,-1l608 -79c30,-4 56,-28 60,-60 5,-38 -22,-73 -60,-78l-495 -64 -64 -495z"/>
  <circle class="fil0" cx="14809" cy="7296" r="111"/>
  <circle class="fil0" cx="14239" cy="6739" r="111"/>
  <circle class="fil0" cx="12505" cy="6232" r="445"/>
  <path class="fil0" d="M13632 8332l-856 -1222 0 -33c0,-159 -137,-285 -299,-269 -141,14 -243,143 -243,284l0 1505c0,149 121,271 270,271l902 0c222,0 402,179 402,400l0 665c0,141 102,270 243,284 162,16 299,-110 299,-269l0 -817c0,-416 -315,-757 -719,-801zm-856 -467l323 462 -287 0c-20,0 -36,-16 -36,-36l0 -426z"/>
  <path class="fil0" d="M13266 9097l-849 0c-208,0 -378,-170 -378,-378l0 -874c0,-159 -135,-285 -297,-269 -141,14 -241,143 -241,284l0 1006c0,425 343,768 768,768l741 0c36,0 66,30 66,66l0 234c0,141 100,270 241,284 162,16 297,-110 297,-269l0 -506c0,-193 -155,-348 -348,-348z"/>
  <g id="_703501648">
  </g>
  <g id="_703502544">
  </g>
  <g id="_703502384">
  </g>
  <g id="_703499536">
  </g>
  <g id="_703499824">
  </g>
  <g id="_703498896">
  </g>
  <g id="_703498480">
  </g>
  <g id="_703497712">
  </g>
  <g id="_703496400">
  </g>
  <g id="_703495152">
  </g>
  <g id="_703494160">
  </g>
  <g id="_703493648">
  </g>
  <g id="_703493136">
  </g>
  <g id="_703491536">
  </g>
  <g id="_703492400">
  </g>
  <g style="clip-path:url(#id0)">
   <image id="customers-waiting.jpg" transform="matrix(1.58823 0 0 1.58823 31520.1 6214.34)" x="1750" y="-7096" width="10724" height="9596" xlink:href="customer waiting_Images\customer waiting_ImgID1.png"/>
  </g>
  <circle class="fil1 str0" cx="17020" cy="-1656" r="1244"/>
  <circle class="fil1 str0" cx="23720" cy="-1656" r="1244"/>
  <path class="fil1 str0" d="M17529 -3235c226,-369 628,-595 1061,-595 687,0 1244,557 1244,1244 0,654 -507,1197 -1160,1241 15,-1000 -253,-1438 -1144,-1889z"/>
  <path class="fil1 str0" d="M24249 -3235c226,-369 628,-595 1061,-595 687,0 1244,557 1244,1244 0,654 -507,1197 -1160,1241 15,-1000 -253,-1438 -1144,-1889z"/>
  <path class="fil1 str0" d="M18521 1773c0,0 -450,-1429 -648,-1614 0,0 -605,-711 -1316,0 0,0 -351,232 -165,1303l443 2877c0,0 -60,992 880,1164l1984 0 -972 2302c0,0 -17,1161 1158,489l1382 -3304c0,0 112,-595 -576,-781l-2309 0c0,0 -483,-50 -632,-529l-999 -2464 1184 2090c0,0 185,605 605,605l1677 0c0,0 476,-169 417,-652 0,0 -88,-343 -437,-437l-1290 0 -1257 -2156 870 1105z"/>
  <path class="fil1 str0" d="M25221 1773c0,0 -450,-1429 -648,-1614 0,0 -605,-711 -1316,0 0,0 -351,232 -165,1303l443 2877c0,0 -60,992 880,1164l1984 0 -972 2302c0,0 -17,1161 1158,489l1382 -3304c0,0 112,-595 -576,-781l-2309 0c0,0 -483,-50 -632,-529l-999 -2464 1184 2090c0,0 185,605 605,605l1677 0c0,0 476,-169 417,-652 0,0 -88,-343 -437,-437l-1290 0 -1257 -2156 870 1105z"/>
  <path class="fil1 str0" d="M17954 -303l439 507 708 2259c0,0 850,20 1270,20 559,193 466,450 535,450l841 0c0,0 476,-169 417,-652 0,0 -88,-343 -437,-437l-1290 0 -1257 -2156 870 1105c0,0 -450,-1429 -648,-1614 0,0 -115,-356 -812,-300 -19,2 -43,-3 -51,11 -86,158 -147,607 -585,806zm3630 5269c-197,847 -958,2515 -965,2531 -67,132 546,205 794,-182l1382 -3304c0,0 114,-569 -574,-754 -385,0 -1204,9 -1204,9 47,117 -122,626 -122,626 178,-22 866,315 689,1074z"/>
  <path class="fil1 str0" d="M24714 -303c529,369 1304,2152 1647,2803 0,0 351,-17 771,-17 559,193 466,450 535,450l841 0c0,0 476,-169 417,-652 0,0 -88,-343 -437,-437l-1290 0 -1257 -2156 870 1105c0,0 -450,-1429 -648,-1614 0,0 -115,-356 -812,-300 -19,2 -43,-3 -51,11 -86,158 -147,607 -585,806zm3630 5269c-197,847 -958,2515 -965,2531 -67,132 546,205 794,-182l1382 -3304c0,0 114,-569 -574,-754 -385,0 -1204,9 -1204,9 47,117 -122,626 -122,626 178,-22 866,315 689,1074z"/>
  <path class="fil1 str0" d="M16083 1879l556 3942 1786 0c0,0 370,50 360,453 0,0 26,294 -380,397l-2107 0c0,0 -390,-3 -417,-501l-624 -4233c0,0 0,-470 566,-410 0,0 258,73 260,352z"/>
  <path class="fil1 str0" d="M22813 1879l556 3942 1786 0c0,0 370,50 360,453 0,0 26,294 -380,397l-2107 0c0,0 -390,-3 -417,-501l-624 -4233c0,0 0,-470 566,-410 0,0 258,73 260,352z"/>
  <polygon class="fil1 str0" points="25824,2463 25983,2463 25513,1374 "/>
  <circle class="fil1 str0" cx="14809" cy="6739" r="817"/>
  <path class="fil1 str0" d="M8896 -991c681,0 1233,552 1233,1233 0,681 -552,1233 -1233,1233 -681,0 -1233,-552 -1233,-1233 0,-681 552,-1233 1233,-1233zm0 417c451,0 817,366 817,817 0,451 -366,817 -817,817 -451,0 -817,-366 -817,-817 0,-451 366,-817 817,-817z"/>
  <circle class="fil1 str0" cx="8326" cy="243" r="113"/>
  <circle class="fil1 str0" cx="8896" cy="800" r="113"/>
  <path class="fil1 str0" d="M9489 335c142,-18 98,-129 38,-140l-500 -65 -64 -495c-8,-67 -129,-107 -140,21l-77 587c-16,198 184,166 309,151 163,-19 332,-55 434,-59z"/>
  <circle class="fil1 str1" cx="1330" cy="725" r="441"/>
  <path class="fil1 str1" d="M1059 1586l0 1505c0,0 1,271 271,271l902 0c0,0 401,-28 401,401l0 631c0,367 466,445 542,72l0 -133 0 -811c0,0 -88,-615 -718,-698l-856 -1222c0,0 24,-300 -300,-300 0,0 -225,24 -242,283zm542 772l323 462 -281 0c0,0 -42,3 -42,-36l0 -426z"/>
  <path class="fil1 str1" d="M326 2354l0 900c0,413 265,856 768,875l703 0c0,0 132,-23 100,100l0 167c0,452 546,396 546,23l-6 -513c0,0 -15,-269 -315,-315l-861 0c-429,4 -389,-408 -390,-467l-9 -754c-2,-183 -112,-314 -312,-297 0,0 -221,36 -225,282z"/>
  <path class="fil2 str0" d="M12777 7865l323 462 -281 0c0,0 -42,3 -42,-36l0 -426z"/>
 </g>
</svg>
