<?xml version="1.0" encoding="UTF-8"?>
<!DOCTYPE svg PUBLIC "-//W3C//DTD SVG 1.1//EN" "http://www.w3.org/Graphics/SVG/1.1/DTD/svg11.dtd">
<!-- Creator: CorelDRAW X6 -->
<svg xmlns="http://www.w3.org/2000/svg" xml:space="preserve" width="100mm" height="100mm" version="1.1" style="shape-rendering:geometricPrecision; text-rendering:geometricPrecision; image-rendering:optimizeQuality; fill-rule:evenodd; clip-rule:evenodd"
viewBox="0 0 10000 10000"
 xmlns:xlink="http://www.w3.org/1999/xlink">
 <defs>
  <style type="text/css">
   <![CDATA[
    .str2 {stroke:#EAF8FB;stroke-width:211.67}
    .str1 {stroke:#EAF8FB;stroke-width:254}
    .str0 {stroke:#EAF8FB;stroke-width:296.33}
    .fil0 {fill:none}
    .fil1 {fill:#EAF8FB}
   ]]>
  </style>
   <clipPath id="id0">
    <rect x="11549" y="-358" width="9762" height="9763"/>
   </clipPath>
    <clipPath id="id1">
     <rect transform="matrix(2.62654 0 0 2.62654 -1583.86 -3727.27)" x="5000" y="1283" width="3717" height="3717"/>
    </clipPath>
   <clipPath id="id2">
    <rect x="-12542" y="8246" width="9685" height="8677"/>
   </clipPath>
    <clipPath id="id3">
     <rect transform="matrix(0.35297 0 0 0.35297 -14307.3 15158.3)" x="5000" y="-19582" width="27438" height="24582"/>
    </clipPath>
 </defs>
 <g id="Layer_x0020_1">
  <metadata id="CorelCorpID_0Corel-Layer"/>
  <g style="clip-path:url(#id0)">
   <image id="doctor-icon-logo-white-background-template-vector-97395631.jpg" style="clip-path:url(#id1)" transform="matrix(2.62654 0 0 2.62654 -1583.86 -3727.27)" x="3503" y="-155" width="6773" height="6773" xlink:href="doc_Images\doc_ImgID1.png"/>
  </g>
  <g id="_684165552">
   <path class="fil0 str0" d="M731 9568l8537 0 -292 -1835c-186,-1170 -299,-1569 -1587,-2002l-1182 -529c-598,636 -1809,709 -2364,-9l-1332 573c-562,306 -1220,312 -1446,1711l-335 2090z"/>
   <circle class="fil1" cx="7024" cy="7254" r="271"/>
   <line class="fil0 str1" x1="6241" y1="5348" x2="5271" y2= "9568" />
   <line class="fil0 str1" x1="3789" y1="5383" x2="4711" y2= "9533" />
   <polygon class="fil1" points="4596,5802 4813,6274 4566,8421 4839,9568 5165,9568 5412,8470 5223,6287 5419,5806 "/>
   <path class="fil0 str2" d="M6308 5383c498,463 724,1085 706,1504"/>
   <path class="fil0 str2" d="M3785 5335c0,0 -556,357 -807,1027l-29 77c488,14 573,418 646,793 63,324 143,1083 89,1227"/>
   <path class="fil0 str2" d="M2949 6439c-507,46 -484,627 -497,979 -10,283 -23,966 85,1098"/>
   <circle class="fil1" cx="3625" cy="8508" r="170"/>
   <circle class="fil1" cx="2615" cy="8588" r="170"/>
   <path class="fil1" d="M3345 3536c0,0 557,1483 1645,1433 1067,-49 1565,-1433 1565,-1433 0,0 362,9 379,-591 3,-119 -6,-235 -115,-335 0,0 150,-736 -516,-1561 0,0 265,-476 256,-617 0,0 -256,181 -758,256 0,0 -1126,-696 -2180,366 -312,314 -543,788 -509,1565 0,0 -156,97 -114,338 25,141 -4,465 348,580zm2629 -2078c0,0 437,406 423,1305 377,-88 308,356 207,471 -37,42 -98,63 -198,14 0,0 -507,1420 -1438,1451 0,0 -882,40 -1455,-1442 0,0 -256,115 -256,-265 0,0 -79,-278 229,-229 0,0 -4,-573 198,-926 0,0 176,225 304,278 0,0 -21,-228 -6,-314 0,0 860,659 1990,-343z"/>
  </g>
  <g style="clip-path:url(#id2)">
   <image id="map-icon-image-of-a-location-map-icon-vector-19253092.jpg" style="clip-path:url(#id3)" transform="matrix(0.35297 0 0 0.35297 -14307.3 15158.3)" x="1080" y="-25462" width="35278" height="38100" xlink:href="doc_Images\doc_ImgID2.png"/>
  </g>
  <g id="_684142768">
   <polyline class="fil0 str2" points="-28791,12155 -26948,11256 -24858,11432 -22961,10524 -20889,10709 -21691,6211 -23782,6070 -25642,6952 -26269,6890 "/>
   <polyline class="fil0 str2" points="-28555,7141 -29640,7671 -28817,12157 "/>
   <path class="fil1" d="M-27471 8367c158,-313 1980,-2186 877,-3273 -479,-419 -1263,-428 -1744,-2 -843,806 -67,1989 421,2710 190,282 386,474 446,564zm-9 -3100c409,0 741,332 741,741 0,409 -332,741 -741,741 -409,0 -741,-332 -741,-741 0,-409 332,-741 741,-741z"/>
   <rect class="fil1" transform="matrix(0.791195 0.390622 -0.390622 0.791195 -29342 8965.87)" width="441" height="223"/>
   <polygon class="fil1" points="-26956,9583 -26619,9423 -26541,9600 -26881,9771 "/>
   <polygon class="fil1" points="-26240,9204 -25938,8986 -25830,9146 -26137,9371 "/>
   <polygon class="fil1" points="-25586,8721 -25242,8432 -25134,8592 -25474,8871 "/>
   <polygon class="fil1" points="-24850,8074 -24571,7806 -24453,7960 -24729,8218 "/>
   <polygon class="fil0" points="-24155,7450 -23842,7222 -23746,7390 -24054,7609 "/>
   <polygon class="fil1" points="-24155,7450 -23842,7222 -23746,7390 -24054,7609 "/>
   <polygon class="fil1" points="-23264,7090 -22866,7151 -22918,7338 -23259,7296 "/>
   <polygon class="fil1" points="-22361,7389 -22043,7600 -22134,7768 -22447,7576 "/>
   <polygon class="fil1" points="-21622,7890 -21317,8119 -21432,8291 -21733,8039 "/>
   <polygon class="fil1" points="-27750,9616 -27402,9654 -27399,9862 -27786,9808 "/>
   <polygon class="fil1" points="-28541,9369 -28203,9493 -28254,9679 -28613,9552 "/>
  </g>
 </g>
</svg>
