<?xml version="1.0" encoding="UTF-8"?>
<!DOCTYPE svg PUBLIC "-//W3C//DTD SVG 1.1//EN" "http://www.w3.org/Graphics/SVG/1.1/DTD/svg11.dtd">
<!-- Creator: CorelDRAW X6 -->
<svg xmlns="http://www.w3.org/2000/svg" xml:space="preserve" width="160mm" height="160mm" version="1.1" style="shape-rendering:geometricPrecision; text-rendering:geometricPrecision; image-rendering:optimizeQuality; fill-rule:evenodd; clip-rule:evenodd"
viewBox="0 0 16000 16000"
 xmlns:xlink="http://www.w3.org/1999/xlink">
 <defs>
  <style type="text/css">
   <![CDATA[
    .fil0 {fill:#ffffff}
   ]]>
  </style>
 </defs>
 <g id="Layer_x0020_1">
  <metadata id="CorelCorpID_0Corel-Layer"/>
  <g id="_681235216">
   <g>
    <path class="fil0" d="M15367 5774l-243 -243c-144,-144 -363,-174 -545,-75 -154,84 -349,56 -474,-69 -125,-125 -153,-319 -69,-474 99,-182 69,-401 -75,-545l-585 -585c-144,-144 -363,-174 -545,-75 -154,84 -349,56 -474,-69 -125,-125 -153,-319 -69,-474 99,-182 69,-401 -75,-545l-585 -585c-144,-144 -363,-174 -545,-75 -154,84 -349,56 -474,-69 -125,-125 -153,-319 -69,-474 99,-182 69,-401 -75,-545l-243 -243c-177,-177 -466,-177 -644,0l-8949 8949c-177,177 -177,466 0,644l244 244c143,143 361,173 543,76 154,-83 348,-54 472,70 124,124 152,318 70,472 -97,182 -67,400 76,543l587 587c143,143 361,173 543,76 154,-83 348,-54 472,70 124,124 152,318 70,472 -97,182 -67,400 76,543l587 587c143,143 361,173 543,76 154,-83 348,-54 472,70 124,124 152,318 70,472 -97,182 -67,400 76,543l244 244c89,89 205,133 322,133 117,0 233,-44 322,-133l8949 -8949c177,-177 177,-466 0,-644zm-310 334l-1322 1322 -398 -398c-85,-85 -224,-85 -310,0 -85,85 -85,224 0,310l398 398 -7318 7318c-7,7 -18,7 -24,0l-244 -244c-6,-6 -4,-18 0,-26 173,-323 113,-729 -146,-988 -160,-160 -377,-244 -595,-244 -135,0 -270,32 -393,98 -8,4 -20,6 -26,0l-587 -587c-6,-6 -4,-18 0,-26 176,-328 117,-725 -146,-988 -263,-263 -660,-322 -988,-146 -8,4 -20,6 -26,0l-587 -587c-6,-6 -4,-18 0,-26 173,-323 113,-729 -146,-988 -259,-259 -666,-319 -988,-146 -8,4 -20,6 -26,0l-244 -244c-7,-7 -7,-18 0,-24l7317 -7318 419 419c43,43 99,64 155,64 56,0 112,-21 155,-64 85,-85 85,-224 0,-310l-419 -419 1322 -1322c7,-7 18,-7 24,0l243 243c6,6 4,18 0,26 -176,324 -117,732 144,992 261,261 669,320 992,144 8,-5 20,-7 26,0l585 585c6,6 4,18 0,26 -176,324 -117,732 144,992 261,261 669,320 992,144 8,-5 20,-7 26,0l585 585c6,6 4,18 0,26 -176,324 -117,732 144,992 261,261 669,320 992,144 8,-5 20,-7 26,0l243 243c7,7 7,18 0,24z"/>
   </g>
  </g>
  <g id="_681236144">
   <g>
    <path class="fil0" d="M12077 7727l-1528 -1528c-85,-85 -224,-85 -310,0 -85,85 -85,224 0,310l1420 1420 -5070 5070 -1420 -1420c-85,-85 -224,-85 -310,0 -85,85 -85,224 0,310l1528 1528c54,54 125,83 201,83 76,0 148,-30 201,-83l5287 -5287c111,-111 111,-292 0,-403z"/>
   </g>
  </g>
  <g id="_681234480">
   <g>
    <path class="fil0" d="M9812 5463l-1540 -1540c-111,-111 -292,-111 -403,0l-5287 5287c-54,54 -83,125 -83,201 0,76 30,148 83,201l1540 1540c43,43 99,64 155,64 56,0 112,-21 155,-64 85,-85 85,-224 0,-310l-1431 -1431 5070 -5070 1431 1431c85,85 224,85 310,0 85,-85 85,-224 0,-310z"/>
   </g>
  </g>
  <g id="_681233264">
   <g>
    <path class="fil0" d="M12602 6297l-469 -469c-85,-85 -224,-85 -310,0 -85,85 -85,224 0,310l469 469c43,43 99,64 155,64 56,0 112,-21 155,-64 85,-85 85,-224 0,-310z"/>
   </g>
  </g>
  <g id="_681231728">
   <g>
    <path class="fil0" d="M11388 5082l-459 -459c-85,-85 -224,-85 -310,0 -85,85 -85,224 0,310l459 459c43,43 99,64 155,64 56,0 112,-21 155,-64 85,-85 85,-224 0,-310z"/>
   </g>
  </g>
  <g id="_681232240">
   <g>
    <path class="fil0" d="M10193 3888l-469 -469c-85,-85 -224,-85 -310,0 -85,85 -85,224 0,310l469 469c43,43 99,64 155,64 56,0 112,-21 155,-64 86,-85 86,-224 0,-310z"/>
   </g>
  </g>
  <g id="_681232080">
  </g>
  <g id="_681230992">
  </g>
  <g id="_681230896">
  </g>
  <g id="_681232368">
  </g>
  <g id="_681230704">
  </g>
  <g id="_681231504">
  </g>
  <g id="_681231216">
  </g>
  <g id="_681232400">
  </g>
  <g id="_681231280">
  </g>
  <g id="_681231248">
  </g>
  <g id="_681231184">
  </g>
  <g id="_681245136">
  </g>
  <g id="_681245072">
  </g>
  <g id="_681246864">
  </g>
  <g id="_681246288">
  </g>
 </g>
</svg>
