<?xml version="1.0" encoding="UTF-8"?>
<!DOCTYPE svg PUBLIC "-//W3C//DTD SVG 1.1//EN" "http://www.w3.org/Graphics/SVG/1.1/DTD/svg11.dtd">
<!-- Creator: CorelDRAW X6 -->
<svg xmlns="http://www.w3.org/2000/svg" xml:space="preserve" width="130mm" height="130mm" version="1.1" style="shape-rendering:geometricPrecision; text-rendering:geometricPrecision; image-rendering:optimizeQuality; fill-rule:evenodd; clip-rule:evenodd"
viewBox="0 0 13000 13000"
 xmlns:xlink="http://www.w3.org/1999/xlink">
 <defs>
  <style type="text/css">
   <![CDATA[
    .str1 {stroke:#2B2A29;stroke-width:7.62}
    .str0 {stroke:#2B2A29;stroke-width:20}
    .fil2 {fill:none}
    .fil1 {fill:#2B2A29}
    .fil4 {fill:#FEFEFE}
    .fil0 {fill:black}
    .fil3 {fill:white}
   ]]>
  </style>
   <clipPath id="id0">
    <rect x="42471" y="-26943" width="14313" height="12806"/>
   </clipPath>
 </defs>
 <g id="Layer_x0020_1">
  <metadata id="CorelCorpID_0Corel-Layer"/>
  <path class="fil0" d="M-10450 -4747l-282 0 0 -282c0,-468 -379,-847 -847,-847l-564 0 0 -3669c-1,-779 -632,-1410 -1411,-1411l-847 0c-567,0 -1079,340 -1298,864 -707,84 -1240,682 -1242,1394l0 564c0,156 126,282 282,282l282 0c0,468 379,847 847,847 468,0 847,-379 847,-847l282 0c156,0 282,-126 282,-282l0 -564c-2,-608 -394,-1146 -972,-1334 158,-225 415,-359 689,-359l847 0c468,0 847,379 847,847l0 3669 -564 0c-468,0 -847,379 -847,847l0 282 -6260 0 -519 -2597c-27,-131 -142,-226 -277,-226l-3387 0c-8,2 -17,3 -25,6 -27,2 -54,8 -80,18 -11,5 -21,10 -31,15 -24,13 -45,30 -64,50 -6,6 -13,8 -18,14 -5,6 -3,8 -6,12 -17,23 -30,49 -38,76 -4,9 -8,19 -11,28 0,3 -2,5 -3,7l-519 2596 -333 0c-468,0 -847,379 -847,847l0 9031c0,468 379,847 847,847 468,0 847,-379 847,-847l0 -5927 13547 0 0 5927c0,468 379,847 847,847 468,0 847,-379 847,-847l0 -9031c0,-468 -379,-847 -847,-847zm-5080 -2822c-156,0 -282,-126 -282,-282l564 0c0,156 -126,282 -282,282zm847 -1129l0 282 -1693 0 0 -282c0,-468 379,-847 847,-847 468,0 847,379 847,847zm1129 3669c0,-156 126,-282 282,-282l1693 0c156,0 282,126 282,282l0 282 -2258 0 0 -282zm-7851 -1976l-4680 -1693 4680 1693zm-3438 5644l0 -1129 13547 0 0 1129 -13547 0zm14676 6491c0,156 -126,282 -282,282 -156,0 -282,-126 -282,-282l0 -7902c0,-156 -126,-282 -282,-282l-14111 0c-156,0 -282,126 -282,282l0 7902c0,156 -126,282 -282,282 -156,0 -282,-126 -282,-282l0 -9031c0,-156 126,-282 282,-282l15240 0c156,0 282,126 282,282l0 9031z"/>
  <g id="_971082464">
   <circle class="fil1" cx="64546" cy="-2702" r="1244"/>
   <circle class="fil1" cx="71246" cy="-2702" r="1244"/>
   <path class="fil1" d="M65055 -4281c226,-369 628,-595 1061,-595 687,0 1244,557 1244,1244 0,654 -507,1197 -1160,1241 15,-1000 -253,-1438 -1144,-1889z"/>
   <path class="fil1" d="M71775 -4281c226,-369 628,-595 1061,-595 687,0 1244,557 1244,1244 0,654 -507,1197 -1160,1241 15,-1000 -253,-1438 -1144,-1889z"/>
   <path class="fil1" d="M66048 728c0,0 -450,-1429 -648,-1614 0,0 -605,-711 -1316,0 0,0 -351,232 -165,1303l443 2877c0,0 -60,992 880,1164l1984 0 -972 2302c0,0 -17,1161 1158,489l1382 -3304c0,0 112,-595 -576,-781l-2309 0c0,0 -483,-50 -632,-529l-999 -2464 1184 2090c0,0 185,605 605,605l1677 0c0,0 476,-169 417,-652 0,0 -88,-343 -437,-437l-1290 0 -1257 -2156 870 1105z"/>
   <path class="fil1" d="M72748 728c0,0 -450,-1429 -648,-1614 0,0 -605,-711 -1316,0 0,0 -351,232 -165,1303l443 2877c0,0 -60,992 880,1164l1984 0 -972 2302c0,0 -17,1161 1158,489l1382 -3304c0,0 112,-595 -576,-781l-2309 0c0,0 -483,-50 -632,-529l-999 -2464 1184 2090c0,0 185,605 605,605l1677 0c0,0 476,-169 417,-652 0,0 -88,-343 -437,-437l-1290 0 -1257 -2156 870 1105z"/>
   <path class="fil1" d="M65481 -1348l439 507 708 2259c0,0 850,20 1270,20 559,193 466,450 535,450l841 0c0,0 476,-169 417,-652 0,0 -88,-343 -437,-437l-1290 0 -1257 -2156 870 1105c0,0 -450,-1429 -648,-1614 0,0 -115,-356 -812,-300 -19,2 -43,-3 -51,11 -86,158 -147,607 -585,806zm3630 5269c-197,847 -958,2515 -965,2531 -67,132 546,205 794,-182l1382 -3304c0,0 114,-569 -574,-754 -385,0 -1204,9 -1204,9 47,117 -122,626 -122,626 178,-22 866,315 689,1074z"/>
   <path class="fil1" d="M72241 -1348c529,369 1304,2152 1647,2803 0,0 351,-17 771,-17 559,193 466,450 535,450l841 0c0,0 476,-169 417,-652 0,0 -88,-343 -437,-437l-1290 0 -1257 -2156 870 1105c0,0 -450,-1429 -648,-1614 0,0 -115,-356 -812,-300 -19,2 -43,-3 -51,11 -86,158 -147,607 -585,806zm3630 5269c-197,847 -958,2515 -965,2531 -67,132 546,205 794,-182l1382 -3304c0,0 114,-569 -574,-754 -385,0 -1204,9 -1204,9 47,117 -122,626 -122,626 178,-22 866,315 689,1074z"/>
   <path class="fil1" d="M63610 833l556 3942 1786 0c0,0 370,50 360,453 0,0 26,294 -380,397l-2107 0c0,0 -390,-3 -417,-501l-624 -4233c0,0 0,-470 566,-410 0,0 258,73 260,352z"/>
   <path class="fil1" d="M70340 833l556 3942 1786 0c0,0 370,50 360,453 0,0 26,294 -380,397l-2107 0c0,0 -390,-3 -417,-501l-624 -4233c0,0 0,-470 566,-410 0,0 258,73 260,352z"/>
   <polygon class="fil1" points="73351,1417 73509,1417 73040,329 "/>
  </g>
  <g id="_971082560">
  </g>
  <g id="_971082208">
  </g>
  <g id="_971081248">
  </g>
  <g id="_971080384">
  </g>
  <g id="_971081280">
  </g>
  <g id="_971078400">
  </g>
  <g id="_971078368">
  </g>
  <g id="_971076608">
  </g>
  <g id="_971076096">
  </g>
  <g id="_971077568">
  </g>
  <g id="_971075808">
  </g>
  <g id="_971073952">
  </g>
  <g id="_971071904">
  </g>
  <g id="_971072576">
  </g>
  <g id="_971073472">
  </g>
  <g style="clip-path:url(#id0)">
   <image id="departments.jpg" transform="matrix(1.33459 0 0 1.33459 33796 -22812.2)" x="6500" y="-3096" width="10724" height="9596" xlink:href="facilities_Images\facilities_ImgID1.png"/>
  </g>
  <g id="_971069632">
   <circle class="fil2 str0" cx="62826" cy="-17903" r="706"/>
   <path class="fil0 str0" d="M62826 -19306c774,0 1402,628 1402,1402 0,774 -628,1402 -1402,1402 -774,0 -1402,-628 -1402,-1402 0,-774 628,-1402 1402,-1402zm0 697c390,0 706,316 706,706 0,390 -316,706 -706,706 -390,0 -706,-316 -706,-706 0,-390 316,-706 706,-706z"/>
   <path class="fil2 str1" d="M61786 -14349l2121 0c206,-1894 -2301,-1970 -2121,0z"/>
   <path class="fil0 str1" d="M61074 -13714l3525 9c55,-1136 42,-2685 -1804,-2752 -1951,149 -1729,2071 -1721,2743zm712 -635l2121 0c206,-1894 -2301,-1970 -2121,0z"/>
  </g>
  <g id="_971065696">
   <circle class="fil2 str0" cx="62826" cy="-17903" r="706"/>
   <path class="fil0 str0" d="M62826 -19306c774,0 1402,628 1402,1402 0,774 -628,1402 -1402,1402 -774,0 -1402,-628 -1402,-1402 0,-774 628,-1402 1402,-1402zm0 697c390,0 706,316 706,706 0,390 -316,706 -706,706 -390,0 -706,-316 -706,-706 0,-390 316,-706 706,-706z"/>
   <path class="fil2 str1" d="M61786 -14349l2121 0c206,-1894 -2301,-1970 -2121,0z"/>
   <path class="fil0 str1" d="M61074 -13714l3525 9c55,-1136 42,-2685 -1804,-2752 -1951,149 -1729,2071 -1721,2743zm712 -635l2121 0c206,-1894 -2301,-1970 -2121,0z"/>
  </g>
  <g id="_971062944">
   <circle class="fil2 str0" cx="62826" cy="-17903" r="706"/>
   <path class="fil0 str0" d="M62826 -19306c774,0 1402,628 1402,1402 0,774 -628,1402 -1402,1402 -774,0 -1402,-628 -1402,-1402 0,-774 628,-1402 1402,-1402zm0 697c390,0 706,316 706,706 0,390 -316,706 -706,706 -390,0 -706,-316 -706,-706 0,-390 316,-706 706,-706z"/>
   <path class="fil2 str1" d="M61786 -14349l2121 0c206,-1894 -2301,-1970 -2121,0z"/>
   <path class="fil0 str1" d="M61074 -13714l3525 9c55,-1136 42,-2685 -1804,-2752 -1951,149 -1729,2071 -1721,2743zm712 -635l2121 0c206,-1894 -2301,-1970 -2121,0z"/>
  </g>
  <g id="_971061568">
   <circle class="fil2 str0" cx="62826" cy="-17903" r="706"/>
   <path class="fil0 str0" d="M62826 -19306c774,0 1402,628 1402,1402 0,774 -628,1402 -1402,1402 -774,0 -1402,-628 -1402,-1402 0,-774 628,-1402 1402,-1402zm0 697c390,0 706,316 706,706 0,390 -316,706 -706,706 -390,0 -706,-316 -706,-706 0,-390 316,-706 706,-706z"/>
   <path class="fil2 str1" d="M61786 -14349l2121 0c206,-1894 -2301,-1970 -2121,0z"/>
   <path class="fil0 str1" d="M61074 -13714l3525 9c55,-1136 42,-2685 -1804,-2752 -1951,149 -1729,2071 -1721,2743zm712 -635l2121 0c206,-1894 -2301,-1970 -2121,0z"/>
  </g>
  <g id="_971056320">
   <circle class="fil2 str0" cx="62826" cy="-17903" r="706"/>
   <path class="fil0 str0" d="M62826 -19306c774,0 1402,628 1402,1402 0,774 -628,1402 -1402,1402 -774,0 -1402,-628 -1402,-1402 0,-774 628,-1402 1402,-1402zm0 697c390,0 706,316 706,706 0,390 -316,706 -706,706 -390,0 -706,-316 -706,-706 0,-390 316,-706 706,-706z"/>
   <path class="fil2 str1" d="M61786 -14349l2121 0c206,-1894 -2301,-1970 -2121,0z"/>
   <path class="fil0 str1" d="M61074 -13714l3525 9c55,-1136 42,-2685 -1804,-2752 -1951,149 -1729,2071 -1721,2743zm712 -635l2121 0c206,-1894 -2301,-1970 -2121,0z"/>
  </g>
  <g id="_971054848">
   <circle class="fil2 str0" cx="62826" cy="-17903" r="706"/>
   <path class="fil0 str0" d="M62826 -19306c774,0 1402,628 1402,1402 0,774 -628,1402 -1402,1402 -774,0 -1402,-628 -1402,-1402 0,-774 628,-1402 1402,-1402zm0 697c390,0 706,316 706,706 0,390 -316,706 -706,706 -390,0 -706,-316 -706,-706 0,-390 316,-706 706,-706z"/>
   <path class="fil2 str1" d="M61786 -14349l2121 0c206,-1894 -2301,-1970 -2121,0z"/>
   <path class="fil0 str1" d="M61074 -13714l3525 9c55,-1136 42,-2685 -1804,-2752 -1951,149 -1729,2071 -1721,2743zm712 -635l2121 0c206,-1894 -2301,-1970 -2121,0z"/>
  </g>
  <g id="_971050144">
   <circle class="fil2 str0" cx="62826" cy="-17903" r="706"/>
   <path class="fil0 str0" d="M62826 -19306c774,0 1402,628 1402,1402 0,774 -628,1402 -1402,1402 -774,0 -1402,-628 -1402,-1402 0,-774 628,-1402 1402,-1402zm0 697c390,0 706,316 706,706 0,390 -316,706 -706,706 -390,0 -706,-316 -706,-706 0,-390 316,-706 706,-706z"/>
   <path class="fil2 str1" d="M61786 -14349l2121 0c206,-1894 -2301,-1970 -2121,0z"/>
   <path class="fil0 str1" d="M61074 -13714l3525 9c55,-1136 42,-2685 -1804,-2752 -1951,149 -1729,2071 -1721,2743zm712 -635l2121 0c206,-1894 -2301,-1970 -2121,0z"/>
  </g>
  <g id="_971048288">
   <circle class="fil2 str0" cx="62826" cy="-17903" r="706"/>
   <path class="fil0 str0" d="M62826 -19306c774,0 1402,628 1402,1402 0,774 -628,1402 -1402,1402 -774,0 -1402,-628 -1402,-1402 0,-774 628,-1402 1402,-1402zm0 697c390,0 706,316 706,706 0,390 -316,706 -706,706 -390,0 -706,-316 -706,-706 0,-390 316,-706 706,-706z"/>
   <path class="fil2 str1" d="M61786 -14349l2121 0c206,-1894 -2301,-1970 -2121,0z"/>
   <path class="fil0 str1" d="M61074 -13714l3525 9c55,-1136 42,-2685 -1804,-2752 -1951,149 -1729,2071 -1721,2743zm712 -635l2121 0c206,-1894 -2301,-1970 -2121,0z"/>
  </g>
  <g id="_971044096">
   <circle class="fil2 str0" cx="62826" cy="-17903" r="706"/>
   <path class="fil0 str0" d="M62826 -19306c774,0 1402,628 1402,1402 0,774 -628,1402 -1402,1402 -774,0 -1402,-628 -1402,-1402 0,-774 628,-1402 1402,-1402zm0 697c390,0 706,316 706,706 0,390 -316,706 -706,706 -390,0 -706,-316 -706,-706 0,-390 316,-706 706,-706z"/>
   <path class="fil2 str1" d="M61786 -14349l2121 0c206,-1894 -2301,-1970 -2121,0z"/>
   <path class="fil0 str1" d="M61074 -13714l3525 9c55,-1136 42,-2685 -1804,-2752 -1951,149 -1729,2071 -1721,2743zm712 -635l2121 0c206,-1894 -2301,-1970 -2121,0z"/>
  </g>
  <g id="_971042912">
   <circle class="fil2 str0" cx="62826" cy="-17903" r="706"/>
   <path class="fil0 str0" d="M62826 -19306c774,0 1402,628 1402,1402 0,774 -628,1402 -1402,1402 -774,0 -1402,-628 -1402,-1402 0,-774 628,-1402 1402,-1402zm0 697c390,0 706,316 706,706 0,390 -316,706 -706,706 -390,0 -706,-316 -706,-706 0,-390 316,-706 706,-706z"/>
   <path class="fil2 str1" d="M61786 -14349l2121 0c206,-1894 -2301,-1970 -2121,0z"/>
   <path class="fil0 str1" d="M61074 -13714l3525 9c55,-1136 42,-2685 -1804,-2752 -1951,149 -1729,2071 -1721,2743zm712 -635l2121 0c206,-1894 -2301,-1970 -2121,0z"/>
  </g>
  <g id="_971039584">
   <circle class="fil2 str0" cx="62826" cy="-17903" r="706"/>
   <path class="fil0 str0" d="M62826 -19306c774,0 1402,628 1402,1402 0,774 -628,1402 -1402,1402 -774,0 -1402,-628 -1402,-1402 0,-774 628,-1402 1402,-1402zm0 697c390,0 706,316 706,706 0,390 -316,706 -706,706 -390,0 -706,-316 -706,-706 0,-390 316,-706 706,-706z"/>
   <path class="fil2 str1" d="M61786 -14349l2121 0c206,-1894 -2301,-1970 -2121,0z"/>
   <path class="fil0 str1" d="M61074 -13714l3525 9c55,-1136 42,-2685 -1804,-2752 -1951,149 -1729,2071 -1721,2743zm712 -635l2121 0c206,-1894 -2301,-1970 -2121,0z"/>
  </g>
  <g id="_971035168">
   <circle class="fil2 str0" cx="62826" cy="-17903" r="706"/>
   <path class="fil0 str0" d="M62826 -19306c774,0 1402,628 1402,1402 0,774 -628,1402 -1402,1402 -774,0 -1402,-628 -1402,-1402 0,-774 628,-1402 1402,-1402zm0 697c390,0 706,316 706,706 0,390 -316,706 -706,706 -390,0 -706,-316 -706,-706 0,-390 316,-706 706,-706z"/>
   <path class="fil2 str1" d="M61786 -14349l2121 0c206,-1894 -2301,-1970 -2121,0z"/>
   <path class="fil0 str1" d="M61074 -13714l3525 9c55,-1136 42,-2685 -1804,-2752 -1951,149 -1729,2071 -1721,2743zm712 -635l2121 0c206,-1894 -2301,-1970 -2121,0z"/>
  </g>
  <g id="_971034208">
   <circle class="fil2 str0" cx="62826" cy="-17903" r="706"/>
   <path class="fil0 str0" d="M62826 -19306c774,0 1402,628 1402,1402 0,774 -628,1402 -1402,1402 -774,0 -1402,-628 -1402,-1402 0,-774 628,-1402 1402,-1402zm0 697c390,0 706,316 706,706 0,390 -316,706 -706,706 -390,0 -706,-316 -706,-706 0,-390 316,-706 706,-706z"/>
   <path class="fil2 str1" d="M61786 -14349l2121 0c206,-1894 -2301,-1970 -2121,0z"/>
   <path class="fil0 str1" d="M61074 -13714l3525 9c55,-1136 42,-2685 -1804,-2752 -1951,149 -1729,2071 -1721,2743zm712 -635l2121 0c206,-1894 -2301,-1970 -2121,0z"/>
  </g>
  <g id="_971030208">
   <circle class="fil2 str0" cx="62826" cy="-17903" r="706"/>
   <path class="fil0 str0" d="M62826 -19306c774,0 1402,628 1402,1402 0,774 -628,1402 -1402,1402 -774,0 -1402,-628 -1402,-1402 0,-774 628,-1402 1402,-1402zm0 697c390,0 706,316 706,706 0,390 -316,706 -706,706 -390,0 -706,-316 -706,-706 0,-390 316,-706 706,-706z"/>
   <path class="fil2 str1" d="M61786 -14349l2121 0c206,-1894 -2301,-1970 -2121,0z"/>
   <path class="fil0 str1" d="M61074 -13714l3525 9c55,-1136 42,-2685 -1804,-2752 -1951,149 -1729,2071 -1721,2743zm712 -635l2121 0c206,-1894 -2301,-1970 -2121,0z"/>
  </g>
  <g id="_971028192">
   <circle class="fil2 str0" cx="62826" cy="-17903" r="706"/>
   <path class="fil0 str0" d="M62826 -19306c774,0 1402,628 1402,1402 0,774 -628,1402 -1402,1402 -774,0 -1402,-628 -1402,-1402 0,-774 628,-1402 1402,-1402zm0 697c390,0 706,316 706,706 0,390 -316,706 -706,706 -390,0 -706,-316 -706,-706 0,-390 316,-706 706,-706z"/>
   <path class="fil2 str1" d="M61786 -14349l2121 0c206,-1894 -2301,-1970 -2121,0z"/>
   <path class="fil0 str1" d="M61074 -13714l3525 9c55,-1136 42,-2685 -1804,-2752 -1951,149 -1729,2071 -1721,2743zm712 -635l2121 0c206,-1894 -2301,-1970 -2121,0z"/>
  </g>
  <g id="_971092832">
   <circle class="fil2 str0" cx="62826" cy="-17903" r="706"/>
   <path class="fil0 str0" d="M62826 -19306c774,0 1402,628 1402,1402 0,774 -628,1402 -1402,1402 -774,0 -1402,-628 -1402,-1402 0,-774 628,-1402 1402,-1402zm0 697c390,0 706,316 706,706 0,390 -316,706 -706,706 -390,0 -706,-316 -706,-706 0,-390 316,-706 706,-706z"/>
   <path class="fil2 str1" d="M61786 -14349l2121 0c206,-1894 -2301,-1970 -2121,0z"/>
   <path class="fil0 str1" d="M61074 -13714l3525 9c55,-1136 42,-2685 -1804,-2752 -1951,149 -1729,2071 -1721,2743zm712 -635l2121 0c206,-1894 -2301,-1970 -2121,0z"/>
  </g>
  <g id="_971090784">
   <circle class="fil2 str0" cx="62826" cy="-17903" r="706"/>
   <path class="fil0 str0" d="M62826 -19306c774,0 1402,628 1402,1402 0,774 -628,1402 -1402,1402 -774,0 -1402,-628 -1402,-1402 0,-774 628,-1402 1402,-1402zm0 697c390,0 706,316 706,706 0,390 -316,706 -706,706 -390,0 -706,-316 -706,-706 0,-390 316,-706 706,-706z"/>
   <path class="fil2 str1" d="M61786 -14349l2121 0c206,-1894 -2301,-1970 -2121,0z"/>
   <path class="fil0 str1" d="M61074 -13714l3525 9c55,-1136 42,-2685 -1804,-2752 -1951,149 -1729,2071 -1721,2743zm712 -635l2121 0c206,-1894 -2301,-1970 -2121,0z"/>
  </g>
  <g id="_709418608">
   <circle class="fil2 str0" cx="62826" cy="-17903" r="706"/>
   <path class="fil0 str0" d="M62826 -19306c774,0 1402,628 1402,1402 0,774 -628,1402 -1402,1402 -774,0 -1402,-628 -1402,-1402 0,-774 628,-1402 1402,-1402zm0 697c390,0 706,316 706,706 0,390 -316,706 -706,706 -390,0 -706,-316 -706,-706 0,-390 316,-706 706,-706z"/>
   <path class="fil2 str1" d="M61786 -14349l2121 0c206,-1894 -2301,-1970 -2121,0z"/>
   <path class="fil0 str1" d="M61074 -13714l3525 9c55,-1136 42,-2685 -1804,-2752 -1951,149 -1729,2071 -1721,2743zm712 -635l2121 0c206,-1894 -2301,-1970 -2121,0z"/>
  </g>
  <g id="_709416528">
   <circle class="fil2 str0" cx="62826" cy="-17903" r="706"/>
   <path class="fil0 str0" d="M62826 -19306c774,0 1402,628 1402,1402 0,774 -628,1402 -1402,1402 -774,0 -1402,-628 -1402,-1402 0,-774 628,-1402 1402,-1402zm0 697c390,0 706,316 706,706 0,390 -316,706 -706,706 -390,0 -706,-316 -706,-706 0,-390 316,-706 706,-706z"/>
   <path class="fil2 str1" d="M61786 -14349l2121 0c206,-1894 -2301,-1970 -2121,0z"/>
   <path class="fil0 str1" d="M61074 -13714l3525 9c55,-1136 42,-2685 -1804,-2752 -1951,149 -1729,2071 -1721,2743zm712 -635l2121 0c206,-1894 -2301,-1970 -2121,0z"/>
  </g>
  <g id="_709411664">
   <circle class="fil2 str0" cx="62826" cy="-17903" r="706"/>
   <path class="fil0 str0" d="M62826 -19306c774,0 1402,628 1402,1402 0,774 -628,1402 -1402,1402 -774,0 -1402,-628 -1402,-1402 0,-774 628,-1402 1402,-1402zm0 697c390,0 706,316 706,706 0,390 -316,706 -706,706 -390,0 -706,-316 -706,-706 0,-390 316,-706 706,-706z"/>
   <path class="fil2 str1" d="M61786 -14349l2121 0c206,-1894 -2301,-1970 -2121,0z"/>
   <path class="fil0 str1" d="M61074 -13714l3525 9c55,-1136 42,-2685 -1804,-2752 -1951,149 -1729,2071 -1721,2743zm712 -635l2121 0c206,-1894 -2301,-1970 -2121,0z"/>
  </g>
  <g id="_709410000">
   <circle class="fil2 str0" cx="62826" cy="-17903" r="706"/>
   <path class="fil0 str0" d="M62826 -19306c774,0 1402,628 1402,1402 0,774 -628,1402 -1402,1402 -774,0 -1402,-628 -1402,-1402 0,-774 628,-1402 1402,-1402zm0 697c390,0 706,316 706,706 0,390 -316,706 -706,706 -390,0 -706,-316 -706,-706 0,-390 316,-706 706,-706z"/>
   <path class="fil2 str1" d="M61786 -14349l2121 0c206,-1894 -2301,-1970 -2121,0z"/>
   <path class="fil0 str1" d="M61074 -13714l3525 9c55,-1136 42,-2685 -1804,-2752 -1951,149 -1729,2071 -1721,2743zm712 -635l2121 0c206,-1894 -2301,-1970 -2121,0z"/>
  </g>
  <g id="_709408336">
   <circle class="fil2 str0" cx="62826" cy="-17903" r="706"/>
   <path class="fil0 str0" d="M62826 -19306c774,0 1402,628 1402,1402 0,774 -628,1402 -1402,1402 -774,0 -1402,-628 -1402,-1402 0,-774 628,-1402 1402,-1402zm0 697c390,0 706,316 706,706 0,390 -316,706 -706,706 -390,0 -706,-316 -706,-706 0,-390 316,-706 706,-706z"/>
   <path class="fil2 str1" d="M61786 -14349l2121 0c206,-1894 -2301,-1970 -2121,0z"/>
   <path class="fil0 str1" d="M61074 -13714l3525 9c55,-1136 42,-2685 -1804,-2752 -1951,149 -1729,2071 -1721,2743zm712 -635l2121 0c206,-1894 -2301,-1970 -2121,0z"/>
  </g>
  <g id="_709404560">
   <circle class="fil2 str0" cx="62826" cy="-17903" r="706"/>
   <path class="fil0 str0" d="M62826 -19306c774,0 1402,628 1402,1402 0,774 -628,1402 -1402,1402 -774,0 -1402,-628 -1402,-1402 0,-774 628,-1402 1402,-1402zm0 697c390,0 706,316 706,706 0,390 -316,706 -706,706 -390,0 -706,-316 -706,-706 0,-390 316,-706 706,-706z"/>
   <path class="fil2 str1" d="M61786 -14349l2121 0c206,-1894 -2301,-1970 -2121,0z"/>
   <path class="fil0 str1" d="M61074 -13714l3525 9c55,-1136 42,-2685 -1804,-2752 -1951,149 -1729,2071 -1721,2743zm712 -635l2121 0c206,-1894 -2301,-1970 -2121,0z"/>
  </g>
  <g id="_709401200">
   <circle class="fil2 str0" cx="62826" cy="-17903" r="706"/>
   <path class="fil0 str0" d="M62826 -19306c774,0 1402,628 1402,1402 0,774 -628,1402 -1402,1402 -774,0 -1402,-628 -1402,-1402 0,-774 628,-1402 1402,-1402zm0 697c390,0 706,316 706,706 0,390 -316,706 -706,706 -390,0 -706,-316 -706,-706 0,-390 316,-706 706,-706z"/>
   <path class="fil2 str1" d="M61786 -14349l2121 0c206,-1894 -2301,-1970 -2121,0z"/>
   <path class="fil0 str1" d="M61074 -13714l3525 9c55,-1136 42,-2685 -1804,-2752 -1951,149 -1729,2071 -1721,2743zm712 -635l2121 0c206,-1894 -2301,-1970 -2121,0z"/>
  </g>
  <g id="_709397616">
   <circle class="fil2 str0" cx="62826" cy="-17903" r="706"/>
   <path class="fil0 str0" d="M62826 -19306c774,0 1402,628 1402,1402 0,774 -628,1402 -1402,1402 -774,0 -1402,-628 -1402,-1402 0,-774 628,-1402 1402,-1402zm0 697c390,0 706,316 706,706 0,390 -316,706 -706,706 -390,0 -706,-316 -706,-706 0,-390 316,-706 706,-706z"/>
   <path class="fil2 str1" d="M61786 -14349l2121 0c206,-1894 -2301,-1970 -2121,0z"/>
   <path class="fil0 str1" d="M61074 -13714l3525 9c55,-1136 42,-2685 -1804,-2752 -1951,149 -1729,2071 -1721,2743zm712 -635l2121 0c206,-1894 -2301,-1970 -2121,0z"/>
  </g>
  <g id="_709396656">
   <circle class="fil2 str0" cx="62826" cy="-17903" r="706"/>
   <path class="fil0 str0" d="M62826 -19306c774,0 1402,628 1402,1402 0,774 -628,1402 -1402,1402 -774,0 -1402,-628 -1402,-1402 0,-774 628,-1402 1402,-1402zm0 697c390,0 706,316 706,706 0,390 -316,706 -706,706 -390,0 -706,-316 -706,-706 0,-390 316,-706 706,-706z"/>
   <path class="fil2 str1" d="M61786 -14349l2121 0c206,-1894 -2301,-1970 -2121,0z"/>
   <path class="fil0 str1" d="M61074 -13714l3525 9c55,-1136 42,-2685 -1804,-2752 -1951,149 -1729,2071 -1721,2743zm712 -635l2121 0c206,-1894 -2301,-1970 -2121,0z"/>
  </g>
  <g id="_709391152">
   <circle class="fil2 str0" cx="62826" cy="-17903" r="706"/>
   <path class="fil0 str0" d="M62826 -19306c774,0 1402,628 1402,1402 0,774 -628,1402 -1402,1402 -774,0 -1402,-628 -1402,-1402 0,-774 628,-1402 1402,-1402zm0 697c390,0 706,316 706,706 0,390 -316,706 -706,706 -390,0 -706,-316 -706,-706 0,-390 316,-706 706,-706z"/>
   <path class="fil2 str1" d="M61786 -14349l2121 0c206,-1894 -2301,-1970 -2121,0z"/>
   <path class="fil0 str1" d="M61074 -13714l3525 9c55,-1136 42,-2685 -1804,-2752 -1951,149 -1729,2071 -1721,2743zm712 -635l2121 0c206,-1894 -2301,-1970 -2121,0z"/>
  </g>
  <g id="_709390416">
   <circle class="fil2 str0" cx="62826" cy="-17903" r="706"/>
   <path class="fil0 str0" d="M62826 -19306c774,0 1402,628 1402,1402 0,774 -628,1402 -1402,1402 -774,0 -1402,-628 -1402,-1402 0,-774 628,-1402 1402,-1402zm0 697c390,0 706,316 706,706 0,390 -316,706 -706,706 -390,0 -706,-316 -706,-706 0,-390 316,-706 706,-706z"/>
   <path class="fil2 str1" d="M61786 -14349l2121 0c206,-1894 -2301,-1970 -2121,0z"/>
   <path class="fil0 str1" d="M61074 -13714l3525 9c55,-1136 42,-2685 -1804,-2752 -1951,149 -1729,2071 -1721,2743zm712 -635l2121 0c206,-1894 -2301,-1970 -2121,0z"/>
  </g>
  <g id="_709388176">
   <circle class="fil2 str0" cx="62826" cy="-17903" r="706"/>
   <path class="fil0 str0" d="M62826 -19306c774,0 1402,628 1402,1402 0,774 -628,1402 -1402,1402 -774,0 -1402,-628 -1402,-1402 0,-774 628,-1402 1402,-1402zm0 697c390,0 706,316 706,706 0,390 -316,706 -706,706 -390,0 -706,-316 -706,-706 0,-390 316,-706 706,-706z"/>
   <path class="fil2 str1" d="M61786 -14349l2121 0c206,-1894 -2301,-1970 -2121,0z"/>
   <path class="fil0 str1" d="M61074 -13714l3525 9c55,-1136 42,-2685 -1804,-2752 -1951,149 -1729,2071 -1721,2743zm712 -635l2121 0c206,-1894 -2301,-1970 -2121,0z"/>
  </g>
  <g id="_709383536">
   <circle class="fil2 str0" cx="62826" cy="-17903" r="706"/>
   <path class="fil0 str0" d="M62826 -19306c774,0 1402,628 1402,1402 0,774 -628,1402 -1402,1402 -774,0 -1402,-628 -1402,-1402 0,-774 628,-1402 1402,-1402zm0 697c390,0 706,316 706,706 0,390 -316,706 -706,706 -390,0 -706,-316 -706,-706 0,-390 316,-706 706,-706z"/>
   <path class="fil2 str1" d="M61786 -14349l2121 0c206,-1894 -2301,-1970 -2121,0z"/>
   <path class="fil0 str1" d="M61074 -13714l3525 9c55,-1136 42,-2685 -1804,-2752 -1951,149 -1729,2071 -1721,2743zm712 -635l2121 0c206,-1894 -2301,-1970 -2121,0z"/>
  </g>
  <g id="_709382128">
   <circle class="fil2 str0" cx="62826" cy="-17903" r="706"/>
   <path class="fil0 str0" d="M62826 -19306c774,0 1402,628 1402,1402 0,774 -628,1402 -1402,1402 -774,0 -1402,-628 -1402,-1402 0,-774 628,-1402 1402,-1402zm0 697c390,0 706,316 706,706 0,390 -316,706 -706,706 -390,0 -706,-316 -706,-706 0,-390 316,-706 706,-706z"/>
   <path class="fil2 str1" d="M61786 -14349l2121 0c206,-1894 -2301,-1970 -2121,0z"/>
   <path class="fil0 str1" d="M61074 -13714l3525 9c55,-1136 42,-2685 -1804,-2752 -1951,149 -1729,2071 -1721,2743zm712 -635l2121 0c206,-1894 -2301,-1970 -2121,0z"/>
  </g>
  <g id="_709377968">
   <circle class="fil2 str0" cx="62826" cy="-17903" r="706"/>
   <path class="fil0 str0" d="M62826 -19306c774,0 1402,628 1402,1402 0,774 -628,1402 -1402,1402 -774,0 -1402,-628 -1402,-1402 0,-774 628,-1402 1402,-1402zm0 697c390,0 706,316 706,706 0,390 -316,706 -706,706 -390,0 -706,-316 -706,-706 0,-390 316,-706 706,-706z"/>
   <path class="fil2 str1" d="M61786 -14349l2121 0c206,-1894 -2301,-1970 -2121,0z"/>
   <path class="fil0 str1" d="M61074 -13714l3525 9c55,-1136 42,-2685 -1804,-2752 -1951,149 -1729,2071 -1721,2743zm712 -635l2121 0c206,-1894 -2301,-1970 -2121,0z"/>
  </g>
  <g id="_709374768">
   <circle class="fil2 str0" cx="62826" cy="-17903" r="706"/>
   <path class="fil0 str0" d="M62826 -19306c774,0 1402,628 1402,1402 0,774 -628,1402 -1402,1402 -774,0 -1402,-628 -1402,-1402 0,-774 628,-1402 1402,-1402zm0 697c390,0 706,316 706,706 0,390 -316,706 -706,706 -390,0 -706,-316 -706,-706 0,-390 316,-706 706,-706z"/>
   <path class="fil2 str1" d="M61786 -14349l2121 0c206,-1894 -2301,-1970 -2121,0z"/>
   <path class="fil0 str1" d="M61074 -13714l3525 9c55,-1136 42,-2685 -1804,-2752 -1951,149 -1729,2071 -1721,2743zm712 -635l2121 0c206,-1894 -2301,-1970 -2121,0z"/>
  </g>
  <g id="_709371632">
   <circle class="fil2 str0" cx="62826" cy="-17903" r="706"/>
   <path class="fil0 str0" d="M62826 -19306c774,0 1402,628 1402,1402 0,774 -628,1402 -1402,1402 -774,0 -1402,-628 -1402,-1402 0,-774 628,-1402 1402,-1402zm0 697c390,0 706,316 706,706 0,390 -316,706 -706,706 -390,0 -706,-316 -706,-706 0,-390 316,-706 706,-706z"/>
   <path class="fil2 str1" d="M61786 -14349l2121 0c206,-1894 -2301,-1970 -2121,0z"/>
   <path class="fil0 str1" d="M61074 -13714l3525 9c55,-1136 42,-2685 -1804,-2752 -1951,149 -1729,2071 -1721,2743zm712 -635l2121 0c206,-1894 -2301,-1970 -2121,0z"/>
  </g>
  <g id="_709438224">
   <circle class="fil2 str0" cx="62826" cy="-17903" r="706"/>
   <path class="fil0 str0" d="M62826 -19306c774,0 1402,628 1402,1402 0,774 -628,1402 -1402,1402 -774,0 -1402,-628 -1402,-1402 0,-774 628,-1402 1402,-1402zm0 697c390,0 706,316 706,706 0,390 -316,706 -706,706 -390,0 -706,-316 -706,-706 0,-390 316,-706 706,-706z"/>
   <path class="fil2 str1" d="M61786 -14349l2121 0c206,-1894 -2301,-1970 -2121,0z"/>
   <path class="fil0 str1" d="M61074 -13714l3525 9c55,-1136 42,-2685 -1804,-2752 -1951,149 -1729,2071 -1721,2743zm712 -635l2121 0c206,-1894 -2301,-1970 -2121,0z"/>
  </g>
  <g id="_709435152">
   <circle class="fil2 str0" cx="62826" cy="-17903" r="706"/>
   <path class="fil0 str0" d="M62826 -19306c774,0 1402,628 1402,1402 0,774 -628,1402 -1402,1402 -774,0 -1402,-628 -1402,-1402 0,-774 628,-1402 1402,-1402zm0 697c390,0 706,316 706,706 0,390 -316,706 -706,706 -390,0 -706,-316 -706,-706 0,-390 316,-706 706,-706z"/>
   <path class="fil2 str1" d="M61786 -14349l2121 0c206,-1894 -2301,-1970 -2121,0z"/>
   <path class="fil0 str1" d="M61074 -13714l3525 9c55,-1136 42,-2685 -1804,-2752 -1951,149 -1729,2071 -1721,2743zm712 -635l2121 0c206,-1894 -2301,-1970 -2121,0z"/>
  </g>
  <g id="_709432752">
   <circle class="fil2 str0" cx="62826" cy="-17903" r="706"/>
   <path class="fil0 str0" d="M62826 -19306c774,0 1402,628 1402,1402 0,774 -628,1402 -1402,1402 -774,0 -1402,-628 -1402,-1402 0,-774 628,-1402 1402,-1402zm0 697c390,0 706,316 706,706 0,390 -316,706 -706,706 -390,0 -706,-316 -706,-706 0,-390 316,-706 706,-706z"/>
   <path class="fil2 str1" d="M61786 -14349l2121 0c206,-1894 -2301,-1970 -2121,0z"/>
   <path class="fil0 str1" d="M61074 -13714l3525 9c55,-1136 42,-2685 -1804,-2752 -1951,149 -1729,2071 -1721,2743zm712 -635l2121 0c206,-1894 -2301,-1970 -2121,0z"/>
  </g>
  <g id="_709429744">
   <circle class="fil2 str0" cx="62826" cy="-17903" r="706"/>
   <path class="fil0 str0" d="M62826 -19306c774,0 1402,628 1402,1402 0,774 -628,1402 -1402,1402 -774,0 -1402,-628 -1402,-1402 0,-774 628,-1402 1402,-1402zm0 697c390,0 706,316 706,706 0,390 -316,706 -706,706 -390,0 -706,-316 -706,-706 0,-390 316,-706 706,-706z"/>
   <path class="fil2 str1" d="M61786 -14349l2121 0c206,-1894 -2301,-1970 -2121,0z"/>
   <path class="fil0 str1" d="M61074 -13714l3525 9c55,-1136 42,-2685 -1804,-2752 -1951,149 -1729,2071 -1721,2743zm712 -635l2121 0c206,-1894 -2301,-1970 -2121,0z"/>
  </g>
  <g id="_709426960">
   <circle class="fil2 str0" cx="62826" cy="-17903" r="706"/>
   <path class="fil0 str0" d="M62826 -19306c774,0 1402,628 1402,1402 0,774 -628,1402 -1402,1402 -774,0 -1402,-628 -1402,-1402 0,-774 628,-1402 1402,-1402zm0 697c390,0 706,316 706,706 0,390 -316,706 -706,706 -390,0 -706,-316 -706,-706 0,-390 316,-706 706,-706z"/>
   <path class="fil2 str1" d="M61786 -14349l2121 0c206,-1894 -2301,-1970 -2121,0z"/>
   <path class="fil0 str1" d="M61074 -13714l3525 9c55,-1136 42,-2685 -1804,-2752 -1951,149 -1729,2071 -1721,2743zm712 -635l2121 0c206,-1894 -2301,-1970 -2121,0z"/>
  </g>
  <g id="_709424592">
   <circle class="fil2 str0" cx="62826" cy="-17903" r="706"/>
   <path class="fil0 str0" d="M62826 -19306c774,0 1402,628 1402,1402 0,774 -628,1402 -1402,1402 -774,0 -1402,-628 -1402,-1402 0,-774 628,-1402 1402,-1402zm0 697c390,0 706,316 706,706 0,390 -316,706 -706,706 -390,0 -706,-316 -706,-706 0,-390 316,-706 706,-706z"/>
   <path class="fil2 str1" d="M61786 -14349l2121 0c206,-1894 -2301,-1970 -2121,0z"/>
   <path class="fil0 str1" d="M61074 -13714l3525 9c55,-1136 42,-2685 -1804,-2752 -1951,149 -1729,2071 -1721,2743zm712 -635l2121 0c206,-1894 -2301,-1970 -2121,0z"/>
  </g>
  <g id="_709419888">
   <circle class="fil2 str0" cx="62826" cy="-17903" r="706"/>
   <path class="fil0 str0" d="M62826 -19306c774,0 1402,628 1402,1402 0,774 -628,1402 -1402,1402 -774,0 -1402,-628 -1402,-1402 0,-774 628,-1402 1402,-1402zm0 697c390,0 706,316 706,706 0,390 -316,706 -706,706 -390,0 -706,-316 -706,-706 0,-390 316,-706 706,-706z"/>
   <path class="fil2 str1" d="M61786 -14349l2121 0c206,-1894 -2301,-1970 -2121,0z"/>
   <path class="fil0 str1" d="M61074 -13714l3525 9c55,-1136 42,-2685 -1804,-2752 -1951,149 -1729,2071 -1721,2743zm712 -635l2121 0c206,-1894 -2301,-1970 -2121,0z"/>
  </g>
  <g id="_970325344">
   <circle class="fil2 str0" cx="62826" cy="-17903" r="706"/>
   <path class="fil0 str0" d="M62826 -19306c774,0 1402,628 1402,1402 0,774 -628,1402 -1402,1402 -774,0 -1402,-628 -1402,-1402 0,-774 628,-1402 1402,-1402zm0 697c390,0 706,316 706,706 0,390 -316,706 -706,706 -390,0 -706,-316 -706,-706 0,-390 316,-706 706,-706z"/>
   <path class="fil2 str1" d="M61786 -14349l2121 0c206,-1894 -2301,-1970 -2121,0z"/>
   <path class="fil0 str1" d="M61074 -13714l3525 9c55,-1136 42,-2685 -1804,-2752 -1951,149 -1729,2071 -1721,2743zm712 -635l2121 0c206,-1894 -2301,-1970 -2121,0z"/>
  </g>
  <g id="_970374592">
   <circle class="fil2 str0" cx="62826" cy="-17903" r="706"/>
   <path class="fil0 str0" d="M62826 -19306c774,0 1402,628 1402,1402 0,774 -628,1402 -1402,1402 -774,0 -1402,-628 -1402,-1402 0,-774 628,-1402 1402,-1402zm0 697c390,0 706,316 706,706 0,390 -316,706 -706,706 -390,0 -706,-316 -706,-706 0,-390 316,-706 706,-706z"/>
   <path class="fil2 str1" d="M61786 -14349l2121 0c206,-1894 -2301,-1970 -2121,0z"/>
   <path class="fil0 str1" d="M61074 -13714l3525 9c55,-1136 42,-2685 -1804,-2752 -1951,149 -1729,2071 -1721,2743zm712 -635l2121 0c206,-1894 -2301,-1970 -2121,0z"/>
  </g>
  <g id="_970372128">
   <circle class="fil2 str0" cx="62826" cy="-17903" r="706"/>
   <path class="fil0 str0" d="M62826 -19306c774,0 1402,628 1402,1402 0,774 -628,1402 -1402,1402 -774,0 -1402,-628 -1402,-1402 0,-774 628,-1402 1402,-1402zm0 697c390,0 706,316 706,706 0,390 -316,706 -706,706 -390,0 -706,-316 -706,-706 0,-390 316,-706 706,-706z"/>
   <path class="fil2 str1" d="M61786 -14349l2121 0c206,-1894 -2301,-1970 -2121,0z"/>
   <path class="fil0 str1" d="M61074 -13714l3525 9c55,-1136 42,-2685 -1804,-2752 -1951,149 -1729,2071 -1721,2743zm712 -635l2121 0c206,-1894 -2301,-1970 -2121,0z"/>
  </g>
  <g id="_970368352">
   <circle class="fil2 str0" cx="62826" cy="-17903" r="706"/>
   <path class="fil0 str0" d="M62826 -19306c774,0 1402,628 1402,1402 0,774 -628,1402 -1402,1402 -774,0 -1402,-628 -1402,-1402 0,-774 628,-1402 1402,-1402zm0 697c390,0 706,316 706,706 0,390 -316,706 -706,706 -390,0 -706,-316 -706,-706 0,-390 316,-706 706,-706z"/>
   <path class="fil2 str1" d="M61786 -14349l2121 0c206,-1894 -2301,-1970 -2121,0z"/>
   <path class="fil0 str1" d="M61074 -13714l3525 9c55,-1136 42,-2685 -1804,-2752 -1951,149 -1729,2071 -1721,2743zm712 -635l2121 0c206,-1894 -2301,-1970 -2121,0z"/>
  </g>
  <g id="_970366016">
   <circle class="fil2 str0" cx="62826" cy="-17903" r="706"/>
   <path class="fil0 str0" d="M62826 -19306c774,0 1402,628 1402,1402 0,774 -628,1402 -1402,1402 -774,0 -1402,-628 -1402,-1402 0,-774 628,-1402 1402,-1402zm0 697c390,0 706,316 706,706 0,390 -316,706 -706,706 -390,0 -706,-316 -706,-706 0,-390 316,-706 706,-706z"/>
   <path class="fil2 str1" d="M61786 -14349l2121 0c206,-1894 -2301,-1970 -2121,0z"/>
   <path class="fil0 str1" d="M61074 -13714l3525 9c55,-1136 42,-2685 -1804,-2752 -1951,149 -1729,2071 -1721,2743zm712 -635l2121 0c206,-1894 -2301,-1970 -2121,0z"/>
  </g>
  <g id="_970364736">
   <circle class="fil2 str0" cx="62826" cy="-17903" r="706"/>
   <path class="fil0 str0" d="M62826 -19306c774,0 1402,628 1402,1402 0,774 -628,1402 -1402,1402 -774,0 -1402,-628 -1402,-1402 0,-774 628,-1402 1402,-1402zm0 697c390,0 706,316 706,706 0,390 -316,706 -706,706 -390,0 -706,-316 -706,-706 0,-390 316,-706 706,-706z"/>
   <path class="fil2 str1" d="M61786 -14349l2121 0c206,-1894 -2301,-1970 -2121,0z"/>
   <path class="fil0 str1" d="M61074 -13714l3525 9c55,-1136 42,-2685 -1804,-2752 -1951,149 -1729,2071 -1721,2743zm712 -635l2121 0c206,-1894 -2301,-1970 -2121,0z"/>
  </g>
  <g id="_970360832">
   <circle class="fil2 str0" cx="62826" cy="-17903" r="706"/>
   <path class="fil0 str0" d="M62826 -19306c774,0 1402,628 1402,1402 0,774 -628,1402 -1402,1402 -774,0 -1402,-628 -1402,-1402 0,-774 628,-1402 1402,-1402zm0 697c390,0 706,316 706,706 0,390 -316,706 -706,706 -390,0 -706,-316 -706,-706 0,-390 316,-706 706,-706z"/>
   <path class="fil2 str1" d="M61786 -14349l2121 0c206,-1894 -2301,-1970 -2121,0z"/>
   <path class="fil0 str1" d="M61074 -13714l3525 9c55,-1136 42,-2685 -1804,-2752 -1951,149 -1729,2071 -1721,2743zm712 -635l2121 0c206,-1894 -2301,-1970 -2121,0z"/>
  </g>
  <g id="_970358816">
   <circle class="fil2 str0" cx="62826" cy="-17903" r="706"/>
   <path class="fil0 str0" d="M62826 -19306c774,0 1402,628 1402,1402 0,774 -628,1402 -1402,1402 -774,0 -1402,-628 -1402,-1402 0,-774 628,-1402 1402,-1402zm0 697c390,0 706,316 706,706 0,390 -316,706 -706,706 -390,0 -706,-316 -706,-706 0,-390 316,-706 706,-706z"/>
   <path class="fil2 str1" d="M61786 -14349l2121 0c206,-1894 -2301,-1970 -2121,0z"/>
   <path class="fil0 str1" d="M61074 -13714l3525 9c55,-1136 42,-2685 -1804,-2752 -1951,149 -1729,2071 -1721,2743zm712 -635l2121 0c206,-1894 -2301,-1970 -2121,0z"/>
  </g>
  <g id="_970353344">
   <circle class="fil2 str0" cx="62826" cy="-17903" r="706"/>
   <path class="fil0 str0" d="M62826 -19306c774,0 1402,628 1402,1402 0,774 -628,1402 -1402,1402 -774,0 -1402,-628 -1402,-1402 0,-774 628,-1402 1402,-1402zm0 697c390,0 706,316 706,706 0,390 -316,706 -706,706 -390,0 -706,-316 -706,-706 0,-390 316,-706 706,-706z"/>
   <path class="fil2 str1" d="M61786 -14349l2121 0c206,-1894 -2301,-1970 -2121,0z"/>
   <path class="fil0 str1" d="M61074 -13714l3525 9c55,-1136 42,-2685 -1804,-2752 -1951,149 -1729,2071 -1721,2743zm712 -635l2121 0c206,-1894 -2301,-1970 -2121,0z"/>
  </g>
  <g id="_970352928">
   <circle class="fil2 str0" cx="62826" cy="-17903" r="706"/>
   <path class="fil0 str0" d="M62826 -19306c774,0 1402,628 1402,1402 0,774 -628,1402 -1402,1402 -774,0 -1402,-628 -1402,-1402 0,-774 628,-1402 1402,-1402zm0 697c390,0 706,316 706,706 0,390 -316,706 -706,706 -390,0 -706,-316 -706,-706 0,-390 316,-706 706,-706z"/>
   <path class="fil2 str1" d="M61786 -14349l2121 0c206,-1894 -2301,-1970 -2121,0z"/>
   <path class="fil0 str1" d="M61074 -13714l3525 9c55,-1136 42,-2685 -1804,-2752 -1951,149 -1729,2071 -1721,2743zm712 -635l2121 0c206,-1894 -2301,-1970 -2121,0z"/>
  </g>
  <g id="_970348320">
   <circle class="fil2 str0" cx="62826" cy="-17903" r="706"/>
   <path class="fil0 str0" d="M62826 -19306c774,0 1402,628 1402,1402 0,774 -628,1402 -1402,1402 -774,0 -1402,-628 -1402,-1402 0,-774 628,-1402 1402,-1402zm0 697c390,0 706,316 706,706 0,390 -316,706 -706,706 -390,0 -706,-316 -706,-706 0,-390 316,-706 706,-706z"/>
   <path class="fil2 str1" d="M61786 -14349l2121 0c206,-1894 -2301,-1970 -2121,0z"/>
   <path class="fil0 str1" d="M61074 -13714l3525 9c55,-1136 42,-2685 -1804,-2752 -1951,149 -1729,2071 -1721,2743zm712 -635l2121 0c206,-1894 -2301,-1970 -2121,0z"/>
  </g>
  <g id="_970345152">
   <circle class="fil2 str0" cx="62826" cy="-17903" r="706"/>
   <path class="fil0 str0" d="M62826 -19306c774,0 1402,628 1402,1402 0,774 -628,1402 -1402,1402 -774,0 -1402,-628 -1402,-1402 0,-774 628,-1402 1402,-1402zm0 697c390,0 706,316 706,706 0,390 -316,706 -706,706 -390,0 -706,-316 -706,-706 0,-390 316,-706 706,-706z"/>
   <path class="fil2 str1" d="M61786 -14349l2121 0c206,-1894 -2301,-1970 -2121,0z"/>
   <path class="fil0 str1" d="M61074 -13714l3525 9c55,-1136 42,-2685 -1804,-2752 -1951,149 -1729,2071 -1721,2743zm712 -635l2121 0c206,-1894 -2301,-1970 -2121,0z"/>
  </g>
  <g id="_970344704">
   <circle class="fil2 str0" cx="62826" cy="-17903" r="706"/>
   <path class="fil0 str0" d="M62826 -19306c774,0 1402,628 1402,1402 0,774 -628,1402 -1402,1402 -774,0 -1402,-628 -1402,-1402 0,-774 628,-1402 1402,-1402zm0 697c390,0 706,316 706,706 0,390 -316,706 -706,706 -390,0 -706,-316 -706,-706 0,-390 316,-706 706,-706z"/>
   <path class="fil2 str1" d="M61786 -14349l2121 0c206,-1894 -2301,-1970 -2121,0z"/>
   <path class="fil0 str1" d="M61074 -13714l3525 9c55,-1136 42,-2685 -1804,-2752 -1951,149 -1729,2071 -1721,2743zm712 -635l2121 0c206,-1894 -2301,-1970 -2121,0z"/>
  </g>
  <g id="_970339200">
   <circle class="fil2 str0" cx="62826" cy="-17903" r="706"/>
   <path class="fil0 str0" d="M62826 -19306c774,0 1402,628 1402,1402 0,774 -628,1402 -1402,1402 -774,0 -1402,-628 -1402,-1402 0,-774 628,-1402 1402,-1402zm0 697c390,0 706,316 706,706 0,390 -316,706 -706,706 -390,0 -706,-316 -706,-706 0,-390 316,-706 706,-706z"/>
   <path class="fil2 str1" d="M61786 -14349l2121 0c206,-1894 -2301,-1970 -2121,0z"/>
   <path class="fil0 str1" d="M61074 -13714l3525 9c55,-1136 42,-2685 -1804,-2752 -1951,149 -1729,2071 -1721,2743zm712 -635l2121 0c206,-1894 -2301,-1970 -2121,0z"/>
  </g>
  <g id="_970337920">
   <circle class="fil2 str0" cx="62826" cy="-17903" r="706"/>
   <path class="fil0 str0" d="M62826 -19306c774,0 1402,628 1402,1402 0,774 -628,1402 -1402,1402 -774,0 -1402,-628 -1402,-1402 0,-774 628,-1402 1402,-1402zm0 697c390,0 706,316 706,706 0,390 -316,706 -706,706 -390,0 -706,-316 -706,-706 0,-390 316,-706 706,-706z"/>
   <path class="fil2 str1" d="M61786 -14349l2121 0c206,-1894 -2301,-1970 -2121,0z"/>
   <path class="fil0 str1" d="M61074 -13714l3525 9c55,-1136 42,-2685 -1804,-2752 -1951,149 -1729,2071 -1721,2743zm712 -635l2121 0c206,-1894 -2301,-1970 -2121,0z"/>
  </g>
  <g id="_970333184">
   <circle class="fil2 str0" cx="62826" cy="-17903" r="706"/>
   <path class="fil0 str0" d="M62826 -19306c774,0 1402,628 1402,1402 0,774 -628,1402 -1402,1402 -774,0 -1402,-628 -1402,-1402 0,-774 628,-1402 1402,-1402zm0 697c390,0 706,316 706,706 0,390 -316,706 -706,706 -390,0 -706,-316 -706,-706 0,-390 316,-706 706,-706z"/>
   <path class="fil2 str1" d="M61786 -14349l2121 0c206,-1894 -2301,-1970 -2121,0z"/>
   <path class="fil0 str1" d="M61074 -13714l3525 9c55,-1136 42,-2685 -1804,-2752 -1951,149 -1729,2071 -1721,2743zm712 -635l2121 0c206,-1894 -2301,-1970 -2121,0z"/>
  </g>
  <g id="_970331776">
   <circle class="fil2 str0" cx="62826" cy="-17903" r="706"/>
   <path class="fil0 str0" d="M62826 -19306c774,0 1402,628 1402,1402 0,774 -628,1402 -1402,1402 -774,0 -1402,-628 -1402,-1402 0,-774 628,-1402 1402,-1402zm0 697c390,0 706,316 706,706 0,390 -316,706 -706,706 -390,0 -706,-316 -706,-706 0,-390 316,-706 706,-706z"/>
   <path class="fil2 str1" d="M61786 -14349l2121 0c206,-1894 -2301,-1970 -2121,0z"/>
   <path class="fil0 str1" d="M61074 -13714l3525 9c55,-1136 42,-2685 -1804,-2752 -1951,149 -1729,2071 -1721,2743zm712 -635l2121 0c206,-1894 -2301,-1970 -2121,0z"/>
  </g>
  <g id="_970330336">
   <circle class="fil2 str0" cx="62826" cy="-17903" r="706"/>
   <path class="fil0 str0" d="M62826 -19306c774,0 1402,628 1402,1402 0,774 -628,1402 -1402,1402 -774,0 -1402,-628 -1402,-1402 0,-774 628,-1402 1402,-1402zm0 697c390,0 706,316 706,706 0,390 -316,706 -706,706 -390,0 -706,-316 -706,-706 0,-390 316,-706 706,-706z"/>
   <path class="fil2 str1" d="M61786 -14349l2121 0c206,-1894 -2301,-1970 -2121,0z"/>
   <path class="fil0 str1" d="M61074 -13714l3525 9c55,-1136 42,-2685 -1804,-2752 -1951,149 -1729,2071 -1721,2743zm712 -635l2121 0c206,-1894 -2301,-1970 -2121,0z"/>
  </g>
  <g id="_970325824">
   <circle class="fil2 str0" cx="62826" cy="-17903" r="706"/>
   <path class="fil0 str0" d="M62826 -19306c774,0 1402,628 1402,1402 0,774 -628,1402 -1402,1402 -774,0 -1402,-628 -1402,-1402 0,-774 628,-1402 1402,-1402zm0 697c390,0 706,316 706,706 0,390 -316,706 -706,706 -390,0 -706,-316 -706,-706 0,-390 316,-706 706,-706z"/>
   <path class="fil2 str1" d="M61786 -14349l2121 0c206,-1894 -2301,-1970 -2121,0z"/>
   <path class="fil0 str1" d="M61074 -13714l3525 9c55,-1136 42,-2685 -1804,-2752 -1951,149 -1729,2071 -1721,2743zm712 -635l2121 0c206,-1894 -2301,-1970 -2121,0z"/>
  </g>
  <g id="_970322400">
   <circle class="fil2 str0" cx="62826" cy="-17903" r="706"/>
   <path class="fil0 str0" d="M62826 -19306c774,0 1402,628 1402,1402 0,774 -628,1402 -1402,1402 -774,0 -1402,-628 -1402,-1402 0,-774 628,-1402 1402,-1402zm0 697c390,0 706,316 706,706 0,390 -316,706 -706,706 -390,0 -706,-316 -706,-706 0,-390 316,-706 706,-706z"/>
   <path class="fil2 str1" d="M61786 -14349l2121 0c206,-1894 -2301,-1970 -2121,0z"/>
   <path class="fil0 str1" d="M61074 -13714l3525 9c55,-1136 42,-2685 -1804,-2752 -1951,149 -1729,2071 -1721,2743zm712 -635l2121 0c206,-1894 -2301,-1970 -2121,0z"/>
  </g>
  <g id="_970319232">
   <circle class="fil2 str0" cx="62826" cy="-17903" r="706"/>
   <path class="fil0 str0" d="M62826 -19306c774,0 1402,628 1402,1402 0,774 -628,1402 -1402,1402 -774,0 -1402,-628 -1402,-1402 0,-774 628,-1402 1402,-1402zm0 697c390,0 706,316 706,706 0,390 -316,706 -706,706 -390,0 -706,-316 -706,-706 0,-390 316,-706 706,-706z"/>
   <path class="fil2 str1" d="M61786 -14349l2121 0c206,-1894 -2301,-1970 -2121,0z"/>
   <path class="fil0 str1" d="M61074 -13714l3525 9c55,-1136 42,-2685 -1804,-2752 -1951,149 -1729,2071 -1721,2743zm712 -635l2121 0c206,-1894 -2301,-1970 -2121,0z"/>
  </g>
  <g id="_970317152">
   <circle class="fil2 str0" cx="62826" cy="-17903" r="706"/>
   <path class="fil0 str0" d="M62826 -19306c774,0 1402,628 1402,1402 0,774 -628,1402 -1402,1402 -774,0 -1402,-628 -1402,-1402 0,-774 628,-1402 1402,-1402zm0 697c390,0 706,316 706,706 0,390 -316,706 -706,706 -390,0 -706,-316 -706,-706 0,-390 316,-706 706,-706z"/>
   <path class="fil2 str1" d="M61786 -14349l2121 0c206,-1894 -2301,-1970 -2121,0z"/>
   <path class="fil0 str1" d="M61074 -13714l3525 9c55,-1136 42,-2685 -1804,-2752 -1951,149 -1729,2071 -1721,2743zm712 -635l2121 0c206,-1894 -2301,-1970 -2121,0z"/>
  </g>
  <g id="_970382880">
   <circle class="fil2 str0" cx="62826" cy="-17903" r="706"/>
   <path class="fil0 str0" d="M62826 -19306c774,0 1402,628 1402,1402 0,774 -628,1402 -1402,1402 -774,0 -1402,-628 -1402,-1402 0,-774 628,-1402 1402,-1402zm0 697c390,0 706,316 706,706 0,390 -316,706 -706,706 -390,0 -706,-316 -706,-706 0,-390 316,-706 706,-706z"/>
   <path class="fil2 str1" d="M61786 -14349l2121 0c206,-1894 -2301,-1970 -2121,0z"/>
   <path class="fil0 str1" d="M61074 -13714l3525 9c55,-1136 42,-2685 -1804,-2752 -1951,149 -1729,2071 -1721,2743zm712 -635l2121 0c206,-1894 -2301,-1970 -2121,0z"/>
  </g>
  <g id="_970380384">
   <circle class="fil2 str0" cx="62826" cy="-17903" r="706"/>
   <path class="fil0 str0" d="M62826 -19306c774,0 1402,628 1402,1402 0,774 -628,1402 -1402,1402 -774,0 -1402,-628 -1402,-1402 0,-774 628,-1402 1402,-1402zm0 697c390,0 706,316 706,706 0,390 -316,706 -706,706 -390,0 -706,-316 -706,-706 0,-390 316,-706 706,-706z"/>
   <path class="fil2 str1" d="M61786 -14349l2121 0c206,-1894 -2301,-1970 -2121,0z"/>
   <path class="fil0 str1" d="M61074 -13714l3525 9c55,-1136 42,-2685 -1804,-2752 -1951,149 -1729,2071 -1721,2743zm712 -635l2121 0c206,-1894 -2301,-1970 -2121,0z"/>
  </g>
  <g id="_972258976">
   <circle class="fil2 str0" cx="62826" cy="-17903" r="706"/>
   <path class="fil0 str0" d="M62826 -19306c774,0 1402,628 1402,1402 0,774 -628,1402 -1402,1402 -774,0 -1402,-628 -1402,-1402 0,-774 628,-1402 1402,-1402zm0 697c390,0 706,316 706,706 0,390 -316,706 -706,706 -390,0 -706,-316 -706,-706 0,-390 316,-706 706,-706z"/>
   <path class="fil2 str1" d="M61786 -14349l2121 0c206,-1894 -2301,-1970 -2121,0z"/>
   <path class="fil0 str1" d="M61074 -13714l3525 9c55,-1136 42,-2685 -1804,-2752 -1951,149 -1729,2071 -1721,2743zm712 -635l2121 0c206,-1894 -2301,-1970 -2121,0z"/>
  </g>
  <g id="_972257664">
   <circle class="fil2 str0" cx="62826" cy="-17903" r="706"/>
   <path class="fil0 str0" d="M62826 -19306c774,0 1402,628 1402,1402 0,774 -628,1402 -1402,1402 -774,0 -1402,-628 -1402,-1402 0,-774 628,-1402 1402,-1402zm0 697c390,0 706,316 706,706 0,390 -316,706 -706,706 -390,0 -706,-316 -706,-706 0,-390 316,-706 706,-706z"/>
   <path class="fil2 str1" d="M61786 -14349l2121 0c206,-1894 -2301,-1970 -2121,0z"/>
   <path class="fil0 str1" d="M61074 -13714l3525 9c55,-1136 42,-2685 -1804,-2752 -1951,149 -1729,2071 -1721,2743zm712 -635l2121 0c206,-1894 -2301,-1970 -2121,0z"/>
  </g>
  <g id="_972255776">
   <circle class="fil2 str0" cx="62826" cy="-17903" r="706"/>
   <path class="fil0 str0" d="M62826 -19306c774,0 1402,628 1402,1402 0,774 -628,1402 -1402,1402 -774,0 -1402,-628 -1402,-1402 0,-774 628,-1402 1402,-1402zm0 697c390,0 706,316 706,706 0,390 -316,706 -706,706 -390,0 -706,-316 -706,-706 0,-390 316,-706 706,-706z"/>
   <path class="fil2 str1" d="M61786 -14349l2121 0c206,-1894 -2301,-1970 -2121,0z"/>
   <path class="fil0 str1" d="M61074 -13714l3525 9c55,-1136 42,-2685 -1804,-2752 -1951,149 -1729,2071 -1721,2743zm712 -635l2121 0c206,-1894 -2301,-1970 -2121,0z"/>
  </g>
  <g id="_972284800">
   <circle class="fil2 str0" cx="62826" cy="-17903" r="706"/>
   <path class="fil0 str0" d="M62826 -19306c774,0 1402,628 1402,1402 0,774 -628,1402 -1402,1402 -774,0 -1402,-628 -1402,-1402 0,-774 628,-1402 1402,-1402zm0 697c390,0 706,316 706,706 0,390 -316,706 -706,706 -390,0 -706,-316 -706,-706 0,-390 316,-706 706,-706z"/>
   <path class="fil2 str1" d="M61786 -14349l2121 0c206,-1894 -2301,-1970 -2121,0z"/>
   <path class="fil0 str1" d="M61074 -13714l3525 9c55,-1136 42,-2685 -1804,-2752 -1951,149 -1729,2071 -1721,2743zm712 -635l2121 0c206,-1894 -2301,-1970 -2121,0z"/>
  </g>
  <g id="_972282464">
   <circle class="fil2 str0" cx="62826" cy="-17903" r="706"/>
   <path class="fil0 str0" d="M62826 -19306c774,0 1402,628 1402,1402 0,774 -628,1402 -1402,1402 -774,0 -1402,-628 -1402,-1402 0,-774 628,-1402 1402,-1402zm0 697c390,0 706,316 706,706 0,390 -316,706 -706,706 -390,0 -706,-316 -706,-706 0,-390 316,-706 706,-706z"/>
   <path class="fil2 str1" d="M61786 -14349l2121 0c206,-1894 -2301,-1970 -2121,0z"/>
   <path class="fil0 str1" d="M61074 -13714l3525 9c55,-1136 42,-2685 -1804,-2752 -1951,149 -1729,2071 -1721,2743zm712 -635l2121 0c206,-1894 -2301,-1970 -2121,0z"/>
  </g>
  <g id="_972280992">
   <circle class="fil2 str0" cx="62826" cy="-17903" r="706"/>
   <path class="fil0 str0" d="M62826 -19306c774,0 1402,628 1402,1402 0,774 -628,1402 -1402,1402 -774,0 -1402,-628 -1402,-1402 0,-774 628,-1402 1402,-1402zm0 697c390,0 706,316 706,706 0,390 -316,706 -706,706 -390,0 -706,-316 -706,-706 0,-390 316,-706 706,-706z"/>
   <path class="fil2 str1" d="M61786 -14349l2121 0c206,-1894 -2301,-1970 -2121,0z"/>
   <path class="fil0 str1" d="M61074 -13714l3525 9c55,-1136 42,-2685 -1804,-2752 -1951,149 -1729,2071 -1721,2743zm712 -635l2121 0c206,-1894 -2301,-1970 -2121,0z"/>
  </g>
  <g id="_972277984">
   <circle class="fil2 str0" cx="62826" cy="-17903" r="706"/>
   <path class="fil0 str0" d="M62826 -19306c774,0 1402,628 1402,1402 0,774 -628,1402 -1402,1402 -774,0 -1402,-628 -1402,-1402 0,-774 628,-1402 1402,-1402zm0 697c390,0 706,316 706,706 0,390 -316,706 -706,706 -390,0 -706,-316 -706,-706 0,-390 316,-706 706,-706z"/>
   <path class="fil2 str1" d="M61786 -14349l2121 0c206,-1894 -2301,-1970 -2121,0z"/>
   <path class="fil0 str1" d="M61074 -13714l3525 9c55,-1136 42,-2685 -1804,-2752 -1951,149 -1729,2071 -1721,2743zm712 -635l2121 0c206,-1894 -2301,-1970 -2121,0z"/>
  </g>
  <g id="_972275200">
   <circle class="fil2 str0" cx="62826" cy="-17903" r="706"/>
   <path class="fil0 str0" d="M62826 -19306c774,0 1402,628 1402,1402 0,774 -628,1402 -1402,1402 -774,0 -1402,-628 -1402,-1402 0,-774 628,-1402 1402,-1402zm0 697c390,0 706,316 706,706 0,390 -316,706 -706,706 -390,0 -706,-316 -706,-706 0,-390 316,-706 706,-706z"/>
   <path class="fil2 str1" d="M61786 -14349l2121 0c206,-1894 -2301,-1970 -2121,0z"/>
   <path class="fil0 str1" d="M61074 -13714l3525 9c55,-1136 42,-2685 -1804,-2752 -1951,149 -1729,2071 -1721,2743zm712 -635l2121 0c206,-1894 -2301,-1970 -2121,0z"/>
  </g>
  <circle class="fil2 str0" cx="62826" cy="-17903" r="706"/>
  <path class="fil0 str0" d="M62826 -19306c774,0 1402,628 1402,1402 0,774 -628,1402 -1402,1402 -774,0 -1402,-628 -1402,-1402 0,-774 628,-1402 1402,-1402zm0 697c390,0 706,316 706,706 0,390 -316,706 -706,706 -390,0 -706,-316 -706,-706 0,-390 316,-706 706,-706z"/>
  <path class="fil2 str1" d="M61786 -14349l2121 0c206,-1894 -2301,-1970 -2121,0z"/>
  <path class="fil0 str1" d="M61074 -13714l3525 9c55,-1136 42,-2685 -1804,-2752 -1951,149 -1729,2071 -1721,2743zm712 -635l2121 0c206,-1894 -2301,-1970 -2121,0z"/>
  <g id="_972269472">
   <circle class="fil2 str0" cx="67030" cy="-21414" r="706"/>
   <path class="fil0 str0" d="M67030 -22817c774,0 1402,628 1402,1402 0,774 -628,1402 -1402,1402 -774,0 -1402,-628 -1402,-1402 0,-774 628,-1402 1402,-1402zm0 697c390,0 706,316 706,706 0,390 -316,706 -706,706 -390,0 -706,-316 -706,-706 0,-390 316,-706 706,-706z"/>
   <path class="fil2 str1" d="M65990 -17860l2121 0c206,-1894 -2301,-1970 -2121,0z"/>
   <path class="fil0 str1" d="M65278 -17225l3525 9c55,-1136 42,-2685 -1804,-2752 -1951,149 -1729,2071 -1721,2743zm712 -635l2121 0c206,-1894 -2301,-1970 -2121,0z"/>
  </g>
  <g id="_972265504">
   <circle class="fil2 str0" cx="67060" cy="-15088" r="706"/>
   <path class="fil0 str0" d="M67060 -16491c774,0 1402,628 1402,1402 0,774 -628,1402 -1402,1402 -774,0 -1402,-628 -1402,-1402 0,-774 628,-1402 1402,-1402zm0 697c390,0 706,316 706,706 0,390 -316,706 -706,706 -390,0 -706,-316 -706,-706 0,-390 316,-706 706,-706z"/>
   <path class="fil2 str1" d="M66020 -11534l2121 0c206,-1894 -2301,-1970 -2121,0z"/>
   <path class="fil0 str1" d="M65308 -10899l3525 9c55,-1136 42,-2685 -1804,-2752 -1951,149 -1729,2071 -1721,2743zm712 -635l2121 0c206,-1894 -2301,-1970 -2121,0z"/>
  </g>
  <g id="_972262304">
   <circle class="fil2 str0" cx="71356" cy="-17903" r="706"/>
   <path class="fil0 str0" d="M71356 -19306c774,0 1402,628 1402,1402 0,774 -628,1402 -1402,1402 -774,0 -1402,-628 -1402,-1402 0,-774 628,-1402 1402,-1402zm0 697c390,0 706,316 706,706 0,390 -316,706 -706,706 -390,0 -706,-316 -706,-706 0,-390 316,-706 706,-706z"/>
   <path class="fil2 str1" d="M70316 -14349l2121 0c206,-1894 -2301,-1970 -2121,0z"/>
   <path class="fil0 str1" d="M69604 -13714l3525 9c55,-1136 42,-2685 -1804,-2752 -1951,149 -1729,2071 -1721,2743zm712 -635l2121 0c206,-1894 -2301,-1970 -2121,0z"/>
  </g>
  <g id="_704451344">
   <circle class="fil2 str0" cx="67060" cy="-15088" r="706"/>
   <path class="fil2 str0" d="M67060 -16491c774,0 1402,628 1402,1402 0,774 -628,1402 -1402,1402 -774,0 -1402,-628 -1402,-1402 0,-774 628,-1402 1402,-1402zm0 697c390,0 706,316 706,706 0,390 -316,706 -706,706 -390,0 -706,-316 -706,-706 0,-390 316,-706 706,-706z"/>
   <path class="fil2 str1" d="M66020 -11534l2121 0c206,-1894 -2301,-1970 -2121,0z"/>
   <path class="fil2 str1" d="M65308 -10899l3525 9c55,-1136 42,-2685 -1804,-2752 -1951,149 -1729,2071 -1721,2743zm712 -635l2121 0c206,-1894 -2301,-1970 -2121,0z"/>
  </g>
  <path class="fil0 str1" d="M62506 -22145l3719 3c-153,177 -246,408 -246,661 0,6 0,11 0,17l-2783 -2 0 2213c-226,-77 -528,-75 -691,-9l0 -2882zm5254 4l3944 3 -1 2889c-229,-83 -496,-33 -691,-17l0 -2194 -3009 -2c0,-6 0,-12 0,-18 0,-252 -92,-483 -245,-660zm3942 8403l-1 2880 -9195 6 0 -2856 691 0 0 2178 7814 -6 0 -2173 685 0 5 -30z"/>
  <path class="fil3" d="M6166 3837l667 0 0 -528 528 0 0 -667 -528 0 0 -528 -667 0 0 528 -528 0 0 667 528 0 0 528zm0 0z"/>
  <path class="fil3" d="M5547 4461l645 0 0 645 -645 0 0 -645zm0 0z"/>
  <path class="fil3" d="M2954 6578l645 0 0 645 -645 0 0 -645zm0 0z"/>
  <path class="fil3" d="M2954 7731l645 0 0 645 -645 0 0 -645zm0 0z"/>
  <path class="fil3" d="M2954 8883l645 0 0 645 -645 0 0 -645zm0 0z"/>
  <path class="fil3" d="M9432 6578l645 0 0 645 -645 0 0 -645zm0 0z"/>
  <path class="fil3" d="M9432 7731l645 0 0 645 -645 0 0 -645zm0 0z"/>
  <path class="fil3" d="M9432 8883l645 0 0 645 -645 0 0 -645zm0 0z"/>
  <path class="fil3" d="M6808 4461l645 0 0 645 -645 0 0 -645zm0 0z"/>
  <path class="fil3" d="M5547 5624l645 0 0 645 -645 0 0 -645zm0 0z"/>
  <path class="fil3" d="M6808 5624l645 0 0 645 -645 0 0 -645zm0 0z"/>
  <path class="fil3" d="M5547 6788l645 0 0 645 -645 0 0 -645zm0 0z"/>
  <path class="fil3" d="M6808 6788l645 0 0 645 -645 0 0 -645zm0 0z"/>
  <path class="fil4" d="M11796 10474l0 -5339 -2725 0 0 -4881 -5141 0 0 4881 -2725 0 0 5339c-541,104 -950,580 -950,1150l0 1122 12493 0 0 -1122c0,-570 -410,-1046 -950,-1150zm-732 -4607l0 4586 -1993 0 0 -4586 1993 0zm-6402 -4881l3677 0 0 9467 -724 0 0 -2261 -2228 0 0 2261 -724 0 0 -9467zm2221 9467l-764 0 0 -1529 764 0 0 1529zm-2953 -4586l0 4586 -1993 0 0 -4586 1993 0zm8085 6148l-11029 0 0 -390c0,-242 197,-439 439,-439l10150 0c242,0 439,197 439,439l0 390zm0 0z"/>
 </g>
</svg>
