<?xml version="1.0" encoding="UTF-8"?>
<!DOCTYPE svg PUBLIC "-//W3C//DTD SVG 1.1//EN" "http://www.w3.org/Graphics/SVG/1.1/DTD/svg11.dtd">
<!-- Creator: CorelDRAW X6 -->
<svg xmlns="http://www.w3.org/2000/svg" xml:space="preserve" width="210mm" height="297mm" version="1.1" style="shape-rendering:geometricPrecision; text-rendering:geometricPrecision; image-rendering:optimizeQuality; fill-rule:evenodd; clip-rule:evenodd"
viewBox="0 0 21000 29700"
 xmlns:xlink="http://www.w3.org/1999/xlink">
 <defs>
  <style type="text/css">
   <![CDATA[
    .str3 {stroke:#2B2A29;stroke-width:7.62}
    .str14 {stroke:#5B6568;stroke-width:7.62}
    .str1 {stroke:#727271;stroke-width:7.62}
    .str10 {stroke:#898989;stroke-width:7.62}
    .str8 {stroke:#976B5C;stroke-width:7.62}
    .str12 {stroke:#FEFEFE;stroke-width:7.62}
    .str2 {stroke:#2B2A29;stroke-width:8.47}
    .str11 {stroke:#FEFEFE;stroke-width:8.47}
    .str13 {stroke:#FEFEFE;stroke-width:8.47;stroke-linecap:round;stroke-linejoin:round}
    .str6 {stroke:#976B5C;stroke-width:25.4}
    .str7 {stroke:#9C6950;stroke-width:25.4}
    .str5 {stroke:#2B2A29;stroke-width:33.87}
    .str0 {stroke:#727271;stroke-width:33.87}
    .str9 {stroke:#907165;stroke-width:33.87}
    .str4 {stroke:#2B2A29;stroke-width:42.33}
    .fil2 {fill:none}
    .fil61 {fill:none;fill-rule:nonzero}
    .fil40 {fill:black}
    .fil49 {fill:#00A64E}
    .fil62 {fill:#00C3DC}
    .fil59 {fill:#04C5DE}
    .fil22 {fill:#181C2B}
    .fil53 {fill:#20408D}
    .fil4 {fill:#252837}
    .fil25 {fill:#343A33}
    .fil50 {fill:#52B848}
    .fil55 {fill:#602209}
    .fil39 {fill:#B2B3B3}
    .fil23 {fill:#DC9675}
    .fil3 {fill:#DD9671}
    .fil21 {fill:#E79D78}
    .fil1 {fill:#EB2A3D}
    .fil51 {fill:#EB2F30}
    .fil26 {fill:#EB966E}
    .fil58 {fill:#ED1E32}
    .fil7 {fill:#EDEFEE}
    .fil56 {fill:#F77A28}
    .fil0 {fill:#F79A93}
    .fil14 {fill:#FEFEFE}
    .fil52 {fill:#FFD845}
    .fil57 {fill:#FFE711}
    .fil54 {fill:#FFEA3C}
    .fil60 {fill:#5B6568;fill-rule:nonzero}
    .fil35 {fill:url(#id9)}
    .fil29 {fill:url(#id10)}
    .fil6 {fill:url(#id11)}
    .fil24 {fill:url(#id12)}
    .fil47 {fill:url(#id13)}
    .fil12 {fill:url(#id14)}
    .fil27 {fill:url(#id15)}
    .fil16 {fill:url(#id16)}
    .fil17 {fill:url(#id17)}
    .fil34 {fill:url(#id18)}
    .fil11 {fill:url(#id19)}
    .fil5 {fill:url(#id20)}
    .fil9 {fill:url(#id21)}
    .fil46 {fill:url(#id22)}
    .fil20 {fill:url(#id23)}
    .fil19 {fill:url(#id24)}
    .fil32 {fill:url(#id25)}
    .fil18 {fill:url(#id26)}
    .fil31 {fill:url(#id27)}
    .fil33 {fill:url(#id28)}
    .fil41 {fill:url(#id29)}
    .fil42 {fill:url(#id30)}
    .fil43 {fill:url(#id31)}
    .fil44 {fill:url(#id32)}
    .fil13 {fill:url(#id33)}
    .fil15 {fill:url(#id34)}
    .fil37 {fill:url(#id35)}
    .fil38 {fill:url(#id36)}
    .fil30 {fill:url(#id37)}
    .fil36 {fill:url(#id38)}
    .fil48 {fill:url(#id39)}
    .fil45 {fill:url(#id40)}
    .fil28 {fill:url(#id41)}
    .fil8 {fill:url(#id42)}
    .fil10 {fill:url(#id43)}
   ]]>
  </style>
   <clipPath id="id0">
    <path d="M10144 28985l6749 0 0 -15753 -6439 0 -133 397 -176 15356z"/>
   </clipPath>
    <mask id="id1">
  <linearGradient id="id2" gradientUnits="userSpaceOnUse" x1="14314.9" y1="7918.72" x2="12722.4" y2="29368.5">
   <stop offset="0" style="stop-opacity:1; stop-color:white"/>
   <stop offset="1" style="stop-opacity:0; stop-color:white"/>
  </linearGradient>
     <rect style="fill:url(#id2)" x="10144" y="8110" width="6749" height="21067"/>
    </mask>
   <clipPath id="id3">
    <path d="M10144 28985l6749 0 0 -15753 -6439 0 -133 397 -176 15356z"/>
   </clipPath>
     <mask id="id4">
  <linearGradient id="id5" gradientUnits="userSpaceOnUse" x1="14173.8" y1="12960.9" x2="12968.5" y2="29196.3">
   <stop offset="0" style="stop-opacity:1; stop-color:white"/>
   <stop offset="1" style="stop-opacity:0; stop-color:white"/>
  </linearGradient>
      <rect style="fill:url(#id5)" x="10211" y="13161" width="6719" height="15834"/>
     </mask>
   <clipPath id="id6">
    <path d="M14015 15321l1662 0 0 -234 -1662 0 0 234 0 0z"/>
   </clipPath>
     <mask id="id7">
  <linearGradient id="id8" gradientUnits="userSpaceOnUse" x1="14815.3" y1="15426.1" x2="14876.7" y2="14981.9">
   <stop offset="0" style="stop-opacity:1; stop-color:white"/>
   <stop offset="1" style="stop-opacity:0; stop-color:white"/>
  </linearGradient>
      <rect style="fill:url(#id8)" x="14015" y="15088" width="1662" height="232"/>
     </mask>
  <linearGradient id="id9" gradientUnits="userSpaceOnUse" x1="11479" y1="9575.5" x2="18743" y2="9575.5">
   <stop offset="0" style="stop-color:#454545"/>
   <stop offset="1" style="stop-color:#3C3C3C"/>
  </linearGradient>
  <linearGradient id="id10" gradientUnits="userSpaceOnUse" x1="4539" y1="12658.5" x2="5557" y2="12658.5">
   <stop offset="0" style="stop-color:#A16B57"/>
   <stop offset="1" style="stop-color:#DD9671"/>
  </linearGradient>
  <linearGradient id="id11" gradientUnits="userSpaceOnUse" x1="4339" y1="2111" x2="5543" y2="2111">
   <stop offset="0" style="stop-color:black"/>
   <stop offset="1" style="stop-color:#4F2E2A"/>
  </linearGradient>
  <linearGradient id="id12" gradientUnits="userSpaceOnUse" x1="6682" y1="2414.5" x2="6894" y2="2414.5">
   <stop offset="0" style="stop-color:#2B2A29"/>
   <stop offset="1" style="stop-color:#64676F"/>
  </linearGradient>
  <linearGradient id="id13" gradientUnits="userSpaceOnUse" x1="10620" y1="28536" x2="19920" y2="28536">
   <stop offset="0" style="stop-color:#555555"/>
   <stop offset="1" style="stop-color:#2B2A29"/>
  </linearGradient>
  <linearGradient id="id14" gradientUnits="userSpaceOnUse" x1="5095" y1="3157" x2="6072" y2="3157">
   <stop offset="0" style="stop-color:#914E30"/>
   <stop offset="1" style="stop-color:#663825"/>
  </linearGradient>
  <linearGradient id="id15" gradientUnits="userSpaceOnUse" x1="4912" y1="13355" x2="5656" y2="13355">
   <stop offset="0" style="stop-color:#996350"/>
   <stop offset="1" style="stop-color:#DD9671"/>
  </linearGradient>
  <linearGradient id="id16" gradientUnits="userSpaceOnUse" x1="4477" y1="3305.5" x2="5132" y2="3305.5">
   <stop offset="0" style="stop-color:#B86A42"/>
   <stop offset="1" style="stop-color:#DD9671"/>
  </linearGradient>
  <linearGradient id="id17" gradientUnits="userSpaceOnUse" x1="6068" y1="3328" x2="6533" y2="3328">
   <stop offset="0" style="stop-color:#C27A57"/>
   <stop offset="1" style="stop-color:#DD9671"/>
  </linearGradient>
  <linearGradient id="id18" gradientUnits="userSpaceOnUse" x1="10292" y1="17809.5" x2="19579" y2="17809.5">
   <stop offset="0" style="stop-color:#EAEAEA"/>
   <stop offset="1" style="stop-color:#EEEEEE"/>
  </linearGradient>
  <linearGradient id="id19" gradientUnits="userSpaceOnUse" x1="4617" y1="2276.5" x2="5297" y2="2276.5">
   <stop offset="0" style="stop-color:black"/>
   <stop offset="1" style="stop-color:#4F2E2A"/>
  </linearGradient>
  <linearGradient id="id20" gradientUnits="userSpaceOnUse" xlink:href="#id19" x1="5821" y1="2239.5" x2="6737" y2="2239.5">
  </linearGradient>
  <linearGradient id="id21" gradientUnits="userSpaceOnUse" xlink:href="#id19" x1="5878" y1="2409" x2="6529" y2="2409">
  </linearGradient>
  <linearGradient id="id22" gradientUnits="userSpaceOnUse" x1="17367" y1="27690" x2="19811" y2="27690">
   <stop offset="0" style="stop-color:#555555"/>
   <stop offset="1" style="stop-color:#2B2A29"/>
  </linearGradient>
  <linearGradient id="id23" gradientUnits="userSpaceOnUse" x1="4985" y1="2612.5" x2="5292" y2="2612.5">
   <stop offset="0" style="stop-color:#914E30"/>
   <stop offset="1" style="stop-color:#663825"/>
  </linearGradient>
  <linearGradient id="id24" gradientUnits="userSpaceOnUse" xlink:href="#id23" x1="5846" y1="2697.5" x2="6380" y2="2697.5">
  </linearGradient>
  <linearGradient id="id25" gradientUnits="userSpaceOnUse" x1="5703" y1="2769" x2="5826" y2="2769">
   <stop offset="0" style="stop-color:#9B5332"/>
   <stop offset="1" style="stop-color:#DD9671"/>
  </linearGradient>
  <linearGradient id="id26" gradientUnits="userSpaceOnUse" x1="5720" y1="2769" x2="5826" y2="2769">
   <stop offset="0" style="stop-color:#A75E3D"/>
   <stop offset="1" style="stop-color:#DD9671"/>
  </linearGradient>
  <linearGradient id="id27" gradientUnits="userSpaceOnUse" xlink:href="#id26" x1="5725" y1="2769" x2="5826" y2="2769">
  </linearGradient>
  <linearGradient id="id28" gradientUnits="userSpaceOnUse" x1="10290" y1="17821" x2="19999" y2="17821">
   <stop offset="0" style="stop-color:#ACACAC"/>
   <stop offset="1" style="stop-color:#A1A1A1"/>
  </linearGradient>
  <linearGradient id="id29" gradientUnits="userSpaceOnUse" x1="13652" y1="15160.5" x2="15851" y2="15160.5">
   <stop offset="0" style="stop-color:#646464"/>
   <stop offset="1" style="stop-color:#4D4D4D"/>
  </linearGradient>
  <linearGradient id="id30" gradientUnits="userSpaceOnUse" x1="13828" y1="15393.5" x2="15673" y2="15393.5">
   <stop offset="0" style="stop-color:#3B3B3B"/>
   <stop offset="1" style="stop-color:#5E5E5E"/>
  </linearGradient>
  <linearGradient id="id31" gradientUnits="userSpaceOnUse" x1="14019" y1="15204" x2="15673" y2="15204">
   <stop offset="0" style="stop-color:black"/>
   <stop offset="1" style="stop-color:black"/>
  </linearGradient>
  <linearGradient id="id32" gradientUnits="userSpaceOnUse" x1="13828" y1="15337.5" x2="14019" y2="15337.5">
   <stop offset="0" style="stop-color:#212121"/>
   <stop offset="1" style="stop-color:#353535"/>
  </linearGradient>
  <linearGradient id="id33" gradientUnits="userSpaceOnUse" x1="5545" y1="4240" x2="5545" y2="3541">
   <stop offset="0" style="stop-color:#511C00"/>
   <stop offset="1" style="stop-color:#8C4D2B"/>
  </linearGradient>
  <linearGradient id="id34" gradientUnits="userSpaceOnUse" x1="6166" y1="3550.5" x2="4940" y2="3550.5">
   <stop offset="0" style="stop-color:#513328"/>
   <stop offset="0.301961" style="stop-color:#82360F"/>
   <stop offset="0.858824" style="stop-color:#84320E"/>
   <stop offset="1" style="stop-color:#39170E"/>
  </linearGradient>
  <linearGradient id="id35" gradientUnits="userSpaceOnUse" x1="14314.9" y1="7918.72" x2="12722.4" y2="29368.5">
   <stop offset="0" style="stop-color:white"/>
   <stop offset="1" style="stop-color:white"/>
  </linearGradient>
  <linearGradient id="id36" gradientUnits="userSpaceOnUse" x1="13091" y1="13153.4" x2="14051.3" y2="29003.8">
   <stop offset="0" style="stop-color:#DADADA"/>
   <stop offset="1" style="stop-color:#EBEBEB"/>
  </linearGradient>
  <linearGradient id="id37" gradientUnits="userSpaceOnUse" x1="4645.74" y1="11881.5" x2="5811.26" y2="12449.5">
   <stop offset="0" style="stop-color:#A16B57"/>
   <stop offset="1" style="stop-color:#DD9671"/>
  </linearGradient>
  <linearGradient id="id38" gradientUnits="userSpaceOnUse" x1="12655.5" y1="12054.5" x2="17553.5" y2="7156.48">
   <stop offset="0" style="stop-color:#C5C6C6"/>
   <stop offset="0.231373" style="stop-color:#E1E2E2"/>
   <stop offset="1" style="stop-color:#FEFEFE"/>
  </linearGradient>
  <linearGradient id="id39" gradientUnits="userSpaceOnUse" x1="17759.2" y1="28511.8" x2="19351.8" y2="26919.2">
   <stop offset="0" style="stop-color:#686868"/>
   <stop offset="1" style="stop-color:#B1B1B1"/>
  </linearGradient>
  <linearGradient id="id40" gradientUnits="userSpaceOnUse" x1="13734.7" y1="29084.5" x2="13789.4" y2="27914.5">
   <stop offset="0" style="stop-color:#6A6A6A"/>
   <stop offset="1" style="stop-color:#E7E7E7"/>
  </linearGradient>
  <linearGradient id="id41" gradientUnits="userSpaceOnUse" x1="4648.73" y1="12749.8" x2="5455.27" y2="13254.3">
   <stop offset="0" style="stop-color:#996350"/>
   <stop offset="1" style="stop-color:#DD9671"/>
  </linearGradient>
  <radialGradient id="id42" gradientUnits="userSpaceOnUse" cx="6173" cy="2537" r="106" fx="6173" fy="2537">
   <stop offset="0" style="stop-color:#883C24"/>
   <stop offset="0.0117647" style="stop-color:#2B2A29"/>
   <stop offset="0.490196" style="stop-color:#712D1B"/>
   <stop offset="1" style="stop-color:#270000"/>
   <stop offset="1" style="stop-color:#270000"/>
  </radialGradient>
  <radialGradient id="id43" gradientUnits="userSpaceOnUse" xlink:href="#id42" cx="5157" cy="2536.8" r="104" fx="5157" fy="2536.8">
  </radialGradient>
 </defs>
 <g id="Layer_x0020_1">
  <metadata id="CorelCorpID_0Corel-Layer"/>
  <g id="_700077408">
   <path class="fil0 str0" d="M3399 5215c0,0 219,-1598 228,-2241 9,-703 -272,-1531 386,-2127 847,-765 2852,-634 3229,862 0,0 1169,3193 1024,4132l-4867 -627 0 1z"/>
   <rect class="fil1" x="3728" y="4591" width="309" height="120"/>
   <rect class="fil1" x="3736" y="4009" width="309" height="120"/>
   <rect class="fil1" x="3777" y="3437" width="309" height="120"/>
   <rect class="fil1" x="4003" y="4276" width="260" height="120"/>
   <rect class="fil1" transform="matrix(1.25176 -0.704633 0.837371 1.48757 7599.85 4924.03)" width="181" height="71"/>
   <rect class="fil1" transform="matrix(1.25176 -0.704633 0.837371 1.48757 7734.79 4570.01)" width="181" height="71"/>
   <rect class="fil1" transform="matrix(1.25176 -0.704633 0.837371 1.48757 7080.44 3704.54)" width="181" height="71"/>
   <rect class="fil1" transform="matrix(1.25176 -0.704633 0.837371 1.48757 7479.4 3922.84)" width="181" height="71"/>
   <rect class="fil1" transform="matrix(1.25176 -0.704633 0.837371 1.48757 7223.46 3290.51)" width="181" height="71"/>
   <rect class="fil1" transform="matrix(0.969058 -0.545494 0.648253 1.15161 6875.52 3065.89)" width="181" height="71"/>
   <rect class="fil1" transform="matrix(1.05616 -0.158812 0.188729 1.25512 6757.81 3837.15)" width="181" height="71"/>
   <rect class="fil1" transform="matrix(0.969058 -0.545494 0.648253 1.15161 7323.15 2901.11)" width="181" height="71"/>
   <rect class="fil1" transform="matrix(1.25176 -0.704633 0.837371 1.48757 6922.35 2665.71)" width="181" height="71"/>
   <rect class="fil1" transform="matrix(1.17341 -0.660525 0.784954 1.39445 6721.91 2029.23)" width="181" height="71"/>
   <rect class="fil1" transform="matrix(1.25176 -0.704633 0.837371 1.48757 7050.33 2240.47)" width="181" height="71"/>
   <rect class="fil1" transform="matrix(1.25176 -0.704633 0.837371 1.48757 7246.04 4781)" width="181" height="71"/>
   <rect class="fil1" transform="matrix(1.25176 -0.704633 0.837371 1.48757 6862.14 4525.06)" width="181" height="71"/>
   <rect class="fil1" transform="matrix(1.42156 -0.206358 0.245232 1.68935 6525.67 4251.08)" width="181" height="71"/>
   <rect class="fil1" x="3447" y="4910" width="260" height="120"/>
   <rect class="fil2" x="3802" y="3437" width="260" height="120"/>
   <rect class="fil1" x="3640" y="3202" width="260" height="120"/>
   <rect class="fil1" x="3625" y="2050" width="260" height="120"/>
   <rect class="fil1" x="3759" y="1220" width="260" height="120"/>
   <rect class="fil2" x="3638" y="1497" width="235" height="120"/>
   <rect class="fil1" x="3638" y="1497" width="235" height="120"/>
   <rect class="fil1" x="4166" y="897" width="118" height="120"/>
   <rect class="fil1" x="6050" y="588" width="118" height="120"/>
   <rect class="fil1" x="3906" y="1772" width="227" height="120"/>
   <rect class="fil1" x="5603" y="1354" width="260" height="120"/>
   <rect class="fil1" x="5915" y="1623" width="260" height="120"/>
   <rect class="fil1" x="5132" y="426" width="211" height="98"/>
   <rect class="fil1" transform="matrix(0.0251683 1.16682 -1.38662 0.0299094 5587.3 431.094)" width="181" height="71"/>
   <rect class="fil1" transform="matrix(-0.0131174 0.820726 -1.38609 -0.0436518 5001.7 467.135)" width="181" height="71"/>
   <rect class="fil1" transform="matrix(-0.0171912 0.370862 -1.81655 -0.019725 5293.97 568.745)" width="181" height="71"/>
   <rect class="fil1" transform="matrix(-0.0131174 0.565868 -1.38609 -0.0300967 4329.92 1686.29)" width="181" height="71"/>
   <rect class="fil1" transform="matrix(-0.0131174 0.820726 -1.38609 -0.0436518 4348.68 702.043)" width="181" height="71"/>
   <rect class="fil1" transform="matrix(-0.0131174 0.820726 -1.38609 -0.0436518 4706.25 564.659)" width="181" height="71"/>
   <rect class="fil1" x="4709" y="1283" width="145" height="67"/>
   <rect class="fil1" x="5753" y="600" width="145" height="67"/>
   <rect class="fil1" x="5691" y="487" width="145" height="67"/>
   <rect class="fil1" x="4610" y="1511" width="145" height="67"/>
   <rect class="fil1" x="6786" y="1616" width="145" height="67"/>
   <rect class="fil1" x="4999" y="1338" width="260" height="120"/>
   <rect class="fil1" x="4150" y="1514" width="260" height="120"/>
   <rect class="fil1" x="6303" y="1356" width="260" height="120"/>
   <rect class="fil1" x="3570" y="3731" width="190" height="120"/>
   <rect class="fil1" x="3982" y="3723" width="260" height="120"/>
   <rect class="fil2" transform="matrix(-0.00563728 1.70705 -1.70705 -0.00563728 3934.04 4201.38)" width="181" height="71"/>
   <rect class="fil1" transform="matrix(-0.00563728 1.70705 -1.70705 -0.00563728 3934.04 4201.38)" width="181" height="71"/>
   <rect class="fil1" transform="matrix(0.793748 1.5113 -1.5113 0.793748 7882.15 5098.18)" width="181" height="71"/>
   <rect class="fil1" transform="matrix(0.793748 1.5113 -1.5113 0.793748 7355.24 3829.8)" width="181" height="71"/>
   <rect class="fil1" transform="matrix(0.289915 1.68226 -1.68226 0.289915 6955.16 4035.36)" width="181" height="71"/>
   <rect class="fil1" transform="matrix(0.118765 1.70292 -1.70292 0.118765 6485.84 4190.21)" width="181" height="71"/>
   <rect class="fil1" transform="matrix(0.0225505 1.70691 -1.70691 0.0225505 6585 3843.2)" width="181" height="71"/>
   <rect class="fil1" transform="matrix(0.793748 1.5113 -1.5113 0.793748 7513.33 3400.73)" width="181" height="71"/>
   <rect class="fil1" transform="matrix(0.579494 1.60569 -1.60569 0.579494 7601.78 2989.62)" width="181" height="71"/>
   <rect class="fil1" transform="matrix(0.793748 1.5113 -1.5113 0.793748 7223.25 2767.28)" width="181" height="71"/>
   <rect class="fil1" transform="matrix(0.793748 1.5113 -1.5113 0.793748 7061.02 1742.53)" width="181" height="71"/>
   <rect class="fil1" transform="matrix(0.793748 1.5113 -1.5113 0.793748 7325.11 2407.07)" width="181" height="71"/>
   <rect class="fil1" transform="matrix(0.610372 1.59421 -1.59421 0.610372 6942.41 2168.25)" width="181" height="71"/>
   <rect class="fil1" transform="matrix(0.478592 1.25002 -1.25002 0.478592 6693.26 1636.38)" width="181" height="71"/>
   <rect class="fil1" transform="matrix(0.112076 1.70338 -1.70338 0.112076 6781.15 3405.31)" width="181" height="71"/>
   <rect class="fil1" transform="matrix(0.793748 1.5113 -1.5113 0.793748 7083.63 3217.96)" width="181" height="71"/>
   <rect class="fil1" transform="matrix(0.665618 1.5113 -1.57859 0.793748 7767.07 4055.63)" width="181" height="71"/>
   <rect class="fil1" transform="matrix(0.755233 1.43797 -1.43797 0.755233 7986.18 4650.42)" width="181" height="71"/>
   <rect class="fil1" transform="matrix(0.408908 1.65736 -1.65736 0.408908 7342.48 4274.31)" width="181" height="71"/>
   <rect class="fil1" transform="matrix(0.722064 1.54683 -1.54683 0.722064 7626.44 4472.77)" width="181" height="71"/>
   <rect class="fil1" transform="matrix(0.853583 1.47833 -1.47833 0.853583 7465.34 4918.51)" width="181" height="71"/>
   <rect class="fil1" transform="matrix(0.853583 1.47833 -1.47833 0.853583 7051.33 4692.69)" width="181" height="71"/>
   <rect class="fil1" transform="matrix(-0.0356253 1.70669 -1.70669 -0.0356253 6748.33 4462.53)" width="181" height="71"/>
   <rect class="fil1" transform="matrix(-0.00563728 1.70705 -1.70705 -0.00563728 3958.5 3640.59)" width="181" height="71"/>
   <rect class="fil1" transform="matrix(-0.00563728 1.70705 -1.70705 -0.00563728 3755.24 2829.79)" width="181" height="71"/>
   <rect class="fil1" transform="matrix(-0.00563728 1.70705 -1.70705 -0.00563728 3751.49 1689.16)" width="181" height="71"/>
   <rect class="fil1" transform="matrix(-0.00563728 1.70705 -1.70705 -0.00563728 4528.73 1382.29)" width="181" height="71"/>
   <rect class="fil1" transform="matrix(-0.00563728 1.70705 -1.70705 -0.00563728 5499.74 1269.64)" width="181" height="71"/>
   <rect class="fil1" transform="matrix(-0.00563728 1.70705 -1.70705 -0.00563728 6162.18 1269.64)" width="181" height="71"/>
   <rect class="fil1" transform="matrix(-0.00563728 1.70705 -1.70705 -0.00563728 4099.64 1390.22)" width="181" height="71"/>
   <rect class="fil1" transform="matrix(-0.00563728 1.47726 -1.70705 -0.00487844 5829.08 1550.09)" width="181" height="71"/>
   <rect class="fil1" transform="matrix(-0.00563728 1.23767 -1.70705 -0.00408722 6515.99 1497.32)" width="181" height="71"/>
   <rect class="fil1" transform="matrix(-0.00563728 1.58166 -1.70705 -0.00522319 4363.11 1073.83)" width="181" height="71"/>
   <rect class="fil1" transform="matrix(-0.00563728 1.33168 -1.70705 -0.00439766 4103.42 923.51)" width="181" height="71"/>
   <rect class="fil1" transform="matrix(-0.00563728 1.70705 -1.70705 -0.00563728 3747.73 3373.35)" width="181" height="71"/>
   <rect class="fil1" transform="matrix(-0.00563728 1.70705 -1.70705 -0.00563728 4233.24 3911.57)" width="181" height="71"/>
   <rect class="fil1" transform="matrix(-0.00563728 1.70705 -1.70705 -0.00563728 3759.03 2212.34)" width="181" height="71"/>
   <rect class="fil1" transform="matrix(-0.00563728 1.70705 -1.70705 -0.00563728 4225.74 3365.84)" width="181" height="71"/>
   <rect class="fil1" transform="matrix(-0.00563728 1.70705 -1.70705 -0.00563728 3700.7 3921.62)" width="181" height="71"/>
   <rect class="fil1" transform="matrix(-0.00563728 0.894731 -1.70705 -0.00295471 3751.47 4263.42)" width="181" height="71"/>
   <rect class="fil1" transform="matrix(-0.00563728 0.894731 -1.70705 -0.00295471 3759.03 2594.31)" width="181" height="71"/>
   <rect class="fil1" transform="matrix(-0.00563728 0.665603 -1.70705 -0.00219805 3935.94 4752.78)" width="181" height="71"/>
   <rect class="fil1" transform="matrix(-0.00563728 0.665603 -1.70705 -0.00219805 4188.09 4462.98)" width="181" height="71"/>
   <rect class="fil1" transform="matrix(-0.00563728 1.39306 -1.70705 -0.00460038 3655.58 4550.16)" width="181" height="71"/>
   <rect class="fil1" x="7076" y="4066" width="158" height="136"/>
   <rect class="fil1" x="7441" y="4232" width="158" height="136"/>
   <rect class="fil1" transform="matrix(0.795089 -0.310399 0.620797 1.59018 6222.62 4329.73)" width="93" height="79"/>
   <rect class="fil1" x="7652" y="3445" width="114" height="98"/>
   <rect class="fil1" x="7797" y="3910" width="114" height="98"/>
   <rect class="fil1" x="6847" y="3404" width="158" height="136"/>
   <rect class="fil1" x="6700" y="3125" width="158" height="136"/>
   <rect class="fil1" x="7991" y="5462" width="158" height="136"/>
   <rect class="fil1" x="6395" y="4651" width="158" height="136"/>
   <rect class="fil1" x="7648" y="5307" width="98" height="84"/>
   <rect class="fil1" x="8021" y="5112" width="98" height="129"/>
   <rect class="fil1" x="7268" y="5097" width="98" height="84"/>
   <rect class="fil2" x="6828" y="4841" width="98" height="84"/>
   <rect class="fil1" x="6754" y="4841" width="172" height="84"/>
   <path class="fil3 str0" d="M4274 3735c-8,196 16,388 -2,584l-39 442c-49,556 782,805 1224,820 418,8 860,-244 860,-704l0 -671c0,0 -1177,628 -2044,-470l1 -1z"/>
   <path class="fil3 str1" d="M5628 1750c248,132 722,-335 1077,198 153,229 85,797 38,1059 -24,136 -43,189 -22,69 0,0 71,335 -229,853 0,0 -538,981 -1256,725 -718,-256 -1065,-1195 -1065,-1195l-245 -1184c0,0 -3,-19 -2,-51 1,-31 7,-74 25,-121 18,-47 48,-98 97,-146 50,-47 119,-91 216,-124 508,-170 770,-402 1365,-84l1 1zm586 1887c34,-1003 -57,1685 0,0z"/>
   <path class="fil4" d="M4415 1797c0,0 -571,718 0,1707 0,0 139,198 298,271 -145,-631 545,-548 867,-423 336,-106 864,-157 709,369 0,0 331,-60 433,-645 0,0 71,335 -229,853 0,0 -538,981 -1256,725 -718,-256 -1065,-1195 -1065,-1195l-208 -1007 -37 -177c0,0 -63,-387 488,-478zm474 1861c-29,460 552,822 449,492 -8,-25 -52,-93 -29,-84 155,59 303,73 436,6 68,-35 49,62 27,90 -65,83 -31,263 238,-5 97,-96 152,-256 161,-501 9,-263 -472,-164 -629,-153 -294,-4 -635,-132 -653,155z"/>
   <path class="fil5" d="M6404 2074l-379 0c-204,0 -114,169 99,169l291 0c113,0 253,79 322,162 0,0 -99,-324 -334,-331l1 0z"/>
   <path class="fil6" d="M5387 2024c-175,-98 -661,-102 -815,26 -114,95 -233,250 -141,217 72,-27 114,-80 176,-105 103,-41 311,-59 679,24 125,28 257,-75 101,-162z"/>
   <path class="fil7 str2" d="M5878 2568c0,0 157,-290 652,0 0,0 -275,215 -652,0z"/>
   <circle class="fil8" cx="6173" cy="2537" r="106"/>
   <path class="fil9" d="M5878 2556c0,0 247,-392 649,9 2,2 -7,18 -12,15 -384,-238 -637,-24 -637,-24zm241 98c-75,-12 -157,-41 -241,-98 87,55 168,85 241,98z"/>
   <path class="fil7 str2" d="M5292 2527c0,0 -203,-281 -602,-97 -10,4 -18,11 -27,17 -15,10 -30,21 -45,34 0,0 311,165 675,46l-1 0z"/>
   <circle class="fil10" cx="4949" cy="2464" r="104"/>
   <path class="fil11" d="M5292 2527c0,0 -254,-518 -675,-46 7,-5 7,7 14,3 387,-253 666,60 661,43z"/>
   <path class="fil12" d="M5211 2957c-1,0 -47,151 138,208 215,67 177,193 337,148 40,-11 44,-25 90,-71 116,-114 187,-15 210,-240 4,-43 86,6 31,147 -17,43 -78,47 -133,73 -87,42 -165,114 -252,124 -63,8 -46,7 -98,-25 -125,-79 -169,-49 -276,-95 -73,-31 -163,-105 -47,-270l0 1z"/>
   <path class="fil13 str3" d="M4941 3541c281,285 902,325 1208,41 -310,658 -1066,363 -1208,-41z"/>
   <path class="fil14 str3" d="M4984 3584c343,331 761,366 1140,20 -52,30 -1027,56 -1140,-20z"/>
   <path class="fil15 str3" d="M6165 3603c0,0 -51,-194 -631,-99 -64,-21 -268,-45 -418,-32 -99,9 -171,48 -175,69 -1,6 43,40 51,47 114,104 1160,9 1174,14l-1 1z"/>
   <path class="fil16" d="M5132 2992c0,0 -480,347 -448,627 0,0 -207,-382 448,-627z"/>
   <path class="fil17" d="M6068 3032c0,0 465,291 301,592 0,0 36,-235 -301,-592z"/>
   <path class="fil18" d="M5826 2417l0 491c0,52 -11,230 -83,230 0,0 -23,-738 83,-721z"/>
   <path class="fil19" d="M5891 2602c0,0 91,84 489,60 0,0 -534,131 -489,-60z"/>
   <path class="fil20" d="M5292 2527c0,0 -86,164 -307,171 0,0 154,-86 307,-171z"/>
   <path class="fil4 str4" d="M6896 1506c0,0 364,344 337,-139 32,-796 -3201,-1084 -2891,-324 181,282 584,166 881,172 469,9 1459,56 1672,291l1 0z"/>
   <path class="fil2 str5" d="M4361 944c0,0 1649,-278 2801,380"/>
   <path class="fil2 str0" d="M6964 4172c0,0 20,-1039 -73,-1422"/>
   <path class="fil2 str0" d="M3927 2275c-16,-217 -75,-913 239,-915 114,-1 352,-1 503,14 0,0 246,31 513,224"/>
   <path class="fil21 str6" d="M3688 2537c49,279 162,759 352,744 61,-5 60,-73 46,-154 -32,-183 -91,-510 -144,-705 -84,-308 -320,-261 -254,115z"/>
   <path class="fil22 str3" d="M6514 27721c0,0 -152,558 205,670 0,0 483,99 642,357 0,0 463,741 1786,351 0,0 152,-99 -106,-456 0,0 -545,-493 -796,-958 -7,-13 20,13 13,0 -7,-13 366,56 -1744,36z"/>
   <path class="fil2 str7" d="M3944 2951c0,0 53,-529 -198,-489"/>
   <path class="fil23 str8" d="M6894 2587c0,0 35,644 -173,489 0,0 27,-548 173,-489z"/>
   <path class="fil24" d="M6737 2913l-20 -704c0,0 15,-157 -10,-225 -25,-68 22,13 22,13 0,0 124,114 165,590 0,0 -126,-45 -157,326z"/>
   <path class="fil22 str3" d="M4074 27484c-5,29 9,204 16,380 7,169 9,338 -16,380 0,0 -529,218 -1019,132 0,0 -814,671 -2441,321 0,0 -370,-126 99,-357 470,-232 1435,-873 1753,-1237 0,0 184,78 586,184 255,67 613,169 1022,196l0 1z"/>
   <path class="fil7 str0" d="M2094 10274l-736 -367 -499 -78 -267 7c1220,-102 1827,756 2732,1442 1058,218 1510,215 1510,215l-412 1889 -112 126c-300,-81 -1169,-542 -1541,-715 -22,-10 -42,-19 -61,-27 -30,-13 -69,-31 -117,-52 -480,-220 -1782,-864 -1992,-1482 0,0 -701,-635 53,-2897 0,0 519,-1419 1121,-2094 0,0 1482,-1118 2289,-1277 0,0 -7,-269 178,-309 0,0 -66,990 1475,911 0,0 608,-108 618,-757 0,0 1701,710 2256,1272 0,0 1316,1468 1541,3440 0,0 265,1793 -370,2441 0,0 -824,672 -1989,1258 -626,315 -1099,694 -1179,694 -205,0 172,-1039 -609,-2077l258 20c0,0 1217,-833 1607,-794 0,0 40,-179 483,-271 0,0 -205,-370 79,-642 0,0 -529,-846 -496,-860 14,-6 109,1277 241,1657 0,0 351,2917 423,3063 0,0 126,2881 96,3397 0,0 53,4432 0,4663l-20 4796c0,0 225,992 -1005,873 -1155,-4 -3582,-34 -4630,-463 0,0 -754,-30 -701,-380l46 -318 -410 -20c0,0 708,-8202 549,-10187 0,0 -291,-2215 247,-3537 539,-1322 50,-2094 50,-2094 0,0 -268,-1421 -195,-1722 0,0 -17,528 -334,872 0,0 -45,81 -177,385l0 -1z"/>
   <polygon class="fil25" points="4325,13506 4545,13224 4689,13356 "/>
   <polygon class="fil25" points="6510,13799 6510,13131 6196,13445 "/>
   <path class="fil7" d="M2737 12778c0,0 32,16 38,20 113,58 1190,605 1533,709 0,0 148,-135 145,-216 -4,-81 259,-1661 259,-1661l113 -129c0,0 -1085,-89 -1502,-224l-419 -343 -67 -57c0,0 318,815 -99,1900l-1 1z"/>
   <path class="fil26 str9" d="M5964 13539c-630,99 -986,20 -979,-159 0,0 -947,-8 -501,-368 0,0 -452,-175 118,-433 0,0 -416,-132 -67,-304 193,-690 470,-841 760,-823 324,19 130,-79 468,61 50,21 154,63 222,78 60,14 82,-19 22,59 -219,286 -359,56 -522,61 -123,4 -413,37 -260,264 0,0 77,40 265,-152 0,0 526,-245 667,331 274,528 627,1255 -193,1384l0 1z"/>
   <path class="fil2 str0" d="M6449 4858c18,-40 136,918 -1009,1037 0,0 -1111,-36 -1435,-914"/>
   <path class="fil2 str0" d="M5595 9664l298 0c0,0 -235,-3714 -291,-4071l-306 -27c0,0 339,2838 299,4099l0 -1z"/>
   <path class="fil2 str5" d="M4057 27864c0,0 -870,134 -1161,326 0,0 -403,470 -1409,489 0,0 -771,36 -936,-96"/>
   <path class="fil2 str5" d="M6521 27942c-42,-4 452,306 867,728"/>
   <path class="fil27" d="M5001 13421c-17,6 446,50 655,-106l-10 -76 0 0 -509 136 509 -136 -509 136 -225 -79 89 126 0 -1z"/>
   <path class="fil28" d="M5568 12993c31,2 -700,163 -1104,66l-17 -76 0 0 881 0 -881 0 881 0 329 -135 -90 144 1 1z"/>
   <path class="fil29" d="M5462 12673c25,5 -601,159 -920,-8l-3 -105 0 0 727 79 -727 -79 727 79 291 -154 -96 188 1 0z"/>
   <path class="fil30" d="M4551 12303c0,0 847,20 1124,-103 278,-122 -364,-192 -364,-192l99 83c0,0 -674,148 -790,86 0,0 -116,14 -70,126l1 0z"/>
   <path class="fil2 str0" d="M6717 12052c0,0 -281,-159 -688,-192"/>
   <path class="fil2 str0" d="M9502 10134c0,0 -105,384 -854,623 -389,124 -488,44 -905,370"/>
   <path class="fil2 str0" d="M2599 9381c0,0 52,-1386 -152,-2058 -85,-281 -503,-911 -675,-1084"/>
   <path class="fil2 str0" d="M7913 9289c16,-518 86,-1468 192,-1786 0,0 164,-784 482,-1422"/>
   <path class="fil31" d="M5826 2417l0 491c0,52 -10,230 -79,230 0,0 -22,-738 79,-721z"/>
   <path class="fil32" d="M5826 2417l0 491c0,52 -13,230 -96,230 0,0 -27,-738 96,-721z"/>
   <path class="fil2 str0" d="M4323 963c0,0 -66,154 533,443 98,48 191,131 326,191"/>
   <path class="fil2 str0" d="M2377 26521c0,0 288,-648 499,-4670"/>
   <path class="fil7" d="M8462 12841c0,0 -20,11 -62,33 -314,171 -1657,905 -1764,1023 0,0 -108,70 -115,-129 0,0 -35,-1423 -539,-1933l258 20c0,0 1155,-806 1607,-794 0,0 169,-160 320,-184l294 1964 1 0z"/>
   <path class="fil2 str0" d="M6670 11859c0,0 -220,-39 -403,-23 -121,11 -249,13 -338,-9"/>
   <path class="fil2 str0" d="M9486 11572c0,0 -1185,-179 -1664,-509"/>
  </g>
 </g>
 <g id="Layer_x0020_1_0">
  <metadata id="CorelCorpID_1Corel-Layer"/>
  <rect class="fil2" width="21000" height="29700"/>
  <polygon class="fil14" points="13440,8165 18284,7753 16726,11499 11933,11574 "/>
  <path class="fil33" d="M17254 29082l-3 0 2668 -1208 -3 -499c0,-20 -2538,637 -2538,482 7,-1867 2,-6536 -5,-9884 -2,-1072 25,-2341 -4,-3472 -21,-827 157,-1190 364,-1718 341,-870 1338,-3537 1876,-4769 82,-187 137,-391 231,-572 159,-308 -116,-413 -314,-668 -169,-217 -392,-194 -658,-166l-5189 460c-279,43 -613,86 -782,504l-2466 5703c-128,425 -74,801 -111,1202 0,0 -30,12558 -2,13143 8,161 251,366 408,425 8,3 16,6 23,8l6097 991c135,32 265,37 407,41l1 -3z"/>
  <path class="fil34" d="M17254 29082l-3 0c-414,-8 -419,-238 -415,-586 12,-1068 21,-6973 13,-10826 -2,-1072 47,-2261 5,-3392 -33,-881 164,-1164 371,-1692 422,-1076 2092,-5262 2218,-5641 136,-409 -348,-362 -581,-342l-5172 453c-279,43 -622,97 -791,514l-2466 5703c-128,425 -74,801 -111,1202 0,0 -30,12558 -2,13143 8,161 251,366 408,425 8,3 16,6 23,8l6097 991c135,32 265,37 407,41l-1 -1z"/>
  <polygon class="fil35" points="13267,7843 18730,7400 18743,7342 13213,7803 11797,11076 11479,11809 11551,11805 "/>
  <polygon class="fil14" points="13213,7803 18743,7342 18764,7273 13140,7718 11725,10991 11406,11723 11478,11720 "/>
  <polygon class="fil36 str10" points="13266,7844 18731,7401 16934,11766 11478,11810 11550,11806 "/>
  <path class="fil14" d="M17254 29082l-3 0c-378,-7 -415,-199 -416,-497 -8,-3637 8,-7277 13,-10915l5 -3392c0,-41 -1,-276 10,-514 12,-253 128,-553 50,-458 -25,30 -134,214 -173,664l1 980 4 13731c0,368 184,397 509,401z"/>
  <g style="clip-path:url(#id0)">
   <polygon class="fil37" style="mask:url(#id1)" points="10144,8110 16893,8110 16893,29177 10144,29177 "/>
  </g>
  <g style="clip-path:url(#id3)">
   <g id="_700068192">
    <path id="1" class="fil38" style="mask:url(#id4)" d="M16858 13181l-6484 64c-27,63 -56,140 -61,266 -117,3056 -96,14169 -97,14183 -13,112 200,292 495,357 1838,400 4056,700 5923,924 37,4 -27,-1066 9,-2577 61,-2600 -2,-5917 -2,-8290 -1,-2373 -28,-4344 104,-4593 27,-52 201,-336 114,-335l-1 1z"/>
   </g>
  </g>
  <polygon class="fil2" points="10144,28985 16893,28985 16893,13232 10454,13232 10321,13629 "/>
  <path class="fil39" d="M13733 7062l-54 5c-279,43 -613,86 -782,504l-2422 5599c-22,50 -44,97 -58,150 -78,287 -77,552 -82,819 -2,111 -5,223 -16,336 0,0 -30,12558 -2,13143 6,122 146,273 284,362 43,28 86,50 125,63l23 8c-206,-30 -448,-269 -448,-408l1 -13674c0,-307 36,-582 158,-864l2456 -5655c187,-430 971,-402 816,-387l1 -1z"/>
  <polygon class="fil40" points="13652,14495 15880,14523 15890,15828 13652,15735 "/>
  <polygon class="fil41" points="13652,14495 15851,14522 15851,15826 13652,15735 "/>
  <polygon class="fil42" points="13828,15083 15673,15114 15673,15704 13828,15592 "/>
  <g style="clip-path:url(#id6)">
   <g id="_699989264">
    <polygon class="fil43" style="mask:url(#id7)" points="14019,15092 15673,15114 15673,15316 14019,15271 "/>
   </g>
  </g>
  <polyline class="fil2" points="14015,15321 15677,15321 15677,15087 14015,15087 14015,15321 "/>
  <polygon class="fil44" points="13828,15083 14019,15092 14019,15271 13828,15592 "/>
  <path class="fil45" d="M16759 28893c29,-10 -6216,-958 -6216,-958 0,0 65,65 196,112 0,0 6124,1017 6242,1012 0,0 -133,-18 -222,-166z"/>
  <path class="fil14" d="M17395 26958l-15 782c-13,682 103,736 636,495l1900 -860 -2520 -417 -1 0z"/>
  <path class="fil46" d="M17395 26958l-15 782c-13,682 129,642 651,406l1780 -806 -2416 -382z"/>
  <path class="fil47" d="M19903 27927l-2462 1137c0,0 -156,134 -545,67l-6228 -1033c0,0 -48,-44 -44,-88l6244 1033c215,35 361,70 574,-50l2478 -1119 -16 53 -1 0z"/>
  <path class="fil48" d="M17395 27009l-15 731c-14,682 128,642 651,406l1714 -776 -2351 -361 1 0z"/>
  <ellipse class="fil49" cx="17260" cy="8187" rx="291" ry="296"/>
  <circle class="fil2" cx="17260" cy="8170" r="222"/>
  <circle class="fil14" cx="17260" cy="8172" r="226"/>
  <path class="fil50" d="M17295 7995c0,0 15,-29 48,-11 0,0 20,13 28,25 0,0 -25,-1 -28,0 -3,1 55,18 57,44 0,0 3,-3 -11,3 0,0 44,31 51,56l-14 -6 -14 -2 -5 -6c0,0 -14,7 -34,-8l-7 5 -10 4c0,0 28,21 31,71l-12 -13 -6 1 -11 -16 -8 9 -16 -23c0,0 -4,59 -20,75l-6 -14 -3 -33c0,0 -3,-18 -14,-30 0,0 -17,98 -25,91l-5 -66c0,0 -11,-11 -17,8 0,0 -12,0 -9,22l-3 27c0,0 -43,-57 -10,-99 0,0 -3,-12 -12,-3 0,0 -24,31 -26,82 0,0 -32,-47 -8,-78 0,0 14,-21 26,-29 0,0 3,-12 -9,-2 0,0 -17,12 -21,16 0,0 -15,3 -10,-9 0,0 -30,19 -25,5 0,0 -32,30 -32,24 0,0 -5,-62 78,-67 0,0 2,-7 -4,-6 0,0 -43,-7 -50,4 0,0 29,-47 82,-31 0,0 9,-6 -5,-9 0,0 2,-10 -9,-9 -12,1 -20,-11 -12,-20 8,-9 28,-21 56,13 0,0 13,17 24,7 0,0 3,-8 -3,-9 -6,-1 -18,-8 -6,-27 0,0 20,-20 30,13 0,0 8,31 9,21z"/>
  <path class="fil51" d="M17347 8291l33 26c10,7 22,5 35,4 -8,32 -30,31 -53,14l-36 -26 18 -2 3 -16z"/>
  <path class="fil52" d="M17208 8303l-18 -22 0 0 18 22 1 0c9,-8 135,-118 233,-102 -75,-37 -191,31 -251,80l0 0c-4,3 -7,6 -10,9l-2 18 18 4 12 -9 -1 0z"/>
  <path class="fil2" d="M17331 8313l30 22c0,0 42,34 53,-14"/>
  <path class="fil53" d="M17263 7912c146,0 264,155 264,264 0,109 -72,205 -153,252l-4 -55 35 -24 24 -23c36,-40 58,-92 58,-150 0,-123 -100,-223 -223,-223 -123,0 -223,100 -223,223 0,78 40,147 101,187l-17 38c-75,-47 -125,-130 -125,-224 0,-146 118,-264 264,-264l-1 -1z"/>
  <path class="fil54" d="M17398 8386c-11,2 -14,-11 -4,-9 14,1 8,29 -10,18 -16,7 26,19 24,-13 0,-5 -4,-9 -9,-11 -2,-1 -5,-1 -7,-1 -11,1 -18,15 -5,21 4,2 11,2 11,-4l0 -1z"/>
  <path class="fil54" d="M17440 8357c-11,2 -14,-11 -4,-9 14,1 8,29 -10,18 -16,7 26,19 24,-13 0,-5 -4,-9 -9,-11 -2,-1 -5,-1 -7,-1 -11,1 -18,15 -5,21 4,2 11,2 11,-4l0 -1z"/>
  <path class="fil2" d="M17460 8311c12,1 10,15 1,10 -13,-6 2,-30 15,-14 17,-2 -19,-27 -27,4 -1,5 1,10 5,14 2,2 4,3 7,4 11,3 22,-9 12,-18 -4,-3 -10,-5 -12,1l-1 -1z"/>
  <path class="fil54" d="M17460 8311c12,1 10,15 1,10 -13,-6 2,-30 15,-14 17,-2 -19,-27 -27,4 -1,5 1,10 5,14 2,2 4,3 7,4 11,3 22,-9 12,-18 -4,-3 -10,-5 -12,1l-1 -1z"/>
  <path class="fil54" d="M17489 8252c12,1 10,15 1,10 -13,-6 2,-30 15,-14 17,-2 -19,-27 -27,4 -1,5 1,10 5,14 2,2 4,3 7,4 11,3 22,-9 12,-18 -4,-3 -10,-5 -12,1l-1 -1z"/>
  <path class="fil54" d="M17092 8353c-6,8 -16,1 -8,-4 10,-7 22,15 4,18 -7,14 29,-2 9,-23 -3,-3 -8,-4 -13,-3 -2,1 -4,2 -6,3 -7,7 -4,21 9,18 4,-1 9,-6 5,-9z"/>
  <path class="fil54" d="M17063 8316c5,-7 13,-1 7,3 -8,6 -18,-12 -3,-15 5,-12 -24,2 -8,19 3,3 7,3 10,2 2,-1 3,-2 5,-3 6,-6 3,-17 -7,-14 -3,1 -7,5 -4,8z"/>
  <path class="fil54" d="M17036 8250c-5,7 -13,1 -7,-3 8,-6 18,12 3,14 -5,11 23,-2 7,-18 -3,-3 -7,-3 -10,-2 -2,1 -3,1 -5,3 -5,5 -3,17 7,14 3,-1 7,-4 4,-7l1 -1z"/>
  <path class="fil54" d="M17020 8201c8,3 12,-5 4,-6 -10,-1 -10,19 4,14 10,7 -21,10 -15,-12 1,-4 4,-6 8,-7 2,0 4,0 5,0 7,2 11,13 1,15 -3,1 -8,0 -7,-4z"/>
  <path class="fil54" d="M17500 8146c8,3 12,-5 4,-6 -10,-1 -10,19 4,14 10,7 -21,10 -15,-12 1,-4 4,-6 8,-7 2,0 4,0 5,0 7,2 11,13 1,15 -3,1 -8,0 -7,-4z"/>
  <path class="fil2" d="M17017 8138c8,-4 12,6 4,7 -10,1 -10,-22 4,-16 10,-8 -21,-11 -15,14 1,4 4,7 8,8 2,0 4,0 5,0 7,-2 11,-15 1,-18 -3,-1 -8,1 -7,5z"/>
  <path class="fil54" d="M17017 8138c8,-4 12,6 4,7 -10,1 -10,-22 4,-16 10,-8 -21,-11 -15,14 1,4 4,7 8,8 2,0 4,0 5,0 7,-2 11,-15 1,-18 -3,-1 -8,1 -7,5z"/>
  <path class="fil54" d="M17033 8096c8,4 12,-7 4,-8 -10,-1 -10,24 4,18 10,9 -21,13 -15,-15 1,-5 4,-8 8,-8 2,0 4,0 5,0 7,3 11,17 1,20 -3,1 -8,-1 -7,-6l0 -1z"/>
  <path class="fil54" d="M17467 8054c8,4 12,-7 4,-8 -10,-1 -10,24 4,18 10,9 -21,13 -15,-15 1,-5 4,-8 8,-8 2,0 4,0 5,0 7,3 11,17 1,20 -3,1 -8,-1 -7,-6l0 -1z"/>
  <path class="fil54" d="M17056 8053c-9,0 -7,-11 0,-9 9,4 -3,26 -12,13 -13,4 13,21 21,-7 1,-4 0,-9 -3,-11 -1,-1 -3,-2 -5,-2 -8,-1 -17,10 -10,17 2,2 7,3 9,-2l0 1z"/>
  <path class="fil54" d="M17493 8098c-6,6 -13,-3 -6,-6 9,-4 17,20 2,18 -6,12 24,5 9,-20 -2,-4 -6,-6 -10,-5 -2,0 -4,1 -5,2 -6,5 -5,19 6,19 3,0 7,-3 5,-8l-1 0z"/>
  <path class="fil54" d="M17503 8204c-8,4 -11,-7 -4,-8 10,-1 9,24 -5,17 -10,9 21,13 15,-15 -1,-5 -4,-8 -8,-9 -2,-1 -4,-1 -5,0 -7,3 -11,17 -1,20 3,1 8,0 7,-6l1 1z"/>
  <path class="fil54" d="M17123 7980c-3,-8 -13,-3 -8,3 6,8 24,-10 9,-15 -1,-14 24,6 0,22 -4,3 -8,2 -11,1 -2,-1 -3,-2 -4,-4 -3,-7 4,-19 13,-15 3,2 5,6 1,9l0 -1z"/>
  <path class="fil54" d="M17152 7955c2,7 11,3 7,-2 -5,-7 -20,9 -8,13 0,11 -20,-5 0,-18 3,-2 7,-2 10,0 1,1 2,2 3,3 3,6 -4,16 -11,12 -3,-1 -4,-5 -1,-8z"/>
  <path class="fil54" d="M17197 7937c2,7 11,3 7,-2 -5,-7 -20,9 -8,13 0,11 -20,-5 0,-18 3,-2 7,-2 10,0 1,1 2,2 3,3 3,6 -4,16 -11,12 -3,-1 -4,-5 -1,-8z"/>
  <path class="fil54" d="M17230 7932c2,7 11,3 7,-2 -5,-7 -20,9 -8,13 0,11 -20,-5 0,-18 3,-2 7,-2 10,0 1,1 2,2 3,3 3,6 -4,16 -11,12 -3,-1 -4,-5 -1,-8z"/>
  <path class="fil54" d="M17296 7933c-2,7 -13,3 -8,-2 6,-7 23,9 9,13 -1,11 23,-5 0,-18 -4,-2 -8,-2 -11,0 -2,1 -3,2 -4,3 -3,6 4,16 13,12 3,-1 5,-5 1,-8z"/>
  <path class="fil54" d="M17331 7940c-2,7 -13,3 -8,-2 6,-7 23,9 9,13 -1,11 23,-5 0,-18 -4,-2 -8,-2 -11,0 -2,1 -3,2 -4,3 -3,6 4,16 13,12 3,-1 5,-5 1,-8z"/>
  <path class="fil54" d="M17374 7959c-2,7 -13,3 -8,-2 6,-7 23,9 9,13 -1,11 23,-5 0,-18 -4,-2 -8,-2 -11,0 -2,1 -3,2 -4,3 -3,6 4,16 13,12 3,-1 5,-5 1,-8z"/>
  <path class="fil2" d="M17445 8013c-2,7 -13,3 -8,-2 6,-7 23,9 9,13 -1,11 23,-5 0,-18 -4,-2 -8,-2 -11,0 -2,1 -3,2 -4,3 -3,6 4,16 13,12 3,-1 5,-5 1,-8z"/>
  <path class="fil54" d="M17445 8013c-2,7 -13,3 -8,-2 6,-7 23,9 9,13 -1,11 23,-5 0,-18 -4,-2 -8,-2 -11,0 -2,1 -3,2 -4,3 -3,6 4,16 13,12 3,-1 5,-5 1,-8z"/>
  <path class="fil54" d="M17407 7985c3,-8 14,-3 9,2 -7,7 -26,-10 -10,-14 1,-13 -25,5 0,20 4,2 9,2 12,0 2,-1 3,-2 4,-4 4,-7 -5,-18 -14,-13 -3,2 -6,6 -1,8l0 1z"/>
  <path class="fil54" d="M17096 8372l22 20c0,0 -22,-4 -22,-20z"/>
  <path class="fil2" d="M17079 8322l22 20c0,0 -22,-4 -22,-20z"/>
  <path class="fil54" d="M17079 8322l22 20c0,0 -22,-4 -22,-20z"/>
  <path class="fil54" d="M17146 7971l29 -8c0,0 -15,16 -29,8z"/>
  <path class="fil54" d="M17088 7984l22 20c0,0 -22,-4 -22,-20z"/>
  <path class="fil54" d="M17053 8325l22 20c0,0 -22,-4 -22,-20z"/>
  <path class="fil54" d="M17108 8350l8 29c0,0 6,-21 -8,-29z"/>
  <path class="fil54" d="M17427 8369l-19 23c0,0 21,-7 19,-23z"/>
  <path class="fil54" d="M17469 8324l-19 23c0,0 21,-7 19,-23z"/>
  <polygon class="fil54" points="17248,7920 17277,7920 17264,7932 "/>
  <polygon class="fil54" points="17278,7943 17278,7925 17267,7936 "/>
  <polygon class="fil54" points="17249,7950 17276,7950 17262,7937 "/>
  <polygon class="fil54" points="17248,7926 17248,7925 17248,7945 17259,7935 "/>
  <path class="fil54" d="M17043 8315c0,0 -23,-42 -22,-54 0,0 22,17 22,54z"/>
  <path class="fil54" d="M17006 8198c0,0 -2,-48 4,-58 0,0 12,25 -4,58z"/>
  <path class="fil54" d="M17055 8030c0,0 -5,-14 24,-21 29,-7 -24,21 -24,21z"/>
  <path class="fil54" d="M17500 8074l-16 -28c0,0 0,31 16,28z"/>
  <path class="fil54" d="M17458 8052l-16 -28c0,0 0,31 16,28z"/>
  <path class="fil54" d="M17428 8010l-28 -15c0,0 16,27 28,15z"/>
  <path class="fil54" d="M17366 7944l-28 -15c0,0 16,27 28,15z"/>
  <path class="fil54" d="M17159 7942l32 -6c0,0 -30,-11 -32,6z"/>
  <path class="fil54" d="M17485 8309c0,0 15,-26 19,-47 3,-20 -30,23 -19,47z"/>
  <path class="fil55" d="M17319 8390l-34 -59 -5 -213 -26 20 -6 171c0,0 2,30 -40,82 0,0 56,19 111,-1z"/>
  <path class="fil51" d="M17181 8290l-33 26c-10,7 -22,5 -35,4 8,32 30,31 53,14l36 -26 -18 -2 -3 -16z"/>
  <polygon class="fil56" points="17175,8294 17179,8291 17188,8317 17183,8321 "/>
  <path class="fil57" d="M17212 8307c6,8 20,25 6,33 -10,6 -26,-6 -15,-19l-9 -12c0,0 -1,0 -1,0 -7,0 -13,-6 -13,-13 0,-2 0,-4 1,-5l-7 -9c0,0 -10,5 -17,1 -6,-3 -7,-11 -5,-17 3,-7 15,-12 23,-3 6,7 11,13 17,20 0,0 1,0 1,0 7,0 13,6 13,13 0,1 0,2 0,4 2,2 4,5 6,7z"/>
  <polygon class="fil56" points="17136,8320 17140,8319 17147,8343 17142,8345 "/>
  <polygon class="fil56" points="17145,8317 17150,8314 17157,8339 17153,8342 "/>
  <polygon class="fil56" points="17155,8309 17160,8306 17168,8332 17163,8335 "/>
  <path class="fil2" d="M17196 8312l-30 22c0,0 -42,34 -53,-14"/>
  <polygon class="fil56" points="17164,8303 17169,8299 17178,8325 17173,8329 "/>
  <path class="fil52" d="M17319 8304l18 -22 0 0 -18 22 -1 -1c-9,-8 -135,-118 -233,-102 75,-37 191,31 251,80l0 0c4,3 7,6 10,9l2 18 -18 4 -12 -9 1 1z"/>
  <polygon class="fil56" points="17353,8295 17348,8292 17339,8318 17344,8322 "/>
  <path class="fil57" d="M17315 8308c-6,8 -20,25 -6,33 10,6 26,-6 15,-19l9 -12c0,0 1,0 1,0 7,0 13,-6 13,-13 0,-2 0,-4 -1,-5l7 -9c0,0 10,5 17,1 6,-3 7,-11 5,-17 -3,-7 -15,-12 -23,-3 -6,7 -11,13 -17,20 0,0 -1,0 -1,0 -7,0 -13,6 -13,13 0,1 0,2 0,4 -2,2 -4,5 -6,7z"/>
  <path class="fil2" d="M17289 8231c0,0 28,-19 53,-25"/>
  <path class="fil2" d="M17281 8259c0,0 -49,-39 -95,-51"/>
  <polygon class="fil56" points="17391,8321 17387,8320 17380,8344 17385,8346 "/>
  <polygon class="fil56" points="17382,8318 17378,8315 17370,8340 17374,8342 "/>
  <polygon class="fil56" points="17372,8310 17367,8307 17359,8333 17364,8336 "/>
  <polygon class="fil56" points="17363,8303 17359,8300 17350,8326 17355,8330 "/>
  <circle class="fil58" cx="17193" cy="8296" r="6"/>
  <circle class="fil58" cx="17334" cy="8297" r="6"/>
  <polygon class="fil53" points="17361,8411 17360,8415 17355,8417 17360,8417 17361,8423 17362,8417 17367,8415 17362,8415 "/>
  <polygon class="fil53" points="17139,8393 17139,8393 17138,8393 17139,8393 17139,8393 17139,8393 17139,8393 "/>
  <path class="fil59" d="M13612 8181l158 3c44,1 90,43 89,87l-3 124c-8,31 -14,73 -33,53l-39 -39c-8,-9 -12,-21 -10,-35l2 -84c-1,-14 -6,-29 -33,-33l-104 -2c-27,-1 -37,20 -38,35l-2 84c1,34 19,39 35,40l51 1c-14,-42 12,-44 21,-38 20,9 89,82 144,137 15,12 13,18 -3,19l-32 -1 -87 -39 -124 -2c-44,-1 -85,-40 -86,-84l-1 -135c0,-46 46,-92 93,-92l2 1z"/>
  <path class="fil60" d="M14025 8293c-16,-15 -33,-19 -56,-20 -26,-1 -61,10 -62,43 -1,32 32,42 59,45 21,2 29,6 29,15 0,10 -13,17 -27,16 -16,-1 -40,-9 -50,-21l-18 25c21,22 44,26 67,26 41,1 63,-20 63,-45 1,-37 -34,-44 -61,-46 -19,-2 -27,-7 -27,-16 0,-9 10,-14 27,-13 14,0 26,4 36,13l20 -22z"/>
  <path id="_1" class="fil60" d="M14175 8422l2 -75c0,-19 13,-35 32,-34 19,0 27,16 27,35l-2 76 36 1 2 -76c1,-42 -19,-67 -60,-68 -19,0 -36,5 -49,25 -8,-20 -25,-27 -42,-27 -14,0 -31,5 -39,19l-2 -17 -33 -1 -3 141 36 1 2 -75c0,-19 12,-35 32,-35 20,0 29,17 29,36l-2 75 36 1 -2 -2z"/>
  <path id="_2" class="fil60" d="M14414 8306c-8,-14 -26,-23 -46,-24 -42,-1 -76,24 -77,72 -1,49 30,76 73,76 16,0 39,-8 48,-24l1 21 34 1 3 -141 -34 -1 -2 19 0 1zm-43 7c57,1 55,86 -2,85 -24,0 -43,-17 -42,-44 1,-27 20,-42 44,-42l0 1z"/>
  <path id="_3" class="fil60" d="M14471 8287l-3 141 36 1 2 -74c1,-26 18,-35 37,-35 12,0 18,4 26,10l17 -30c-8,-8 -22,-14 -37,-14 -15,0 -30,2 -41,19l-2 -16 -33 -1 -2 -1z"/>
  <path id="_4" class="fil60" d="M14615 8254l-1 36 -27 -1 -1 30 27 1 -1 61c-1,35 20,53 51,52 11,0 19,-2 30,-5l-9 -30c-5,2 -12,4 -17,4 -11,0 -19,-7 -18,-20l1 -61 40 1 1 -30 -40 -1 1 -40 -36 3 -1 0z"/>
  <path class="fil60" d="M12379 11332c0,1 0,1 0,2 0,1 0,1 0,1 0,0 0,1 0,1 0,0 0,1 -1,1 -1,1 -1,1 -3,2 -1,1 -3,1 -4,2 -2,1 -3,1 -5,1 -2,0 -4,0 -6,0 -4,0 -7,-1 -11,-2 -3,-1 -6,-3 -8,-6 -2,-3 -4,-6 -5,-9 -1,-4 -2,-8 -1,-13 0,-5 1,-10 2,-14 1,-4 3,-7 6,-9 2,-2 5,-4 8,-5 3,-1 7,-2 10,-2 2,0 3,0 5,1 2,0 3,1 5,1 1,1 3,1 4,2 1,1 2,1 2,2 0,1 1,1 1,1 0,0 0,1 0,1 0,0 0,1 0,1 0,0 0,1 0,2 0,2 0,3 -1,3 0,1 -1,1 -1,1 -1,0 -1,0 -2,-1 -1,-1 -2,-1 -3,-2 -1,-1 -3,-2 -4,-2 -2,-1 -4,-1 -6,-1 -5,0 -9,2 -11,5 -3,4 -4,9 -4,16 0,4 0,7 1,9 1,3 2,5 3,7 1,2 3,3 5,4 2,1 4,1 7,1 2,0 4,0 6,-1 2,-1 3,-1 5,-2 1,-1 2,-2 3,-2 1,-1 2,-1 2,-1 0,0 1,0 1,0 0,0 0,0 1,1 0,0 0,1 0,1 0,1 0,1 0,2l-1 1z"/>
  <path class="fil60" d="M12549 11346l0 12 -67 2c0,-3 0,-6 1,-9 2,-5 4,-9 8,-14 4,-5 9,-10 16,-16 11,-9 18,-17 22,-22 4,-5 5,-10 5,-15 0,-5 -2,-9 -6,-12 -4,-3 -8,-5 -14,-5 -6,0 -11,2 -14,6 -3,4 -5,9 -5,15l-13 -1c1,-10 4,-17 9,-22 6,-5 13,-8 23,-8 10,0 17,2 23,7 6,5 9,12 9,20 0,4 -1,8 -2,12 -2,4 -4,8 -8,13 -4,4 -10,11 -19,18 -7,6 -12,11 -14,13 -2,2 -4,5 -5,7l50 -1 1 0z"/>
  <path id="_1_1" class="fil60" d="M12561 11308c0,-12 1,-22 3,-29 2,-7 6,-13 10,-17 5,-4 11,-6 18,-6 5,0 10,1 14,3 4,2 8,5 10,9 3,4 5,9 7,15 2,6 3,14 3,24 0,12 -1,21 -3,29 -2,7 -6,13 -10,17 -5,4 -11,6 -18,6 -10,0 -17,-3 -23,-10 -7,-8 -11,-22 -11,-41zm13 0c0,17 3,28 7,33 4,5 9,8 15,8 6,0 10,-3 14,-9 4,-6 5,-17 5,-33 0,-17 -3,-28 -7,-33 -4,-5 -9,-8 -15,-8 -6,0 -10,3 -13,8 -4,6 -6,18 -5,34l-1 0z"/>
  <path id="_2_2" class="fil60" d="M12687 11354l-12 0 -2 -79c-3,3 -7,6 -11,9 -5,3 -9,5 -13,7l0 -12c7,-3 13,-8 18,-12 5,-5 9,-9 11,-14l8 0 3 101 -2 0z"/>
  <path id="_3_3" class="fil60" d="M12720 11329l12 -1c1,6 3,10 6,12 3,2 7,4 11,3 4,0 7,-1 10,-3 3,-2 5,-4 7,-7 2,-3 3,-7 4,-12 1,-5 2,-10 1,-15 0,-1 0,-1 0,-2 -2,4 -6,7 -10,10 -4,3 -9,4 -14,4 -8,0 -16,-3 -21,-8 -6,-6 -9,-14 -9,-24 0,-10 2,-19 8,-25 6,-6 13,-10 22,-10 7,0 13,1 18,5 6,3 10,8 13,15 3,6 5,16 5,28 0,13 -1,23 -3,31 -3,8 -7,14 -12,18 -5,4 -12,6 -19,7 -8,0 -14,-2 -20,-6 -5,-4 -8,-10 -10,-18l1 -2zm49 -46c0,-7 -2,-13 -6,-17 -4,-4 -9,-6 -14,-6 -6,0 -10,3 -14,7 -4,5 -6,11 -6,18 0,6 2,12 6,15 4,4 9,6 15,6 6,0 10,-2 14,-6 4,-4 5,-10 5,-17z"/>
  <path id="_4_4" class="fil60" d="M12871 11348l-42 -100 14 0 28 73c2,6 4,11 6,16 1,-6 3,-11 5,-17l25 -74 14 0 -37 102 -14 0 1 0z"/>
  <path id="_5" class="fil60" d="M12976 11321l13 1c-2,8 -5,13 -11,18 -5,4 -12,7 -21,7 -11,0 -19,-3 -26,-9 -6,-6 -10,-16 -10,-27 0,-12 3,-22 9,-29 6,-7 14,-11 24,-11 10,0 18,3 24,9 6,6 10,16 10,28 0,1 0,2 0,3l-55 2c1,8 3,14 7,18 4,4 9,6 15,6 5,0 8,-1 12,-4 3,-2 6,-6 7,-12l2 0zm-41 -19l41 -1c-1,-6 -2,-11 -5,-14 -4,-5 -9,-7 -16,-7 -6,0 -10,2 -14,6 -4,4 -6,9 -6,15l0 1z"/>
  <path id="_6" class="fil60" d="M13052 11315l12 1c-1,8 -4,15 -10,20 -5,5 -12,7 -20,8 -10,0 -18,-3 -24,-9 -6,-6 -10,-16 -10,-28 0,-8 1,-15 3,-21 2,-6 6,-11 12,-14 5,-3 11,-5 17,-5 8,0 14,2 20,5 5,4 9,9 10,17l-12 2c-1,-5 -3,-8 -6,-11 -3,-2 -7,-4 -11,-3 -6,0 -11,3 -15,7 -4,5 -6,12 -5,21 0,10 2,17 6,21 4,4 9,6 15,6 5,0 9,-2 12,-5 3,-3 5,-8 6,-14l0 2z"/>
  <path id="_7" class="fil60" d="M13102 11329l2 11c-3,1 -7,1 -9,1 -5,0 -8,0 -11,-2 -3,-1 -4,-3 -5,-5 -1,-2 -2,-7 -2,-15l-1 -42 -9 0 0 -10 9 0 -1 -18 12 -8 1 26 12 0 0 10 -12 0 1 43c0,4 0,6 1,7 0,1 1,2 2,2 1,1 2,1 4,1 1,0 3,0 5,-1l1 0z"/>
  <path id="_8" class="fil60" d="M13114 11340l-2 -73 11 0 0 11c3,-5 5,-9 8,-11 2,-2 5,-3 8,-3 4,0 8,1 13,4l-4 12c-3,-2 -6,-3 -9,-2 -3,0 -5,1 -7,3 -2,2 -4,4 -4,7 -1,4 -2,9 -2,15l1 38 -12 0 -1 -1z"/>
  <path id="_9" class="fil60" d="M13209 11328c-4,4 -9,7 -13,9 -4,2 -9,3 -14,3 -8,0 -14,-2 -19,-5 -4,-4 -7,-9 -7,-15 0,-4 1,-7 2,-10 2,-3 4,-5 6,-7 3,-2 6,-3 9,-4 2,-1 6,-1 11,-2 10,-2 17,-3 22,-5 0,-2 0,-3 0,-3 0,-5 -1,-9 -4,-11 -3,-3 -8,-4 -14,-4 -6,0 -10,1 -13,3 -3,2 -5,6 -6,11l-12 -1c1,-5 3,-9 5,-13 2,-3 6,-6 11,-8 5,-2 10,-3 17,-3 6,0 11,0 15,2 4,1 7,3 9,5 2,2 3,5 4,8 0,2 1,6 1,11l0 17c0,12 1,19 1,22 1,3 2,6 3,9l-13 0c-1,-3 -2,-6 -3,-9l2 0zm-2 -28c-4,2 -11,4 -20,5 -5,1 -9,2 -11,3 -2,1 -4,2 -5,4 -1,2 -2,4 -2,6 0,3 1,6 4,8 3,2 6,3 11,3 5,0 9,-1 13,-4 4,-2 6,-5 8,-9 1,-3 2,-7 2,-12l0 -5 0 1z"/>
  <path id="_10" class="fil60" d="M13240 11336l-2 -73 11 0 0 10c2,-4 5,-7 9,-9 4,-2 8,-4 13,-4 5,0 10,1 13,3 4,2 6,5 8,9 6,-9 13,-13 22,-13 7,0 13,2 17,6 4,4 6,10 6,18l1 50 -12 0 -1 -46c0,-5 -1,-9 -1,-11 -1,-2 -2,-4 -5,-5 -2,-1 -5,-2 -8,-2 -5,0 -9,2 -13,5 -3,4 -5,9 -5,17l1 42 -12 0 -1 -47c0,-6 -1,-10 -3,-12 -2,-3 -5,-4 -10,-4 -3,0 -7,1 -10,3 -3,2 -5,5 -6,8 -1,4 -2,9 -2,15l1 38 -12 0 1 2z"/>
  <path id="_11" class="fil60" d="M13355 11245l0 -14 12 0 0 14 -12 0zm3 87l-2 -73 12 0 2 73 -12 0z"/>
  <path id="_12" class="fil60" d="M13389 11331l-2 -73 11 0 0 10c5,-8 13,-12 23,-13 4,0 8,1 12,2 4,1 7,3 8,6 2,3 3,6 4,9 1,2 1,6 1,12l1 45 -12 0 -1 -44c0,-5 -1,-9 -2,-11 -1,-2 -3,-4 -5,-6 -2,-1 -5,-2 -9,-2 -5,0 -10,2 -14,5 -4,3 -5,10 -5,19l1 40 -12 0 1 1z"/>
  <path id="_13" class="fil60" d="M13515 11327l0 -9c-4,7 -11,11 -20,11 -6,0 -11,-1 -16,-4 -5,-3 -9,-7 -12,-13 -3,-6 -4,-12 -5,-20 0,-7 1,-14 3,-20 2,-6 6,-11 11,-14 5,-3 10,-5 16,-5 4,0 8,1 12,2 4,2 6,4 9,7l-1 -36 12 0 3 101 -11 0 -1 0zm-40 -35c0,9 2,16 7,21 4,5 9,7 14,7 5,0 10,-3 14,-7 4,-5 5,-11 5,-20 0,-10 -2,-17 -6,-22 -4,-5 -9,-7 -14,-7 -6,0 -10,3 -14,7 -4,5 -5,12 -5,21l-1 0z"/>
  <path id="_14" class="fil60" d="M13657 11287l13 3c-2,11 -7,20 -14,26 -7,6 -16,9 -26,9 -11,0 -20,-2 -27,-6 -7,-4 -12,-10 -16,-19 -4,-8 -6,-17 -6,-27 0,-11 1,-20 5,-28 4,-8 9,-14 17,-18 7,-4 15,-7 24,-7 10,0 19,2 26,7 7,5 12,12 15,21l-13 3c-3,-7 -6,-13 -11,-16 -5,-3 -10,-5 -17,-5 -8,0 -14,2 -19,6 -5,4 -9,9 -11,15 -2,6 -3,13 -3,19 0,9 2,16 4,22 3,6 7,11 12,14 5,3 11,4 17,4 7,0 14,-3 19,-7 5,-4 8,-11 10,-20l1 4z"/>
  <path id="_15" class="fil60" d="M13681 11285c0,-14 3,-24 10,-30 6,-6 14,-9 23,-9 10,0 18,3 25,9 7,6 10,15 10,27 0,9 -1,17 -4,22 -3,5 -7,10 -12,13 -5,3 -11,5 -18,5 -10,0 -19,-3 -25,-9 -7,-6 -10,-16 -10,-28l1 0zm13 0c0,9 3,16 7,21 4,5 9,7 16,7 6,0 11,-3 15,-7 4,-5 6,-12 6,-22 0,-9 -3,-16 -7,-20 -4,-5 -9,-7 -16,-7 -6,0 -11,3 -15,7 -4,5 -6,12 -6,21z"/>
  <path id="_16" class="fil60" d="M13765 11318l-2 -73 11 0 0 11c3,-5 5,-9 8,-11 2,-2 5,-3 8,-3 4,0 8,1 13,4l-4 12c-3,-2 -6,-3 -9,-2 -3,0 -5,1 -7,3 -2,2 -4,4 -4,7 -1,4 -2,9 -2,15l1 38 -12 0 -1 -1z"/>
  <path id="_17" class="fil60" d="M13813 11345l-3 -101 11 0 0 10c3,-4 5,-7 9,-9 3,-2 7,-3 12,-3 6,0 12,1 17,4 5,3 9,8 11,13 3,6 4,12 4,19 0,7 -1,14 -3,20 -3,6 -6,11 -11,14 -5,3 -10,5 -16,5 -4,0 -8,-1 -11,-2 -3,-2 -6,-4 -8,-6l1 36 -12 0 -1 0zm9 -64c0,9 2,16 6,21 4,4 9,7 14,6 6,0 10,-3 14,-7 4,-5 6,-12 5,-22 0,-9 -2,-16 -6,-21 -4,-5 -9,-7 -14,-7 -5,0 -10,3 -14,8 -4,5 -6,12 -5,22z"/>
  <path id="_18" class="fil60" d="M13885 11278c0,-14 3,-24 10,-30 6,-6 14,-9 23,-9 10,0 18,3 25,9 7,6 10,15 10,27 0,9 -1,17 -4,22 -3,5 -7,10 -12,13 -5,3 -11,5 -18,5 -10,0 -19,-3 -25,-9 -7,-6 -10,-16 -10,-28l1 0zm13 0c0,9 3,16 7,21 4,5 9,7 16,7 6,0 11,-3 15,-7 4,-5 6,-12 6,-22 0,-9 -3,-16 -7,-20 -4,-5 -9,-7 -16,-7 -6,0 -11,3 -15,7 -4,5 -6,12 -6,21z"/>
  <path id="_19" class="fil60" d="M13969 11312l-2 -73 11 0 0 11c3,-5 5,-9 8,-11 2,-2 5,-3 8,-3 4,0 8,1 13,4l-4 12c-3,-2 -6,-3 -9,-2 -3,0 -5,1 -7,3 -2,2 -4,4 -4,7 -1,4 -2,9 -2,15l1 38 -12 0 -1 -1z"/>
  <path id="_20" class="fil60" d="M14063 11300c-4,4 -9,7 -13,9 -4,2 -9,3 -14,3 -8,0 -14,-2 -19,-5 -4,-4 -7,-9 -7,-15 0,-4 1,-7 2,-10 2,-3 4,-5 6,-7 3,-2 6,-3 9,-4 2,-1 6,-1 11,-2 10,-2 17,-3 22,-5 0,-2 0,-3 0,-3 0,-5 -1,-9 -4,-11 -3,-3 -8,-4 -14,-4 -6,0 -10,1 -13,3 -3,2 -5,6 -6,11l-12 -1c1,-5 3,-9 5,-13 2,-3 6,-6 11,-8 5,-2 10,-3 17,-3 6,0 11,0 15,2 4,1 7,3 9,5 2,2 3,5 4,8 0,2 1,6 1,11l0 17c0,12 1,19 1,22 1,3 2,6 3,9l-13 0c-1,-3 -2,-6 -3,-9l2 0zm-2 -28c-4,2 -11,4 -20,5 -5,1 -9,2 -11,3 -2,1 -4,2 -5,4 -1,2 -2,4 -2,6 0,3 1,6 4,8 3,2 6,3 11,3 5,0 9,-1 13,-4 4,-2 6,-5 8,-9 1,-3 2,-7 2,-12l0 -5 0 1z"/>
  <path id="_21" class="fil60" d="M14121 11296l2 11c-3,1 -7,1 -9,1 -5,0 -8,0 -11,-2 -3,-1 -4,-3 -5,-5 -1,-2 -2,-7 -2,-15l-1 -42 -9 0 0 -10 9 0 -1 -18 12 -8 1 26 12 0 0 10 -12 0 1 43c0,4 0,6 1,7 0,1 1,2 2,2 1,1 2,1 4,1 1,0 3,0 5,-1l1 0z"/>
  <path id="_22" class="fil60" d="M14131 11220l0 -14 12 0 0 14 -12 0zm3 87l-2 -73 12 0 2 73 -12 0z"/>
  <path id="_23" class="fil60" d="M14159 11269c0,-14 3,-24 10,-30 6,-6 14,-9 23,-9 10,0 18,3 25,9 7,6 10,15 10,27 0,9 -1,17 -4,22 -3,5 -7,10 -12,13 -5,3 -11,5 -18,5 -10,0 -19,-3 -25,-9 -7,-6 -10,-16 -10,-28l1 0zm13 0c0,9 3,16 7,21 4,5 9,7 16,7 6,0 11,-3 15,-7 4,-5 6,-12 6,-22 0,-9 -3,-16 -7,-20 -4,-5 -9,-7 -16,-7 -6,0 -11,3 -15,7 -4,5 -6,12 -6,21z"/>
  <path id="_24" class="fil60" d="M14243 11303l-2 -73 11 0 0 10c5,-8 13,-12 23,-13 4,0 8,1 12,2 4,1 7,3 8,6 2,3 3,6 4,9 1,2 1,6 1,12l1 45 -12 0 -1 -44c0,-5 -1,-9 -2,-11 -1,-2 -3,-4 -5,-6 -2,-1 -5,-2 -9,-2 -5,0 -10,2 -14,5 -4,3 -5,10 -5,19l1 40 -12 0 1 1z"/>
  <circle class="fil61" transform="matrix(0.215946 -0.00705528 0.00705528 0.215946 12360.6 11316.7)" r="225"/>
  <path class="fil60" d="M15906 11104l18 -3c2,10 6,18 11,22 5,4 11,7 18,7 9,0 16,-3 22,-9 6,-6 9,-13 9,-22 0,-8 -3,-15 -8,-21 -6,-5 -13,-8 -21,-8 -3,0 -8,1 -13,2l2 -16c1,0 2,0 3,0 8,0 15,-2 21,-6 6,-4 9,-10 9,-19 0,-7 -2,-12 -7,-17 -5,-4 -10,-6 -18,-6 -7,0 -13,2 -18,7 -5,4 -8,11 -9,20l-18 -3c2,-12 7,-22 15,-29 8,-7 18,-10 29,-10 8,0 16,2 22,5 7,3 12,8 16,14 4,6 6,12 6,19 0,6 -2,12 -5,18 -3,5 -8,10 -15,13 9,2 16,6 21,12 5,6 7,14 8,24 0,13 -4,24 -14,33 -9,9 -21,14 -36,14 -13,0 -24,-4 -33,-11 -9,-8 -14,-18 -15,-30z"/>
  <polygon id="_1_5" class="fil60" points="16032,11142 16031,11122 16052,11121 16052,11142 "/>
  <path id="_2_6" class="fil60" d="M16079 11103l19 -2c2,9 5,16 10,21 5,5 11,7 19,7 9,0 16,-3 22,-10 6,-7 9,-16 9,-26 0,-10 -3,-19 -9,-25 -6,-6 -14,-9 -23,-9 -6,0 -11,1 -16,4 -5,3 -8,6 -11,11l-17 -2 13 -76 74 -1 0 17 -59 1 -8 40c9,-6 18,-10 28,-10 13,0 24,4 33,13 9,9 14,20 14,34 0,13 -4,25 -11,35 -9,12 -22,18 -39,19 -13,0 -25,-4 -33,-11 -9,-7 -14,-17 -15,-30z"/>
  <path id="_3_7" class="fil60" d="M16194 11103l19 -2c2,9 5,16 10,21 5,5 11,7 19,7 9,0 16,-3 22,-10 6,-7 9,-16 9,-26 0,-10 -3,-19 -9,-25 -6,-6 -14,-9 -23,-9 -6,0 -11,1 -16,4 -5,3 -8,6 -11,11l-17 -2 13 -76 74 -1 0 17 -59 1 -8 40c9,-6 18,-10 28,-10 13,0 24,4 33,13 9,9 14,20 14,34 0,13 -4,25 -11,35 -9,12 -22,18 -39,19 -13,0 -25,-4 -33,-11 -9,-7 -14,-17 -15,-30z"/>
  <path id="_4_8" class="fil60" d="M16378 11140l-2 -148 56 -1c10,0 17,0 23,1 7,1 13,3 18,7 5,3 9,8 12,14 3,6 5,13 5,20 0,13 -4,23 -12,32 -8,9 -22,13 -43,14l-38 0 1 60 -20 0 0 1zm19 -78l38 0c13,0 22,-3 27,-7 5,-5 8,-11 8,-20 0,-6 -2,-12 -5,-16 -3,-4 -7,-7 -13,-9 -3,-1 -9,-1 -18,-1l-38 0 1 53z"/>
  <path id="_5_9" class="fil60" d="M16523 11139l-2 -148 30 0 36 105c3,10 6,17 7,22 2,-5 4,-13 8,-24l34 -104 26 0 2 148 -19 0 -2 -124 -42 125 -18 0 -44 -126 2 126 -19 0 1 0z"/>
  <polygon class="fil60" points="15923,11268 15922,11225 15906,11225 15906,11220 15944,11219 15945,11225 15929,11225 15929,11268 "/>
  <path id="_1_10" class="fil60" d="M15971 11267l0 -5c-3,4 -6,6 -11,6 -2,0 -4,0 -6,-1 -2,-1 -3,-2 -4,-3 -1,-1 -2,-3 -2,-4 0,-1 0,-3 0,-6l0 -22 6 0 0 19c0,3 0,5 0,6 0,2 1,3 2,4 1,1 3,1 5,1 2,0 3,-1 5,-1 2,-1 3,-2 3,-4 1,-2 1,-4 1,-7l0 -19 6 0 0 35 -5 0 0 1z"/>
  <path id="_2_11" class="fil60" d="M16010 11256l6 1c-1,4 -3,6 -5,8 -3,2 -6,3 -10,3 -5,0 -9,-1 -12,-5 -3,-3 -5,-8 -5,-13 0,-6 1,-10 4,-14 3,-3 7,-5 12,-5 5,0 9,1 12,5 3,3 5,8 5,13 0,0 0,1 0,2l-26 0c0,4 1,7 3,9 2,2 4,3 7,3 2,0 4,-1 6,-2 2,-1 3,-3 4,-6l-1 1zm-20 -9l20 0c0,-3 -1,-5 -2,-7 -2,-2 -4,-3 -7,-3 -3,0 -5,1 -7,3 -2,2 -3,4 -3,7l-1 0z"/>
  <path id="_3_12" class="fil60" d="M16021 11257l6 -1c0,2 1,4 3,5 2,1 4,2 6,2 3,0 5,-1 6,-2 1,-1 2,-2 2,-4 0,-1 -1,-2 -2,-3 -1,-1 -3,-1 -6,-2 -4,-1 -7,-2 -9,-3 -2,-1 -3,-2 -4,-3 -1,-1 -1,-3 -1,-5 0,-2 0,-3 1,-4 1,-1 2,-2 3,-3 1,-1 2,-1 4,-2 2,0 3,-1 5,-1 3,0 5,0 7,1 2,1 4,2 5,3 1,1 2,3 2,5l-6 1c0,-2 -1,-3 -2,-4 -1,-1 -3,-1 -5,-1 -3,0 -5,1 -6,1 -1,1 -2,2 -2,3 0,1 0,1 1,2 1,1 1,1 2,2 1,0 2,1 5,1 4,1 7,2 9,3 2,1 3,2 4,3 1,1 1,3 1,5 0,2 -1,4 -2,6 -1,2 -3,3 -5,4 -2,1 -5,1 -7,2 -5,0 -8,-1 -10,-3 -2,-2 -4,-5 -5,-8z"/>
  <path id="_4_13" class="fil60" d="M16080 11266l0 -4c-2,3 -5,5 -10,5 -3,0 -5,-1 -8,-2 -2,-2 -4,-4 -6,-6 -1,-3 -2,-6 -2,-9 0,-3 1,-7 2,-10 1,-3 3,-5 5,-7 2,-2 5,-2 8,-2 2,0 4,0 6,1 2,1 3,2 4,3l0 -17 6 0 1 48 -6 0zm-19 -17c0,4 1,8 3,10 2,2 4,3 7,3 3,0 5,-1 7,-3 2,-2 3,-5 3,-10 0,-5 -1,-8 -3,-11 -2,-2 -4,-3 -7,-3 -3,0 -5,1 -7,3 -2,2 -3,6 -3,10l0 1z"/>
  <path id="_5_14" class="fil60" d="M16117 11262c-2,2 -4,3 -6,4 -2,1 -4,1 -7,1 -4,0 -7,-1 -9,-3 -2,-2 -3,-4 -3,-7 0,-2 0,-3 1,-5 1,-1 2,-3 3,-3 1,-1 3,-2 4,-2 1,0 3,-1 5,-1 5,-1 8,-1 11,-2 0,-1 0,-1 0,-2 0,-2 -1,-4 -2,-5 -2,-1 -4,-2 -7,-2 -3,0 -5,1 -6,2 -1,1 -2,3 -3,5l-6 -1c0,-2 1,-5 3,-6 1,-2 3,-3 5,-4 2,-1 5,-1 8,-1 3,0 5,0 7,1 2,1 3,2 4,3 1,1 2,2 2,4 0,1 0,3 0,5l0 8c0,6 0,9 1,10 0,1 1,3 2,4l-6 0c-1,-1 -1,-3 -1,-4l0 1zm-1 -13c-2,1 -5,2 -10,2 -2,0 -4,1 -5,1 -1,0 -2,1 -2,2 -1,1 -1,2 -1,3 0,2 1,3 2,4 1,1 3,2 5,2 2,0 4,-1 6,-2 2,-1 3,-2 4,-4 1,-1 1,-3 1,-6l0 -2z"/>
  <path id="_6_15" class="fil60" d="M16132 11280l-1 -6c1,0 2,0 3,0 1,0 2,0 3,-1 1,0 1,-1 2,-2 0,-1 1,-2 2,-4 0,0 0,-1 1,-1l-14 -35 6 0 8 20c1,3 2,5 3,8 1,-3 1,-5 2,-8l7 -20 6 0 -13 36c-1,4 -2,7 -3,8 -1,2 -2,3 -4,4 -1,1 -3,1 -5,1 -1,0 -2,0 -4,-1l1 1z"/>
  <path id="_7_16" class="fil60" d="M16162 11266l0 -7 7 0 0 7c0,2 0,4 -1,6 -1,2 -2,3 -4,4l-2 -3c1,-1 2,-1 3,-2 1,-1 1,-3 1,-5l-3 0 -1 0z"/>
  <path id="_8_17" class="fil60" d="M16196 11252l6 -1c0,4 1,6 2,8 1,1 3,2 5,2 2,0 3,0 4,-1 1,-1 2,-2 2,-3 0,-1 1,-3 1,-6l0 -33 6 0 0 33c0,4 0,7 -1,9 -1,2 -2,4 -5,5 -2,1 -5,2 -7,2 -4,0 -7,-1 -10,-4 -2,-2 -3,-6 -3,-11z"/>
  <path id="_9_18" class="fil60" d="M16255 11261c-2,2 -4,3 -6,4 -2,1 -4,1 -7,1 -4,0 -7,-1 -9,-3 -2,-2 -3,-4 -3,-7 0,-2 0,-3 1,-5 1,-1 2,-3 3,-3 1,-1 3,-2 4,-2 1,0 3,-1 5,-1 5,-1 8,-1 11,-2 0,-1 0,-1 0,-2 0,-2 -1,-4 -2,-5 -2,-1 -4,-2 -7,-2 -3,0 -5,1 -6,2 -1,1 -2,3 -3,5l-6 -1c0,-2 1,-5 3,-6 1,-2 3,-3 5,-4 2,-1 5,-1 8,-1 3,0 5,0 7,1 2,1 3,2 4,3 1,1 2,2 2,4 0,1 0,3 0,5l0 8c0,6 0,9 1,10 0,1 1,3 2,4l-6 0c-1,-1 -1,-3 -1,-4l0 1zm-1 -13c-2,1 -5,2 -10,2 -2,0 -4,1 -5,1 -1,0 -2,1 -2,2 -1,1 -1,2 -1,3 0,2 1,3 2,4 1,1 3,2 5,2 2,0 4,-1 6,-2 2,-1 3,-2 4,-4 1,-1 1,-3 1,-6l0 -2z"/>
  <path id="_10_19" class="fil60" d="M16269 11265l0 -35 5 0 0 5c3,-4 6,-6 11,-6 2,0 4,0 6,1 2,1 3,2 4,3 1,1 2,3 2,4 0,1 0,3 0,6l0 21 -6 0 0 -21c0,-2 0,-4 -1,-5 0,-1 -1,-2 -2,-3 -1,-1 -3,-1 -4,-1 -3,0 -5,1 -7,2 -2,2 -3,5 -3,9l0 19 -6 0 1 1z"/>
  <path id="_11_20" class="fil60" d="M16330 11265l0 -5c-3,4 -6,6 -11,6 -2,0 -4,0 -6,-1 -2,-1 -3,-2 -4,-3 -1,-1 -2,-3 -2,-4 0,-1 0,-3 0,-6l0 -22 6 0 0 19c0,3 0,5 0,6 0,2 1,3 2,4 1,1 3,1 5,1 2,0 3,-1 5,-1 2,-1 3,-2 3,-4 1,-2 1,-4 1,-7l0 -19 6 0 0 35 -5 0 0 1z"/>
  <path id="_12_21" class="fil60" d="M16367 11260c-2,2 -4,3 -6,4 -2,1 -4,1 -7,1 -4,0 -7,-1 -9,-3 -2,-2 -3,-4 -3,-7 0,-2 0,-3 1,-5 1,-1 2,-3 3,-3 1,-1 3,-2 4,-2 1,0 3,-1 5,-1 5,-1 8,-1 11,-2 0,-1 0,-1 0,-2 0,-2 -1,-4 -2,-5 -2,-1 -4,-2 -7,-2 -3,0 -5,1 -6,2 -1,1 -2,3 -3,5l-6 -1c0,-2 1,-5 3,-6 1,-2 3,-3 5,-4 2,-1 5,-1 8,-1 3,0 5,0 7,1 2,1 3,2 4,3 1,1 2,2 2,4 0,1 0,3 0,5l0 8c0,6 0,9 1,10 0,1 1,3 2,4l-6 0c-1,-1 -1,-3 -1,-4l0 1zm-1 -13c-2,1 -5,2 -10,2 -2,0 -4,1 -5,1 -1,0 -2,1 -2,2 -1,1 -1,2 -1,3 0,2 1,3 2,4 1,1 3,2 5,2 2,0 4,-1 6,-2 2,-1 3,-2 4,-4 1,-1 1,-3 1,-6l0 -2z"/>
  <path id="_13_22" class="fil60" d="M16382 11265l0 -35 5 0 0 5c1,-3 3,-4 4,-5 1,-1 2,-1 4,-1 2,0 4,1 6,2l-2 6c-1,-1 -3,-1 -4,-1 -1,0 -2,0 -3,1 -1,1 -2,2 -2,3 -1,2 -1,4 -1,7l0 18 -6 0 -1 0z"/>
  <path id="_14_23" class="fil60" d="M16404 11278l-1 -6c1,0 2,0 3,0 1,0 2,0 3,-1 1,0 1,-1 2,-2 0,-1 1,-2 2,-4 0,0 0,-1 1,-1l-14 -35 6 0 8 20c1,3 2,5 3,8 1,-3 1,-5 2,-8l7 -20 6 0 -13 36c-1,4 -2,7 -3,8 -1,2 -2,3 -4,4 -1,1 -3,1 -5,1 -1,0 -2,0 -4,-1l1 1z"/>
  <path id="_15_24" class="fil60" d="M16459 11264l-6 0 0 -38c-1,1 -3,3 -6,4 -2,1 -4,2 -6,3l0 -6c3,-2 6,-4 9,-6 2,-2 4,-4 5,-7l4 0 1 48 -1 2z"/>
  <path id="_16_25" class="fil60" d="M16491 11264l-6 0 0 -38c-1,1 -3,3 -6,4 -2,1 -4,2 -6,3l0 -6c3,-2 6,-4 9,-6 2,-2 4,-4 5,-7l4 0 1 48 -1 2z"/>
  <path id="_17_26" class="fil60" d="M16510 11264l0 -7 7 0 0 7c0,2 0,4 -1,6 -1,2 -2,3 -4,4l-2 -3c1,-1 2,-1 3,-2 1,-1 1,-3 1,-5l-3 0 -1 0z"/>
  <path id="_18_27" class="fil60" d="M16556 11258l0 6 -32 0c0,-1 0,-3 1,-4 1,-2 2,-4 4,-6 2,-2 4,-5 8,-7 5,-4 9,-8 11,-10 2,-3 3,-5 3,-7 0,-2 -1,-4 -3,-6 -2,-2 -4,-2 -7,-2 -3,0 -5,1 -7,3 -2,2 -3,4 -3,7l-6 -1c0,-5 2,-8 5,-10 3,-2 6,-4 11,-4 5,0 8,1 11,4 3,3 4,6 4,10 0,2 0,4 -1,6 -1,2 -2,4 -4,6 -2,2 -5,5 -9,9 -4,3 -6,5 -7,6 -1,1 -2,2 -2,3l24 0 -1 -3z"/>
  <path id="_19_28" class="fil60" d="M16562 11240c0,-6 0,-10 2,-14 1,-3 3,-6 5,-8 2,-2 5,-3 9,-3 3,0 5,0 7,1 2,1 4,3 5,4 1,2 2,4 3,7 1,3 1,7 1,11 0,6 0,10 -2,14 -1,4 -3,6 -5,8 -2,2 -5,3 -9,3 -5,0 -8,-2 -11,-5 -3,-4 -5,-11 -5,-20l0 2zm6 0c0,8 1,13 3,16 2,3 4,4 7,4 3,0 5,-1 7,-4 2,-3 3,-8 3,-16 0,-8 -1,-13 -3,-16 -2,-3 -4,-4 -7,-4 -3,0 -5,1 -6,4 -2,3 -3,8 -3,16l-1 0z"/>
  <path id="_20_29" class="fil60" d="M16622 11263l-6 0 0 -38c-1,1 -3,3 -6,4 -2,1 -4,2 -6,3l0 -6c3,-2 6,-4 9,-6 2,-2 4,-4 5,-7l4 0 1 48 -1 2z"/>
  <path id="_21_30" class="fil60" d="M16638 11252l6 -1c1,3 1,5 3,6 1,1 3,2 5,2 2,0 3,0 5,-1 1,-1 2,-2 3,-3 1,-1 2,-3 2,-6 1,-2 1,-5 1,-7 0,0 0,-1 0,-1 -1,2 -3,3 -5,5 -2,1 -4,2 -7,2 -4,0 -7,-1 -10,-4 -3,-3 -4,-7 -4,-11 0,-5 1,-9 4,-12 3,-3 6,-5 11,-5 3,0 6,1 9,2 3,2 5,4 6,7 1,3 2,8 2,14 0,6 -1,11 -2,15 -1,4 -3,6 -6,8 -3,2 -6,3 -9,3 -4,0 -7,-1 -9,-3 -2,-2 -4,-5 -4,-9l-1 -1zm24 -22c0,-3 -1,-6 -3,-8 -2,-2 -4,-3 -7,-3 -3,0 -5,1 -7,3 -2,2 -3,5 -3,8 0,3 1,6 3,7 2,2 4,3 7,3 3,0 5,-1 7,-3 2,-2 3,-5 3,-8l0 1z"/>
  <circle class="fil62" cx="16013" cy="9625" r="238"/>
  <circle class="fil62" cx="16813" cy="9625" r="238"/>
  <path class="fil14" d="M16861 9567l6 -10 -150 0c-13,0 -23,9 -23,22l0 105c2,12 10,19 21,19l8 0 8 0c14,0 20,4 28,10l26 17c5,4 9,6 13,6 4,0 8,-2 14,-6l28 -19c10,-8 20,-9 29,-8 19,1 34,-1 35,-22l0 -94 -10 17 0 67 0 8c0,15 -8,14 -21,14 -3,0 -5,0 -8,0 -8,0 -20,1 -32,10l-32 22c-2,1 -3,2 -6,0l-35 -23c-7,-5 -17,-9 -25,-9l-19 0 -1 0c-7,0 -12,-3 -13,-11l0 -104c0,-8 4,-12 12,-12l144 0 0 0 3 1z"/>
  <path class="fil14" d="M16739 9658l121 0c6,0 10,2 10,5l0 0c0,3 -5,5 -10,5l-121 0c-6,0 -10,-2 -10,-5l0 0c0,-3 5,-5 10,-5z"/>
  <path class="fil14" d="M16891 9537l24 15 -43 69c0,1 -11,10 -24,21 -3,3 -12,8 -9,-5l6 -24c1,-3 2,-5 4,-8l43 -68 -1 0zm-38 75l12 8 -11 9 -4 -3 3 -14 0 0z"/>
  <circle class="fil62" cx="13593" cy="9625" r="238"/>
  <path class="fil14" d="M13641 9567l6 -10 -150 0c-13,0 -23,9 -23,22l0 105c2,12 10,19 21,19l8 0 8 0c14,0 20,4 28,10l26 17c5,4 9,6 13,6 4,0 8,-2 14,-6l28 -19c10,-8 20,-9 29,-8 19,1 34,-1 35,-22l0 -94 -10 17 0 67 0 8c0,15 -8,14 -21,14 -3,0 -5,0 -8,0 -8,0 -20,1 -32,10l-32 22c-2,1 -3,2 -6,0l-35 -23c-7,-5 -17,-9 -25,-9l-19 0 -1 0c-7,0 -12,-3 -13,-11l0 -104c0,-8 4,-12 12,-12l144 0 0 0 3 1z"/>
  <path class="fil14" d="M13519 9658l121 0c6,0 10,2 10,5l0 0c0,3 -5,5 -10,5l-121 0c-6,0 -10,-2 -10,-5l0 0c0,-3 5,-5 10,-5z"/>
  <g id="_962278480">
   <path class="fil14" d="M13513 9625l99 0 -2 10 -96 0c-3,0 -5,-2 -5,-5l0 0c0,-3 2,-5 5,-5l0 0 -1 0z"/>
   <path class="fil14" d="M13513 9592l111 0 -6 10 -105 0c-3,0 -5,-2 -5,-5l0 0c0,-3 2,-5 5,-5l0 0z"/>
  </g>
  <g id="_962277616">
   <path class="fil14" d="M16735 9625l99 0 -2 10 -96 0c-3,0 -5,-2 -5,-5l0 0c0,-3 2,-5 5,-5l0 0 -1 0z"/>
   <path class="fil14" d="M16735 9592l111 0 -6 10 -105 0c-3,0 -5,-2 -5,-5l0 0c0,-3 2,-5 5,-5l0 0z"/>
  </g>
  <path class="fil14" d="M13671 9537l24 15 -43 69c0,1 -11,10 -24,21 -3,3 -12,8 -9,-5l6 -24c1,-3 2,-5 4,-8l43 -68 -1 0zm-38 75l12 8 -11 9 -4 -3 3 -14 0 0z"/>
  <path class="fil14" d="M13674 9532l25 15 5 -8c3,-5 2,-9 -3,-12l-10 -6c-9,-6 -13,5 -17,11l0 0z"/>
  <circle class="fil62" cx="14393" cy="9625" r="238"/>
  <circle class="fil62" cx="15193" cy="9625" r="238"/>
  <path class="fil2 str11" d="M15959 9532l0 -16c0,-6 5,-11 11,-11l76 0c11,0 51,43 51,51l0 107c0,6 -5,11 -11,11l-116 0c-6,0 -11,-5 -11,-11l0 -39"/>
  <line class="fil2 str11" x1="16034" y1="9564" x2="15988" y2= "9564" />
  <line class="fil2 str11" x1="16034" y1="9544" x2="15981" y2= "9544" />
  <line class="fil2 str11" x1="16078" y1="9583" x2="16009" y2= "9583" />
  <line class="fil2 str11" x1="16079" y1="9644" x2="16041" y2= "9644" />
  <path class="fil14 str11" d="M15991 9636c2,-16 16,-24 25,-25l-65 -64c-4,-2 -26,12 -25,25l64 65 1 -1z"/>
  <path class="fil14 str11" d="M16028 9648l-7 -20c0,0 -10,2 -13,14l19 6 1 0z"/>
  <path class="fil2 str12" d="M14386 9540l-3 -1c-10,-3 -21,-1 -29,5 -5,4 -9,9 -11,15l-14 41 63 21 14 -41c5,-17 -4,-34 -20,-40z"/>
  <path class="fil14 str12" d="M14327 9609l-14 41c-3,8 -2,17 2,24 4,8 10,13 18,16l3 1c10,3 21,1 29,-5 5,-4 9,-9 11,-15l14 -41 -63 -21z"/>
  <path class="fil14 str12" d="M14423 9617l50 65c15,-15 18,-38 5,-55 -13,-17 -37,-21 -55,-10z"/>
  <path class="fil14 str12" d="M14464 9688c-18,11 -42,7 -55,-10 -13,-17 -10,-41 5,-55l50 65z"/>
  <circle class="fil2 str11" cx="15234" cy="9646" r="40"/>
  <path class="fil2 str13" d="M15190 9680l-59 0c-5,0 -10,-4 -10,-10l0 -117c0,-5 4,-10 10,-10l144 0c5,0 10,4 10,10l0 45"/>
  <line class="fil2 str13" x1="15150" y1="9561" x2="15150" y2= "9529" />
  <line class="fil2 str13" x1="15238" y1="9561" x2="15238" y2= "9529" />
  <polyline class="fil2 str13" points="15225,9616 15225,9636 15239,9647 "/>
  <line class="fil2 str11" x1="15129" y1="9588" x2="15257" y2= "9588" />
  <line class="fil2 str13" x1="15137" y1="9645" x2="15171" y2= "9645" />
  <line class="fil2 str13" x1="15137" y1="9615" x2="15171" y2= "9615" />
  <circle class="fil2 str14" transform="matrix(0.251372 0.00366096 -0.00366096 0.251372 12357.7 11312.4)" r="225"/>
 </g>
</svg>
