<?xml version='1.0' encoding='iso-8859-1'?>
<!DOCTYPE svg PUBLIC '-//W3C//DTD SVG 1.1//EN' 'http://www.w3.org/Graphics/SVG/1.1/DTD/svg11.dtd'>
<svg version="1.1" xmlns="http://www.w3.org/2000/svg" viewBox="0 0 167.432 167.432" xmlns:xlink="http://www.w3.org/1999/xlink" enable-background="new 0 0 167.432 167.432">
  
<g>
    <path d="m161.432,26.14h-38.857c-3.313,0-6,2.687-6,6v19.499h-32.859c-3.313,0-6,2.687-6,6v20.656h-32.859c-3.313,0-6,2.687-6,6v19.499h-32.857c-3.313,0-6,2.687-6,6v25.499c0,3.313 2.687,6 6,6h155.432c3.313,0 6-2.687 6-6v-103.153c0-3.314-2.687-6-6-6zm-6,103.152h-143.432v-13.499h32.857c3.313,0 6-2.687 6-6v-19.498h32.858c3.313,0 6-2.687 6-6v-20.656h32.858c3.313,0 6-2.687 6-6v-19.499h26.857v91.152z" fill="#B3B7BB"/>
  </g>
</svg>
