<?xml version="1.0" encoding="UTF-8" standalone="no"?>
<!-- Created with Inkscape (http://www.inkscape.org/) -->

<svg
   xmlns:dc="http://purl.org/dc/elements/1.1/"
   xmlns:cc="http://creativecommons.org/ns#"
   xmlns:rdf="http://www.w3.org/1999/02/22-rdf-syntax-ns#"
   xmlns:svg="http://www.w3.org/2000/svg"
   xmlns="http://www.w3.org/2000/svg"
   xmlns:sodipodi="http://sodipodi.sourceforge.net/DTD/sodipodi-0.dtd"
   xmlns:inkscape="http://www.inkscape.org/namespaces/inkscape"
   width="130mm"
   height="130mm"
   viewBox="0 0 130 130"
   version="1.1"
   id="svg2611"
   inkscape:version="0.92.4 (5da689c313, 2019-01-14)"
   sodipodi:docname="patient.svg">
  <defs
     id="defs2605" />
  <sodipodi:namedview
     id="base"
     pagecolor="#ffffff"
     bordercolor="#666666"
     borderopacity="1.0"
     inkscape:pageopacity="0.0"
     inkscape:pageshadow="2"
     inkscape:zoom="0.7"
     inkscape:cx="400"
     inkscape:cy="217.14286"
     inkscape:document-units="mm"
     inkscape:current-layer="layer1"
     showgrid="false"
     inkscape:window-width="1366"
     inkscape:window-height="705"
     inkscape:window-x="-8"
     inkscape:window-y="-8"
     inkscape:window-maximized="1" />
  <metadata
     id="metadata2608">
    <rdf:RDF>
      <cc:Work
         rdf:about="">
        <dc:format>image/svg+xml</dc:format>
        <dc:type
           rdf:resource="http://purl.org/dc/dcmitype/StillImage" />
        <dc:title></dc:title>
      </cc:Work>
    </rdf:RDF>
  </metadata>
  <g
     inkscape:label="Layer 1"
     inkscape:groupmode="layer"
     id="layer1"
     transform="translate(0,-167)">
    <path
       style="fill:#a0d14c;fill-opacity:1;stroke:#454545;stroke-width:0.21407637;stroke-opacity:0"
       inkscape:connector-curvature="0"
       d="m 53.599949,264.04809 c 0.535828,0.26373 1.15933,0.26203 1.693529,-0.002 4.229319,-2.09108 8.293139,-6.07096 8.288229,-11.19795 -0.006,-4.96738 -5.84748,-7.43741 -9.145239,-3.93891 -3.363301,-3.51302 -9.150971,-0.99092 -9.14687,3.95855 0.006,5.23367 4.2965,9.20672 8.310351,11.18002 z m -1.02579,-12.32201 c 0.290859,0.53429 1.048729,1.12321 1.918838,1.0976 0.744759,-0.0188 1.424799,-0.46771 1.79841,-1.09333 1.30026,-2.17814 4.14165,-1.09078 4.14411,1.1215 0.003,3.53179 -3.05114,6.35518 -5.99495,7.97342 -2.988879,-1.60459 -6.000689,-4.45443 -6.00397,-7.96062 -0.0021,-2.34286 3.01181,-3.20234 4.137562,-1.13857 z m 0,0"
       id="path2394-8" />
    <path
       style="fill:#6c6c6c;fill-opacity:1;stroke:#454545;stroke-width:0.21407637;stroke-opacity:0"
       inkscape:connector-curvature="0"
       d="m 78.824308,247.33396 c 0,-9.68896 -7.964599,-13.21136 -8.302969,-13.35646 -0.01,-0.004 -0.02051,-0.009 -0.0303,-0.0128 l -18.80748,-7.58764 v -4.5944 c 3.001158,-2.43163 5.077309,-6.04109 5.585291,-10.15753 3.45753,-0.48735 6.31203,-3.37475 6.31203,-6.91422 0,-1.58069 -0.571061,-3.09651 -1.622251,-4.33579 v -6.28006 c 0,-11.1988 -8.74541,-20.30994 -19.49569,-20.30994 -10.750281,0 -19.496501,9.11114 -19.496501,20.30994 v 6.42175 c -1.04873,1.21539 -1.62226,2.68597 -1.62226,4.19411 0,3.52667 2.83976,6.42431 6.31122,6.91422 0.52026,4.26495 2.70457,7.97939 5.90401,10.39993 v 4.35286 c -0.01879,0.008 -18.79845,7.59105 -18.8173,7.59958 -0.33919,0.1451 -8.3029702,3.66665 -8.3029702,13.35646 v 34.13923 c 0,2.30617 1.80168,4.18216 4.0154802,4.18216 -0.8692902,-4.18216 -0.8692902,-14.29934 -0.8692902,-38.32139 0,-7.37938 5.9769302,-10.15753 6.3431602,-10.32055 l 13.08452,-5.28489 c 2.19741,4.88972 8.461931,7.35378 13.608069,7.35378 5.139582,0 11.410651,-2.4598 13.608881,-7.35549 l 13.10418,5.2866 c 0.283491,0.12717 6.343171,2.94202 6.343171,10.32055 v 1.57641 c 0,0.90472 0.70461,1.63873 1.573091,1.63873 0.869299,0 1.573088,-0.73401 1.573088,-1.63873 v -1.57641 z m -68.370501,35.04395 c -0.4784902,0 -0.8684802,-0.40627 -0.8684802,-0.90472 -2.9308,-22.28408 -3.14619,0 0.8684802,0.90472 z m 49.98171,-77.667 c 0,1.70615 -1.419058,3.11784 -3.041309,3.55569 v -7.10626 c 1.71893,0.46943 3.041309,1.9127 3.041309,3.55057 z m -32.90384,3.55654 c -1.6247,-0.4387 -3.04131,-1.85295 -3.04131,-3.55654 0,-1.6336 1.51247,-2.95397 3.04131,-3.45156 z m 0.0672,-10.3948 c -0.50306,0.093 -1.00202,0.23727 -1.48624,0.42931 v -4.20691 c 0,-9.39194 7.334541,-17.03249 16.349501,-17.03249 9.015789,0 16.35033,7.64055 16.35033,17.03249 v 4.08827 c -0.479301,-0.17582 -0.98892,-0.30043 -1.418241,-0.36871 0,-0.3781 0.007,-0.67512 -0.0647,-0.96958 -0.20565,-0.84838 -1.048731,-1.63531 -4.74386,-5.76967 -1.16015,-1.29903 -2.6251,-1.35963 -3.71806,-0.61538 -5.480431,3.72981 -12.16443,5.6041 -18.334721,5.14235 -1.39038,-0.1101 -2.633289,0.87143 -2.93398,2.27032 z m 3.079001,11.78601 v -10.76181 c 6.681549,0.40627 13.804709,-1.61739 19.661189,-5.52472 2.26214,2.53064 3.511611,3.88429 3.908981,4.39212 v 11.89441 c 0,6.72389 -5.264952,12.06938 -11.578622,12.07706 -0.006,0 -0.01069,7.9e-4 -0.01561,7.9e-4 -0.004,0 -0.008,-7.9e-4 -0.0123,-7.9e-4 -7.159202,-0.005 -11.963692,-5.79357 -11.963692,-12.07706 z m 17.859509,14.07767 v 3.15198 c -1.550969,1.74712 -3.70332,2.69366 -5.9163,2.69366 -2.22445,0 -4.364509,-0.94654 -5.91548,-2.69366 v -3.04871 c 1.913109,0.80144 3.977791,1.17442 5.948262,1.17442 2.051568,0 4.07856,-0.45492 5.883518,-1.27769 z m -14.50358,9.2972 c -0.8783,-0.6333 -1.58947,-1.49278 -2.07697,-2.49308 l 2.733251,-1.10443 c 2.03437,2.12436 4.86102,3.42339 7.930999,3.42339 2.985601,0 5.83765,-1.23758 7.93183,-3.42339 l 2.734061,1.10272 c -2.247389,4.61489 -11.86865,7.81381 -19.253171,2.49479 z"
       id="path2398-3"
       sodipodi:nodetypes="ccccccscssscsccccssccccsccsssscccccsccscsccccsssccccccccccccscscccccsccsccccsccc" />
    <path
       style="fill:#abd35b;fill-opacity:1;stroke:#454545;stroke-width:0.19365674;stroke-opacity:0"
       id="path2413-6"
       d="m 99.268987,266.32522 c 0.500692,0.23097 1.083293,0.22948 1.582453,-0.002 3.95193,-1.8313 7.74921,-5.31676 7.74462,-9.80681 -0.005,-4.35028 -5.46395,-6.51346 -8.54541,-3.44958 -3.142723,-3.07659 -8.550782,-0.86781 -8.546951,3.46677 0.005,4.58349 4.014708,8.06296 7.765288,9.79112 z m -0.958509,-10.79123 c 0.27178,0.46792 0.97994,0.98367 1.792992,0.96125 0.69591,-0.0164 1.33135,-0.40962 1.68045,-0.95751 1.21498,-1.90755 3.87001,-0.95527 3.87231,0.98217 0.003,3.09304 -2.85103,5.56567 -5.60176,6.98287 -2.792842,-1.40524 -5.607112,-3.90104 -5.610173,-6.97165 -0.0021,-2.05181 2.814272,-2.80451 3.866181,-0.99713 z m 0,0"
       inkscape:connector-curvature="0" />
    <path
       style="fill:#6c6c6c;fill-opacity:1;stroke:#454545;stroke-width:0.19365674;stroke-opacity:0"
       id="path2415-7"
       d="m 119.08681,285.24819 c 2.0686,0 3.75212,-1.64294 3.75212,-3.66261 v -21.82016 c 0,-0.79232 -0.6584,-1.43514 -1.46992,-1.43514 -0.81228,0 -1.47068,0.64282 -1.47068,1.43514"
       inkscape:connector-curvature="0"
       sodipodi:nodetypes="csssc" />
    <path
       style="fill:#6c6c6c;fill-opacity:1;stroke:#454545;stroke-width:0.19365674;stroke-opacity:0"
       sodipodi:nodetypes="ccccccscssscsccccsccssssccsccscsccccssscccccccccccscscccccsccsccccsccc"
       id="path2417-4"
       d="m 122.83893,251.68751 c 0,-8.48529 -7.44221,-11.5701 -7.7584,-11.69717 -0.009,-0.004 -0.0191,-0.007 -0.0283,-0.0112 l -17.573911,-6.64501 v -4.02364 c 2.804331,-2.12955 4.744311,-5.2906 5.218971,-8.89565 3.23075,-0.42681 5.89803,-2.9555 5.89803,-6.05526 0,-1.38432 -0.53361,-2.71182 -1.51585,-3.79715 v -5.49989 c 0,-9.80756 -8.171811,-17.78681 -18.216993,-17.78681 -10.045189,0 -18.217769,7.97925 -18.217769,17.78681 v 5.62397 c -0.979939,1.0644 -1.51585,2.35229 -1.51585,3.67307 0,3.08855 2.653501,5.62621 5.897271,6.05526 0.48614,3.73511 2.527178,6.9881 5.51678,9.10793 v 3.8121 c -9.829411,10.71654 -4.940422,5.04928 -4.248211,4.68589 2.053291,4.28226 7.906919,6.44021 12.715531,6.44021 4.802489,0 10.66225,-2.15421 12.716301,-6.4417 l 12.2447,4.62983 c 0.26489,0.11137 5.92713,2.57653 5.92713,9.03842 v 1.38057 c 0,0.79232 0.6584,1.43515 1.46992,1.43515 0.81228,0 1.46991,-0.64283 1.46991,-1.43515 v -1.38057 z m -17.1827,-37.32794 c 0,1.4942 -1.32599,2.73051 -2.84184,3.11396 v -6.22344 c 1.60619,0.41111 2.84184,1.67508 2.84184,3.10948 z m -30.745732,3.11471 c -1.51815,-0.3842 -2.841839,-1.62276 -2.841839,-3.11471 0,-1.43066 1.413259,-2.587 2.841839,-3.02277 z m 0.0628,-9.10344 c -0.470069,0.0815 -0.93631,0.20779 -1.388758,0.37597 v -3.68428 c 0,-8.22517 6.853478,-14.91652 15.277158,-14.91652 8.42446,0 15.277932,6.69135 15.277932,14.91652 v 3.58038 c -0.44786,-0.15397 -0.92405,-0.2631 -1.32522,-0.3229 0,-0.33113 0.006,-0.59125 -0.0605,-0.84913 -0.19216,-0.74298 -0.97994,-1.43215 -4.43271,-5.0529 -1.084061,-1.13765 -2.45292,-1.19072 -3.474201,-0.53893 -5.120979,3.26645 -11.36659,4.9079 -17.132181,4.50351 -1.299189,-0.0964 -2.460569,0.76317 -2.741538,1.98828 z m 2.87705,10.32182 v -9.42486 c 6.243312,0.3558 12.899282,-1.41646 18.371651,-4.83838 2.113769,2.21625 3.28128,3.40174 3.652581,3.84649 v 10.41675 c 0,5.88857 -4.91962,10.56998 -10.819191,10.57671 -0.005,0 -0.01,7.9e-4 -0.0145,7.9e-4 -0.004,0 -0.008,-7.9e-4 -0.01151,-7.9e-4 -6.68964,-0.004 -11.179008,-5.07383 -11.179008,-10.57671 z m 16.688141,12.32878 v 2.76041 c -1.449249,1.53007 -3.460429,2.35902 -5.528259,2.35902 -2.078562,0 -4.078251,-0.82895 -5.527501,-2.35902 v -2.66997 c 1.787631,0.70188 3.716899,1.02852 5.558121,1.02852 1.917009,0 3.811058,-0.3984 5.497639,-1.11896 z m -13.55232,8.1422 c -0.820701,-0.55463 -1.48522,-1.30733 -1.940751,-2.18337 l 2.553981,-0.96722 c 1.900941,1.86045 4.542189,2.9981 7.410831,2.9981 2.789769,0 5.454758,-1.08383 7.41158,-2.9981 l 2.55475,0.96573 c -2.09999,4.04157 -11.090211,6.84309 -17.990391,2.18486 z"
       inkscape:connector-curvature="0" />
    <rect
       style="fill:none;fill-opacity:1;stroke:#454545;stroke-width:0.90000004;stroke-linecap:round;stroke-linejoin:miter;stroke-miterlimit:4;stroke-dasharray:none;stroke-opacity:0;paint-order:markers stroke fill"
       id="rect2543-7"
       width="16.83798"
       height="25.587067"
       x="10.567065"
       y="255.82043"
       ry="2.8348253" />
    <path
       sodipodi:nodetypes="csssc"
       inkscape:connector-curvature="0"
       d="m 73.729668,284.03866 c 2.0686,0 3.75212,-1.64294 3.75212,-3.66261 v -21.82016 c 0,-0.79232 -0.6584,-1.43514 -1.469919,-1.43514 -0.812282,0 -1.470681,0.64282 -1.470681,1.43514"
       id="path2570-8"
       style="fill:#6c6c6c;fill-opacity:1;stroke:#454545;stroke-width:0.19365674;stroke-opacity:0" />
  </g>
</svg>
