<?xml version="1.0" encoding="UTF-8" standalone="no"?>
<!-- Created with Inkscape (http://www.inkscape.org/) -->

<svg
   xmlns:dc="http://purl.org/dc/elements/1.1/"
   xmlns:cc="http://creativecommons.org/ns#"
   xmlns:rdf="http://www.w3.org/1999/02/22-rdf-syntax-ns#"
   xmlns:svg="http://www.w3.org/2000/svg"
   xmlns="http://www.w3.org/2000/svg"
   xmlns:sodipodi="http://sodipodi.sourceforge.net/DTD/sodipodi-0.dtd"
   xmlns:inkscape="http://www.inkscape.org/namespaces/inkscape"
   width="130mm"
   height="130mm"
   viewBox="0 0 130 130"
   version="1.1"
   id="svg2611"
   inkscape:version="0.92.4 (5da689c313, 2019-01-14)"
   sodipodi:docname="tokenserved.svg">
  <defs
     id="defs2605" />
  <sodipodi:namedview
     id="base"
     pagecolor="#ffffff"
     bordercolor="#666666"
     borderopacity="1.0"
     inkscape:pageopacity="0.0"
     inkscape:pageshadow="2"
     inkscape:zoom="0.35"
     inkscape:cx="400"
     inkscape:cy="217.14286"
     inkscape:document-units="mm"
     inkscape:current-layer="layer1"
     showgrid="false"
     inkscape:window-width="1366"
     inkscape:window-height="705"
     inkscape:window-x="-8"
     inkscape:window-y="-8"
     inkscape:window-maximized="1" />
  <metadata
     id="metadata2608">
    <rdf:RDF>
      <cc:Work
         rdf:about="">
        <dc:format>image/svg+xml</dc:format>
        <dc:type
           rdf:resource="http://purl.org/dc/dcmitype/StillImage" />
        <dc:title></dc:title>
      </cc:Work>
    </rdf:RDF>
  </metadata>
  <g
     inkscape:label="Layer 1"
     inkscape:groupmode="layer"
     id="layer1"
     transform="translate(0,-167)">
    <g
       style="clip-rule:evenodd;fill-rule:evenodd;stroke:#7f7f7f;stroke-opacity:1;image-rendering:optimizeQuality;shape-rendering:geometricPrecision;text-rendering:geometricPrecision"
       id="_681235216"
       transform="matrix(0.00811907,0,0,0.00811907,0.83153557,167.8067)">
      <g
         id="g3596"
         style="stroke:#7f7f7f;stroke-opacity:1">
        <path
           id="path3594"
           d="m 15367,5774 -243,-243 c -144,-144 -363,-174 -545,-75 -154,84 -349,56 -474,-69 -125,-125 -153,-319 -69,-474 99,-182 69,-401 -75,-545 l -585,-585 c -144,-144 -363,-174 -545,-75 -154,84 -349,56 -474,-69 -125,-125 -153,-319 -69,-474 99,-182 69,-401 -75,-545 l -585,-585 c -144,-144 -363,-174 -545,-75 -154,84 -349,56 -474,-69 -125,-125 -153,-319 -69,-474 99,-182 69,-401 -75,-545 l -243,-243 c -177,-177 -466,-177 -644,0 L 629,9578 c -177,177 -177,466 0,644 l 244,244 c 143,143 361,173 543,76 154,-83 348,-54 472,70 124,124 152,318 70,472 -97,182 -67,400 76,543 l 587,587 c 143,143 361,173 543,76 154,-83 348,-54 472,70 124,124 152,318 70,472 -97,182 -67,400 76,543 l 587,587 c 143,143 361,173 543,76 154,-83 348,-54 472,70 124,124 152,318 70,472 -97,182 -67,400 76,543 l 244,244 c 89,89 205,133 322,133 117,0 233,-44 322,-133 l 8949,-8949 c 177,-177 177,-466 0,-644 z m -310,334 -1322,1322 -398,-398 c -85,-85 -224,-85 -310,0 -85,85 -85,224 0,310 l 398,398 -7318,7318 c -7,7 -18,7 -24,0 l -244,-244 c -6,-6 -4,-18 0,-26 173,-323 113,-729 -146,-988 -160,-160 -377,-244 -595,-244 -135,0 -270,32 -393,98 -8,4 -20,6 -26,0 l -587,-587 c -6,-6 -4,-18 0,-26 176,-328 117,-725 -146,-988 -263,-263 -660,-322 -988,-146 -8,4 -20,6 -26,0 l -587,-587 c -6,-6 -4,-18 0,-26 173,-323 113,-729 -146,-988 -259,-259 -666,-319 -988,-146 -8,4 -20,6 -26,0 L 941,9916 c -7,-7 -7,-18 0,-24 l 7317,-7318 419,419 c 43,43 99,64 155,64 56,0 112,-21 155,-64 85,-85 85,-224 0,-310 L 8568,2264 9890,942 c 7,-7 18,-7 24,0 l 243,243 c 6,6 4,18 0,26 -176,324 -117,732 144,992 261,261 669,320 992,144 8,-5 20,-7 26,0 l 585,585 c 6,6 4,18 0,26 -176,324 -117,732 144,992 261,261 669,320 992,144 8,-5 20,-7 26,0 l 585,585 c 6,6 4,18 0,26 -176,324 -117,732 144,992 261,261 669,320 992,144 8,-5 20,-7 26,0 l 243,243 c 7,7 7,18 0,24 z"
           class="fil0"
           inkscape:connector-curvature="0"
           style="fill:#999999;stroke:#7f7f7f;stroke-opacity:1" />
      </g>
    </g>
    <g
       style="clip-rule:evenodd;fill:#800080;fill-rule:evenodd;stroke:#ab4ddf;stroke-width:0.98533452;stroke-miterlimit:4;stroke-dasharray:none;stroke-opacity:1;image-rendering:optimizeQuality;shape-rendering:geometricPrecision;text-rendering:geometricPrecision"
       id="g3601"
       transform="matrix(0.00811907,0,0,0.00811907,0.83153557,167.8067)">
      <path
         style="fill:#800080;stroke:#ab4ddf;stroke-width:0.98533452;stroke-miterlimit:4;stroke-dasharray:none;stroke-opacity:1"
         inkscape:connector-curvature="0"
         class="fil0"
         d="M 12077,7727 10549,6199 c -85,-85 -224,-85 -310,0 -85,85 -85,224 0,310 l 1420,1420 -5070,5070 -1420,-1420 c -85,-85 -224,-85 -310,0 -85,85 -85,224 0,310 l 1528,1528 c 54,54 125,83 201,83 76,0 148,-30 201,-83 l 5287,-5287 c 111,-111 111,-292 0,-403 z"
         id="path3599" />
    </g>
    <g
       style="clip-rule:evenodd;fill:#800080;fill-rule:evenodd;stroke:#ab4ddf;stroke-opacity:1;image-rendering:optimizeQuality;shape-rendering:geometricPrecision;text-rendering:geometricPrecision"
       id="_681234480"
       transform="matrix(0.00811907,0,0,0.00811907,0.83153557,167.8067)">
      <g
         id="g3606"
         style="fill:#800080;stroke:#ab4ddf;stroke-opacity:1">
        <path
           id="path3604"
           d="M 9812,5463 8272,3923 c -111,-111 -292,-111 -403,0 L 2582,9210 c -54,54 -83,125 -83,201 0,76 30,148 83,201 l 1540,1540 c 43,43 99,64 155,64 56,0 112,-21 155,-64 85,-85 85,-224 0,-310 L 3001,9411 8071,4341 9502,5772 c 85,85 224,85 310,0 85,-85 85,-224 0,-310 z"
           class="fil0"
           inkscape:connector-curvature="0"
           style="fill:#800080;stroke:#ab4ddf;stroke-opacity:1" />
      </g>
    </g>
    <g
       style="clip-rule:evenodd;fill-rule:evenodd;image-rendering:optimizeQuality;shape-rendering:geometricPrecision;text-rendering:geometricPrecision"
       id="_681233264"
       transform="matrix(0.00811907,0,0,0.00811907,0.83153557,167.8067)">
      <g
         id="g3611">
        <path
           id="path3609"
           d="m 12602,6297 -469,-469 c -85,-85 -224,-85 -310,0 -85,85 -85,224 0,310 l 469,469 c 43,43 99,64 155,64 56,0 112,-21 155,-64 85,-85 85,-224 0,-310 z"
           class="fil0"
           inkscape:connector-curvature="0"
           style="fill:#999999" />
      </g>
    </g>
    <g
       style="clip-rule:evenodd;fill-rule:evenodd;image-rendering:optimizeQuality;shape-rendering:geometricPrecision;text-rendering:geometricPrecision"
       id="_681231728"
       transform="matrix(0.00811907,0,0,0.00811907,0.83153557,167.8067)">
      <g
         id="g3616">
        <path
           id="path3614"
           d="m 11388,5082 -459,-459 c -85,-85 -224,-85 -310,0 -85,85 -85,224 0,310 l 459,459 c 43,43 99,64 155,64 56,0 112,-21 155,-64 85,-85 85,-224 0,-310 z"
           class="fil0"
           inkscape:connector-curvature="0"
           style="fill:#999999" />
      </g>
    </g>
    <g
       style="clip-rule:evenodd;fill-rule:evenodd;image-rendering:optimizeQuality;shape-rendering:geometricPrecision;text-rendering:geometricPrecision"
       id="_681232240"
       transform="matrix(0.00811907,0,0,0.00811907,0.83153557,167.8067)">
      <g
         id="g3621">
        <path
           id="path3619"
           d="m 10193,3888 -469,-469 c -85,-85 -224,-85 -310,0 -85,85 -85,224 0,310 l 469,469 c 43,43 99,64 155,64 56,0 112,-21 155,-64 86,-85 86,-224 0,-310 z"
           class="fil0"
           inkscape:connector-curvature="0"
           style="fill:#999999" />
      </g>
    </g>
  </g>
</svg>
