<?xml version="1.0" encoding="UTF-8" standalone="no"?>
<!-- Created with Inkscape (http://www.inkscape.org/) -->

<svg
   xmlns:dc="http://purl.org/dc/elements/1.1/"
   xmlns:cc="http://creativecommons.org/ns#"
   xmlns:rdf="http://www.w3.org/1999/02/22-rdf-syntax-ns#"
   xmlns:svg="http://www.w3.org/2000/svg"
   xmlns="http://www.w3.org/2000/svg"
   xmlns:sodipodi="http://sodipodi.sourceforge.net/DTD/sodipodi-0.dtd"
   xmlns:inkscape="http://www.inkscape.org/namespaces/inkscape"
   width="130mm"
   height="130mm"
   viewBox="0 0 130 130"
   version="1.1"
   id="svg2611"
   inkscape:version="0.92.4 (5da689c313, 2019-01-14)"
   sodipodi:docname="tokenserving.svg">
  <defs
     id="defs2605" />
  <sodipodi:namedview
     id="base"
     pagecolor="#ffffff"
     bordercolor="#666666"
     borderopacity="1.0"
     inkscape:pageopacity="0.0"
     inkscape:pageshadow="2"
     inkscape:zoom="0.7"
     inkscape:cx="400"
     inkscape:cy="217.14286"
     inkscape:document-units="mm"
     inkscape:current-layer="layer1"
     showgrid="false"
     inkscape:window-width="1366"
     inkscape:window-height="705"
     inkscape:window-x="-8"
     inkscape:window-y="-8"
     inkscape:window-maximized="1" />
  <metadata
     id="metadata2608">
    <rdf:RDF>
      <cc:Work
         rdf:about="">
        <dc:format>image/svg+xml</dc:format>
        <dc:type
           rdf:resource="http://purl.org/dc/dcmitype/StillImage" />
        <dc:title></dc:title>
      </cc:Work>
    </rdf:RDF>
  </metadata>
  <g
     inkscape:label="Layer 1"
     inkscape:groupmode="layer"
     id="layer1"
     transform="translate(0,-167)">
    <path
       inkscape:connector-curvature="0"
       style="clip-rule:evenodd;fill:none;fill-rule:evenodd;stroke-width:0.00742197;image-rendering:optimizeQuality;shape-rendering:geometricPrecision;text-rendering:geometricPrecision"
       d="m 76.327502,188.95773 c 1.936498,0.41405 4.017399,-0.10778 5.5196,-1.49021 0.049,-0.0504 0.1315,-0.0864 0.187298,-0.0468 l 5.265301,3.1591 c 0.054,0.0324 0.061,0.1224 0.047,0.18721 -0.684001,2.64974 0.4753,5.48127 2.822598,6.88352 2.349101,1.40943 5.393099,1.09978 7.402001,-0.74893 0.049,-0.0504 0.1314,-0.0864 0.187198,-0.0468 l 2.187102,1.31224 c 0.063,0.0378 0.083,0.11701 0.043,0.17281 l 0.01,-0.002 v 0 l -7.138998,11.8987 -3.582201,-2.14926 c -0.765098,-0.45902 -1.7659,-0.20879 -2.232099,0.55806 -0.458999,0.76504 -0.208801,1.76589 0.558001,2.23211 l 3.5823,2.14926 -39.5185,65.8659 c -0.038,0.063 -0.117002,0.0828 -0.172802,0.0432 l -2.1961,-1.31764 c -0.054,-0.0324 -0.061,-0.12241 -0.047,-0.18721 0.664199,-2.63714 -0.498703,-5.45248 -2.829801,-6.85112 -1.440101,-0.86403 -3.153801,-1.07821 -4.7235,-0.68578 -0.972,0.24303 -1.886501,0.71647 -2.6533,1.41312 -0.05,0.0432 -0.133199,0.0792 -0.187201,0.0468 l -5.2833,-3.16989 c -0.054,-0.0324 -0.061,-0.12241 -0.047,-0.18721 0.676799,-2.67855 -0.462701,-5.43088 -2.829801,-6.85112 -2.367201,-1.42024 -5.331901,-1.13039 -7.376801,0.72734 -0.05,0.0432 -0.1332,0.0792 -0.1872,0.0468 l -5.283302,-3.16979 c -0.054,-0.0324 -0.061,-0.1224 -0.047,-0.1872 0.664299,-2.63715 -0.4986,-5.45247 -2.8298,-6.85112 -0.6602,-0.39612 -1.3772,-0.65594 -2.111401,-0.78341"
       id="path3429" />
    <path
       inkscape:connector-curvature="0"
       style="clip-rule:evenodd;fill:none;fill-rule:evenodd;stroke-width:0.00742197;image-rendering:optimizeQuality;shape-rendering:geometricPrecision;text-rendering:geometricPrecision"
       d="m 12.8596,250.92844 c -1.8582,-0.32264 -3.8268002,0.20238 -5.2655002,1.51074 -0.05,0.0432 -0.1332,0.0792 -0.1872,0.0468 l -2.1961,-1.31764 c -0.063,-0.0378 -0.083,-0.11701 -0.043,-0.17281 L 44.679001,185.13144 48.4502,187.3941 c 0.387101,0.23221 0.828101,0.2826 1.231302,0.18179 0.403199,-0.1008 0.768599,-0.35283 1.0008,-0.73985 0.459099,-0.76504 0.208798,-1.76589 -0.558001,-2.2321 l -3.771199,-2.26267 7.138998,-11.8987 c 0.038,-0.063 0.117001,-0.0828 0.172802,-0.0432 l 2.187099,1.31224 c 0.054,0.0324 0.061,0.12241 0.047,0.18721 -0.684,2.64974 0.4753,5.48127 2.822599,6.88352 2.349201,1.40943 5.3931,1.09977 7.402002,-0.74894 0.049,-0.0503 0.1314,-0.0864 0.187198,-0.0468 l 5.265301,3.1591 c 0.054,0.0324 0.061,0.1224 0.047,0.18721 -0.684001,2.64975 0.4753,5.48127 2.822699,6.88352 0.5925,0.35549 1.229201,0.60162 1.882301,0.74128"
       id="path3427" />
    <path
       inkscape:connector-curvature="0"
       style="clip-rule:evenodd;fill:none;fill-rule:evenodd;stroke-width:0.00742197;image-rendering:optimizeQuality;shape-rendering:geometricPrecision;text-rendering:geometricPrecision"
       d="m 8.0549998,255.67142 c 0.615,-0.11524 1.2057,-0.40158 1.7029,-0.85073 0.9594002,-0.87486 2.4085012,-1.01529 3.5246012,-0.34566 1.115999,0.66962 1.666899,2.01607 1.353699,3.27254 -0.3708,1.48509 0.237601,3.00076 1.524701,3.77299 l 5.2833,3.16988 c 1.2871,0.77222 2.9108,0.5958 4.0466,-0.43027 0.9595,-0.87486 2.4085,-1.01528 3.5246,-0.34566 1.116099,0.66962 1.666898,2.01608 1.353701,3.27255 -0.370801,1.48508 0.237699,3.00075 1.524698,3.77298 l 5.283301,3.16989 c 1.2871,0.77222 2.9108,0.5958 4.046701,-0.43027 0.959398,-0.87486 2.4085,-1.01528 3.524499,-0.34566 1.1161,0.66962 1.666899,2.01607 1.353701,3.27254 -0.370801,1.48509 0.237699,3.00076 1.524799,3.77299 l 2.1961,1.31763 c 0.800999,0.48062 1.7155,0.58861 2.557899,0.37799 0.842502,-0.21062 1.598501,-0.73627 2.079101,-1.5373 L 102.786,200.01207 c 0.9558,-1.5931 0.4356,-3.67399 -1.1593,-4.63702 l -2.1872,-1.31224 c -1.296,-0.77763 -2.9269,-0.5994 -4.0592,0.44107 -0.957599,0.88206 -2.4121,1.03149 -3.5371,0.35646 -1.125098,-0.67502 -1.675998,-2.02148 -1.350198,-3.28875 0.385199,-1.48868 -0.225001,-3.01156 -1.5211,-3.78918 l -5.265301,-3.15908 c -0.8124,-0.48744 -1.756299,-0.59931 -2.626601,-0.35868"
       id="path3425" />
    <path
       inkscape:connector-curvature="0"
       style="clip-rule:evenodd;fill:none;fill-rule:evenodd;stroke-width:0.00742197;image-rendering:optimizeQuality;shape-rendering:geometricPrecision;text-rendering:geometricPrecision"
       d="m 81.08,184.26465 c -0.518099,0.14326 -1.010099,0.41147 -1.432599,0.79975 -0.957599,0.88204 -2.412101,1.03147 -3.537199,0.35646 -1.125,-0.67502 -1.6759,-2.02148 -1.3501,-3.28876 0.385199,-1.48868 -0.225002,-3.01155 -1.5211,-3.78917 l -5.265301,-3.1591 c -1.296101,-0.77762 -2.927001,-0.59939 -4.0592,0.44108 -0.9577,0.88205 -2.412101,1.03148 -3.537199,0.35646 -1.125101,-0.67502 -1.6759,-2.02149 -1.3501,-3.28875 0.385199,-1.48868 -0.2251,-3.01156 -1.5211,-3.78918 L 55.3189,167.5912 c -1.593099,-0.95583 -3.673999,-0.43558 -4.636998,1.15932 L 2.3558038,249.2963 c -0.9558,1.59309 -0.4355,3.67399 1.159396,4.63702 l 2.1961,1.31764 c 0.7237,0.43419 1.5537,0.56847 2.3437,0.42046"
       id="path3417" />
    <g
       style="clip-rule:evenodd;fill-rule:evenodd;image-rendering:optimizeQuality;shape-rendering:geometricPrecision;text-rendering:geometricPrecision"
       id="g3235"
       transform="matrix(0.00742197,0,0,0.00742197,8.5724028,177.28756)">
      <path
         style="fill:#999999"
         inkscape:connector-curvature="0"
         class="fil0"
         d="m 15367,5774 -243,-243 c -144,-144 -363,-174 -545,-75 -154,84 -349,56 -474,-69 -125,-125 -153,-319 -69,-474 99,-182 69,-401 -75,-545 l -585,-585 c -144,-144 -363,-174 -545,-75 -154,84 -349,56 -474,-69 -125,-125 -153,-319 -69,-474 99,-182 69,-401 -75,-545 l -585,-585 c -144,-144 -363,-174 -545,-75 -154,84 -349,56 -474,-69 -125,-125 -153,-319 -69,-474 99,-182 69,-401 -75,-545 l -243,-243 c -177,-177 -466,-177 -644,0 L 629,9578 c -177,177 -177,466 0,644 l 244,244 c 143,143 361,173 543,76 154,-83 348,-54 472,70 124,124 152,318 70,472 -97,182 -67,400 76,543 l 587,587 c 143,143 361,173 543,76 154,-83 348,-54 472,70 124,124 152,318 70,472 -97,182 -67,400 76,543 l 587,587 c 143,143 361,173 543,76 154,-83 348,-54 472,70 124,124 152,318 70,472 -97,182 -67,400 76,543 l 244,244 c 89,89 205,133 322,133 117,0 233,-44 322,-133 l 8949,-8949 c 177,-177 177,-466 0,-644 z m -310,334 -1322,1322 -398,-398 c -85,-85 -224,-85 -310,0 -85,85 -85,224 0,310 l 398,398 -7318,7318 c -7,7 -18,7 -24,0 l -244,-244 c -6,-6 -4,-18 0,-26 173,-323 113,-729 -146,-988 -160,-160 -377,-244 -595,-244 -135,0 -270,32 -393,98 -8,4 -20,6 -26,0 l -587,-587 c -6,-6 -4,-18 0,-26 176,-328 117,-725 -146,-988 -263,-263 -660,-322 -988,-146 -8,4 -20,6 -26,0 l -587,-587 c -6,-6 -4,-18 0,-26 173,-323 113,-729 -146,-988 -259,-259 -666,-319 -988,-146 -8,4 -20,6 -26,0 L 941,9916 c -7,-7 -7,-18 0,-24 l 7317,-7318 419,419 c 43,43 99,64 155,64 56,0 112,-21 155,-64 85,-85 85,-224 0,-310 L 8568,2264 9890,942 c 7,-7 18,-7 24,0 l 243,243 c 6,6 4,18 0,26 -176,324 -117,732 144,992 261,261 669,320 992,144 8,-5 20,-7 26,0 l 585,585 c 6,6 4,18 0,26 -176,324 -117,732 144,992 261,261 669,320 992,144 8,-5 20,-7 26,0 l 585,585 c 6,6 4,18 0,26 -176,324 -117,732 144,992 261,261 669,320 992,144 8,-5 20,-7 26,0 l 243,243 c 7,7 7,18 0,24 z"
         id="path3233" />
    </g>
    <g
       style="clip-rule:evenodd;fill:#00ffff;fill-rule:evenodd;stroke:#a652e3;stroke-opacity:0;image-rendering:optimizeQuality;shape-rendering:geometricPrecision;text-rendering:geometricPrecision"
       id="g3240"
       transform="matrix(0.00742197,0,0,0.00742197,8.5724028,177.28756)">
      <path
         style="fill:#00ffff;stroke:#00d8c1;stroke-opacity:1"
         inkscape:connector-curvature="0"
         class="fil0"
         d="M 12077,7727 10549,6199 c -85,-85 -224,-85 -310,0 -85,85 -85,224 0,310 l 1420,1420 -5070,5070 -1420,-1420 c -85,-85 -224,-85 -310,0 -85,85 -85,224 0,310 l 1528,1528 c 54,54 125,83 201,83 76,0 148,-30 201,-83 l 5287,-5287 c 111,-111 111,-292 0,-403 z"
         id="path3238" />
    </g>
    <g
       style="clip-rule:evenodd;fill:#00ffff;fill-rule:evenodd;stroke:#000000;stroke-opacity:0;image-rendering:optimizeQuality;shape-rendering:geometricPrecision;text-rendering:geometricPrecision"
       id="g3245"
       transform="matrix(0.00742197,0,0,0.00742197,8.5724028,177.28756)">
      <path
         style="fill:#00ffff;stroke:#000000;stroke-opacity:0"
         inkscape:connector-curvature="0"
         class="fil0"
         d="M 9812,5463 8272,3923 c -111,-111 -292,-111 -403,0 L 2582,9210 c -54,54 -83,125 -83,201 0,76 30,148 83,201 l 1540,1540 c 43,43 99,64 155,64 56,0 112,-21 155,-64 85,-85 85,-224 0,-310 L 3001,9411 8071,4341 9502,5772 c 85,85 224,85 310,0 85,-85 85,-224 0,-310 z"
         id="path3243" />
    </g>
    <g
       style="clip-rule:evenodd;fill-rule:evenodd;image-rendering:optimizeQuality;shape-rendering:geometricPrecision;text-rendering:geometricPrecision"
       id="g3250"
       transform="matrix(0.00742197,0,0,0.00742197,8.5724028,177.28756)">
      <path
         style="fill:#999999"
         inkscape:connector-curvature="0"
         class="fil0"
         d="m 12602,6297 -469,-469 c -85,-85 -224,-85 -310,0 -85,85 -85,224 0,310 l 469,469 c 43,43 99,64 155,64 56,0 112,-21 155,-64 85,-85 85,-224 0,-310 z"
         id="path3248" />
    </g>
    <g
       style="clip-rule:evenodd;fill-rule:evenodd;image-rendering:optimizeQuality;shape-rendering:geometricPrecision;text-rendering:geometricPrecision"
       id="g3255"
       transform="matrix(0.00742197,0,0,0.00742197,8.5724028,177.28756)">
      <path
         style="fill:#999999"
         inkscape:connector-curvature="0"
         class="fil0"
         d="m 11388,5082 -459,-459 c -85,-85 -224,-85 -310,0 -85,85 -85,224 0,310 l 459,459 c 43,43 99,64 155,64 56,0 112,-21 155,-64 85,-85 85,-224 0,-310 z"
         id="path3253" />
    </g>
    <g
       style="clip-rule:evenodd;fill-rule:evenodd;image-rendering:optimizeQuality;shape-rendering:geometricPrecision;text-rendering:geometricPrecision"
       id="g3260"
       transform="matrix(0.00742197,0,0,0.00742197,8.5724028,177.28756)">
      <path
         style="fill:#999999"
         inkscape:connector-curvature="0"
         class="fil0"
         d="m 10193,3888 -469,-469 c -85,-85 -224,-85 -310,0 -85,85 -85,224 0,310 l 469,469 c 43,43 99,64 155,64 56,0 112,-21 155,-64 86,-85 86,-224 0,-310 z"
         id="path3258" />
    </g>
    <path
       sodipodi:nodetypes="ccscsscscsccssccsssccscscccc"
       style="clip-rule:evenodd;fill:#999999;fill-rule:evenodd;stroke-width:0.00742198;image-rendering:optimizeQuality;shape-rendering:geometricPrecision;text-rendering:geometricPrecision"
       inkscape:connector-curvature="0"
       class="fil0"
       d="m 77.259002,180.09466 c -1.2304,-0.87787 -2.870301,-0.82943 -4.081402,0.11804 -1.024498,0.80341 -2.4863,0.83711 -3.554299,0.0751 -1.068001,-0.76205 -1.510501,-2.14792 -1.085299,-3.38539 0.501999,-1.45349 0.014,-3.01993 -1.216102,-3.89781 l -2.076199,-1.48141 c -1.5124,-1.07906 -3.628001,-0.72533 -4.714401,0.78824 L 5.9747998,248.77467 c -1.079,1.51234 -0.7253,3.62793 0.7883,4.71431 l 2.0848,1.48752 c 1.2218002,0.87177 2.8544002,0.82456 4.0680012,-0.10828 M 10.9476,252.32276 c -0.054,0.0391 -0.139,0.0684 -0.1903,0.0318 l -2.0848002,-1.48752 c -0.06,-0.0427 -0.073,-0.1232 -0.029,-0.17569 l 44.6060012,-62.52622 3.580101,2.55438 c 0.3674,0.26215 0.803,0.34733 1.212998,0.27879 0.4099,-0.0685 0.794102,-0.29081 1.056301,-0.65822 0.5182,-0.72627 0.348099,-1.7438 -0.379399,-2.26932 l -3.580101,-2.55437 8.059399,-11.29562 c 0.043,-0.0598 0.123201,-0.0733 0.175702,-0.0294 l 2.076299,1.48142 c 0.051,0.0366 0.051,0.12687 0.032,0.19033 -0.891802,2.58722 0.04,5.50171 2.2683,7.08555 l 10.9923,0.43232 c 0.052,-0.0464 2.3373,0.88359 2.3373,0.88359"
       id="path3444" />
  </g>
</svg>
