<?xml version="1.0" encoding="UTF-8" standalone="no"?>
<!-- Created with Inkscape (http://www.inkscape.org/) -->

<svg
   xmlns:dc="http://purl.org/dc/elements/1.1/"
   xmlns:cc="http://creativecommons.org/ns#"
   xmlns:rdf="http://www.w3.org/1999/02/22-rdf-syntax-ns#"
   xmlns:svg="http://www.w3.org/2000/svg"
   xmlns="http://www.w3.org/2000/svg"
   xmlns:sodipodi="http://sodipodi.sourceforge.net/DTD/sodipodi-0.dtd"
   xmlns:inkscape="http://www.inkscape.org/namespaces/inkscape"
   width="130mm"
   height="130mm"
   viewBox="0 0 130 130"
   version="1.1"
   id="svg2611"
   inkscape:version="0.92.4 (5da689c313, 2019-01-14)"
   sodipodi:docname="waiting time.svg">
  <defs
     id="defs2605" />
  <sodipodi:namedview
     id="base"
     pagecolor="#ffffff"
     bordercolor="#666666"
     borderopacity="1.0"
     inkscape:pageopacity="0.0"
     inkscape:pageshadow="2"
     inkscape:zoom="0.7"
     inkscape:cx="400"
     inkscape:cy="217.14286"
     inkscape:document-units="mm"
     inkscape:current-layer="layer1"
     showgrid="false"
     inkscape:window-width="1366"
     inkscape:window-height="705"
     inkscape:window-x="-8"
     inkscape:window-y="-8"
     inkscape:window-maximized="1" />
  <metadata
     id="metadata2608">
    <rdf:RDF>
      <cc:Work
         rdf:about="">
        <dc:format>image/svg+xml</dc:format>
        <dc:type
           rdf:resource="http://purl.org/dc/dcmitype/StillImage" />
        <dc:title></dc:title>
      </cc:Work>
    </rdf:RDF>
  </metadata>
  <g
     inkscape:label="Layer 1"
     inkscape:groupmode="layer"
     id="layer1"
     transform="translate(0,-167)">
    <g
       id="g5918"
       transform="translate(0,5.8208336)">
      <path
         sodipodi:nodetypes="csccccccccccccc"
         inkscape:connector-curvature="0"
         id="path934-2"
         d="m 31.842735,281.03212 c 0,0 -7.3587,-39.05992 -21.827571,-68.11055 -1.56026,-3.1327 -2.59415,-6.23201 -4.25766,-9.16073 -1.04803,-7.43907 6.48348,-9.33646 9.55963,-4.20149 7.245501,12.73431 13.220401,21.91725 24.407901,40.25638 l 48.374695,-4.78527 c 12.48701,-0.30459 12.8456,6.44051 11.8083,22.31732 -0.7356,10.85268 -2.3248,24.14326 -2.3248,24.14326 l -7.39539,0.60904 c -4.64951,0.23015 -3.0763,-3.20323 -3.46591,-7.21393 -0.38569,-3.71778 -2.29359,-9.62303 -10.12509,-12.54627 -10.6651,-3.82716 -24.20251,-0.81378 -24.20251,-0.81378 -7.539,1.97161 -14.396697,7.01929 -12.922896,19.13686 -0.104399,0.4809 -0.1177,0.36914 -2.443498,0.36915 z"
         style="fill:#4c5051;fill-opacity:1;stroke:none;stroke-width:0.24361357px;stroke-linecap:butt;stroke-linejoin:miter;stroke-opacity:1" />
      <path
         sodipodi:nodetypes="ccccccccc"
         inkscape:connector-curvature="0"
         id="path936-9"
         d="M 42.074236,235.2045 25.978335,212.32223 c -4.1999,-9.82381 7.1398,-16.42184 13.0507,-10.61459 l 4.678201,6.24311 11.939694,17.59622 23.9366,-1.11482 c 4.35151,-0.0987 4.8787,0.75777 4.7987,4.06043 0.053,2.03412 0.4092,3.55678 -3.07609,3.93739 z"
         style="fill:#1487c0;fill-opacity:1;stroke:none;stroke-width:0.24361357px;stroke-linecap:butt;stroke-linejoin:miter;stroke-opacity:1" />
      <path
         sodipodi:nodetypes="cccccc"
         inkscape:connector-curvature="0"
         id="path938-2"
         d="m 105.23974,258.5218 v -15.31285 c 3.20689,0.73258 6.3592,7.69026 9.2299,11.13928 3.9322,5.65673 9.2211,13.48396 12.4343,18.18135 2.23009,3.44864 -3.7886,6.7672 -6.6124,3.04517 z"
         style="fill:#1487c0;fill-opacity:1;stroke:none;stroke-width:0.24361357px;stroke-linecap:butt;stroke-linejoin:miter;stroke-opacity:1" />
      <circle
         r="9.3095198"
         cy="189.52696"
         cx="24.916847"
         id="path944-8"
         style="fill:#1487c0;fill-opacity:1;stroke:none;stroke-width:0.60441494;stroke-linecap:round;stroke-linejoin:miter;stroke-miterlimit:4;stroke-dasharray:none;stroke-opacity:1;paint-order:markers stroke fill" />
      <path
         sodipodi:nodetypes="ccccccccc"
         inkscape:connector-curvature="0"
         id="path946-7"
         d="m 86.96623,203.3302 c -22.3477,-2.37789 -16.7442,-33.93583 4.8602,-30.20717 1.05611,-0.12304 1.86611,-1.32271 0.86131,-2.21477 -25.85951,-4.52073 -31.4648,32.48443 -4.9218,35.06738 0.24649,2.80352 0.56149,4.08238 2.58389,2.64542 l 4.73721,-4.18347 c 2.46889,-2.43012 -1.83281,-3.06021 -3.304,-3.63129 -2.78841,-1.0836 -5.5605,-2.20054 -5.12451,0.73977 z"
         style="fill:#4c5051;fill-opacity:1;stroke:none;stroke-width:0.24361357px;stroke-linecap:butt;stroke-linejoin:miter;stroke-opacity:1" />
      <path
         sodipodi:nodetypes="cscsc"
         inkscape:connector-curvature="0"
         id="path948-7"
         d="m 90.10084,188.26539 c -0.3537,0.56536 -0.2492,1.12787 -0.62341,1.42611 -3.78149,3.01433 -6.2349,-3.34561 -1.9432,-3.99275 0.23861,0.0134 0.3751,-0.31894 0.57561,-0.49064 3.9234,-3.3596 10.83829,-9.47568 1.991,3.05728 z"
         style="fill:#3a4652;fill-opacity:1;stroke:none;stroke-width:0.92074418;stroke-linecap:round;stroke-linejoin:miter;stroke-miterlimit:4;stroke-dasharray:none;stroke-opacity:1;paint-order:markers stroke fill" />
      <rect
         transform="matrix(0.58594853,-0.81034827,0.78378391,0.62103365,0,0)"
         ry="1.1375934"
         y="179.88907"
         x="-78.51564"
         height="2.2751868"
         width="3.8041506"
         id="rect951-8"
         style="fill:#1487c0;fill-opacity:1;stroke:none;stroke-width:0.94737303;stroke-linecap:round;stroke-linejoin:miter;stroke-miterlimit:4;stroke-dasharray:none;stroke-opacity:1;paint-order:markers stroke fill" />
      <rect
         style="fill:#1487c0;fill-opacity:1;stroke:none;stroke-width:0.94737303;stroke-linecap:round;stroke-linejoin:miter;stroke-miterlimit:4;stroke-dasharray:none;stroke-opacity:1;paint-order:markers stroke fill"
         id="rect953-3"
         width="3.8041511"
         height="2.2751865"
         x="-15.805903"
         y="202.69084"
         ry="1.1375933"
         transform="matrix(0.80945617,-0.5871803,0.55099847,0.83450625,0,0)" />
      <rect
         inkscape:transform-center-y="-6.1379419"
         inkscape:transform-center-x="1.2016768"
         transform="matrix(0.87473322,-0.48460478,0.44565031,0.89520713,0,0)"
         ry="1.1375933"
         y="209.41977"
         x="9.1658545"
         height="2.2751865"
         width="3.8041506"
         id="rect955-3"
         style="fill:#1487c0;fill-opacity:1;stroke:none;stroke-width:0.94737303;stroke-linecap:round;stroke-linejoin:miter;stroke-miterlimit:4;stroke-dasharray:none;stroke-opacity:1;paint-order:markers stroke fill" />
      <rect
         ry="0.9843474"
         y="187.76518"
         x="102.46971"
         height="1.9686948"
         width="3.629781"
         id="rect965-5"
         style="fill:#1487c0;fill-opacity:1;stroke:none;stroke-width:0.92074418;stroke-linecap:round;stroke-linejoin:miter;stroke-miterlimit:4;stroke-dasharray:none;stroke-opacity:1;paint-order:markers stroke fill" />
      <rect
         transform="rotate(16.812627)"
         ry="0.98434728"
         y="155.14406"
         x="152.97102"
         height="2.0302165"
         width="4.0604334"
         id="rect967-2"
         style="fill:#1487c0;fill-opacity:1;stroke:none;stroke-width:0.92074418;stroke-linecap:round;stroke-linejoin:miter;stroke-miterlimit:4;stroke-dasharray:none;stroke-opacity:1;paint-order:markers stroke fill" />
      <rect
         style="fill:#1487c0;fill-opacity:1;stroke:none;stroke-width:0.92074418;stroke-linecap:round;stroke-linejoin:miter;stroke-miterlimit:4;stroke-dasharray:none;stroke-opacity:1;paint-order:markers stroke fill"
         id="rect969-2"
         width="4.0604334"
         height="2.0302165"
         x="205.32104"
         y="81.186028"
         ry="0.98434728"
         transform="rotate(41.629741)" />
    </g>
  </g>
</svg>
