<?xml version="1.0" encoding="UTF-8" standalone="no"?>
<!-- Created with Inkscape (http://www.inkscape.org/) -->

<svg
   xmlns:dc="http://purl.org/dc/elements/1.1/"
   xmlns:cc="http://creativecommons.org/ns#"
   xmlns:rdf="http://www.w3.org/1999/02/22-rdf-syntax-ns#"
   xmlns:svg="http://www.w3.org/2000/svg"
   xmlns="http://www.w3.org/2000/svg"
   xmlns:sodipodi="http://sodipodi.sourceforge.net/DTD/sodipodi-0.dtd"
   xmlns:inkscape="http://www.inkscape.org/namespaces/inkscape"
   version="1.1"
   id="svg10"
   width="266.66666"
   height="266.66666"
   viewBox="0 0 266.66666 266.66666"
   sodipodi:docname="approval.svg"
   inkscape:version="0.92.4 (5da689c313, 2019-01-14)">
  <metadata
     id="metadata16">
    <rdf:RDF>
      <cc:Work
         rdf:about="">
        <dc:format>image/svg+xml</dc:format>
        <dc:type
           rdf:resource="http://purl.org/dc/dcmitype/StillImage" />
        <dc:title></dc:title>
      </cc:Work>
    </rdf:RDF>
  </metadata>
  <defs
     id="defs14" />
  <sodipodi:namedview
     pagecolor="#ffffff"
     bordercolor="#666666"
     borderopacity="1"
     objecttolerance="10"
     gridtolerance="10"
     guidetolerance="10"
     inkscape:pageopacity="0"
     inkscape:pageshadow="2"
     inkscape:window-width="1366"
     inkscape:window-height="705"
     id="namedview12"
     showgrid="false"
     inkscape:zoom="1.426588"
     inkscape:cx="138.50944"
     inkscape:cy="131.79585"
     inkscape:window-x="-8"
     inkscape:window-y="-8"
     inkscape:window-maximized="1"
     inkscape:current-layer="svg10" />
  <path
     style="fill:#4d4d4d;stroke:#000000;stroke-width:0;stroke-linecap:butt;stroke-linejoin:miter;stroke-miterlimit:4;stroke-dasharray:none;stroke-opacity:1"
     d="m 165.82666,149.02445 49.56629,-65.923157 c 0,0 23.54399,-11.152421 19.82652,15.613385 l -60.71871,81.288702 c 0,0 -6.44361,7.43495 -17.10037,-0.49566 l -26.7658,-33.45725 c 0,0 -1.48698,-19.82651 17.84387,-16.85254 z"
     id="path20"
     inkscape:connector-curvature="0" />
  <path
     style="fill:#4d4d4d;stroke:#000000;stroke-width:0;stroke-linecap:butt;stroke-linejoin:miter;stroke-miterlimit:4;stroke-dasharray:none;stroke-opacity:1"
     d="m 184.90967,103.91913 -0.24783,-38.909539 c 0,0 0.24783,-6.195787 -7.68277,-5.452293 l -96.902104,0.991326 c 0,0 -3.96531,0 -2.97398,7.682776 v 132.83766 c 0,0 -1.23916,3.46964 8.17844,3.96531 l 96.158604,-0.49567 c 0,0 3.71748,-1.48699 3.96531,-4.21313 l 0.24783,-11.64808 13.63073,-18.83519 -1.23916,34.20074 c 0,0 0.24783,12.88724 -13.13507,15.86121 L 75.120336,219.65642 c 0,0 -9.91326,-0.99132 -11.64808,-13.63073 L 63.224426,58.813804 c 0,0 0.99132,-11.89591 12.39157,-14.126394 H 187.14016 c 0,0 11.64808,4.95663 11.15241,16.356877 l -0.24783,25.030978 z"
     id="path4530"
     inkscape:connector-curvature="0" />
</svg>
