<?xml version="1.0" encoding="UTF-8"?>
<!DOCTYPE svg PUBLIC "-//W3C//DTD SVG 1.1//EN" "http://www.w3.org/Graphics/SVG/1.1/DTD/svg11.dtd">
<!-- Creator: CorelDRAW X6 -->
<svg xmlns="http://www.w3.org/2000/svg" xml:space="preserve" width="50mm" height="60mm" version="1.1" style="shape-rendering:geometricPrecision; text-rendering:geometricPrecision; image-rendering:optimizeQuality; fill-rule:evenodd; clip-rule:evenodd"
viewBox="0 0 5000 6000"
 xmlns:xlink="http://www.w3.org/1999/xlink">
 <defs>
  <style type="text/css">
   <![CDATA[
    .str0 {stroke:#687378;stroke-width:211.67}
    .str1 {stroke:#687378;stroke-width:211.67;stroke-linecap:round;stroke-linejoin:round}
    .str2 {stroke:#687378;stroke-width:338.67}
    .fil0 {fill:none}
    .fil2 {fill:#FEFEFE}
    .fil1 {fill:#687378}
   ]]>
  </style>
   <clipPath id="id0">
    <rect x="-28330" y="691" width="7055" height="7055"/>
   </clipPath>
   <clipPath id="id1">
    <rect x="6020" y="150" width="5433" height="5433"/>
   </clipPath>
 </defs>
 <g id="Layer_x0020_1">
  <metadata id="CorelCorpID_0Corel-Layer"/>
  <g style="clip-path:url(#id0)">
   <image id="_199792-200.png" transform="matrix(1 0 0 1 -30830.1 4745.86)" x="2500" y="-4055" width="7055" height="7055" xlink:href="bell_Images\bell_ImgID1.png"/>
  </g>
  <path class="fil0 str0" d="M45981 -961l1914 0c262,0 476,214 476,476l0 1041c0,262 -214,479 -476,476l-1041 -12 -610 549c-46,27 -75,-8 -71,-52l-7 -485 -185 0c-262,0 -414,-214 -414,-476l0 -1041c0,-262 153,-476 414,-476z"/>
  <path class="fil0 str1" d="M47229 1470l0 1520c0,148 -122,270 -270,270l-2595 0c-149,0 -270,-122 -270,-270l0 -4649c0,-148 122,-270 270,-270l2595 0c149,0 270,122 270,270l0 282"/>
  <line class="fil0 str1" x1="45255" y1="2601" x2="46017" y2= "2601" />
  <line class="fil0 str1" x1="46174" y1="335" x2="47757" y2= "335" />
  <line class="fil0 str1" x1="46174" y1="-265" x2="47757" y2= "-265" />
  <g style="clip-path:url(#id1)">
   <image id="bell-icon-17.png" transform="matrix(1 0 0 1 3520.19 2583.05)" x="2500" y="-2433" width="5433" height="5433" xlink:href="bell_Images\bell_ImgID2.png"/>
  </g>
  <g id="_694705648">
   <circle class="fil1" cx="2493" cy="662" r="282"/>
   <path class="fil1" d="M3079 4517c133,0 159,194 163,352 9,382 -317,745 -749,751 -432,7 -753,-398 -744,-751 4,-151 35,-350 174,-351l1156 -2z"/>
   <path class="fil0 str2" d="M476 4660l3948 0c210,3 333,-28 178,-192 -249,-263 -481,-575 -753,-1128 -124,-404 -236,-817 -232,-1319 8,-427 -108,-955 -948,-1104 -145,-26 -191,-26 -335,-1 -637,115 -874,342 -976,988 -18,111 -14,173 -15,283 -2,348 -89,689 -202,1027 -144,400 -364,859 -764,1249 -95,93 -53,205 98,197z"/>
   <path class="fil2" d="M2076 4875c4,80 43,370 409,415 68,10 82,88 -7,85 -115,-5 -454,-56 -495,-494 -8,-83 89,-82 93,-5z"/>
  </g>
 </g>
</svg>
