<?xml version="1.0" encoding="UTF-8"?>
<!DOCTYPE svg PUBLIC "-//W3C//DTD SVG 1.1//EN" "http://www.w3.org/Graphics/SVG/1.1/DTD/svg11.dtd">
<!-- Creator: CorelDRAW X6 -->
<svg xmlns="http://www.w3.org/2000/svg" xml:space="preserve" width="45.72mm" height="43.18mm" version="1.1" style="shape-rendering:geometricPrecision; text-rendering:geometricPrecision; image-rendering:optimizeQuality; fill-rule:evenodd; clip-rule:evenodd"
viewBox="0 0 4572 4318"
 xmlns:xlink="http://www.w3.org/1999/xlink">
 <defs>
  <style type="text/css">
   <![CDATA[
    .str0 {stroke:#2B2A29;stroke-width:20}
    .str4 {stroke:#2B2A29;stroke-width:20}
    .str6 {stroke:#FEFEFE;stroke-width:127}
    .str2 {stroke:#FEFEFE;stroke-width:169.33}
    .str1 {stroke:#FEFEFE;stroke-width:169.33;stroke-linecap:round;stroke-linejoin:round}
    .str5 {stroke:#2B2A29;stroke-width:423.33}
    .str3 {stroke:#2B2A29;stroke-width:423.33;stroke-linecap:round;stroke-linejoin:round}
    .fil1 {fill:none}
    .fil0 {fill:#2B2A29}
    .fil4 {fill:black}
    .fil2 {fill:#1E374D}
    .fil3 {fill:#203B4E}
    .fil5 {fill:#FEFEFE}
    .fil6 {fill:black;fill-opacity:0.000000}
   ]]>
  </style>
   <clipPath id="id0">
    <rect x="4890" y="244" width="3745" height="3745"/>
   </clipPath>
   <clipPath id="id1">
    <path d="M50157 20085l12060 0 0 -12103 -12060 0 0 12103z"/>
   </clipPath>
   <clipPath id="id2">
    <path d="M50157 20085l12060 0 0 -12103 -12060 0 0 12103z"/>
   </clipPath>
    <clipPath id="id3">
     <path d="M50157 20085l12060 0 0 -12102 -12060 0 0 12102z"/>
    </clipPath>
    <clipPath id="id4">
     <path d="M50157 20085l12060 0 0 -12103 -12060 0 0 12103z"/>
    </clipPath>
   <clipPath id="id5">
    <path d="M-75629 25782l12060 0 0 -12103 -12060 0 0 12103z"/>
   </clipPath>
   <clipPath id="id6">
    <path d="M-75629 25782l12060 0 0 -12103 -12060 0 0 12103z"/>
   </clipPath>
    <clipPath id="id7">
     <path d="M-75629 25782l12060 0 0 -12102 -12060 0 0 12102z"/>
    </clipPath>
    <clipPath id="id8">
     <path d="M-75629 25782l12060 0 0 -12103 -12060 0 0 12103z"/>
    </clipPath>
   <clipPath id="id9">
    <path d="M-28389 24049l12005 0 0 -12005 -12005 0 0 12005z"/>
   </clipPath>
   <clipPath id="id10">
    <path d="M-28389 24049l12005 0 0 -12005 -12005 0 0 12005z"/>
   </clipPath>
    <clipPath id="id11">
     <path d="M-16384 24048l0 -12004 -12005 0 0 12004 12005 0z"/>
    </clipPath>
    <clipPath id="id12">
     <path d="M-28389 24049l12005 0 0 -12005 -12005 0 0 12005z"/>
    </clipPath>
 </defs>
 <g id="Layer_x0020_1">
  <metadata id="CorelCorpID_0Corel-Layer"/>
  <rect class="fil0 str0" x="6477" y="-603" width="4572" height="4318"/>
  <circle class="fil1" cx="10589" cy="1463" r="245"/>
  <path class="fil2" d="M10589 1103c199,0 360,161 360,360 0,199 -161,360 -360,360 -199,0 -360,-161 -360,-360 0,-199 161,-360 360,-360zm0 114c135,0 245,110 245,245 0,135 -110,245 -245,245 -135,0 -245,-110 -245,-245 0,-135 110,-245 245,-245z"/>
  <circle class="fil1" cx="13503" cy="3521" r="245"/>
  <path class="fil2" d="M13503 3161c199,0 360,161 360,360 0,199 -161,360 -360,360 -199,0 -360,-161 -360,-360 0,-199 161,-360 360,-360zm0 114c135,0 245,110 245,245 0,135 -110,245 -245,245 -135,0 -245,-110 -245,-245 0,-135 110,-245 245,-245z"/>
  <circle class="fil1" cx="13503" cy="4379" r="245"/>
  <path class="fil2" d="M13503 4020c199,0 360,161 360,360 0,199 -161,360 -360,360 -199,0 -360,-161 -360,-360 0,-199 161,-360 360,-360zm0 114c135,0 245,110 245,245 0,135 -110,245 -245,245 -135,0 -245,-110 -245,-245 0,-135 110,-245 245,-245z"/>
  <line class="fil1" x1="11082" y1="1404" x2="12138" y2= "1408" />
  <polygon class="fil3" points="11085,1401 12138,1408 12075,1322 12153,1244 12350,1471 12143,1678 12073,1608 12157,1502 11088,1502 "/>
  <polygon class="fil3" points="12826,2429 11765,2434 11828,2348 11750,2270 11553,2497 11760,2704 11830,2634 11762,2548 12826,2548 "/>
  <polygon class="fil3" points="12046,3467 12806,3468 12743,3382 12821,3304 13018,3531 12811,3738 12741,3668 12809,3582 12046,3587 "/>
  <path class="fil3" d="M12475 1507l795 2c633,14 627,925 31,925l-134 0 78 -78 -87 -87 -197 234 199 214 79 -79 -83 -83 139 0c757,-32 758,-1110 -6,-1147l-816 -2 1 100z"/>
  <path class="fil3" d="M10931 3589l-139 0c-757,-32 -758,-1110 6,-1147l629 1 -1 100 -608 -2c-633,14 -627,925 -31,925l134 0 799 -2 -73 -74 85 -72 204 217 -207 210 -74 -79 71 -82 -457 -5c136,155 144,230 167,371 37,222 118,374 370,372l1004 -7 -71 -82 75 -75 200 224 -196 211 -83 -83 91 -91 -1044 0 -16 0c-226,14 -414,-173 -437,-391 -18,-169 -6,-313 -264,-441l-135 0z"/>
  <g style="clip-path:url(#id0)">
   <image id="_615168.png" transform="matrix(1 0 0 1 2604.26 1830.17)" x="2286" y="-1586" width="3745" height="3745" xlink:href="event_Images\event_ImgID1.png"/>
  </g>
  <g id="_909042288">
   <path class="fil1" d="M-8742 -1729c946,0 1713,767 1713,1713 0,946 -767,1713 -1713,1713 -354,0 -682,-107 -955,-291 -12,-8 -52,-43 -58,-41l-596 231 231 -594c3,-7 -56,-80 -65,-94 -172,-267 -271,-584 -271,-925 0,-946 767,-1713 1713,-1713z"/>
   <path class="fil4" d="M-8742 -1889c1034,0 1873,838 1873,1873 0,1034 -838,1873 -1873,1873 -373,0 -720,-111 -1013,-297 -10,-7 -20,-25 -31,-20l-594 263c-101,45 -276,94 -206,-81l283 -715c1,-3 -330,-565 -311,-1022 42,-1033 838,-1873 1873,-1873zm0 159c946,0 1713,767 1713,1713 0,946 -767,1713 -1713,1713 -354,0 -682,-107 -955,-291 -12,-8 -52,-43 -58,-41l-596 231 231 -594c3,-7 -56,-80 -65,-94 -172,-267 -271,-584 -271,-925 0,-946 767,-1713 1713,-1713z"/>
   <path class="fil1" d="M-8738 -1113l0 0c167,0 304,137 304,304l0 859c0,56 -46,102 -102,102l-405 0c-56,0 -102,-46 -102,-102l0 -859c0,-167 137,-304 304,-304z"/>
   <path class="fil4" d="M-8740 -1282l0 0c265,0 482,217 482,482l0 875c0,148 -120,244 -263,247l-463 0c-139,4 -237,-146 -237,-270l0 -852c0,-265 217,-482 482,-482zm1 169l0 0c167,0 304,137 304,304l0 859c0,56 -46,102 -102,102l-405 0c-56,0 -102,-46 -102,-102l0 -859c0,-167 137,-304 304,-304z"/>
   <path class="fil4" d="M-8649 1074l263 0c67,2 138,136 0,180l-710 0c-57,-5 -136,-124 0,-183l266 0 0 -259c36,-88 131,-109 181,0l0 262z"/>
   <path class="fil4" d="M-9036 512l558 0c202,0 383,-166 383,-375l0 -615c34,-109 155,-89 177,0l0 605c0,319 -244,563 -563,563l-531 0c-288,0 -551,-248 -551,-539l0 -642c37,-79 131,-82 182,0l0 616c0,192 142,387 344,387z"/>
  </g>
  <g id="_906215952">
   <circle class="fil1" cx="8391" cy="-2599" r="262"/>
   <path class="fil5" d="M8391 -2984c213,0 385,172 385,385 0,213 -172,385 -385,385 -213,0 -385,-172 -385,-385 0,-213 172,-385 385,-385zm0 122c145,0 262,118 262,262 0,145 -118,262 -262,262 -145,0 -262,-118 -262,-262 0,-145 118,-262 262,-262z"/>
   <circle class="fil1" cx="11510" cy="-395" r="262"/>
   <path class="fil5" d="M11510 -781c213,0 385,172 385,385 0,213 -172,385 -385,385 -213,0 -385,-172 -385,-385 0,-213 172,-385 385,-385zm0 122c145,0 262,118 262,262 0,145 -118,262 -262,262 -145,0 -262,-118 -262,-262 0,-145 118,-262 262,-262z"/>
   <circle class="fil1" cx="11510" cy="523" r="262"/>
   <path class="fil5" d="M11510 139c213,0 385,172 385,385 0,213 -172,385 -385,385 -213,0 -385,-172 -385,-385 0,-213 172,-385 385,-385zm0 122c145,0 262,118 262,262 0,145 -118,262 -262,262 -145,0 -262,-118 -262,-262 0,-145 118,-262 262,-262z"/>
   <line class="fil1" x1="8918" y1="-2662" x2="10049" y2= "-2658" />
   <polygon class="fil5" points="8922,-2665 10049,-2658 9982,-2750 10065,-2833 10277,-2590 10055,-2368 9980,-2443 10069,-2557 8925,-2557 "/>
   <polygon class="fil5" points="10786,-1564 9650,-1559 9717,-1651 9634,-1735 9423,-1492 9644,-1270 9719,-1345 9646,-1437 10787,-1437 "/>
   <polygon class="fil5" points="9952,-453 10764,-452 10697,-544 10780,-628 10991,-385 10770,-163 10695,-238 10768,-330 9950,-325 "/>
   <path class="fil5" d="M10411 -2552l851 2c678,15 671,990 33,990l-143 0 84 -84 -93 -93 -211 251 213 229 85 -85 -89 -89 149 0c810,-34 812,-1188 -6,-1228l-874 -2 1 107 1 1z"/>
   <path class="fil5" d="M8757 -323l-149 0c-810,-34 -812,-1188 6,-1228l673 1 -1 107 -651 -2c-678,15 -671,990 -33,990l143 0 855 -2 -78 -79 91 -77 218 232 -222 225 -79 -85 76 -88 -489 -5c146,166 154,246 179,397 40,238 126,400 396,398l1075 -8 -76 -88 80 -80 214 240 -210 226 -89 -89 97 -97 -1118 0 -17 0c-242,15 -443,-185 -468,-419 -19,-181 -6,-335 -283,-472l-145 0 1 2z"/>
  </g>
  <g id="_904791392">
   <circle class="fil1" cx="-5898" cy="-9509" r="484"/>
   <path class="fil5" d="M-5899 -10220c393,0 711,318 711,711 0,393 -318,711 -711,711 -393,0 -711,-318 -711,-711 0,-393 318,-711 711,-711zm0 225c267,0 484,217 484,484 0,267 -217,484 -484,484 -267,0 -484,-217 -484,-484 0,-267 217,-484 484,-484z"/>
   <circle class="fil1" cx="-146" cy="-5446" r="484"/>
   <path class="fil5" d="M-146 -6157c393,0 711,318 711,711 0,393 -318,711 -711,711 -393,0 -711,-318 -711,-711 0,-393 318,-711 711,-711zm0 225c267,0 484,217 484,484 0,267 -217,484 -484,484 -267,0 -484,-217 -484,-484 0,-267 217,-484 484,-484z"/>
   <circle class="fil1" cx="-146" cy="-3753" r="484"/>
   <path class="fil5" d="M-146 -4461c393,0 711,318 711,711 0,393 -318,711 -711,711 -393,0 -711,-318 -711,-711 0,-393 318,-711 711,-711zm0 225c267,0 484,217 484,484 0,267 -217,484 -484,484 -267,0 -484,-217 -484,-484 0,-267 217,-484 484,-484z"/>
   <line class="fil1" x1="-4925" y1="-9625" x2="-2841" y2= "-9618" />
   <polygon class="fil5" points="-4919,-9631 -2841,-9618 -2965,-9787 -2811,-9941 -2420,-9493 -2829,-9085 -2967,-9223 -2803,-9432 -4913,-9432 "/>
   <polygon class="fil5" points="-1482,-7602 -3577,-7592 -3453,-7762 -3607,-7916 -3995,-7468 -3587,-7059 -3449,-7197 -3583,-7367 -1480,-7367 "/>
   <polygon class="fil5" points="-3020,-5553 -1522,-5551 -1646,-5721 -1492,-5875 -1103,-5427 -1512,-5018 -1650,-5156 -1514,-5326 -3022,-5316 "/>
   <path class="fil5" d="M-2173 -9422l1569 4c1250,28 1238,1826 61,1826l-265 0 154 -154 -172 -172 -389 462 393 422 156 -156 -164 -164 274 0c1494,-63 1496,-2191 -12,-2264l-1611 -4 2 197 2 2z"/>
   <path class="fil5" d="M-5223 -5312l-274 0c-1494,-63 -1496,-2191 12,-2264l1242 2 -2 197 -1200 -4c-1250,28 -1238,1826 -61,1826l265 0 1577 -4 -144 -146 168 -142 403 428 -409 415 -146 -156 140 -162 -902 -10c268,306 284,454 330,732 73,438 233,738 730,734l1982 -14 -140 -162 148 -148 395 442 -387 417 -164 -164 180 -180 -2061 0 -32 0c-446,28 -817,-342 -863,-772 -36,-334 -12,-618 -521,-871l-267 0 2 4z"/>
  </g>
  <g id="_908287552">
   <circle class="fil1" cx="28200" cy="4444" r="484"/>
   <path class="fil5" d="M28200 3734c393,0 711,318 711,711 0,393 -318,711 -711,711 -393,0 -711,-318 -711,-711 0,-393 318,-711 711,-711zm0 225c267,0 484,217 484,484 0,267 -217,484 -484,484 -267,0 -484,-217 -484,-484 0,-267 217,-484 484,-484z"/>
   <circle class="fil1" cx="33953" cy="8507" r="484"/>
   <path class="fil5" d="M33953 7796c393,0 711,318 711,711 0,393 -318,711 -711,711 -393,0 -711,-318 -711,-711 0,-393 318,-711 711,-711zm0 225c267,0 484,217 484,484 0,267 -217,484 -484,484 -267,0 -484,-217 -484,-484 0,-267 217,-484 484,-484z"/>
   <circle class="fil1" cx="33953" cy="10201" r="484"/>
   <path class="fil5" d="M33953 9492c393,0 711,318 711,711 0,393 -318,711 -711,711 -393,0 -711,-318 -711,-711 0,-393 318,-711 711,-711zm0 225c267,0 484,217 484,484 0,267 -217,484 -484,484 -267,0 -484,-217 -484,-484 0,-267 217,-484 484,-484z"/>
   <line class="fil1" x1="29174" y1="4328" x2="31258" y2= "4336" />
   <polygon class="fil5" points="29180,4322 31258,4336 31134,4166 31288,4012 31679,4460 31270,4869 31132,4731 31296,4521 29185,4521 "/>
   <polygon class="fil5" points="32616,6351 30522,6361 30646,6192 30492,6038 30103,6486 30512,6894 30650,6756 30516,6586 32618,6586 "/>
   <polygon class="fil5" points="31079,8401 32577,8403 32453,8233 32607,8079 32995,8527 32587,8936 32449,8797 32585,8628 31077,8637 "/>
   <path class="fil5" d="M31926 4531l1569 4c1250,28 1238,1826 61,1826l-265 0 154 -154 -172 -172 -389 462 393 422 156 -156 -164 -164 274 0c1494,-63 1496,-2191 -12,-2264l-1611 -4 2 197 2 2z"/>
   <path class="fil5" d="M28876 8641l-274 0c-1494,-63 -1496,-2191 12,-2264l1242 2 -2 197 -1200 -4c-1250,28 -1238,1826 -61,1826l265 0 1577 -4 -144 -146 168 -142 403 428 -409 415 -146 -156 140 -162 -902 -10c268,306 284,454 330,732 73,438 233,738 730,734l1982 -14 -140 -162 148 -148 395 442 -387 417 -164 -164 180 -180 -2061 0 -32 0c-446,28 -817,-342 -863,-772 -36,-334 -12,-618 -521,-871l-267 0 2 4z"/>
  </g>
  <g id="_908270016">
   <path class="fil1 str1" d="M1028 395c129,-57 268,-86 409,-86 559,0 1012,453 1012,1012 0,559 -453,1012 -1012,1012 -559,0 -1012,-453 -1012,-1012 0,-295 129,-576 353,-768"/>
   <polyline class="fil1 str1" points="439,540 827,527 814,910 "/>
   <polyline class="fil1 str1" points="1433,685 1433,1320 1746,1548 "/>
   <path class="fil1 str1" d="M732 2394l0 1615 3415 0 0 -2316 -1460 0m1460 0l0 -749 -683 0 -9 -283c-100,-81 -207,-75 -319,0l0 262 -466 1"/>
   <path class="fil1 str1" d="M3137 905l0 313c111,51 225,46 325,-4l3 -275"/>
   <rect class="fil1 str2" x="1907" y="2569" width="547" height="456"/>
   <rect class="fil1 str1" x="2454" y="2569" width="547" height="456"/>
   <rect class="fil1 str1" x="1907" y="2569" width="547" height="456"/>
   <rect class="fil1 str2" x="2454" y="3025" width="547" height="456"/>
   <path class="fil1 str1" d="M2477 2115l523 0 0 456 -547 0 0 -433c0,-13 11,-23 23,-23z"/>
   <path class="fil1 str1" d="M3524 2115l-523 0 0 456 547 0 0 -433c0,-13 -11,-23 -23,-23z"/>
   <rect class="fil1 str2" x="1907" y="3026" width="547" height="456"/>
   <rect class="fil1 str1" x="1907" y="3026" width="547" height="456"/>
   <rect class="fil1 str1" x="2454" y="3026" width="547" height="456"/>
   <path class="fil1 str2" d="M1417 3481l490 0 0 -456 -547 0 0 400c0,31 26,56 56,56z"/>
   <path class="fil1 str1" d="M1417 2569l490 0 0 456 -547 0 0 -400c0,-31 26,-56 56,-56z"/>
   <path class="fil1 str1" d="M1417 3481l490 0 0 -456 -547 0 0 400c0,31 26,56 56,56z"/>
   <rect class="fil1 str2" x="3001" y="2568" width="547" height="456"/>
   <path class="fil1 str1" d="M3491 3481l-490 0 0 -456 547 0 0 400c0,31 -26,56 -56,56z"/>
  </g>
 </g>
 <g id="Layer_x0020_1_0">
  <metadata id="CorelCorpID_1Corel-Layer"/>
  <g style="clip-path:url(#id1)">
   <polygon class="fil6" points="50157,7982 62217,7982 62217,20085 50157,20085 "/>
  </g>
  <g style="clip-path:url(#id2)">
   <g id="_908270752">
   </g>
   <g style="clip-path:url(#id3)">
    <image id="canvas_event-568x457.png" transform="matrix(1 0 0 1 47870.4 17926.6)" x="2286" y="-9944" width="12060" height="12103" xlink:href="event_Images\event_ImgID2.png"/>
   </g>
   <g style="clip-path:url(#id4)">
   </g>
  </g>
  <polygon class="fil1" points="50157,20085 62217,20085 62217,7982 50157,7982 "/>
 </g>
 <g id="Layer_x0020_1_1">
  <metadata id="CorelCorpID_2Corel-Layer"/>
  <g style="clip-path:url(#id5)">
   <polygon class="fil6" points="-75629,13679 -63569,13679 -63569,25782 -75629,25782 "/>
  </g>
  <g style="clip-path:url(#id6)">
   <g id="_908269792">
   </g>
   <g style="clip-path:url(#id7)">
    <image id="canvas_event-568x457.png_2" transform="matrix(1 0 0 1 -77915.1 23623.3)" x="2286" y="-9944" width="12060" height="12103" xlink:href="event_Images\event_ImgID3.png"/>
   </g>
   <g style="clip-path:url(#id8)">
   </g>
  </g>
  <polygon class="fil1" points="-75629,25782 -63569,25782 -63569,13679 -75629,13679 "/>
  <g id="_672581536">
   <path class="fil1 str3" d="M-39668 7965c388,-172 808,-260 1233,-260 1685,0 3052,1366 3052,3052 0,1685 -1366,3052 -3052,3052 -1685,0 -3052,-1366 -3052,-3052 0,-890 389,-1737 1065,-2316"/>
   <polyline class="fil1 str3" points="-41447,8402 -40276,8362 -40314,9517 "/>
   <polyline class="fil1 str3" points="-38446,8840 -38446,10757 -37504,11442 "/>
   <path class="fil1 str3" d="M-40563 13996l0 4871 10301 0 0 -6985 -4405 0m4405 0l0 -2258 -2059 0 -27 -855c-302,-245 -624,-226 -961,0l0 789 -1407 4"/>
   <path class="fil1 str3" d="M-33309 9504l0 944c334,154 680,140 979,-11l8 -829"/>
   <rect class="fil1 str4" x="-37018" y="14522" width="1649" height="1376"/>
   <rect class="fil1 str3" x="-35369" y="14522" width="1649" height="1376"/>
   <rect class="fil1 str3" x="-37018" y="14522" width="1649" height="1376"/>
   <rect class="fil1 str4" x="-35369" y="15898" width="1649" height="1376"/>
   <path class="fil1 str3" d="M-35299 13152l1579 0 0 1376 -1649 0 0 -1306c0,-39 32,-70 70,-70z"/>
   <path class="fil1 str3" d="M-32140 13152l-1579 0 0 1376 1649 0 0 -1306c0,-39 -32,-70 -70,-70z"/>
   <rect class="fil1 str4" x="-37018" y="15902" width="1649" height="1376"/>
   <rect class="fil1 str3" x="-37018" y="15902" width="1649" height="1376"/>
   <rect class="fil1 str3" x="-35369" y="15902" width="1649" height="1376"/>
   <path class="fil1 str4" d="M-38497 17274l1479 0 0 -1376 -1649 0 0 1206c0,94 77,170 170,170z"/>
   <path class="fil1 str3" d="M-38497 14522l1479 0 0 1376 -1649 0 0 -1206c0,-94 77,-170 170,-170z"/>
   <path class="fil1 str3" d="M-38497 17274l1479 0 0 -1376 -1649 0 0 1206c0,94 77,170 170,170z"/>
   <rect class="fil1 str5" x="-33719" y="14518" width="1649" height="1376"/>
   <path class="fil1 str3" d="M-32239 17274l-1479 0 0 -1376 1649 0 0 1206c0,94 -77,170 -170,170z"/>
  </g>
  <g style="clip-path:url(#id9)">
   <polygon class="fil6" points="-28389,12044 -16384,12044 -16384,24049 -28389,24049 "/>
  </g>
  <g style="clip-path:url(#id10)">
   <g id="_908238208">
   </g>
   <g style="clip-path:url(#id11)">
    <image id="images.png" transform="matrix(1.51239 0 0 1.51239 -31846.3 20782.5)" x="2286" y="-5779" width="7938" height="7938" xlink:href="event_Images\event_ImgID4.png"/>
   </g>
   <g style="clip-path:url(#id12)">
   </g>
  </g>
  <polygon class="fil1" points="-28389,24049 -16384,24049 -16384,12044 -28389,12044 "/>
  <g id="_672559840">
   <path class="fil1 str6" d="M-4569 3614l2779 0c166,0 300,134 300,300l0 2085c0,166 -134,300 -300,300l-2779 0c-166,0 -300,-134 -300,-300l0 -2085c0,-166 134,-300 300,-300z"/>
   <path class="fil1 str6" d="M-4310 3579l0 -222c0,-165 135,-300 300,-300l2779 0c165,0 300,135 300,300l0 2085c0,165 -135,300 -300,300l-216 0"/>
   <path class="fil1 str6" d="M-4838 3777l1152 957 331 275c150,100 228,118 355,15l1480 -1241"/>
   <line class="fil1 str6" x1="-4869" y1="5689" x2="-3701" y2= "4723" />
   <line class="fil1 str6" x1="-1489" y1="5715" x2="-2650" y2= "4731" />
  </g>
 </g>
</svg>
