<?xml version="1.0" encoding="UTF-8"?>
<!DOCTYPE svg PUBLIC "-//W3C//DTD SVG 1.1//EN" "http://www.w3.org/Graphics/SVG/1.1/DTD/svg11.dtd">
<!-- Creator: CorelDRAW X6 -->
<svg xmlns="http://www.w3.org/2000/svg" xml:space="preserve" width="40.64mm" height="40.64mm" version="1.1" style="shape-rendering:geometricPrecision; text-rendering:geometricPrecision; image-rendering:optimizeQuality; fill-rule:evenodd; clip-rule:evenodd"
viewBox="0 0 4064 4064"
 xmlns:xlink="http://www.w3.org/1999/xlink">
 <defs>
  <style type="text/css">
   <![CDATA[
    .str1 {stroke:#FEFEFE;stroke-width:101.6}
    .str0 {stroke:#FEFEFE;stroke-width:101.6;stroke-linecap:round;stroke-linejoin:round}
    .fil2 {fill:none}
    .fil1 {fill:#1E374D}
    .fil3 {fill:#203B4E}
    .fil0 {fill:#A8CFD4}
    .fil4 {fill:white}
   ]]>
  </style>
 </defs>
 <g id="Layer_x0020_1">
  <metadata id="CorelCorpID_0Corel-Layer"/>
  <g id="_906172912">
   <g>
    <circle class="fil0" cx="-4378" cy="591" r="245"/>
    <path class="fil1" d="M-4378 231c199,0 360,161 360,360 0,199 -161,360 -360,360 -199,0 -360,-161 -360,-360 0,-199 161,-360 360,-360zm0 114c135,0 245,110 245,245 0,135 -110,245 -245,245 -135,0 -245,-110 -245,-245 0,-135 110,-245 245,-245z"/>
   </g>
   <g>
    <circle class="fil0" cx="-1464" cy="2649" r="245"/>
    <path class="fil1" d="M-1464 2289c199,0 360,161 360,360 0,199 -161,360 -360,360 -199,0 -360,-161 -360,-360 0,-199 161,-360 360,-360zm0 114c135,0 245,110 245,245 0,135 -110,245 -245,245 -135,0 -245,-110 -245,-245 0,-135 110,-245 245,-245z"/>
   </g>
   <g>
    <circle class="fil0" cx="-1464" cy="3508" r="245"/>
    <path class="fil1" d="M-1464 3148c199,0 360,161 360,360 0,199 -161,360 -360,360 -199,0 -360,-161 -360,-360 0,-199 161,-360 360,-360zm0 114c135,0 245,110 245,245 0,135 -110,245 -245,245 -135,0 -245,-110 -245,-245 0,-135 110,-245 245,-245z"/>
   </g>
   <line class="fil2" x1="-3885" y1="533" x2="-2829" y2= "536" />
   <polygon class="fil3" points="-3881,529 -2829,536 -2892,450 -2814,372 -2616,599 -2823,806 -2893,736 -2810,631 -3879,631 "/>
   <polygon class="fil3" points="-2141,1557 -3202,1563 -3138,1477 -3217,1399 -3414,1626 -3207,1833 -3137,1763 -3205,1677 -2140,1677 "/>
   <polygon class="fil3" points="-2920,2596 -2161,2597 -2224,2511 -2146,2432 -1948,2660 -2155,2867 -2226,2797 -2157,2711 -2921,2716 "/>
   <path class="fil3" d="M-2491 635l795 2c633,14 627,925 31,925l-134 0 78 -78 -87 -87 -197 234 199 214 79 -79 -83 -83 139 0c757,-32 758,-1110 -6,-1147l-816 -2 1 100z"/>
   <path class="fil3" d="M-4036 2718l-139 0c-757,-32 -758,-1110 6,-1147l629 1 -1 100 -608 -2c-633,14 -627,925 -31,925l134 0 799 -2 -73 -74 85 -72 204 217 -207 210 -74 -79 71 -82 -457 -5c136,155 144,230 167,371 37,222 118,374 370,372l1004 -7 -71 -82 75 -75 200 224 -196 211 -83 -83 91 -91 -1044 0 -16 0c-226,14 -414,-173 -437,-391 -18,-169 -6,-313 -264,-441l-135 0z"/>
   <rect class="fil3" x="-4438" y="3144" width="123" height="123"/>
   <rect class="fil3" x="-4189" y="3144" width="123" height="123"/>
   <rect class="fil3" x="-3953" y="3144" width="123" height="123"/>
  </g>
  <g id="_904799520">
   <path class="fil2 str0" d="M-10752 -755c123,-55 257,-83 392,-83 535,0 969,434 969,969 0,535 -434,969 -969,969 -535,0 -969,-434 -969,-969 0,-283 124,-552 338,-736"/>
   <polyline class="fil2 str0" points="-11317,-617 -10945,-629 -10957,-262 "/>
   <polyline class="fil2 str0" points="-10364,-477 -10364,131 -10064,349 "/>
   <path class="fil2 str0" d="M-11036 1160l0 1547 3272 0 0 -2218 -1399 0m1399 0l0 -717 -654 0 -9 -272c-96,-78 -198,-72 -305,0l0 251 -447 1"/>
   <path class="fil2 str0" d="M-8732 -266l0 300c106,49 216,44 311,-3l3 -263"/>
   <rect class="fil2 str1" x="-9910" y="1327" width="524" height="437"/>
   <rect class="fil2 str0" x="-9386" y="1327" width="524" height="437"/>
   <rect class="fil2 str0" x="-9910" y="1327" width="524" height="437"/>
   <rect class="fil2 str1" x="-9386" y="1764" width="524" height="437"/>
   <path class="fil2 str0" d="M-9364 892l502 0 0 437 -524 0 0 -415c0,-12 10,-22 22,-22z"/>
   <path class="fil2 str0" d="M-8361 892l-502 0 0 437 524 0 0 -415c0,-12 -10,-22 -22,-22z"/>
   <rect class="fil2 str1" x="-9910" y="1766" width="524" height="437"/>
   <rect class="fil2 str0" x="-9910" y="1766" width="524" height="437"/>
   <rect class="fil2 str0" x="-9386" y="1766" width="524" height="437"/>
   <path class="fil2 str1" d="M-10380 2201l470 0 0 -437 -524 0 0 383c0,30 24,54 54,54z"/>
   <path class="fil2 str0" d="M-10380 1327l470 0 0 437 -524 0 0 -383c0,-30 24,-54 54,-54z"/>
   <path class="fil2 str0" d="M-10380 2201l470 0 0 -437 -524 0 0 383c0,30 24,54 54,54z"/>
   <rect class="fil2 str1" x="-8862" y="1326" width="524" height="437"/>
   <path class="fil2 str0" d="M-8392 2201l-470 0 0 -437 524 0 0 383c0,30 -24,54 -54,54z"/>
  </g>
  <g id="_904796384">
   <path class="fil2" d="M2032 447c875,0 1584,709 1584,1584 0,875 -709,1584 -1584,1584 -327,0 -631,-99 -883,-269 -11,-7 -48,-40 -54,-38l-551 214 214 -549c3,-6 -52,-74 -60,-87 -159,-247 -251,-540 -251,-855 0,-875 709,-1584 1584,-1584l1 1z"/>
   <path class="fil4" d="M2032 300c956,0 1732,775 1732,1732 0,956 -775,1732 -1732,1732 -345,0 -666,-103 -937,-275 -9,-6 -18,-23 -29,-18l-549 243c-93,42 -255,87 -190,-75l262 -661c1,-3 -305,-522 -288,-945 39,-955 775,-1732 1732,-1732l-1 -1zm0 147c875,0 1584,709 1584,1584 0,875 -709,1584 -1584,1584 -327,0 -631,-99 -883,-269 -11,-7 -48,-40 -54,-38l-551 214 214 -549c3,-6 -52,-74 -60,-87 -159,-247 -251,-540 -251,-855 0,-875 709,-1584 1584,-1584l1 1z"/>
   <path class="fil2" d="M2035 1017l0 0c154,0 281,127 281,281l0 794c0,52 -43,94 -94,94l-374 0c-52,0 -94,-43 -94,-94l0 -794c0,-154 127,-281 281,-281l1 0z"/>
   <path class="fil4" d="M2034 861l0 0c245,0 446,201 446,446l0 809c0,137 -111,226 -243,228l-428 0c-129,4 -219,-135 -219,-250l0 -788c0,-245 201,-446 446,-446l-1 0zm1 156l0 0c154,0 281,127 281,281l0 794c0,52 -43,94 -94,94l-374 0c-52,0 -94,-43 -94,-94l0 -794c0,-154 127,-281 281,-281l1 0z"/>
   <path class="fil4" d="M2118 3039l243 0c62,2 128,126 0,166l-656 0c-53,-5 -126,-115 0,-169l246 0 0 -239c33,-81 121,-101 167,0l0 242z"/>
   <path class="fil4" d="M1760 2519l516 0c187,0 354,-153 354,-347l0 -569c31,-101 143,-82 164,0l0 559c0,295 -226,520 -521,520l-491 0c-266,0 -509,-229 -509,-498l0 -594c34,-73 121,-76 168,0l0 569c0,178 131,358 318,358l1 0z"/>
  </g>
 </g>
</svg>
