<?xml version="1.0" encoding="UTF-8"?>
<!DOCTYPE svg PUBLIC "-//W3C//DTD SVG 1.1//EN" "http://www.w3.org/Graphics/SVG/1.1/DTD/svg11.dtd">
<!-- Creator: CorelDRAW X6 -->
<svg xmlns="http://www.w3.org/2000/svg" xml:space="preserve" width="5.15276in" height="3.96693in" version="1.1" style="shape-rendering:geometricPrecision; text-rendering:geometricPrecision; image-rendering:optimizeQuality; fill-rule:evenodd; clip-rule:evenodd"
viewBox="0 0 5153 3967"
 xmlns:xlink="http://www.w3.org/1999/xlink"
 enable-background="new 0 0 1000 1000">
 <defs>
  <style type="text/css">
   <![CDATA[
    .str1 {stroke:#2B2B2B;stroke-width:83.3346}
    .str0 {stroke:#2B2A29;stroke-width:133.335}
    .fil0 {fill:none}
    .fil2 {fill:black}
    .fil1 {fill:#2B2B2B}
   ]]>
  </style>
 </defs>
 <g id="Layer_x0020_1">
  <metadata id="CorelCorpID_0Corel-Layer"/>
  <g id="_725022048">
   <rect class="fil0 str0" x="12292" y="4129" width="885" height="885" rx="201" ry="201"/>
   <rect class="fil0 str0" x="13178" y="6371" width="885" height="885" rx="201" ry="201"/>
   <rect class="fil0 str0" x="11398" y="6371" width="885" height="885" rx="201" ry="201"/>
   <path class="fil0 str0" d="M13636 6371l0 -433c0,-143 -117,-260 -260,-260l-1293 0c-143,0 -260,117 -260,260l0 433"/>
   <line class="fil0 str0" x1="12735" y1="5678" x2="12735" y2= "5014" />
  </g>
  <g id="_719809168">
   <circle class="fil0 str1" cx="10922" cy="417" r="615"/>
   <circle class="fil0 str1" cx="12135" cy="-351" r="615"/>
   <circle class="fil0 str1" cx="9695" cy="-351" r="615"/>
   <path class="fil0 str1" d="M10634 1135c0,0 292,150 557,-7 0,0 737,5 857,548l0 668c0,0 41,46 -341,170l0 -437 -38 0 -68 464c0,0 -944,182 -1366,-12l-62 -465 -67 0 0 444c0,0 -309,-131 -366,-198l0 -442c0,0 -48,-707 894,-733z"/>
   <path class="fil0 str1" d="M11728 370l124 0c0,0 332,150 592,0 0,0 792,-2 879,647l0 548c0,0 -189,143 -378,180l0 -428 -45 12 -61 435c0,0 -230,83 -585,92 0,0 14,-774 -769,-880 0,0 258,-235 242,-606z"/>
   <path class="fil0 str1" d="M10128 373l-124 0c0,0 -332,150 -592,0 -440,-1 -879,254 -879,736l0 459c0,0 189,143 378,180l0 -428 45 12 61 435c0,0 230,83 585,92 0,0 -14,-774 769,-880 0,0 -258,-235 -242,-606z"/>
  </g>
  <g id="one-finger-tap-gesture-of-outlined-hand-symbol.svg">
   <g>
    <g>
     <path class="fil1" d="M8788 6868l0 -124c-124,-103 -206,-258 -206,-433 0,-309 258,-567 567,-567 309,0 567,258 567,567 0,134 -52,268 -134,361 41,0 72,10 113,21 82,-113 124,-247 124,-392 0,-371 -299,-670 -670,-670 -371,0 -670,299 -670,670 0,237 124,443 309,567z"/>
     <path class="fil1" d="M9613 6301c0,-258 -206,-464 -464,-464 -258,0 -464,206 -464,464 0,113 41,216 103,289l0 -289c0,-196 165,-361 361,-361 196,0 361,165 361,361l0 289c62,-72 103,-175 103,-289z"/>
     <path class="fil1" d="M10386 7074c-62,0 -113,21 -155,52l0 0c0,-144 -113,-258 -258,-258 -62,0 -124,21 -175,62 -41,-103 -134,-165 -237,-165 -62,0 -113,21 -155,52l0 -515c0,-144 -113,-258 -258,-258 -144,0 -258,113 -258,258l0 917c-206,-186 -433,-330 -577,-186 -206,206 227,608 557,1216 237,423 567,577 897,577 484,0 876,-392 876,-876l0 -618c0,-144 -113,-258 -258,-258zm155 484l0 392c0,402 -350,773 -773,773 -392,0 -618,-216 -804,-515 -402,-680 -691,-989 -577,-1103 113,-113 392,134 608,361l0 -1165c0,-82 72,-155 155,-155 82,0 155,72 155,155l0 1082 103 0 0 -361c0,-82 72,-155 155,-155 82,0 155,72 155,155l0 258 103 0 0 -155c0,-82 72,-155 155,-155 82,0 155,72 155,155l0 258 103 0 0 -52c0,-82 72,-155 155,-155 82,0 155,72 155,155l0 227 0 0z"/>
    </g>
   </g>
   <g>
   </g>
   <g>
   </g>
   <g>
   </g>
   <g>
   </g>
   <g>
   </g>
   <g>
   </g>
   <g>
   </g>
   <g>
   </g>
   <g>
   </g>
   <g>
   </g>
   <g>
   </g>
   <g>
   </g>
   <g>
   </g>
   <g>
   </g>
   <g>
   </g>
  </g>
  <g id="role.svg">
   <g>
    <path class="fil2" d="M-9471 -1622c-5,-95 -102,-79 -196,-79 70,19 136,44 196,79z"/>
    <path class="fil2" d="M-10480 -1859c-366,0 -535,464 -242,697 100,-267 299,-458 559,-534 -71,-99 -186,-163 -317,-163z"/>
    <path class="fil2" d="M-11237 -1235c15,48 34,94 57,137l-120 120c-32,32 -32,85 0,117l212 212c15,15 37,24 59,24 22,0 43,-9 59,-24l120 -120c18,10 38,15 57,24 0,-1 0,-3 0,-4 0,-98 11,-191 31,-278 -145,-93 -242,-256 -242,-441 0,-289 235,-524 524,-524 196,0 365,109 455,268 96,-12 187,-12 296,9 -14,-42 -30,-84 -51,-123l120 -120c16,-16 24,-37 24,-59 0,-22 -9,-43 -24,-59l-212 -212c-16,-16 -37,-24 -59,-24 -21,0 -42,8 -58,24l-121 120c-44,-23 -89,-42 -137,-57l0 -170c0,-46 -37,-83 -83,-83l-300 0c-46,0 -83,37 -83,83l0 170c-48,15 -94,34 -137,57l-120 -120c-16,-16 -37,-24 -59,-24 -21,0 -42,8 -59,24l-212 212c-15,16 -24,37 -24,59 0,22 9,43 24,59l120 120c-23,44 -42,90 -57,137l-170 0c-46,0 -83,37 -83,83l0 300c0,46 37,83 83,83l170 0z"/>
    <path class="fil2" d="M-8638 370c133,-73 224,-212 224,-374 0,-236 -192,-428 -428,-428 -83,0 -160,25 -225,66 -39,157 -101,306 -182,436 230,43 440,148 612,299z"/>
    <path class="fil2" d="M-7753 -165c0,-49 -40,-89 -89,-89l-184 0c-16,-52 -37,-101 -62,-148l130 -130c17,-17 26,-39 26,-63 0,-24 -9,-46 -26,-63l-229 -229c-17,-17 -40,-26 -63,-26 -23,0 -46,9 -63,26l-130 130c-47,-25 -96,-46 -148,-62l0 -184c0,-49 -40,-89 -89,-89l-324 0c-22,0 -41,9 -56,22 27,99 42,207 42,322 0,73 -6,147 -16,221 60,-22 124,-36 192,-36 309,0 561,252 561,561 0,198 -103,371 -258,471 113,124 202,270 261,434 10,3 20,6 30,6 23,0 46,-9 63,-26l229 -229c17,-17 26,-39 26,-63 0,-24 -9,-46 -26,-63l-130 -130c25,-47 46,-97 62,-148l184 0c24,0 47,-9 63,-26 17,-17 26,-39 26,-63l0 -324z"/>
    <path class="fil2" d="M-8461 983c-139,-408 -505,-689 -929,-727 -142,150 -317,245 -516,245 -199,0 -374,-95 -516,-245 -424,38 -790,319 -929,727l-77 226c-22,65 -11,137 29,192 40,56 104,89 173,89l2640 0c69,0 133,-33 173,-89 40,-56 50,-127 28,-192l-77 -226z"/>
    <path class="fil2" d="M-10594 -749c0,506 308,1050 688,1050 380,0 689,-543 689,-1050 0,-1050 -1377,-1052 -1377,0z"/>
   </g>
   <g>
   </g>
   <g>
   </g>
   <g>
   </g>
   <g>
   </g>
   <g>
   </g>
   <g>
   </g>
   <g>
   </g>
   <g>
   </g>
   <g>
   </g>
   <g>
   </g>
   <g>
   </g>
   <g>
   </g>
   <g>
   </g>
   <g>
   </g>
   <g>
   </g>
  </g>
  <g id="customer_icon.svg">
   <g>
    <path class="fil1" d="M3038 2112c271,-159 454,-453 454,-790 0,-506 -410,-915 -915,-915 -506,0 -915,410 -915,915 0,337 183,631 454,790 -560,192 -963,721 -963,1346 0,56 45,101 101,101 56,0 101,-45 101,-101l1 0c0,-674 546,-1221 1220,-1221 674,0 1220,546 1220,1220l1 0c0,56 45,101 101,101 56,0 101,-45 101,-101 0,-625 -403,-1154 -963,-1346zm-461 -78c-32,0 -64,3 -96,5 -348,-48 -616,-350 -616,-717 0,-400 319,-724 712,-724 393,0 712,324 712,724 0,367 -268,669 -616,717 -32,-2 -63,-5 -96,-5z"/>
   </g>
  </g>
 </g>
</svg>
