<?xml version="1.0" encoding="UTF-8"?>
<!DOCTYPE svg PUBLIC "-//W3C//DTD SVG 1.1//EN" "http://www.w3.org/Graphics/SVG/1.1/DTD/svg11.dtd">
<!-- Creator: CorelDRAW X6 -->
<svg xmlns="http://www.w3.org/2000/svg" xml:space="preserve" width="5.15276in" height="3.96693in" version="1.1" style="shape-rendering:geometricPrecision; text-rendering:geometricPrecision; image-rendering:optimizeQuality; fill-rule:evenodd; clip-rule:evenodd"
viewBox="0 0 5153 3967"
 xmlns:xlink="http://www.w3.org/1999/xlink">
 <defs>
  <style type="text/css">
   <![CDATA[
    .str1 {stroke:#2B2B2B;stroke-width:83.3346}
    .str0 {stroke:#2B2B2B;stroke-width:133.335}
    .fil0 {fill:none}
    .fil1 {fill:#2B2B2B}
   ]]>
  </style>
 </defs>
 <g id="Layer_x0020_1">
  <metadata id="CorelCorpID_0Corel-Layer"/>
  <g id="_719665744">
   <rect class="fil0 str0" x="2138" y="420" width="885" height="885" rx="201" ry="201"/>
   <rect class="fil0 str0" x="3023" y="2662" width="885" height="885" rx="201" ry="201"/>
   <rect class="fil0 str0" x="1244" y="2662" width="885" height="885" rx="201" ry="201"/>
   <path class="fil0 str0" d="M3482 2662l0 -433c0,-143 -117,-260 -260,-260l-1293 0c-143,0 -260,117 -260,260l0 433"/>
   <line class="fil0 str0" x1="2581" y1="1968" x2="2581" y2= "1305" />
  </g>
  <g id="_719727280">
   <circle class="fil0 str1" cx="10922" cy="417" r="615"/>
   <circle class="fil0 str1" cx="12135" cy="-351" r="615"/>
   <circle class="fil0 str1" cx="9695" cy="-351" r="615"/>
   <path class="fil0 str1" d="M10634 1135c0,0 292,150 557,-7 0,0 737,5 857,548l0 668c0,0 41,46 -341,170l0 -437 -38 0 -68 464c0,0 -944,182 -1366,-12l-62 -465 -67 0 0 444c0,0 -309,-131 -366,-198l0 -442c0,0 -48,-707 894,-733z"/>
   <path class="fil0 str1" d="M11728 370l124 0c0,0 332,150 592,0 0,0 792,-2 879,647l0 548c0,0 -189,143 -378,180l0 -428 -45 12 -61 435c0,0 -230,83 -585,92 0,0 14,-774 -769,-880 0,0 258,-235 242,-606z"/>
   <path class="fil0 str1" d="M10128 373l-124 0c0,0 -332,150 -592,0 -440,-1 -879,254 -879,736l0 459c0,0 189,143 378,180l0 -428 45 12 61 435c0,0 230,83 585,92 0,0 -14,-774 769,-880 0,0 -258,-235 -242,-606z"/>
  </g>
  <g id="one-finger-tap-gesture-of-outlined-hand-symbol.svg">
   <g>
    <g>
     <path class="fil1" d="M14598 1639l0 -124c-124,-103 -206,-258 -206,-433 0,-309 258,-567 567,-567 309,0 567,258 567,567 0,134 -52,268 -134,361 41,0 72,10 113,21 82,-113 124,-247 124,-392 0,-371 -299,-670 -670,-670 -371,0 -670,299 -670,670 0,237 124,443 309,567z"/>
     <path class="fil1" d="M15423 1073c0,-258 -206,-464 -464,-464 -258,0 -464,206 -464,464 0,113 41,216 103,289l0 -289c0,-196 165,-361 361,-361 196,0 361,165 361,361l0 289c62,-72 103,-175 103,-289z"/>
     <path class="fil1" d="M16196 1846c-62,0 -113,21 -155,52l0 0c0,-144 -113,-258 -258,-258 -62,0 -124,21 -175,62 -41,-103 -134,-165 -237,-165 -62,0 -113,21 -155,52l0 -515c0,-144 -113,-258 -258,-258 -144,0 -258,113 -258,258l0 917c-206,-186 -433,-330 -577,-186 -206,206 227,608 557,1216 237,423 567,577 897,577 484,0 876,-392 876,-876l0 -618c0,-144 -113,-258 -258,-258zm155 484l0 392c0,402 -350,773 -773,773 -392,0 -618,-216 -804,-515 -402,-680 -691,-989 -577,-1103 113,-113 392,134 608,361l0 -1165c0,-82 72,-155 155,-155 82,0 155,72 155,155l0 1082 103 0 0 -361c0,-82 72,-155 155,-155 82,0 155,72 155,155l0 258 103 0 0 -155c0,-82 72,-155 155,-155 82,0 155,72 155,155l0 258 103 0 0 -52c0,-82 72,-155 155,-155 82,0 155,72 155,155l0 227 0 0z"/>
    </g>
   </g>
   <g>
   </g>
   <g>
   </g>
   <g>
   </g>
   <g>
   </g>
   <g>
   </g>
   <g>
   </g>
   <g>
   </g>
   <g>
   </g>
   <g>
   </g>
   <g>
   </g>
   <g>
   </g>
   <g>
   </g>
   <g>
   </g>
   <g>
   </g>
   <g>
   </g>
  </g>
 </g>
</svg>
