<?xml version='1.0' encoding='iso-8859-1'?>
<!DOCTYPE svg PUBLIC '-//W3C//DTD SVG 1.1//EN' 'http://www.w3.org/Graphics/SVG/1.1/DTD/svg11.dtd'>
<svg version="1.1" xmlns="http://www.w3.org/2000/svg" viewBox="0 0 299.599 299.599" xmlns:xlink="http://www.w3.org/1999/xlink" enable-background="new 0 0 299.599 299.599">
  <g>
    <path d="m214.328,74.718c-4.226,1.435-9.016,3.062-13.946,3.062-18.422,0-29.733-8.472-37.992-14.657-4.99-3.737-8.933-6.69-12.591-6.69-3.658,0-7.601,2.952-12.591,6.69-8.259,6.185-19.57,14.656-37.991,14.656-4.932,0-9.722-1.627-13.948-3.062-2.395-0.813-7.223-2.452-8.513-1.972-0.559,2.763 2.919,11.219 4.619,15.354 1.541,3.746 2.871,6.981 3.501,9.71 5.487,23.784 0.553,93.108 0.154,98.539 0.163,14.855 18.025,28.718 43.55,33.765 6.95,1.373 13.241,4.763 18.192,9.802l3.026,3.082 3.025-3.081c4.95-5.039 11.241-8.428 18.193-9.803 25.524-5.047 43.387-18.91 43.55-33.765-0.398-5.431-5.333-74.755 0.154-98.539 0.63-2.729 1.96-5.964 3.501-9.71 1.701-4.135 5.179-12.591 4.62-15.354-1.289-0.479-6.117,1.159-8.513,1.973z"/>
    <path d="m270.62,28.253c-9.077-8.673-26.478,5.071-41.857,5.071-43.61,0-57.537-33.324-78.964-33.324s-35.353,33.324-78.964,33.324c-15.378,0-32.78-13.744-41.856-5.071-8.842,8.449 7.594,35.896 10.343,47.813 8.509,36.882 1.438,105.6 0,140.76-0.7,17.114 32.032,51.962 76.561,62.18 8.459,1.941 16.106,6.198 22.188,12.389l5.487,5.586c1.645,1.675 3.894,2.618 6.241,2.618 2.347,0 4.596-0.943 6.241-2.618l5.487-5.586c6.052-6.161 13.77-10.457 22.188-12.389 44.529-10.217 77.261-45.066 76.561-62.18-1.438-35.161-8.509-103.879 0-140.76 2.75-11.917 19.186-39.364 10.344-47.813zm-41.298,64.411c-1.229,2.984-2.498,6.072-2.906,7.843-5.186,22.472 0.083,94.468 0.137,95.192 0.011,0.148 0.017,0.296 0.017,0.444 0,21.065-21.389,39.447-53.223,45.741-4.574,0.904-8.71,3.132-11.96,6.44l-3.308,3.368c-0.001,0-0.001,0.001-0.001,0.001-2.169,2.206-5.185,3.472-8.278,3.472-3.093,0-6.109-1.266-8.277-3.472l-3.311-3.37c-3.25-3.309-7.386-5.535-11.958-6.439-31.835-6.294-53.224-24.676-53.224-45.741 0-0.148 0.006-0.297 0.017-0.444 0.054-0.725 5.322-72.721 0.137-95.192-0.408-1.771-1.678-4.857-2.905-7.843-4.207-10.229-8.975-21.823-2.019-28.472 6.119-5.846 14.297-3.068 20.869-0.838 3.51,1.192 7.14,2.425 10.089,2.425 14.426,0 23.124-6.515 30.798-12.262 6.238-4.672 12.13-9.085 19.784-9.085 7.654,0 13.546,4.413 19.784,9.085 7.675,5.747 16.372,12.262 30.799,12.262 2.948,0 6.578-1.232 10.088-2.425 6.571-2.231 14.751-5.01 20.869,0.838 6.956,6.649 2.189,18.243-2.018,28.472z"/>
  </g>
</svg>
