<?xml version="1.0" encoding="UTF-8" standalone="no"?>
<!-- Created with Inkscape (http://www.inkscape.org/) -->

<svg
   xmlns:dc="http://purl.org/dc/elements/1.1/"
   xmlns:cc="http://creativecommons.org/ns#"
   xmlns:rdf="http://www.w3.org/1999/02/22-rdf-syntax-ns#"
   xmlns:svg="http://www.w3.org/2000/svg"
   xmlns="http://www.w3.org/2000/svg"
   xmlns:sodipodi="http://sodipodi.sourceforge.net/DTD/sodipodi-0.dtd"
   xmlns:inkscape="http://www.inkscape.org/namespaces/inkscape"
   width="90mm"
   height="100mm"
   viewBox="0 0 90 100"
   version="1.1"
   id="svg8"
   inkscape:version="0.92.4 (5da689c313, 2019-01-14)"
   sodipodi:docname="file-alert.svg">
  <defs
     id="defs2" />
  <sodipodi:namedview
     id="base"
     pagecolor="#ffffff"
     bordercolor="#666666"
     borderopacity="1.0"
     inkscape:pageopacity="0.0"
     inkscape:pageshadow="2"
     inkscape:zoom="0.98994949"
     inkscape:cx="210.59535"
     inkscape:cy="127.04554"
     inkscape:document-units="mm"
     inkscape:current-layer="layer1"
     showgrid="false"
     inkscape:window-width="1366"
     inkscape:window-height="705"
     inkscape:window-x="-8"
     inkscape:window-y="-8"
     inkscape:window-maximized="1" />
  <metadata
     id="metadata5">
    <rdf:RDF>
      <cc:Work
         rdf:about="">
        <dc:format>image/svg+xml</dc:format>
        <dc:type
           rdf:resource="http://purl.org/dc/dcmitype/StillImage" />
        <dc:title></dc:title>
      </cc:Work>
    </rdf:RDF>
  </metadata>
  <g
     inkscape:label="Layer 1"
     inkscape:groupmode="layer"
     id="layer1"
     transform="translate(0,-197)">
    <g
       style="fill:#4d4d4d"
       id="g4593"
       transform="matrix(0.1811628,0,0,0.1811628,95.780171,202.36552)">
	<g
   style="fill:#4d4d4d"
   id="g4591">
		<g
   style="fill:#4d4d4d"
   id="g4589">
			<path
   style="fill:#4d4d4d"
   inkscape:connector-curvature="0"
   d="m 272.393,220 c 0,-11.046 -8.954,-20 -20,-20 h -126 c -11.046,0 -20,8.954 -20,20 0,11.046 8.954,20 20,20 h 126 c 11.046,0 20,-8.954 20,-20 z"
   id="path4575" />

			<path
   style="fill:#4d4d4d"
   inkscape:connector-curvature="0"
   d="m 126.393,280 c -11.046,0 -20,8.954 -20,20 0,11.046 8.954,20 20,20 h 71.111 c 11.046,0 20,-8.954 20,-20 0,-11.046 -8.954,-20 -20,-20 z"
   id="path4577" />

			<path
   style="fill:#4d4d4d"
   inkscape:connector-curvature="0"
   d="m 127.505,472 h -21 c -22.056,0 -40,-17.944 -40,-40 V 80 c 0,-22.056 17.944,-40 40,-40 h 245.889 c 22.056,0 40,17.944 40,40 v 134 c 0,11.046 8.954,20 20,20 11.046,0 20,-8.954 20,-20 V 80 c 0,-44.112 -35.888,-80 -80,-80 H 106.505 c -44.112,0 -80,35.888 -80,80 v 352 c 0,44.112 35.888,80 80,80 h 21 c 11.046,0 20,-8.954 20,-20 0,-11.046 -8.954,-20 -20,-20 z"
   id="path4579" />

			<path
   style="fill:#4d4d4d"
   inkscape:connector-curvature="0"
   d="m 352.393,140 c 0,-11.046 -8.954,-20 -20,-20 h -206 c -11.046,0 -20,8.954 -20,20 0,11.046 8.954,20 20,20 h 206 c 11.046,0 20,-8.954 20,-20 z"
   id="path4581" />

			<path
   style="fill:#4d4d4d"
   inkscape:connector-curvature="0"
   d="m 330.51,472 h -0.01 c -11.046,0 -19.995,8.954 -19.995,20 0,11.046 8.959,20 20.005,20 11.046,0 20,-8.954 20,-20 0,-11.046 -8.954,-20 -20,-20 z"
   id="path4583" />

			<path
   style="fill:#4d4d4d"
   inkscape:connector-curvature="0"
   d="m 481.566,435.655 -0.607,-1.522 -29.368,-48.627 -72.897,-118.028 C 368.453,250.898 350.709,241 331.228,241 c -19.479,0 -37.224,9.898 -47.464,26.478 L 185.34,426.834 c -10.79,17.472 -11.261,38.61 -1.257,56.545 C 194.078,501.3 212.292,512 232.806,512 h 27.699 c 11.046,0 20,-8.954 20,-20 0,-11.046 -8.954,-20 -20,-20 h -27.699 c -8.365,0 -12.43,-5.668 -13.789,-8.105 -1.363,-2.443 -4.057,-8.898 0.355,-16.042 l 98.424,-159.355 c 4.18,-6.767 10.787,-7.498 13.433,-7.498 2.646,0 9.254,0.73 13.434,7.498 l 72.739,117.771 27.443,45.44 c 1.346,4.457 0.572,9.382 -2.158,13.412 -1.741,2.569 -5.749,6.879 -13.034,6.879 h -27.147 c -11.046,0 -20,8.954 -20,20 0,11.046 8.954,20 20,20 h 27.147 c 18.526,0 35.778,-9.137 46.148,-24.441 10.434,-15.4 12.589,-34.804 5.765,-51.904 z"
   id="path4585" />

			<path
   style="fill:#4d4d4d"
   inkscape:connector-curvature="0"
   d="m 330.505,452 c 11.046,0 20,-8.954 20,-20 v -75 c 0,-11.046 -8.954,-20 -20,-20 -11.046,0 -20,8.954 -20,20 v 75 c 0,11.046 8.954,20 20,20 z"
   id="path4587" />

		</g>

	</g>

</g>
    <g
       style="fill:#4d4d4d"
       id="g4595"
       transform="matrix(0.1811628,0,0,0.1811628,-0.43685921,201.29644)">
</g>
    <g
       style="fill:#4d4d4d"
       id="g4597"
       transform="matrix(0.1811628,0,0,0.1811628,-0.43685921,201.29644)">
</g>
    <g
       style="fill:#4d4d4d"
       id="g4599"
       transform="matrix(0.1811628,0,0,0.1811628,-0.43685921,201.29644)">
</g>
    <g
       style="fill:#4d4d4d"
       id="g4601"
       transform="matrix(0.1811628,0,0,0.1811628,-0.43685921,201.29644)">
</g>
    <g
       style="fill:#4d4d4d"
       id="g4603"
       transform="matrix(0.1811628,0,0,0.1811628,-0.43685921,201.29644)">
</g>
    <g
       style="fill:#4d4d4d"
       id="g4605"
       transform="matrix(0.1811628,0,0,0.1811628,-0.43685921,201.29644)">
</g>
    <g
       style="fill:#4d4d4d"
       id="g4607"
       transform="matrix(0.1811628,0,0,0.1811628,-0.43685921,201.29644)">
</g>
    <g
       style="fill:#4d4d4d"
       id="g4609"
       transform="matrix(0.1811628,0,0,0.1811628,-0.43685921,201.29644)">
</g>
    <g
       style="fill:#4d4d4d"
       id="g4611"
       transform="matrix(0.1811628,0,0,0.1811628,-0.43685921,201.29644)">
</g>
    <g
       style="fill:#4d4d4d"
       id="g4613"
       transform="matrix(0.1811628,0,0,0.1811628,-0.43685921,201.29644)">
</g>
    <g
       style="fill:#4d4d4d"
       id="g4615"
       transform="matrix(0.1811628,0,0,0.1811628,-0.43685921,201.29644)">
</g>
    <g
       style="fill:#4d4d4d"
       id="g4617"
       transform="matrix(0.1811628,0,0,0.1811628,-0.43685921,201.29644)">
</g>
    <g
       style="fill:#4d4d4d"
       id="g4619"
       transform="matrix(0.1811628,0,0,0.1811628,-0.43685921,201.29644)">
</g>
    <g
       style="fill:#4d4d4d"
       id="g4621"
       transform="matrix(0.1811628,0,0,0.1811628,-0.43685921,201.29644)">
</g>
    <g
       style="fill:#4d4d4d"
       id="g4623"
       transform="matrix(0.1811628,0,0,0.1811628,-0.43685921,201.29644)">
</g>
    <path
       style="fill:none;stroke:#4d4d4d;stroke-width:4.76249981;stroke-linecap:round;stroke-linejoin:miter;stroke-miterlimit:4;stroke-dasharray:none;stroke-opacity:1"
       d="m 23.720788,290.28421 c 0,0 -15.9722763,2.18007 -16.3502523,-11.23808 -0.3779764,-13.41815 0.1130109,-61.42518 0.1130109,-61.42518 0,0 0.534539,-12.02713 11.2253204,-12.56167 10.690781,-0.53454 42.763125,-0.26727 42.763125,-0.26727 0,0 13.630746,0 13.898014,12.56167 0.267269,12.56167 0.534538,23.78699 0.534538,23.78699 v 0"
       id="path5788"
       inkscape:connector-curvature="0"
       sodipodi:nodetypes="cscscscc" />
    <path
       style="fill:none;stroke:#4d4d4d;stroke-width:4.58196259;stroke-linecap:round;stroke-linejoin:miter;stroke-miterlimit:4;stroke-dasharray:none;stroke-opacity:1"
       d="m 21.114023,227.24265 c 38.098096,-0.53454 39.638682,-0.58342 39.638682,-0.58342"
       id="path5790"
       inkscape:connector-curvature="0" />
    <path
       style="fill:none;stroke:#4d4d4d;stroke-width:4.38577271;stroke-linecap:round;stroke-linejoin:miter;stroke-miterlimit:4;stroke-dasharray:none;stroke-opacity:1"
       d="m 21.25038,241.14067 c 25.15908,0 25.385989,0.0116 25.385989,0.0116"
       id="path5796"
       inkscape:connector-curvature="0" />
    <path
       style="fill:none;stroke:#4d4d4d;stroke-width:4.26240873;stroke-linecap:round;stroke-linejoin:miter;stroke-miterlimit:4;stroke-dasharray:none;stroke-opacity:1"
       d="m 20.582884,255.57322 c 16.163545,0 16.163545,0 16.163545,0"
       id="path5800"
       inkscape:connector-curvature="0" />
    <path
       style="fill:none;stroke:#4d4d4d;stroke-width:4.7625;stroke-linecap:round;stroke-linejoin:round;stroke-miterlimit:4;stroke-dasharray:none;stroke-opacity:1"
       d="m 59.333836,264.86245 0.104515,16.51389"
       id="path5802"
       inkscape:connector-curvature="0" />
    <path
       style="fill:none;stroke:#4d4d4d;stroke-width:4.7625;stroke-linecap:round;stroke-linejoin:miter;stroke-opacity:1;stroke-miterlimit:4;stroke-dasharray:none"
       d="m 49.325892,290.95238 -6.614583,0.18899 c 0,0 -11.528274,-1.13393 -6.236608,-10.20536 5.291667,-9.07143 16.819941,-28.34821 16.819941,-28.34821 0,0 5.480656,-11.90625 12.662201,-0.56697 7.181549,11.33929 14.552083,25.13542 14.552083,25.13542 0,0 8.693455,13.04018 -2.078868,13.60714 -10.77232,0.56697 -7.181548,0.56697 -7.181548,0.56697"
       id="path5804"
       inkscape:connector-curvature="0" />
    <circle
       style="fill:#4d4d4d;fill-opacity:1;stroke:none;stroke-width:1.27462769;stroke-linejoin:round;stroke-miterlimit:4;stroke-dasharray:none;stroke-opacity:1;paint-order:markers stroke fill"
       id="path5810"
       cx="59.392868"
       cy="290.86935"
       r="3.3791182" />
  </g>
</svg>
