<?xml version="1.0" encoding="UTF-8"?>
<!DOCTYPE svg PUBLIC "-//W3C//DTD SVG 1.1//EN" "http://www.w3.org/Graphics/SVG/1.1/DTD/svg11.dtd">
<!-- Creator: CorelDRAW X6 -->
<svg xmlns="http://www.w3.org/2000/svg" xml:space="preserve" width="5.15276in" height="3.96693in" version="1.1" style="shape-rendering:geometricPrecision; text-rendering:geometricPrecision; image-rendering:optimizeQuality; fill-rule:evenodd; clip-rule:evenodd"
viewBox="0 0 5153 3967"
 xmlns:xlink="http://www.w3.org/1999/xlink">
 <defs>
  <style type="text/css">
   <![CDATA[
    .str1 {stroke:#2B2B2B;stroke-width:83.3346}
    .str0 {stroke:#2B2A29;stroke-width:133.335}
    .fil0 {fill:none}
   ]]>
  </style>
 </defs>
 <g id="Layer_x0020_1">
  <metadata id="CorelCorpID_0Corel-Layer"/>
  <g id="_719716336">
   <rect class="fil0 str0" x="10463" y="3325" width="885" height="885" rx="201" ry="201"/>
   <rect class="fil0 str0" x="11348" y="5567" width="885" height="885" rx="201" ry="201"/>
   <rect class="fil0 str0" x="9569" y="5567" width="885" height="885" rx="201" ry="201"/>
   <path class="fil0 str0" d="M11807 5567l0 -433c0,-143 -117,-260 -260,-260l-1293 0c-143,0 -260,117 -260,260l0 433"/>
   <line class="fil0 str0" x1="10906" y1="4873" x2="10906" y2= "4210" />
  </g>
  <g id="_719712144">
   <circle class="fil0 str1" cx="2571" cy="1574" r="615"/>
   <circle class="fil0 str1" cx="3784" cy="806" r="615"/>
   <circle class="fil0 str1" cx="1344" cy="806" r="615"/>
   <path class="fil0 str1" d="M2283 2292c0,0 292,150 557,-7 0,0 737,5 857,548l0 668c0,0 41,46 -341,170l0 -437 -38 0 -68 464c0,0 -944,182 -1366,-12l-62 -465 -67 0 0 444c0,0 -309,-131 -366,-198l0 -442c0,0 -48,-707 894,-733z"/>
   <path class="fil0 str1" d="M3377 1527l124 0c0,0 332,150 592,0 0,0 792,-2 879,647l0 548c0,0 -189,143 -378,180l0 -428 -45 12 -61 435c0,0 -230,83 -585,92 0,0 14,-774 -769,-880 0,0 258,-235 242,-606z"/>
   <path class="fil0 str1" d="M1776 1530l-124 0c0,0 -332,150 -592,0 -440,-1 -879,254 -879,736l0 459c0,0 189,143 378,180l0 -428 45 12 61 435c0,0 230,83 585,92 0,0 -14,-774 769,-880 0,0 -258,-235 -242,-606z"/>
  </g>
 </g>
</svg>
