<?xml version="1.0" encoding="UTF-8"?>
<!DOCTYPE svg PUBLIC "-//W3C//DTD SVG 1.1//EN" "http://www.w3.org/Graphics/SVG/1.1/DTD/svg11.dtd">
<!-- Creator: CorelDRAW X6 -->
<svg xmlns="http://www.w3.org/2000/svg" xml:space="preserve" width="65mm" height="128mm" version="1.1" style="shape-rendering:geometricPrecision; text-rendering:geometricPrecision; image-rendering:optimizeQuality; fill-rule:evenodd; clip-rule:evenodd"
viewBox="0 0 6500 12800"
 xmlns:xlink="http://www.w3.org/1999/xlink">
 <defs>
  <style type="text/css">
   <![CDATA[
    .fil43 {fill:black}
    .fil40 {fill:#020202}
    .fil39 {fill:#2D2D2D}
    .fil42 {fill:#4A4A4A}
    .fil41 {fill:darkgray}
    .fil38 {fill:#2B2A29;fill-rule:nonzero}
    .fil9 {fill:black;fill-rule:nonzero}
    .fil0 {fill:#000003;fill-rule:nonzero}
    .fil21 {fill:#1A1A1A;fill-rule:nonzero}
    .fil22 {fill:#262626;fill-rule:nonzero}
    .fil23 {fill:#333333;fill-rule:nonzero}
    .fil35 {fill:#545657;fill-rule:nonzero}
    .fil20 {fill:white;fill-rule:nonzero}
    .fil1 {fill:url(#id22);fill-rule:nonzero}
    .fil3 {fill:url(#id23);fill-rule:nonzero}
    .fil2 {fill:url(#id24);fill-rule:nonzero}
    .fil27 {fill:url(#id25);fill-rule:nonzero}
    .fil29 {fill:url(#id26);fill-rule:nonzero}
    .fil16 {fill:url(#id27);fill-rule:nonzero}
    .fil11 {fill:url(#id28);fill-rule:nonzero}
    .fil5 {fill:url(#id29);fill-rule:nonzero}
    .fil15 {fill:url(#id30);fill-rule:nonzero}
    .fil19 {fill:url(#id31);fill-rule:nonzero}
    .fil18 {fill:url(#id32);fill-rule:nonzero}
    .fil6 {fill:url(#id33);fill-rule:nonzero}
    .fil8 {fill:url(#id34);fill-rule:nonzero}
    .fil28 {fill:url(#id35);fill-rule:nonzero}
    .fil33 {fill:url(#id36);fill-rule:nonzero}
    .fil31 {fill:url(#id37);fill-rule:nonzero}
    .fil17 {fill:url(#id38);fill-rule:nonzero}
    .fil13 {fill:url(#id39);fill-rule:nonzero}
    .fil7 {fill:url(#id40);fill-rule:nonzero}
    .fil37 {fill:url(#id41);fill-rule:nonzero}
    .fil14 {fill:url(#id42);fill-rule:nonzero}
    .fil34 {fill:url(#id43);fill-rule:nonzero}
    .fil32 {fill:url(#id44);fill-rule:nonzero}
    .fil36 {fill:url(#id45);fill-rule:nonzero}
    .fil30 {fill:url(#id46);fill-rule:nonzero}
    .fil10 {fill:url(#id47);fill-rule:nonzero}
    .fil12 {fill:url(#id48);fill-rule:nonzero}
    .fil4 {fill:url(#id49);fill-rule:nonzero}
    .fil25 {fill:url(#id50);fill-rule:nonzero}
    .fil26 {fill:url(#id51);fill-rule:nonzero}
    .fil24 {fill:url(#id52);fill-rule:nonzero}
   ]]>
  </style>
       <mask id="id0">
  <linearGradient id="id1" gradientUnits="userSpaceOnUse" x1="3255.7" y1="436.52" x2="3255.7" y2="233.54">
   <stop offset="0" style="stop-opacity:1; stop-color:white"/>
   <stop offset="0.788235" style="stop-opacity:0.152941; stop-color:white"/>
   <stop offset="1" style="stop-opacity:0.698039; stop-color:white"/>
  </linearGradient>
        <rect style="fill:url(#id1)" x="560" y="230" width="5392" height="211"/>
       </mask>
       <mask id="id2">
  <linearGradient id="id3" gradientUnits="userSpaceOnUse" x1="3255.7" y1="12410.4" x2="3255.7" y2="12613.4">
   <stop offset="0" style="stop-opacity:1; stop-color:white"/>
   <stop offset="0.788235" style="stop-opacity:0.152941; stop-color:white"/>
   <stop offset="1" style="stop-opacity:0.698039; stop-color:white"/>
  </linearGradient>
        <rect style="fill:url(#id3)" x="560" y="12407" width="5392" height="211"/>
       </mask>
    <mask id="id4">
  <linearGradient id="id5" gradientUnits="userSpaceOnUse" x1="5716.03" y1="6416.75" x2="6175.07" y2="6416.75">
   <stop offset="0" style="stop-opacity:1; stop-color:white"/>
   <stop offset="0.85098" style="stop-opacity:0.152941; stop-color:white"/>
   <stop offset="1" style="stop-opacity:0.698039; stop-color:white"/>
  </linearGradient>
     <rect style="fill:url(#id5)" x="5712" y="431" width="467" height="11972"/>
    </mask>
    <mask id="id6">
  <linearGradient id="id7" gradientUnits="userSpaceOnUse" x1="811.55" y1="6416.75" x2="352.47" y2="6416.75">
   <stop offset="0" style="stop-opacity:1; stop-color:white"/>
   <stop offset="0.85098" style="stop-opacity:0.152941; stop-color:white"/>
   <stop offset="1" style="stop-opacity:0.698039; stop-color:white"/>
  </linearGradient>
     <rect style="fill:url(#id7)" x="349" y="431" width="467" height="11972"/>
    </mask>
    <mask id="id8">
  <linearGradient id="id9" gradientUnits="userSpaceOnUse" x1="762.04" y1="446.95" x2="5731.02" y2="446.95">
   <stop offset="0" style="stop-opacity:0; stop-color:white"/>
   <stop offset="0.0509804" style="stop-opacity:0.188235; stop-color:white"/>
   <stop offset="0.219608" style="stop-opacity:0.376471; stop-color:white"/>
   <stop offset="0.670588" style="stop-opacity:0.376471; stop-color:white"/>
   <stop offset="0.760784" style="stop-opacity:0.376471; stop-color:white"/>
   <stop offset="0.960784" style="stop-opacity:0.188235; stop-color:white"/>
   <stop offset="1" style="stop-opacity:0; stop-color:white"/>
   <stop offset="1" style="stop-opacity:0; stop-color:white"/>
  </linearGradient>
     <rect style="fill:url(#id9)" x="758" y="367" width="4977" height="161"/>
    </mask>
    <mask id="id10">
  <linearGradient id="id11" gradientUnits="userSpaceOnUse" x1="762.04" y1="12379.3" x2="5731.02" y2="12379.3">
   <stop offset="0" style="stop-opacity:0; stop-color:white"/>
   <stop offset="0.0509804" style="stop-opacity:0.188235; stop-color:white"/>
   <stop offset="0.219608" style="stop-opacity:0.376471; stop-color:white"/>
   <stop offset="0.670588" style="stop-opacity:0.376471; stop-color:white"/>
   <stop offset="0.760784" style="stop-opacity:0.376471; stop-color:white"/>
   <stop offset="0.960784" style="stop-opacity:0.188235; stop-color:white"/>
   <stop offset="1" style="stop-opacity:0; stop-color:white"/>
   <stop offset="1" style="stop-opacity:0; stop-color:white"/>
  </linearGradient>
     <rect style="fill:url(#id11)" x="758" y="12299" width="4977" height="161"/>
    </mask>
     <mask id="id12">
  <radialGradient id="id13" gradientUnits="userSpaceOnUse" cx="3854.26" cy="644.9" r="0" fx="3854.26" fy="644.9">
   <stop offset="0" style="stop-opacity:0.376471; stop-color:white"/>
   <stop offset="0.611765" style="stop-opacity:1; stop-color:white"/>
   <stop offset="0.878431" style="stop-opacity:0.54902; stop-color:white"/>
   <stop offset="1" style="stop-opacity:0.0980392; stop-color:white"/>
  </radialGradient>
      <rect style="fill:url(#id13)" x="3850" y="641" width="117" height="117"/>
     </mask>
      <mask id="id14">
  <linearGradient id="id15" gradientUnits="userSpaceOnUse" x1="3893.86" y1="658.99" x2="3984.56" y2="768.25">
   <stop offset="0" style="stop-opacity:1; stop-color:white"/>
   <stop offset="0.188235" style="stop-opacity:0.65098; stop-color:white"/>
   <stop offset="0.678431" style="stop-opacity:0.298039; stop-color:white"/>
   <stop offset="1" style="stop-opacity:0.376471; stop-color:white"/>
  </linearGradient>
       <rect style="fill:url(#id15)" x="3885" y="655" width="108" height="117"/>
      </mask>
      <mask id="id16">
  <linearGradient id="id17" gradientUnits="userSpaceOnUse" x1="3852.57" y1="662.95" x2="3936.89" y2="764.55">
   <stop offset="0" style="stop-opacity:1; stop-color:white"/>
   <stop offset="0.14902" style="stop-opacity:0.65098; stop-color:white"/>
   <stop offset="0.54902" style="stop-opacity:0.298039; stop-color:white"/>
   <stop offset="1" style="stop-opacity:0.376471; stop-color:white"/>
  </linearGradient>
       <rect style="fill:url(#id17)" x="3849" y="655" width="91" height="117"/>
      </mask>
    <mask id="id18">
  <linearGradient id="id19" gradientUnits="userSpaceOnUse" x1="6224.61" y1="6418.3" x2="6323.87" y2="6418.3">
   <stop offset="0" style="stop-opacity:0.8; stop-color:white"/>
   <stop offset="0.290196" style="stop-opacity:0.0980392; stop-color:white"/>
   <stop offset="1" style="stop-opacity:1; stop-color:white"/>
  </linearGradient>
     <rect style="fill:url(#id19)" x="6221" y="1403" width="107" height="10031"/>
    </mask>
    <mask id="id20">
  <linearGradient id="id21" gradientUnits="userSpaceOnUse" x1="278.28" y1="6418.3" x2="179.02" y2="6418.3">
   <stop offset="0" style="stop-opacity:0.898039; stop-color:white"/>
   <stop offset="0.290196" style="stop-opacity:0.0509804; stop-color:white"/>
   <stop offset="1" style="stop-opacity:1; stop-color:white"/>
  </linearGradient>
     <rect style="fill:url(#id21)" x="175" y="1403" width="107" height="10031"/>
    </mask>
  <linearGradient id="id22" gradientUnits="userSpaceOnUse" x1="179.75" y1="2123.51" x2="196.01" y2="2123.51">
   <stop offset="0" style="stop-color:#666666"/>
   <stop offset="0.278431" style="stop-color:#434343"/>
   <stop offset="1" style="stop-color:#1F1F1F"/>
  </linearGradient>
  <linearGradient id="id23" gradientUnits="userSpaceOnUse" x1="179.75" y1="4352.49" x2="205.62" y2="4352.49">
   <stop offset="0" style="stop-color:white"/>
   <stop offset="0.278431" style="stop-color:gray"/>
   <stop offset="1" style="stop-color:black"/>
  </linearGradient>
  <linearGradient id="id24" gradientUnits="userSpaceOnUse" xlink:href="#id23" x1="179.75" y1="3217.33" x2="205.62" y2="3217.33">
  </linearGradient>
  <linearGradient id="id25" gradientUnits="userSpaceOnUse" x1="6224.61" y1="6418.3" x2="6323.87" y2="6418.3">
   <stop offset="0" style="stop-color:gray"/>
   <stop offset="0.290196" style="stop-color:#A6A6A6"/>
   <stop offset="1" style="stop-color:#CCCCCC"/>
  </linearGradient>
  <linearGradient id="id26" gradientUnits="userSpaceOnUse" x1="6345.01" y1="3789.51" x2="6363.11" y2="3789.51">
   <stop offset="0" style="stop-color:#494949"/>
   <stop offset="0.709804" style="stop-color:#979797"/>
   <stop offset="1" style="stop-color:#E6E6E6"/>
  </linearGradient>
  <linearGradient id="id27" gradientUnits="userSpaceOnUse" x1="5716.03" y1="6416.75" x2="6175.07" y2="6416.75">
   <stop offset="0" style="stop-color:#6B6B70"/>
   <stop offset="0.85098" style="stop-color:#9C9DA0"/>
   <stop offset="1" style="stop-color:#CDCFD1"/>
  </linearGradient>
  <linearGradient id="id28" gradientUnits="userSpaceOnUse" x1="5863.35" y1="9407.76" x2="6298.59" y2="9407.76">
   <stop offset="0" style="stop-color:#7C7C7C"/>
   <stop offset="0.509804" style="stop-color:#B8BABD"/>
   <stop offset="0.701961" style="stop-color:#F4F9FF"/>
   <stop offset="0.929412" style="stop-color:#B3B6BA"/>
   <stop offset="1" style="stop-color:#727275"/>
  </linearGradient>
  <linearGradient id="id29" gradientUnits="userSpaceOnUse" xlink:href="#id28" x1="5863.35" y1="3439.15" x2="6298.59" y2="3439.15">
  </linearGradient>
  <linearGradient id="id30" gradientUnits="userSpaceOnUse" x1="299.3" y1="6419.08" x2="6212.53" y2="6419.08">
   <stop offset="0" style="stop-color:#2D2D2D"/>
   <stop offset="0.0588235" style="stop-color:black"/>
   <stop offset="0.180392" style="stop-color:#363636"/>
   <stop offset="0.8" style="stop-color:#363636"/>
   <stop offset="0.929412" style="stop-color:black"/>
   <stop offset="1" style="stop-color:#2D2D2D"/>
  </linearGradient>
  <linearGradient id="id31" gradientUnits="userSpaceOnUse" x1="762.04" y1="12379.3" x2="5731.02" y2="12379.3">
   <stop offset="0" style="stop-color:black"/>
   <stop offset="0.0509804" style="stop-color:#7F7F7F"/>
   <stop offset="0.219608" style="stop-color:white"/>
   <stop offset="0.670588" style="stop-color:white"/>
   <stop offset="0.760784" style="stop-color:white"/>
   <stop offset="0.960784" style="stop-color:gray"/>
   <stop offset="1" style="stop-color:black"/>
   <stop offset="1" style="stop-color:black"/>
  </linearGradient>
  <linearGradient id="id32" gradientUnits="userSpaceOnUse" xlink:href="#id31" x1="762.04" y1="446.95" x2="5731.02" y2="446.95">
  </linearGradient>
  <linearGradient id="id33" gradientUnits="userSpaceOnUse" x1="336.18" y1="674.44" x2="776" y2="382.5">
   <stop offset="0" style="stop-color:#4D4D4D"/>
   <stop offset="1" style="stop-color:#1A1A1A"/>
  </linearGradient>
  <linearGradient id="id34" gradientUnits="userSpaceOnUse" x1="3255.7" y1="436.52" x2="3255.7" y2="233.54">
   <stop offset="0" style="stop-color:#BFC1C6"/>
   <stop offset="0.788235" style="stop-color:#DDDEE2"/>
   <stop offset="1" style="stop-color:#FBFBFF"/>
  </linearGradient>
  <linearGradient id="id35" gradientUnits="userSpaceOnUse" xlink:href="#id25" x1="278.28" y1="6418.3" x2="179.02" y2="6418.3">
  </linearGradient>
  <linearGradient id="id36" gradientUnits="userSpaceOnUse" xlink:href="#id26" x1="157.84" y1="4357.95" x2="139.74" y2="4357.95">
  </linearGradient>
  <linearGradient id="id37" gradientUnits="userSpaceOnUse" xlink:href="#id26" x1="157.84" y1="3223.57" x2="139.74" y2="3223.57">
  </linearGradient>
  <linearGradient id="id38" gradientUnits="userSpaceOnUse" xlink:href="#id27" x1="811.55" y1="6416.75" x2="352.47" y2="6416.75">
  </linearGradient>
  <linearGradient id="id39" gradientUnits="userSpaceOnUse" xlink:href="#id28" x1="648.03" y1="9416.21" x2="212.81" y2="9416.21">
  </linearGradient>
  <linearGradient id="id40" gradientUnits="userSpaceOnUse" xlink:href="#id28" x1="648.03" y1="3430.7" x2="212.81" y2="3430.7">
  </linearGradient>
  <linearGradient id="id41" gradientUnits="userSpaceOnUse" x1="3213.36" y1="12605" x2="3213.36" y2="12634">
   <stop offset="0" style="stop-color:#606269"/>
   <stop offset="0.290196" style="stop-color:#3B3C40"/>
   <stop offset="1" style="stop-color:#151616"/>
  </linearGradient>
  <linearGradient id="id42" gradientUnits="userSpaceOnUse" xlink:href="#id34" x1="3255.7" y1="12410.4" x2="3255.7" y2="12613.4">
  </linearGradient>
  <linearGradient id="id43" gradientUnits="userSpaceOnUse" x1="171.77" y1="3894.83" x2="171.77" y2="4813.35">
   <stop offset="0" style="stop-color:#111111"/>
   <stop offset="0.0313725" style="stop-color:gray"/>
   <stop offset="0.109804" style="stop-color:#EFEFEF"/>
   <stop offset="0.909804" style="stop-color:#EFEFEF"/>
   <stop offset="0.968627" style="stop-color:#898989"/>
   <stop offset="1" style="stop-color:#232323"/>
  </linearGradient>
  <linearGradient id="id44" gradientUnits="userSpaceOnUse" xlink:href="#id43" x1="171.77" y1="2760.45" x2="171.77" y2="3678.97">
  </linearGradient>
  <linearGradient id="id45" gradientUnits="userSpaceOnUse" xlink:href="#id43" x1="168.38" y1="1887.39" x2="168.38" y2="2355.21">
  </linearGradient>
  <linearGradient id="id46" gradientUnits="userSpaceOnUse" x1="6331.09" y1="3063.58" x2="6331.09" y2="4507.72">
   <stop offset="0" style="stop-color:black"/>
   <stop offset="0.0117647" style="stop-color:black"/>
   <stop offset="0.0509804" style="stop-color:#777777"/>
   <stop offset="0.129412" style="stop-color:#EFEFEF"/>
   <stop offset="0.858824" style="stop-color:#EFEFEF"/>
   <stop offset="0.941176" style="stop-color:#787878"/>
   <stop offset="0.980392" style="stop-color:black"/>
   <stop offset="1" style="stop-color:black"/>
  </linearGradient>
  <linearGradient id="id47" gradientUnits="userSpaceOnUse" xlink:href="#id33" x1="5740.49" y1="12462.6" x2="6170.11" y2="12174.3">
  </linearGradient>
  <linearGradient id="id48" gradientUnits="userSpaceOnUse" xlink:href="#id33" x1="770.92" y1="12462.6" x2="341.26" y2="12174.3">
  </linearGradient>
  <linearGradient id="id49" gradientUnits="userSpaceOnUse" xlink:href="#id33" x1="5740.49" y1="384.28" x2="6170.11" y2="672.66">
  </linearGradient>
  <linearGradient id="id50" gradientUnits="userSpaceOnUse" x1="3894.81" y1="660.13" x2="3983.61" y2="767.11">
   <stop offset="0" style="stop-color:#5482FF"/>
   <stop offset="0.188235" style="stop-color:#2A4180"/>
   <stop offset="0.678431" style="stop-color:black"/>
   <stop offset="1" style="stop-color:black"/>
  </linearGradient>
  <linearGradient id="id51" gradientUnits="userSpaceOnUse" x1="3857.83" y1="669.3" x2="3931.63" y2="758.2">
   <stop offset="0" style="stop-color:#5482FF"/>
   <stop offset="0.14902" style="stop-color:#2A4180"/>
   <stop offset="0.54902" style="stop-color:black"/>
   <stop offset="1" style="stop-color:black"/>
  </linearGradient>
  <radialGradient id="id52" gradientUnits="userSpaceOnUse" cx="3909.11" cy="699.76" r="39.5" fx="3909.11" fy="699.76">
   <stop offset="0" style="stop-color:black"/>
   <stop offset="0.611765" style="stop-color:black"/>
   <stop offset="0.878431" style="stop-color:navy"/>
   <stop offset="1" style="stop-color:blue"/>
  </radialGradient>
 </defs>
 <g id="Layer_x0020_1">
  <metadata id="CorelCorpID_0Corel-Layer"/>
  <g id="_814973712">
   <g>
    <path class="fil0" d="M5402 214l-4300 0c-509,0 -922,413 -922,922l0 10577c0,509 413,922 922,922l4300 0c509,0 922,-413 922,-922l0 -10577c0,-509 -413,-922 -922,-922z"/>
    <path class="fil1" d="M196 2335c0,-9 0,-404 0,-422 0,-17 -3,-32 -16,-41l0 502c16,-7 16,-31 16,-40z"/>
    <path class="fil2" d="M203 3645c0,-9 0,-826 0,-844 0,-17 -2,-49 -23,-67l0 965c26,-17 23,-46 23,-55z"/>
    <path class="fil3" d="M203 4780c0,-9 0,-826 0,-844 0,-17 -2,-49 -23,-67l0 965c26,-17 23,-46 23,-55z"/>
   </g>
   <g>
    <g>
     <path class="fil4" d="M5740 383c43,20 85,44 123,70 125,46 224,118 307,228 -58,-97 -134,-183 -223,-253 -66,-40 -125,-53 -208,-45z"/>
     <path class="fil5" d="M6299 6425l0 -5279c0,-170 -47,-329 -128,-465 -83,-109 -182,-182 -307,-228 220,152 365,405 365,692l0 5279 71 0z"/>
    </g>
    <g>
     <path class="fil6" d="M772 383c-43,20 -85,44 -123,70 -125,46 -224,118 -307,228 58,-97 134,-183 223,-253 66,-40 125,-53 208,-45z"/>
     <g>
      <path class="fil7" d="M213 6408l0 -5262c0,-170 47,-329 128,-465 83,-109 182,-182 307,-228 -220,152 -365,405 -365,692l0 5262 -71 0z"/>
      <path class="fil8" style="mask:url(#id0)" d="M5388 235l-2132 0 -2132 0c-211,0 -406,72 -560,193 66,-40 125,-53 208,-45 107,-50 226,-78 352,-78l2132 0 2132 0c126,0 245,28 352,78 83,-8 142,5 208,45 -155,-121 -349,-193 -560,-193z"/>
     </g>
    </g>
   </g>
   <path class="fil9" d="M6292 4476c0,-9 0,-1356 0,-1374 0,-17 3,-49 31,-67l0 1495c-35,-17 -31,-46 -31,-55z"/>
   <g>
    <g>
     <path class="fil10" d="M5740 12464c43,-20 85,-44 123,-70 125,-46 224,-118 307,-228 -58,97 -134,183 -223,253 -66,40 -125,53 -208,45z"/>
     <path class="fil11" d="M6299 6422l0 5279c0,170 -47,329 -128,465 -83,109 -182,182 -307,228 220,-152 365,-405 365,-692l0 -5279 71 0z"/>
    </g>
    <g>
     <path class="fil12" d="M772 12464c-43,-20 -85,-44 -123,-70 -125,-46 -224,-118 -307,-228 58,97 134,183 223,253 66,40 125,53 208,45z"/>
     <g>
      <path class="fil13" d="M213 6439l0 5262c0,170 47,329 128,465 83,109 182,182 307,228 -220,-152 -365,-405 -365,-692l0 -5262 -71 0z"/>
      <path class="fil14" style="mask:url(#id2)" d="M5388 12612l-2132 0 -2132 0c-211,0 -406,-72 -560,-193 66,40 125,53 208,45 107,50 226,78 352,78l2132 0 2132 0c126,0 245,-28 352,-78 83,8 142,-5 208,-45 -155,121 -349,193 -560,193z"/>
     </g>
    </g>
   </g>
   <path class="fil15" d="M5404 12516l-4285 0c-453,0 -820,-367 -820,-820l0 -10559c0,-450 364,-814 814,-814l4278 0c454,0 821,368 821,821l0 10564c0,446 -362,808 -808,808zm-4296 -12165l0 0c-431,0 -781,350 -781,781l0 10564c0,437 355,792 792,792l4285 0c431,0 780,-349 780,-780l0 -10564c0,-438 -355,-793 -793,-793l-4283 0z"/>
   <path class="fil16" style="mask:url(#id4)" d="M6168 1211c0,-451 -214,-675 -452,-777 64,131 342,244 342,773l0 10418c0,529 -278,642 -342,773 238,-101 452,-325 452,-777l7 -5205 -7 -5205z"/>
   <path class="fil17" style="mask:url(#id6)" d="M359 1211c0,-451 214,-675 452,-777 -64,131 -342,244 -342,773l0 10418c0,529 278,642 342,773 -238,-101 -452,-325 -452,-777l-7 -5205 7 -5205z"/>
   <path class="fil18" style="mask:url(#id8)" d="M5364 371l-2117 0 -2117 0c-132,0 -257,32 -368,88l27 56c95,-37 221,-63 341,-63l2117 0 2117 0c119,0 235,26 334,72l33 -70c-110,-51 -235,-83 -367,-83z"/>
   <path class="fil19" style="mask:url(#id10)" d="M5364 12456l-2117 0 -2117 0c-132,0 -257,-32 -368,-88l27 -56c95,37 221,63 341,63l2117 0 2117 0c119,0 235,-26 334,-72l33 70c-110,51 -235,83 -367,83z"/>
   <g>
    <path class="fil20" d="M5409 579l-575 0c-40,0 -72,32 -72,72l0 59c0,101 -92,295 -302,295 -211,0 -2276,0 -2395,0 -237,0 -313,-205 -313,-289l0 -65c0,-40 -32,-72 -72,-72l-584 0c-297,0 -538,241 -538,538l0 10600c0,297 241,538 538,538l4315 0c297,0 538,-241 538,-538l0 -10600c0,-297 -241,-538 -538,-538z"/>
   </g>
   <g>
    <path class="fil21" d="M3636 691c-1,-4 -4,-8 -6,-12l-3 3 9 9z"/>
    <polygon class="fil21" points="3020,723 3008,735 3017,743 3022,743 3031,735 "/>
    <polygon class="fil21" points="3000,743 3005,743 3002,741 "/>
    <polygon class="fil21" points="3556,717 3567,728 3579,717 3568,706 "/>
    <polygon class="fil21" points="3521,717 3532,728 3544,717 3532,706 "/>
    <polygon class="fil21" points="3302,711 3314,699 3302,688 3291,699 "/>
    <path class="fil21" d="M3624 672c-4,-3 -9,-6 -14,-8l11 11 3 -3z"/>
    <polygon class="fil21" points="3090,723 3079,735 3088,743 3093,743 3102,735 "/>
    <polygon class="fil21" points="2984,723 2973,735 2982,743 2987,743 2996,735 "/>
    <polygon class="fil21" points="3035,743 3040,743 3037,741 "/>
    <path class="fil21" d="M3601 743c1,0 2,0 3,-1l-1 -1 -2 2z"/>
    <polygon class="fil21" points="3585,723 3574,735 3582,743 3588,743 3597,735 "/>
    <polygon class="fil21" points="3070,743 3075,743 3073,741 "/>
    <path class="fil21" d="M3632 722c3,-5 5,-10 5,-16l-11 11 6 6z"/>
    <path class="fil21" d="M3609 735l5 5c5,-2 9,-6 13,-10l-7 -7 -11 11z"/>
    <polygon class="fil21" points="3055,723 3044,735 3052,743 3058,743 3067,735 "/>
    <polygon class="fil21" points="3338,711 3349,699 3338,688 3326,699 "/>
    <polygon class="fil21" points="3479,675 3491,664 3489,662 3470,662 3468,664 "/>
    <polygon class="fil21" points="3379,717 3391,728 3402,717 3391,706 "/>
    <polygon class="fil21" points="3232,711 3243,699 3232,688 3220,699 "/>
    <path class="fil21" d="M2914 723l-11 11 8 8c1,0 2,1 3,1l3 0 9 -9 -11 -11z"/>
    <polygon class="fil21" points="3415,717 3426,728 3438,717 3426,706 "/>
    <polygon class="fil21" points="3344,717 3355,728 3367,717 3355,706 "/>
    <polygon class="fil21" points="3585,675 3597,664 3595,662 3576,662 3574,664 "/>
    <polygon class="fil21" points="2896,706 2885,717 2896,728 2907,717 "/>
    <polygon class="fil21" points="3444,675 3455,664 3453,662 3434,662 3432,664 "/>
    <polygon class="fil21" points="2949,723 2938,735 2946,743 2952,743 2960,735 "/>
    <polygon class="fil21" points="3485,717 3497,728 3508,717 3497,706 "/>
    <polygon class="fil21" points="3550,675 3561,664 3559,662 3540,662 3538,664 "/>
    <polygon class="fil21" points="3267,711 3279,699 3267,688 3256,699 "/>
    <polygon class="fil21" points="2964,743 2969,743 2967,741 "/>
    <polygon class="fil21" points="3450,717 3461,728 3473,717 3461,706 "/>
    <polygon class="fil21" points="3514,675 3526,664 3524,662 3505,662 3503,664 "/>
    <polygon class="fil21" points="2929,743 2934,743 2931,741 "/>
    <polygon class="fil21" points="3530,743 3535,743 3532,741 "/>
    <polygon class="fil21" points="3373,723 3362,735 3370,743 3376,743 3385,735 "/>
    <polygon class="fil21" points="3479,711 3491,699 3479,688 3468,699 "/>
    <polygon class="fil21" points="3212,743 3217,743 3214,741 "/>
    <polygon class="fil21" points="3353,743 3358,743 3355,741 "/>
    <polygon class="fil21" points="3408,711 3420,699 3408,688 3397,699 "/>
    <polygon class="fil21" points="3408,723 3397,735 3406,743 3411,743 3420,735 "/>
    <polygon class="fil21" points="3388,743 3393,743 3391,741 "/>
    <polygon class="fil21" points="3565,743 3570,743 3568,741 "/>
    <polygon class="fil21" points="3267,723 3256,735 3264,743 3270,743 3279,735 "/>
    <polygon class="fil21" points="3514,711 3526,699 3514,688 3503,699 "/>
    <polygon class="fil21" points="3282,743 3287,743 3285,741 "/>
    <polygon class="fil21" points="3302,723 3291,735 3300,743 3305,743 3314,735 "/>
    <polygon class="fil21" points="3444,711 3455,699 3444,688 3432,699 "/>
    <polygon class="fil21" points="3232,723 3220,735 3229,743 3234,743 3243,735 "/>
    <polygon class="fil21" points="3338,723 3326,735 3335,743 3340,743 3349,735 "/>
    <polygon class="fil21" points="3318,743 3323,743 3320,741 "/>
    <polygon class="fil21" points="3196,723 3185,735 3194,743 3199,743 3208,735 "/>
    <polygon class="fil21" points="3126,723 3114,735 3123,743 3128,743 3137,735 "/>
    <polygon class="fil21" points="3514,723 3503,735 3512,743 3517,743 3526,735 "/>
    <polygon class="fil21" points="3408,675 3420,664 3418,662 3399,662 3397,664 "/>
    <polygon class="fil21" points="3373,711 3385,699 3373,688 3362,699 "/>
    <polygon class="fil21" points="3424,743 3429,743 3426,741 "/>
    <polygon class="fil21" points="3585,711 3597,699 3585,688 3574,699 "/>
    <polygon class="fil21" points="3550,723 3538,735 3547,743 3552,743 3561,735 "/>
    <polygon class="fil21" points="3494,743 3499,743 3497,741 "/>
    <polygon class="fil21" points="3106,743 3111,743 3108,741 "/>
    <polygon class="fil21" points="3444,723 3432,735 3441,743 3446,743 3455,735 "/>
    <polygon class="fil21" points="3161,723 3150,735 3158,743 3164,743 3173,735 "/>
    <polygon class="fil21" points="3176,743 3181,743 3179,741 "/>
    <polygon class="fil21" points="3141,743 3146,743 3143,741 "/>
    <polygon class="fil21" points="3479,723 3468,735 3476,743 3482,743 3491,735 "/>
    <polygon class="fil21" points="3550,711 3561,699 3550,688 3538,699 "/>
    <polygon class="fil21" points="3459,743 3464,743 3461,741 "/>
    <polygon class="fil21" points="3247,743 3252,743 3249,741 "/>
    <polygon class="fil21" points="2925,699 2914,688 2902,699 2914,711 "/>
    <polygon class="fil21" points="2955,717 2967,728 2978,717 2967,706 "/>
    <polygon class="fil21" points="3320,693 3332,682 3320,670 3309,682 "/>
    <polygon class="fil21" points="3055,675 3067,664 3065,662 3045,662 3044,664 "/>
    <polygon class="fil21" points="3285,693 3296,682 3285,670 3273,682 "/>
    <polygon class="fil21" points="2984,675 2996,664 2994,662 2975,662 2973,664 "/>
    <polygon class="fil21" points="3249,693 3261,682 3249,670 3238,682 "/>
    <polygon class="fil21" points="2920,717 2931,728 2943,717 2931,706 "/>
    <polygon class="fil21" points="3020,675 3031,664 3029,662 3010,662 3008,664 "/>
    <polygon class="fil21" points="2949,711 2960,699 2949,688 2938,699 "/>
    <polygon class="fil21" points="3126,675 3137,664 3135,662 3116,662 3114,664 "/>
    <polygon class="fil21" points="3179,693 3190,682 3179,670 3167,682 "/>
    <polygon class="fil21" points="3026,717 3037,728 3049,717 3037,706 "/>
    <polygon class="fil21" points="3090,675 3102,664 3100,662 3081,662 3079,664 "/>
    <polygon class="fil21" points="3214,693 3226,682 3214,670 3203,682 "/>
    <polygon class="fil21" points="2991,717 3002,728 3013,717 3002,706 "/>
    <polygon class="fil21" points="3497,693 3508,682 3497,670 3485,682 "/>
    <polygon class="fil21" points="3621,711 3632,699 3621,688 3609,699 "/>
    <path class="fil21" d="M2890 699l-11 -11 -3 3c-1,4 -2,8 -2,12 0,1 1,2 1,3l5 5 11 -11z"/>
    <polygon class="fil21" points="3568,693 3579,682 3567,670 3556,682 "/>
    <polygon class="fil21" points="3603,693 3614,682 3603,670 3591,682 "/>
    <polygon class="fil21" points="3603,728 3614,717 3603,706 3591,717 "/>
    <path class="fil21" d="M2881 725c3,4 6,7 9,9l0 0 -9 -9z"/>
    <polygon class="fil21" points="3355,693 3367,682 3355,670 3344,682 "/>
    <polygon class="fil21" points="3532,693 3544,682 3532,670 3521,682 "/>
    <polygon class="fil21" points="2949,675 2960,664 2959,662 2939,662 2938,664 "/>
    <polygon class="fil21" points="3426,693 3438,682 3426,670 3415,682 "/>
    <polygon class="fil21" points="3391,693 3402,682 3391,670 3379,682 "/>
    <polygon class="fil21" points="3061,717 3073,728 3084,717 3073,706 "/>
    <polygon class="fil21" points="3461,693 3473,682 3461,670 3450,682 "/>
    <path class="fil21" d="M2925 664l-2 -2 -10 0c-4,0 -7,1 -11,2l11 11 11 -11z"/>
    <polygon class="fil21" points="3267,675 3279,664 3277,662 3257,662 3256,664 "/>
    <polygon class="fil21" points="3002,693 3013,682 3002,670 2991,682 "/>
    <polygon class="fil21" points="3238,717 3249,728 3261,717 3249,706 "/>
    <polygon class="fil21" points="3161,711 3173,699 3161,688 3150,699 "/>
    <polygon class="fil21" points="3037,693 3049,682 3037,670 3026,682 "/>
    <polygon class="fil21" points="3203,717 3214,728 3226,717 3214,706 "/>
    <polygon class="fil21" points="3338,675 3349,664 3347,662 3328,662 3326,664 "/>
    <polygon class="fil21" points="3302,675 3314,664 3312,662 3293,662 3291,664 "/>
    <polygon class="fil21" points="3126,711 3137,699 3126,688 3114,699 "/>
    <polygon class="fil21" points="2967,693 2978,682 2967,670 2955,682 "/>
    <polygon class="fil21" points="2931,693 2943,682 2931,670 2920,682 "/>
    <polygon class="fil21" points="2907,682 2896,670 2885,682 2896,693 "/>
    <polygon class="fil21" points="3309,717 3320,728 3332,717 3320,706 "/>
    <polygon class="fil21" points="3273,717 3285,728 3296,717 3285,706 "/>
    <polygon class="fil21" points="3373,675 3385,664 3383,662 3364,662 3362,664 "/>
    <polygon class="fil21" points="3196,711 3208,699 3196,688 3185,699 "/>
    <polygon class="fil21" points="3143,693 3155,682 3143,670 3132,682 "/>
    <polygon class="fil21" points="3055,711 3066,699 3055,688 3044,699 "/>
    <polygon class="fil21" points="3232,675 3243,664 3241,662 3222,662 3220,664 "/>
    <polygon class="fil21" points="3196,675 3208,664 3206,662 3187,662 3185,664 "/>
    <polygon class="fil21" points="3108,693 3120,682 3108,670 3097,682 "/>
    <polygon class="fil21" points="3020,711 3031,699 3020,688 3008,699 "/>
    <polygon class="fil21" points="3073,693 3084,682 3073,670 3061,682 "/>
    <polygon class="fil21" points="3132,717 3143,728 3155,717 3143,706 "/>
    <polygon class="fil21" points="3090,711 3102,699 3090,688 3079,699 "/>
    <polygon class="fil21" points="2984,711 2996,699 2984,688 2973,699 "/>
    <polygon class="fil21" points="3161,675 3173,664 3171,662 3151,662 3150,664 "/>
    <polygon class="fil21" points="3167,717 3179,728 3190,717 3179,706 "/>
    <polygon class="fil21" points="3097,717 3108,728 3120,717 3108,706 "/>
    <path class="fil22" d="M2896 728l-11 -11 -6 6c1,1 1,2 2,3l9 9 6 -6z"/>
    <path class="fil22" d="M2873 706c0,3 1,6 2,8l3 -3 -5 -5z"/>
    <path class="fil22" d="M2897 740c4,2 9,3 13,3l-8 -8 -5 5z"/>
    <polygon class="fil22" points="2931,741 2934,743 2946,743 2938,735 "/>
    <polygon class="fil22" points="2920,717 2914,723 2925,735 2931,728 "/>
    <polygon class="fil22" points="2885,682 2878,688 2890,699 2896,693 "/>
    <polygon class="fil22" points="2902,699 2896,706 2907,717 2914,711 "/>
    <polygon class="fil22" points="2931,693 2920,682 2914,688 2925,699 "/>
    <polygon class="fil22" points="2955,717 2949,723 2960,735 2967,728 "/>
    <polygon class="fil22" points="2967,741 2969,743 2982,743 2973,735 "/>
    <polygon class="fil22" points="2931,706 2943,717 2949,711 2938,699 "/>
    <path class="fil22" d="M2907 682l6 -6 -11 -11c0,0 -1,0 -1,0l-6 6 11 11z"/>
    <polygon class="fil22" points="3002,741 3005,743 3017,743 3008,735 "/>
    <polygon class="fil22" points="2967,693 2955,682 2949,688 2960,699 "/>
    <polygon class="fil22" points="2991,717 2984,723 2996,735 3002,728 "/>
    <polygon class="fil22" points="2967,706 2978,717 2984,711 2973,699 "/>
    <polygon class="fil22" points="2949,675 2938,664 2931,670 2943,682 "/>
    <polygon class="fil22" points="2927,662 2923,662 2925,664 "/>
    <polygon class="fil22" points="3037,741 3040,743 3052,743 3044,735 "/>
    <polygon class="fil22" points="2984,675 2973,664 2967,670 2978,682 "/>
    <polygon class="fil22" points="3026,717 3020,723 3031,735 3037,728 "/>
    <polygon class="fil22" points="3002,693 2991,682 2984,688 2996,699 "/>
    <polygon class="fil22" points="3002,706 3013,717 3020,711 3008,699 "/>
    <polygon class="fil22" points="2962,662 2959,662 2960,664 "/>
    <polygon class="fil22" points="3020,675 3008,664 3002,670 3013,682 "/>
    <polygon class="fil22" points="3061,717 3055,723 3067,735 3073,728 "/>
    <polygon class="fil22" points="3037,706 3049,717 3055,711 3044,699 "/>
    <polygon class="fil22" points="3073,741 3075,743 3088,743 3079,735 "/>
    <polygon class="fil22" points="2998,662 2994,662 2996,664 "/>
    <polygon class="fil22" points="3037,693 3026,682 3020,688 3031,699 "/>
    <polygon class="fil22" points="3055,675 3044,664 3037,670 3049,682 "/>
    <polygon class="fil22" points="3097,717 3090,723 3102,735 3108,728 "/>
    <polygon class="fil22" points="3033,662 3029,662 3031,664 "/>
    <polygon class="fil22" points="3073,706 3084,717 3090,711 3079,699 "/>
    <polygon class="fil22" points="3073,693 3061,682 3055,688 3066,699 "/>
    <polygon class="fil22" points="3108,741 3111,743 3123,743 3114,735 "/>
    <polygon class="fil22" points="3108,706 3120,717 3126,711 3114,699 "/>
    <polygon class="fil22" points="3090,675 3079,664 3073,670 3084,682 "/>
    <polygon class="fil22" points="3132,717 3126,723 3137,735 3143,728 "/>
    <polygon class="fil22" points="3143,741 3146,743 3158,743 3150,735 "/>
    <polygon class="fil22" points="3068,662 3065,662 3067,664 "/>
    <polygon class="fil22" points="3108,693 3097,682 3090,688 3102,699 "/>
    <polygon class="fil22" points="3167,717 3161,723 3173,735 3179,728 "/>
    <polygon class="fil22" points="3143,706 3155,717 3161,711 3150,699 "/>
    <polygon class="fil22" points="3179,741 3181,743 3194,743 3185,735 "/>
    <polygon class="fil22" points="3104,662 3100,662 3102,664 "/>
    <polygon class="fil22" points="3126,675 3114,664 3108,670 3120,682 "/>
    <polygon class="fil22" points="3143,693 3132,682 3126,688 3137,699 "/>
    <polygon class="fil22" points="3179,693 3167,682 3161,688 3173,699 "/>
    <polygon class="fil22" points="3179,706 3190,717 3196,711 3185,699 "/>
    <polygon class="fil22" points="3139,662 3135,662 3137,664 "/>
    <polygon class="fil22" points="3161,675 3150,664 3143,670 3155,682 "/>
    <polygon class="fil22" points="3214,741 3217,743 3229,743 3220,735 "/>
    <polygon class="fil22" points="3203,717 3196,723 3208,735 3214,728 "/>
    <polygon class="fil22" points="3174,662 3171,662 3173,664 "/>
    <polygon class="fil22" points="3214,693 3203,682 3196,688 3208,699 "/>
    <polygon class="fil22" points="3214,706 3226,717 3232,711 3220,699 "/>
    <polygon class="fil22" points="3249,741 3252,743 3264,743 3256,735 "/>
    <polygon class="fil22" points="3196,675 3185,664 3179,670 3190,682 "/>
    <polygon class="fil22" points="3238,717 3232,723 3243,735 3249,728 "/>
    <polygon class="fil22" points="3285,741 3287,743 3300,743 3291,735 "/>
    <polygon class="fil22" points="3249,706 3261,717 3267,711 3256,699 "/>
    <polygon class="fil22" points="3210,662 3206,662 3208,664 "/>
    <polygon class="fil22" points="3249,693 3238,682 3232,688 3243,699 "/>
    <polygon class="fil22" points="3232,675 3220,664 3214,670 3226,682 "/>
    <polygon class="fil22" points="3273,717 3267,723 3279,735 3285,728 "/>
    <polygon class="fil22" points="3320,741 3323,743 3335,743 3326,735 "/>
    <polygon class="fil22" points="3245,662 3241,662 3243,664 "/>
    <polygon class="fil22" points="3285,693 3273,682 3267,688 3279,699 "/>
    <polygon class="fil22" points="3285,706 3296,717 3302,711 3291,699 "/>
    <polygon class="fil22" points="3309,717 3302,723 3314,735 3320,728 "/>
    <polygon class="fil22" points="3267,675 3256,664 3249,670 3261,682 "/>
    <polygon class="fil22" points="3355,741 3358,743 3370,743 3362,735 "/>
    <polygon class="fil22" points="3280,662 3277,662 3279,664 "/>
    <polygon class="fil22" points="3302,675 3291,664 3285,670 3296,682 "/>
    <polygon class="fil22" points="3320,706 3332,717 3338,711 3326,699 "/>
    <polygon class="fil22" points="3344,717 3338,723 3349,735 3355,728 "/>
    <polygon class="fil22" points="3320,693 3309,682 3302,688 3314,699 "/>
    <polygon class="fil22" points="3338,675 3326,664 3320,670 3332,682 "/>
    <polygon class="fil22" points="3379,717 3373,723 3385,735 3391,728 "/>
    <polygon class="fil22" points="3391,741 3393,743 3406,743 3397,735 "/>
    <polygon class="fil22" points="3316,662 3312,662 3314,664 "/>
    <polygon class="fil22" points="3355,706 3367,717 3373,711 3362,699 "/>
    <polygon class="fil22" points="3355,693 3344,682 3338,688 3349,699 "/>
    <polygon class="fil22" points="3373,675 3362,664 3355,670 3367,682 "/>
    <polygon class="fil22" points="3351,662 3347,662 3349,664 "/>
    <polygon class="fil22" points="3415,717 3408,723 3420,735 3426,728 "/>
    <polygon class="fil22" points="3391,693 3379,682 3373,688 3385,699 "/>
    <polygon class="fil22" points="3391,706 3402,717 3408,711 3397,699 "/>
    <polygon class="fil22" points="3426,741 3429,743 3441,743 3432,735 "/>
    <polygon class="fil22" points="3450,717 3444,723 3455,735 3461,728 "/>
    <polygon class="fil22" points="3426,693 3415,682 3408,688 3420,699 "/>
    <polygon class="fil22" points="3461,741 3464,743 3476,743 3468,735 "/>
    <polygon class="fil22" points="3408,675 3397,664 3391,670 3402,682 "/>
    <polygon class="fil22" points="3426,706 3438,717 3444,711 3432,699 "/>
    <polygon class="fil22" points="3386,662 3383,662 3385,664 "/>
    <polygon class="fil22" points="3444,675 3432,664 3426,670 3438,682 "/>
    <polygon class="fil22" points="3497,741 3499,743 3512,743 3503,735 "/>
    <polygon class="fil22" points="3422,662 3418,662 3420,664 "/>
    <polygon class="fil22" points="3461,693 3450,682 3444,688 3455,699 "/>
    <polygon class="fil22" points="3485,717 3479,723 3491,735 3497,728 "/>
    <polygon class="fil22" points="3461,706 3473,717 3479,711 3468,699 "/>
    <polygon class="fil22" points="3497,693 3485,682 3479,688 3491,699 "/>
    <polygon class="fil22" points="3521,717 3514,723 3526,735 3532,728 "/>
    <polygon class="fil22" points="3479,675 3468,664 3461,670 3473,682 "/>
    <polygon class="fil22" points="3532,741 3535,743 3547,743 3538,735 "/>
    <polygon class="fil22" points="3457,662 3453,662 3455,664 "/>
    <polygon class="fil22" points="3497,706 3508,717 3514,711 3503,699 "/>
    <polygon class="fil22" points="3514,675 3503,664 3497,670 3508,682 "/>
    <polygon class="fil22" points="3556,717 3550,723 3561,735 3567,728 "/>
    <polygon class="fil22" points="3532,706 3544,717 3550,711 3538,699 "/>
    <polygon class="fil22" points="3492,662 3489,662 3491,664 "/>
    <polygon class="fil22" points="3568,741 3570,743 3582,743 3574,735 "/>
    <polygon class="fil22" points="3532,693 3521,682 3514,688 3526,699 "/>
    <polygon class="fil22" points="3528,662 3524,662 3526,664 "/>
    <polygon class="fil22" points="3550,675 3538,664 3532,670 3544,682 "/>
    <polygon class="fil22" points="3568,693 3556,682 3550,688 3561,699 "/>
    <polygon class="fil22" points="3591,717 3585,723 3597,735 3603,728 "/>
    <path class="fil22" d="M3603 741l1 1c3,-1 7,-1 10,-2l-5 -5 -6 6z"/>
    <polygon class="fil22" points="3568,706 3579,717 3585,711 3574,699 "/>
    <polygon class="fil22" points="3563,662 3559,662 3561,664 "/>
    <path class="fil22" d="M3621 723l7 7c2,-2 4,-5 5,-7l-6 -6 -6 6z"/>
    <polygon class="fil22" points="3585,675 3574,664 3567,670 3579,682 "/>
    <polygon class="fil22" points="3603,693 3591,682 3585,688 3597,699 "/>
    <polygon class="fil22" points="3603,706 3614,717 3621,711 3609,699 "/>
    <path class="fil22" d="M3621 688l11 11 5 -5c0,-1 0,-3 -1,-4l-9 -9 -6 6z"/>
    <path class="fil22" d="M3614 682l6 -6 -11 -11c0,0 -1,0 -1,0l-6 6 11 11z"/>
    <path class="fil22" d="M3598 662c0,0 0,0 -1,0l-3 0 2 2 2 -2z"/>
    <path class="fil23" d="M2896 670l-2 -2c-5,3 -9,6 -12,11l3 3 11 -11z"/>
    <path class="fil23" d="M2877 686c-1,2 -1,3 -1,5l3 -3 -2 -2z"/>
    <path class="fil23" d="M2885 682l-3 -3c-2,2 -4,5 -5,7l2 2 6 -6z"/>
    <path class="fil23" d="M2902 665c-3,1 -5,2 -8,3l2 2 6 -6z"/>
    <polygon class="fil23" points="2939,662 2936,662 2938,664 "/>
    <polygon class="fil23" points="2902,699 2914,688 2907,682 2896,693 "/>
    <polygon class="fil23" points="2931,670 2925,664 2914,675 2920,682 "/>
    <polygon class="fil23" points="2890,699 2878,711 2885,717 2896,706 "/>
    <path class="fil23" d="M2878 711l-3 3c1,3 2,6 4,9l6 -6 -6 -6z"/>
    <polygon class="fil23" points="2902,699 2896,693 2890,699 2896,706 "/>
    <polygon class="fil23" points="2920,682 2914,675 2907,682 2914,688 "/>
    <polygon class="fil23" points="2931,670 2938,664 2936,662 2927,662 2925,664 "/>
    <polygon class="fil23" points="2949,688 2943,682 2931,693 2938,699 "/>
    <polygon class="fil23" points="2925,699 2914,711 2920,717 2931,706 "/>
    <polygon class="fil23" points="2975,662 2971,662 2973,664 "/>
    <polygon class="fil23" points="2967,670 2960,664 2949,675 2955,682 "/>
    <polygon class="fil23" points="2914,723 2907,717 2896,728 2902,735 "/>
    <path class="fil23" d="M2890 735l0 0c0,0 1,1 1,1l-1 -1z"/>
    <path class="fil23" d="M2896 728l-6 6 1 1c2,1 4,3 6,4l5 -5 -6 -6z"/>
    <polygon class="fil23" points="2914,711 2907,717 2914,723 2920,717 "/>
    <polygon class="fil23" points="2931,706 2938,699 2931,693 2925,699 "/>
    <polygon class="fil23" points="2949,688 2955,682 2949,675 2943,682 "/>
    <polygon class="fil23" points="2967,670 2973,664 2971,662 2962,662 2960,664 "/>
    <polygon class="fil23" points="2984,688 2978,682 2967,693 2973,699 "/>
    <polygon class="fil23" points="3002,670 2996,664 2984,675 2991,682 "/>
    <polygon class="fil23" points="2931,728 2938,735 2949,723 2943,717 "/>
    <polygon class="fil23" points="2925,735 2916,743 2929,743 2931,741 "/>
    <polygon class="fil23" points="3010,662 3006,662 3008,664 "/>
    <polygon class="fil23" points="2960,699 2949,711 2955,717 2967,706 "/>
    <polygon class="fil23" points="2925,735 2931,741 2938,735 2931,728 "/>
    <polygon class="fil23" points="2949,711 2943,717 2949,723 2955,717 "/>
    <polygon class="fil23" points="2967,706 2973,699 2967,693 2960,699 "/>
    <polygon class="fil23" points="2984,688 2991,682 2984,675 2978,682 "/>
    <polygon class="fil23" points="3002,670 3008,664 3006,662 2998,662 2996,664 "/>
    <polygon class="fil23" points="3045,662 3042,662 3044,664 "/>
    <polygon class="fil23" points="2967,728 2973,735 2984,723 2978,717 "/>
    <polygon class="fil23" points="2996,699 2984,711 2991,717 3002,706 "/>
    <polygon class="fil23" points="2960,735 2952,743 2964,743 2967,741 "/>
    <polygon class="fil23" points="3037,670 3031,664 3020,675 3026,682 "/>
    <polygon class="fil23" points="3020,688 3013,682 3002,693 3008,699 "/>
    <polygon class="fil23" points="2960,735 2967,741 2973,735 2967,728 "/>
    <polygon class="fil23" points="2984,711 2978,717 2984,723 2991,717 "/>
    <polygon class="fil23" points="3002,706 3008,699 3002,693 2996,699 "/>
    <polygon class="fil23" points="3020,688 3026,682 3020,675 3013,682 "/>
    <polygon class="fil23" points="3037,670 3044,664 3042,662 3033,662 3031,664 "/>
    <polygon class="fil23" points="3081,662 3077,662 3079,664 "/>
    <polygon class="fil23" points="3031,699 3020,711 3026,717 3037,706 "/>
    <polygon class="fil23" points="3002,728 3008,735 3020,723 3013,717 "/>
    <polygon class="fil23" points="2996,735 2987,743 3000,743 3002,741 "/>
    <polygon class="fil23" points="3055,688 3049,682 3037,693 3044,699 "/>
    <polygon class="fil23" points="3073,670 3067,664 3055,675 3061,682 "/>
    <polygon class="fil23" points="2996,735 3002,741 3008,735 3002,728 "/>
    <polygon class="fil23" points="3020,711 3013,717 3020,723 3026,717 "/>
    <polygon class="fil23" points="3037,706 3044,699 3037,693 3031,699 "/>
    <polygon class="fil23" points="3055,688 3061,682 3055,675 3049,682 "/>
    <polygon class="fil23" points="3073,670 3079,664 3077,662 3068,662 3067,664 "/>
    <polygon class="fil23" points="3031,735 3022,743 3035,743 3037,741 "/>
    <polygon class="fil23" points="3037,728 3044,735 3055,723 3049,717 "/>
    <polygon class="fil23" points="3116,662 3113,662 3114,664 "/>
    <polygon class="fil23" points="3090,688 3084,682 3073,693 3079,699 "/>
    <polygon class="fil23" points="3066,699 3055,711 3061,717 3073,706 "/>
    <polygon class="fil23" points="3108,670 3102,664 3090,675 3097,682 "/>
    <polygon class="fil23" points="3031,735 3037,741 3044,735 3037,728 "/>
    <polygon class="fil23" points="3055,711 3049,717 3055,723 3061,717 "/>
    <polygon class="fil23" points="3073,706 3079,699 3073,693 3066,699 "/>
    <polygon class="fil23" points="3090,688 3097,682 3090,675 3084,682 "/>
    <polygon class="fil23" points="3108,670 3114,664 3113,662 3104,662 3102,664 "/>
    <polygon class="fil23" points="3151,662 3148,662 3150,664 "/>
    <polygon class="fil23" points="3126,688 3120,682 3108,693 3114,699 "/>
    <polygon class="fil23" points="3073,728 3079,735 3090,723 3084,717 "/>
    <polygon class="fil23" points="3143,670 3137,664 3126,675 3132,682 "/>
    <polygon class="fil23" points="3067,735 3058,743 3070,743 3073,741 "/>
    <polygon class="fil23" points="3102,699 3090,711 3097,717 3108,706 "/>
    <polygon class="fil23" points="3067,735 3073,741 3079,735 3073,728 "/>
    <polygon class="fil23" points="3090,711 3084,717 3090,723 3097,717 "/>
    <polygon class="fil23" points="3108,706 3114,699 3108,693 3102,699 "/>
    <polygon class="fil23" points="3126,688 3132,682 3126,675 3120,682 "/>
    <polygon class="fil23" points="3143,670 3150,664 3148,662 3139,662 3137,664 "/>
    <polygon class="fil23" points="3187,662 3183,662 3185,664 "/>
    <polygon class="fil23" points="3137,699 3126,711 3132,717 3143,706 "/>
    <polygon class="fil23" points="3179,670 3173,664 3161,675 3167,682 "/>
    <polygon class="fil23" points="3161,688 3155,682 3143,693 3150,699 "/>
    <polygon class="fil23" points="3108,728 3114,735 3126,723 3120,717 "/>
    <polygon class="fil23" points="3102,735 3093,743 3106,743 3108,741 "/>
    <polygon class="fil23" points="3102,735 3108,741 3114,735 3108,728 "/>
    <polygon class="fil23" points="3126,711 3120,717 3126,723 3132,717 "/>
    <polygon class="fil23" points="3143,706 3150,699 3143,693 3137,699 "/>
    <polygon class="fil23" points="3161,688 3167,682 3161,675 3155,682 "/>
    <polygon class="fil23" points="3179,670 3185,664 3183,662 3174,662 3173,664 "/>
    <polygon class="fil23" points="3137,735 3128,743 3141,743 3143,741 "/>
    <polygon class="fil23" points="3143,728 3150,735 3161,723 3155,717 "/>
    <polygon class="fil23" points="3196,688 3190,682 3179,693 3185,699 "/>
    <polygon class="fil23" points="3214,670 3208,664 3196,675 3203,682 "/>
    <polygon class="fil23" points="3173,699 3161,711 3167,717 3179,706 "/>
    <polygon class="fil23" points="3222,662 3219,662 3220,664 "/>
    <polygon class="fil23" points="3137,735 3143,741 3150,735 3143,728 "/>
    <polygon class="fil23" points="3161,711 3155,717 3161,723 3167,717 "/>
    <polygon class="fil23" points="3179,706 3185,699 3179,693 3173,699 "/>
    <polygon class="fil23" points="3196,688 3203,682 3196,675 3190,682 "/>
    <polygon class="fil23" points="3214,670 3220,664 3219,662 3210,662 3208,664 "/>
    <polygon class="fil23" points="3173,735 3164,743 3176,743 3179,741 "/>
    <polygon class="fil23" points="3179,728 3185,735 3196,723 3190,717 "/>
    <polygon class="fil23" points="3208,699 3196,711 3203,717 3214,706 "/>
    <polygon class="fil23" points="3232,688 3226,682 3214,693 3220,699 "/>
    <polygon class="fil23" points="3249,670 3243,664 3232,675 3238,682 "/>
    <polygon class="fil23" points="3257,662 3254,662 3256,664 "/>
    <polygon class="fil23" points="3173,735 3179,741 3185,735 3179,728 "/>
    <polygon class="fil23" points="3196,711 3190,717 3196,723 3203,717 "/>
    <polygon class="fil23" points="3214,706 3220,699 3214,693 3208,699 "/>
    <polygon class="fil23" points="3232,688 3238,682 3232,675 3226,682 "/>
    <polygon class="fil23" points="3249,670 3256,664 3254,662 3245,662 3243,664 "/>
    <polygon class="fil23" points="3208,735 3199,743 3212,743 3214,741 "/>
    <polygon class="fil23" points="3293,662 3289,662 3291,664 "/>
    <polygon class="fil23" points="3243,699 3232,711 3238,717 3249,706 "/>
    <polygon class="fil23" points="3267,688 3261,682 3249,693 3256,699 "/>
    <polygon class="fil23" points="3214,728 3220,735 3232,723 3226,717 "/>
    <polygon class="fil23" points="3285,670 3279,664 3267,675 3273,682 "/>
    <polygon class="fil23" points="3208,735 3214,741 3220,735 3214,728 "/>
    <polygon class="fil23" points="3232,711 3226,717 3232,723 3238,717 "/>
    <polygon class="fil23" points="3249,706 3256,699 3249,693 3243,699 "/>
    <polygon class="fil23" points="3267,688 3273,682 3267,675 3261,682 "/>
    <polygon class="fil23" points="3285,670 3291,664 3289,662 3280,662 3279,664 "/>
    <polygon class="fil23" points="3249,728 3256,735 3267,723 3261,717 "/>
    <polygon class="fil23" points="3279,699 3267,711 3273,717 3285,706 "/>
    <polygon class="fil23" points="3302,688 3296,682 3285,693 3291,699 "/>
    <polygon class="fil23" points="3243,735 3234,743 3247,743 3249,741 "/>
    <polygon class="fil23" points="3328,662 3325,662 3326,664 "/>
    <polygon class="fil23" points="3320,670 3314,664 3302,675 3309,682 "/>
    <polygon class="fil23" points="3243,735 3249,741 3256,735 3249,728 "/>
    <polygon class="fil23" points="3267,711 3261,717 3267,723 3273,717 "/>
    <polygon class="fil23" points="3285,706 3291,699 3285,693 3279,699 "/>
    <polygon class="fil23" points="3302,688 3309,682 3302,675 3296,682 "/>
    <polygon class="fil23" points="3320,670 3326,664 3325,662 3316,662 3314,664 "/>
    <polygon class="fil23" points="3314,699 3302,711 3309,717 3320,706 "/>
    <polygon class="fil23" points="3279,735 3270,743 3282,743 3285,741 "/>
    <polygon class="fil23" points="3285,728 3291,735 3302,723 3296,717 "/>
    <polygon class="fil23" points="3355,670 3349,664 3338,675 3344,682 "/>
    <polygon class="fil23" points="3338,688 3332,682 3320,693 3326,699 "/>
    <polygon class="fil23" points="3364,662 3360,662 3362,664 "/>
    <polygon class="fil23" points="3279,735 3285,741 3291,735 3285,728 "/>
    <polygon class="fil23" points="3302,711 3296,717 3302,723 3309,717 "/>
    <polygon class="fil23" points="3320,706 3326,699 3320,693 3314,699 "/>
    <polygon class="fil23" points="3338,688 3344,682 3338,675 3332,682 "/>
    <polygon class="fil23" points="3355,670 3362,664 3360,662 3351,662 3349,664 "/>
    <polygon class="fil23" points="3373,688 3367,682 3355,693 3362,699 "/>
    <polygon class="fil23" points="3399,662 3395,662 3397,664 "/>
    <polygon class="fil23" points="3314,735 3305,743 3318,743 3320,741 "/>
    <polygon class="fil23" points="3391,670 3385,664 3373,675 3379,682 "/>
    <polygon class="fil23" points="3320,728 3326,735 3338,723 3332,717 "/>
    <polygon class="fil23" points="3349,699 3338,711 3344,717 3355,706 "/>
    <polygon class="fil23" points="3314,735 3320,741 3326,735 3320,728 "/>
    <polygon class="fil23" points="3338,711 3332,717 3338,723 3344,717 "/>
    <polygon class="fil23" points="3355,706 3362,699 3355,693 3349,699 "/>
    <polygon class="fil23" points="3373,688 3379,682 3373,675 3367,682 "/>
    <polygon class="fil23" points="3391,670 3397,664 3395,662 3386,662 3385,664 "/>
    <polygon class="fil23" points="3349,735 3340,743 3353,743 3355,741 "/>
    <polygon class="fil23" points="3408,688 3402,682 3391,693 3397,699 "/>
    <polygon class="fil23" points="3385,699 3373,711 3379,717 3391,706 "/>
    <polygon class="fil23" points="3434,662 3431,662 3432,664 "/>
    <polygon class="fil23" points="3426,670 3420,664 3408,675 3415,682 "/>
    <polygon class="fil23" points="3355,728 3362,735 3373,723 3367,717 "/>
    <polygon class="fil23" points="3349,735 3355,741 3362,735 3355,728 "/>
    <polygon class="fil23" points="3373,711 3367,717 3373,723 3379,717 "/>
    <polygon class="fil23" points="3391,706 3397,699 3391,693 3385,699 "/>
    <polygon class="fil23" points="3408,688 3415,682 3408,675 3402,682 "/>
    <polygon class="fil23" points="3426,670 3432,664 3431,662 3422,662 3420,664 "/>
    <polygon class="fil23" points="3391,728 3397,735 3408,723 3402,717 "/>
    <polygon class="fil23" points="3470,662 3466,662 3468,664 "/>
    <polygon class="fil23" points="3444,688 3438,682 3426,693 3432,699 "/>
    <polygon class="fil23" points="3385,735 3376,743 3388,743 3391,741 "/>
    <polygon class="fil23" points="3461,670 3455,664 3444,675 3450,682 "/>
    <polygon class="fil23" points="3420,699 3408,711 3415,717 3426,706 "/>
    <polygon class="fil23" points="3385,735 3391,741 3397,735 3391,728 "/>
    <polygon class="fil23" points="3408,711 3402,717 3408,723 3415,717 "/>
    <polygon class="fil23" points="3426,706 3432,699 3426,693 3420,699 "/>
    <polygon class="fil23" points="3444,688 3450,682 3444,675 3438,682 "/>
    <polygon class="fil23" points="3461,670 3468,664 3466,662 3457,662 3455,664 "/>
    <polygon class="fil23" points="3420,735 3411,743 3424,743 3426,741 "/>
    <polygon class="fil23" points="3505,662 3501,662 3503,664 "/>
    <polygon class="fil23" points="3426,728 3432,735 3444,723 3438,717 "/>
    <polygon class="fil23" points="3455,699 3444,711 3450,717 3461,706 "/>
    <polygon class="fil23" points="3479,688 3473,682 3461,693 3468,699 "/>
    <polygon class="fil23" points="3497,670 3491,664 3479,675 3485,682 "/>
    <polygon class="fil23" points="3420,735 3426,741 3432,735 3426,728 "/>
    <polygon class="fil23" points="3444,711 3438,717 3444,723 3450,717 "/>
    <polygon class="fil23" points="3461,706 3468,699 3461,693 3455,699 "/>
    <polygon class="fil23" points="3479,688 3485,682 3479,675 3473,682 "/>
    <polygon class="fil23" points="3497,670 3503,664 3501,662 3492,662 3491,664 "/>
    <polygon class="fil23" points="3532,670 3526,664 3514,675 3521,682 "/>
    <polygon class="fil23" points="3455,735 3446,743 3459,743 3461,741 "/>
    <polygon class="fil23" points="3540,662 3537,662 3538,664 "/>
    <polygon class="fil23" points="3514,688 3508,682 3497,693 3503,699 "/>
    <polygon class="fil23" points="3491,699 3479,711 3485,717 3497,706 "/>
    <polygon class="fil23" points="3461,728 3468,735 3479,723 3473,717 "/>
    <polygon class="fil23" points="3455,735 3461,741 3468,735 3461,728 "/>
    <polygon class="fil23" points="3479,711 3473,717 3479,723 3485,717 "/>
    <polygon class="fil23" points="3497,706 3503,699 3497,693 3491,699 "/>
    <polygon class="fil23" points="3514,688 3521,682 3514,675 3508,682 "/>
    <polygon class="fil23" points="3532,670 3538,664 3537,662 3528,662 3526,664 "/>
    <polygon class="fil23" points="3567,670 3561,664 3550,675 3556,682 "/>
    <polygon class="fil23" points="3550,688 3544,682 3532,693 3538,699 "/>
    <polygon class="fil23" points="3497,728 3503,735 3514,723 3508,717 "/>
    <polygon class="fil23" points="3491,735 3482,743 3494,743 3497,741 "/>
    <polygon class="fil23" points="3576,662 3572,662 3574,664 "/>
    <polygon class="fil23" points="3526,699 3514,711 3521,717 3532,706 "/>
    <polygon class="fil23" points="3491,735 3497,741 3503,735 3497,728 "/>
    <polygon class="fil23" points="3514,711 3508,717 3514,723 3521,717 "/>
    <polygon class="fil23" points="3532,706 3538,699 3532,693 3526,699 "/>
    <polygon class="fil23" points="3550,688 3556,682 3550,675 3544,682 "/>
    <polygon class="fil23" points="3567,670 3574,664 3572,662 3563,662 3561,664 "/>
    <polygon class="fil23" points="3526,735 3517,743 3530,743 3532,741 "/>
    <polygon class="fil23" points="3532,728 3538,735 3550,723 3544,717 "/>
    <polygon class="fil23" points="3603,670 3597,664 3585,675 3591,682 "/>
    <polygon class="fil23" points="3561,699 3550,711 3556,717 3568,706 "/>
    <polygon class="fil23" points="3585,688 3579,682 3568,693 3574,699 "/>
    <polygon class="fil23" points="3526,735 3532,741 3538,735 3532,728 "/>
    <polygon class="fil23" points="3550,711 3544,717 3550,723 3556,717 "/>
    <polygon class="fil23" points="3568,706 3574,699 3568,693 3561,699 "/>
    <polygon class="fil23" points="3585,688 3591,682 3585,675 3579,682 "/>
    <path class="fil23" d="M3603 670l6 -6c-3,-1 -7,-2 -10,-2l-2 2 6 6z"/>
    <path class="fil23" d="M3627 682l3 -3c-2,-2 -4,-5 -6,-7l-3 3 6 6z"/>
    <polygon class="fil23" points="3609,699 3621,688 3614,682 3603,693 "/>
    <polygon class="fil23" points="3585,711 3591,717 3603,706 3597,699 "/>
    <polygon class="fil23" points="3567,728 3574,735 3585,723 3579,717 "/>
    <polygon class="fil23" points="3561,735 3552,743 3565,743 3568,741 "/>
    <polygon class="fil23" points="3561,735 3568,741 3574,735 3567,728 "/>
    <polygon class="fil23" points="3585,711 3579,717 3585,723 3591,717 "/>
    <polygon class="fil23" points="3603,706 3609,699 3603,693 3597,699 "/>
    <polygon class="fil23" points="3627,682 3621,675 3614,682 3621,688 "/>
    <path class="fil23" d="M3621 711l6 6 11 -11c0,0 0,-1 0,-1l-6 -6 -11 11z"/>
    <polygon class="fil23" points="3603,728 3609,735 3621,723 3614,717 "/>
    <path class="fil23" d="M3597 735l-9 9 10 0c1,0 2,-1 4,-1l2 -2 -6 -6z"/>
    <polygon class="fil23" points="3597,735 3603,741 3609,735 3603,728 "/>
    <polygon class="fil23" points="3621,723 3627,717 3621,711 3614,717 "/>
    <path class="fil23" d="M3638 705c0,-1 0,-1 0,-2 0,-3 -1,-5 -2,-8l-5 5 6 6z"/>
   </g>
   <g>
    <g>
     <path class="fil21" d="M3984 658c5,12 8,24 8,38 0,51 -42,93 -93,93 -3,0 -5,-1 -7,-1 7,2 14,3 22,3 47,0 85,-38 85,-85 0,-18 -5,-34 -15,-48z"/>
    </g>
    <path class="fil24" style="mask:url(#id12)" d="M3964 700c0,30 -25,55 -55,55 -30,0 -55,-25 -55,-55 0,-30 25,-55 55,-55 30,0 55,25 55,55z"/>
    <g>
     <path class="fil25" style="mask:url(#id14)" d="M3932 661c-29,2 -43,29 -15,71 30,-3 43,-31 15,-71z"/>
     <path class="fil26" style="mask:url(#id16)" d="M3894 659c-30,9 -40,57 -6,77 -6,-27 20,-55 6,-77z"/>
    </g>
   </g>
   <path class="fil27" style="mask:url(#id18)" d="M6225 11430l99 0 0 -75 -99 0 0 75zm0 -10023l0 0 0 75 99 0 0 -75 -99 0z"/>
   <path class="fil28" style="mask:url(#id20)" d="M278 11355l-99 0 0 75 99 0 0 -75zm-99 -9948l0 0 0 75 99 0 0 -75 -99 0z"/>
   <g>
    <path class="fil29" d="M6358 3086c-13,12 -13,51 -13,123 0,72 0,1206 0,1230 0,24 -1,50 11,54 5,-4 6,-18 6,-33 0,-15 0,-1306 0,-1324 0,-18 0,-46 -4,-50z"/>
    <path class="fil30" d="M6346 4439c0,-24 0,-1158 0,-1230 0,-72 0,-110 13,-123l-36 -23c-18,28 -17,86 -17,108 0,22 0,1179 0,1235 0,56 3,93 14,101l38 -15c-12,-3 -11,-30 -11,-54z"/>
   </g>
   <g>
    <path class="fil31" d="M145 2783c13,12 13,51 13,123 0,72 0,681 0,704 0,24 1,50 -11,54 -5,-4 -6,-18 -6,-33 0,-15 0,-780 0,-799 0,-18 0,-46 4,-50z"/>
    <path class="fil32" d="M157 3610c0,-24 0,-633 0,-704 0,-72 0,-110 -13,-123l36 -23c18,28 17,86 17,108 0,22 0,653 0,709 0,56 -3,93 -14,101l-38 -15c12,-3 11,-30 11,-54z"/>
   </g>
   <g>
    <path class="fil33" d="M145 3917c13,12 13,51 13,123 0,72 0,681 0,704 0,24 1,50 -11,54 -5,-4 -6,-18 -6,-33 0,-15 0,-780 0,-799 0,-18 0,-46 4,-50z"/>
    <path class="fil34" d="M157 4745c0,-24 0,-633 0,-704 0,-72 0,-110 -13,-123l36 -23c18,28 17,86 17,108 0,22 0,653 0,709 0,56 -3,93 -14,101l-38 -15c12,-3 11,-30 11,-54z"/>
   </g>
   <g>
    <polygon class="fil35" points="137,1898 137,2343 148,2354 148,1887 "/>
    <path class="fil36" d="M180 1887l-31 0 0 467 1 1 33 0c6,-6 6,-14 6,-26 0,-12 0,-403 0,-417 0,-14 -1,-22 -9,-26z"/>
   </g>
  </g>
  <path class="fil9" d="M3445 12598l-216 0c0,0 -13,0 -32,0l-216 0c-32,0 -72,2 -134,36l732 0c-62,-34 -102,-36 -134,-36z"/>
  <path class="fil37" d="M3431 12605l-202 0c0,0 -12,0 -30,0l-202 0c-30,0 -68,2 -126,29l687 0c-58,-27 -96,-29 -126,-29z"/>
  <path class="fil38" d="M945 964l18 -1c2,8 4,14 9,18 4,4 10,6 16,6 6,0 11,-1 15,-4 4,-3 8,-6 11,-11 3,-4 5,-10 7,-18 2,-7 3,-15 3,-23 0,-1 0,-2 0,-4 -4,6 -9,11 -15,14 -6,4 -13,6 -21,6 -13,0 -23,-5 -32,-14 -9,-9 -13,-21 -13,-36 0,-15 5,-28 14,-37 9,-9 20,-14 34,-14 10,0 19,3 27,8 8,5 14,13 19,23 4,10 6,24 6,43 0,19 -2,35 -6,46 -4,12 -10,20 -19,26 -8,6 -18,9 -29,9 -12,0 -22,-3 -29,-10 -7,-7 -12,-16 -14,-28zm76 -67c0,-11 -3,-19 -8,-25 -6,-6 -12,-9 -20,-9 -8,0 -16,3 -22,10 -6,7 -9,15 -9,26 0,10 3,17 9,23 6,6 13,9 22,9 9,0 16,-3 21,-9 6,-6 8,-14 8,-25z"/>
  <path id="1" class="fil38" d="M1090 910l0 -21 21 0 0 21 -21 0zm0 89l0 -21 21 0 0 21 -21 0z"/>
  <path id="2" class="fil38" d="M1219 999l0 -36 -66 0 0 -17 69 -98 15 0 0 98 21 0 0 17 -21 0 0 36 -19 0zm0 -53l0 -68 -48 68 48 0z"/>
  <path id="3" class="fil38" d="M1368 999l-19 0 0 -119c-4,4 -10,9 -18,13 -7,4 -14,7 -20,10l0 -18c10,-5 20,-11 27,-18 8,-7 13,-14 17,-20l12 0 0 152z"/>
  <rect class="fil39" x="4809" y="922" width="45" height="84"/>
  <rect class="fil39" x="4875" y="904" width="45" height="102"/>
  <rect class="fil39" x="4942" y="869" width="45" height="137"/>
  <rect class="fil39" x="5009" y="835" width="46" height="171"/>
  <rect class="fil40" x="5456" y="875" width="249" height="101"/>
  <path class="fil41" d="M5739 842l-316 0 0 168 316 0 0 -168zm-33 32l-249 0 0 101 249 0 0 -101z"/>
  <rect class="fil42" x="5740" y="893" width="32" height="50"/>
  <ellipse class="fil43" cx="5235" cy="984" rx="27" ry="21"/>
  <path class="fil43" d="M5294 900c-19,-26 -95,-31 -114,-2 -26,38 -64,24 -47,-9 32,-62 169,-72 207,-1 18,34 -19,50 -46,13z"/>
  <path class="fil43" d="M5274 945c-13,-17 -61,-20 -74,-1 -17,25 -42,16 -30,-6 21,-40 110,-47 134,-1 12,22 -12,32 -30,8z"/>
 </g>
</svg>
