<?xml version="1.0" encoding="UTF-8"?>
<!DOCTYPE svg PUBLIC "-//W3C//DTD SVG 1.1//EN" "http://www.w3.org/Graphics/SVG/1.1/DTD/svg11.dtd">
<!-- Creator: CorelDRAW X6 -->
<svg xmlns="http://www.w3.org/2000/svg" xml:space="preserve" width="5.15276in" height="3.96693in" version="1.1" style="shape-rendering:geometricPrecision; text-rendering:geometricPrecision; image-rendering:optimizeQuality; fill-rule:evenodd; clip-rule:evenodd"
viewBox="0 0 5153 3967"
 xmlns:xlink="http://www.w3.org/1999/xlink">
 <defs>
  <style type="text/css">
   <![CDATA[
    .str1 {stroke:#2B2B2B;stroke-width:83.3346}
    .str0 {stroke:#2B2A29;stroke-width:133.335}
    .str3 {stroke:#2B2A29;stroke-width:166.665}
    .str2 {stroke:#2B2B2B;stroke-width:166.665}
    .fil0 {fill:none}
   ]]>
  </style>
   <clipPath id="id0">
    <rect x="9615" y="3951" width="7111" height="7111"/>
   </clipPath>
 </defs>
 <g id="Layer_x0020_1">
  <metadata id="CorelCorpID_0Corel-Layer"/>
  <g id="_667329136">
   <rect class="fil0 str0" x="10463" y="3325" width="885" height="885" rx="201" ry="201"/>
   <rect class="fil0 str0" x="11348" y="5567" width="885" height="885" rx="201" ry="201"/>
   <rect class="fil0 str0" x="9569" y="5567" width="885" height="885" rx="201" ry="201"/>
   <path class="fil0 str0" d="M11807 5567l0 -433c0,-143 -117,-260 -260,-260l-1293 0c-143,0 -260,117 -260,260l0 433"/>
   <line class="fil0 str0" x1="10906" y1="4873" x2="10906" y2= "4210" />
  </g>
  <g id="_667325296">
   <circle class="fil0 str1" cx="13613" cy="2074" r="615"/>
   <circle class="fil0 str1" cx="14826" cy="1306" r="615"/>
   <circle class="fil0 str1" cx="12385" cy="1306" r="615"/>
   <path class="fil0 str1" d="M13325 2792c0,0 292,150 557,-7 0,0 737,5 857,548l0 668c0,0 41,46 -341,170l0 -437 -38 0 -68 464c0,0 -944,182 -1366,-12l-62 -465 -67 0 0 444c0,0 -309,-131 -366,-198l0 -442c0,0 -48,-707 894,-733z"/>
   <path class="fil0 str1" d="M14418 2027l124 0c0,0 332,150 592,0 0,0 792,-2 879,647l0 548c0,0 -189,143 -378,180l0 -428 -45 12 -61 435c0,0 -230,83 -585,92 0,0 14,-774 -769,-880 0,0 258,-235 242,-606z"/>
   <path class="fil0 str1" d="M12818 2030l-124 0c0,0 -332,150 -592,0 -440,-1 -879,254 -879,736l0 459c0,0 189,143 378,180l0 -428 45 12 61 435c0,0 230,83 585,92 0,0 -14,-774 769,-880 0,0 -258,-235 -242,-606z"/>
  </g>
  <g style="clip-path:url(#id0)">
   <image id="Text-512.png" transform="matrix(1 0 0 1 7039.03 9078.37)" x="2576" y="-5128" width="7111" height="7111" xlink:href="keys_Images\keys_ImgID1.png"/>
  </g>
  <g id="_667318896">
   <circle class="fil0 str2" cx="2263" cy="1707" r="1255"/>
   <line class="fil0 str3" x1="4145" y1="3515" x2="3090" y2= "2650" />
   <line class="fil0 str2" x1="1651" y1="1370" x2="2848" y2= "1370" />
   <line class="fil0 str2" x1="1651" y1="1746" x2="2848" y2= "1746" />
   <line class="fil0 str2" x1="1651" y1="2132" x2="2249" y2= "2132" />
  </g>
 </g>
</svg>
