<?xml version="1.0" encoding="UTF-8" standalone="no"?>
<!-- Created with Inkscape (http://www.inkscape.org/) -->

<svg
   xmlns:dc="http://purl.org/dc/elements/1.1/"
   xmlns:cc="http://creativecommons.org/ns#"
   xmlns:rdf="http://www.w3.org/1999/02/22-rdf-syntax-ns#"
   xmlns:svg="http://www.w3.org/2000/svg"
   xmlns="http://www.w3.org/2000/svg"
   xmlns:sodipodi="http://sodipodi.sourceforge.net/DTD/sodipodi-0.dtd"
   xmlns:inkscape="http://www.inkscape.org/namespaces/inkscape"
   width="139mm"
   height="130mm"
   viewBox="0 0 139 130"
   version="1.1"
   id="svg1437"
   inkscape:version="0.92.4 (5da689c313, 2019-01-14)"
   sodipodi:docname="mail2.svg">
  <defs
     id="defs1431" />
  <sodipodi:namedview
     id="base"
     pagecolor="#ffffff"
     bordercolor="#666666"
     borderopacity="1.0"
     inkscape:pageopacity="0.0"
     inkscape:pageshadow="2"
     inkscape:zoom="0.35"
     inkscape:cx="400"
     inkscape:cy="560"
     inkscape:document-units="mm"
     inkscape:current-layer="layer1"
     showgrid="false"
     inkscape:window-width="1366"
     inkscape:window-height="705"
     inkscape:window-x="-8"
     inkscape:window-y="-8"
     inkscape:window-maximized="1" />
  <metadata
     id="metadata1434">
    <rdf:RDF>
      <cc:Work
         rdf:about="">
        <dc:format>image/svg+xml</dc:format>
        <dc:type
           rdf:resource="http://purl.org/dc/dcmitype/StillImage" />
        <dc:title></dc:title>
      </cc:Work>
    </rdf:RDF>
  </metadata>
  <g
     inkscape:label="Layer 1"
     inkscape:groupmode="layer"
     id="layer1"
     transform="translate(0,-167)">
    <g
       id="g1645"
       transform="matrix(0.26458333,0,0,0.26458333,8.8948159,169.67237)"
       style="fill:#333333">
      <g
         id="g1577"
         style="fill:#333333">
	<g
   id="g1575"
   style="fill:#333333">
		<g
   id="g1573"
   style="fill:#333333">
			<path
   id="path1551"
   d="m 469.333,320 v -42.667 c 0,-23.531 -19.146,-42.667 -42.667,-42.667 v -192 C 426.667,19.135 407.521,0 384,0 H 42.667 C 19.146,0 0,19.135 0,42.667 V 256 c 0,23.531 19.146,42.667 42.667,42.667 H 85.334 V 320 c 0,12.805 5.786,24.174 14.746,32 -8.96,7.826 -14.746,19.195 -14.746,32 v 42.667 c 0,23.531 19.146,42.667 42.667,42.667 h 298.667 c 23.521,0 42.667,-19.135 42.667,-42.667 V 384 c 0,-12.805 -5.786,-24.174 -14.746,-32 8.958,-7.826 14.744,-19.195 14.744,-32 z M 378.216,21.333 224.667,146.01 c -6.896,4.385 -16.854,3.677 -21.896,0.563 L 48.458,21.333 Z m -292.883,256 H 42.667 C 30.896,277.333 21.334,267.76 21.334,256 V 42.667 c 0,-4.68 1.819,-8.785 4.384,-12.307 L 190.23,163.803 c 6.938,4.49 14.917,6.865 23.104,6.865 7.875,0 15.583,-2.198 22.333,-6.375 0.604,-0.323 1.188,-0.708 1.75,-1.156 L 400.951,30.363 c 2.564,3.521 4.383,7.625 4.383,12.303 v 192 H 128 c -23.521,0.001 -42.667,19.136 -42.667,42.667 z M 448,426.667 C 448,438.427 438.437,448 426.667,448 H 128 c -11.771,0 -21.333,-9.573 -21.333,-21.333 V 384 c 0,-11.76 9.563,-21.333 21.333,-21.333 H 426.667 C 438.438,362.667 448,372.24 448,384 Z M 448,320 c 0,11.76 -9.563,21.333 -21.333,21.333 H 128 c -11.771,0 -21.333,-9.573 -21.333,-21.333 V 277.333 C 106.667,265.573 116.23,256 128,256 h 298.667 c 11.771,0 21.333,9.573 21.333,21.333 z"
   inkscape:connector-curvature="0"
   style="fill:#333333" />

			<path
   id="path1553"
   d="M 138.667,277.333 C 132.771,277.333 128,282.104 128,288 v 21.333 c 0,5.896 4.771,10.667 10.667,10.667 5.896,0 10.667,-4.771 10.667,-10.667 V 288 c -0.001,-5.896 -4.772,-10.667 -10.667,-10.667 z"
   inkscape:connector-curvature="0"
   style="fill:#333333" />

			<path
   id="path1555"
   d="m 181.333,277.333 c -5.896,0 -10.667,4.771 -10.667,10.667 v 21.333 c 0,5.896 4.771,10.667 10.667,10.667 5.896,0 10.667,-4.771 10.667,-10.667 V 288 c 0,-5.896 -4.771,-10.667 -10.667,-10.667 z"
   inkscape:connector-curvature="0"
   style="fill:#333333" />

			<path
   id="path1557"
   d="m 224,277.333 c -5.896,0 -10.667,4.771 -10.667,10.667 v 21.333 c 0,5.896 4.771,10.667 10.667,10.667 5.896,0 10.667,-4.771 10.667,-10.667 V 288 c 0,-5.896 -4.771,-10.667 -10.667,-10.667 z"
   inkscape:connector-curvature="0"
   style="fill:#333333" />

			<circle
   id="circle1559"
   r="21.333"
   cy="298.66699"
   cx="405.33301"
   style="fill:#333333" />

			<circle
   id="circle1561"
   r="21.333"
   cy="298.66699"
   cx="341.33301"
   style="fill:#333333" />

			<path
   id="path1563"
   d="M 138.667,384 C 132.771,384 128,388.771 128,394.667 V 416 c 0,5.896 4.771,10.667 10.667,10.667 5.896,0 10.667,-4.771 10.667,-10.667 V 394.667 C 149.333,388.771 144.562,384 138.667,384 Z"
   inkscape:connector-curvature="0"
   style="fill:#333333" />

			<path
   id="path1565"
   d="m 181.333,384 c -5.896,0 -10.667,4.771 -10.667,10.667 V 416 c 0,5.896 4.771,10.667 10.667,10.667 5.896,0 10.667,-4.771 10.667,-10.667 V 394.667 C 192,388.771 187.229,384 181.333,384 Z"
   inkscape:connector-curvature="0"
   style="fill:#333333" />

			<path
   id="path1567"
   d="m 224,384 c -5.896,0 -10.667,4.771 -10.667,10.667 V 416 c 0,5.896 4.771,10.667 10.667,10.667 5.896,0 10.667,-4.771 10.667,-10.667 V 394.667 C 234.667,388.771 229.896,384 224,384 Z"
   inkscape:connector-curvature="0"
   style="fill:#333333" />

			<circle
   id="circle1569"
   r="21.333"
   cy="405.33301"
   cx="405.33301"
   style="fill:#333333" />

			<circle
   id="circle1571"
   r="21.333"
   cy="405.33301"
   cx="341.33301"
   style="fill:#333333" />

		</g>

	</g>

</g>
      <g
         id="g1579"
         style="fill:#333333">
</g>
      <g
         id="g1581"
         style="fill:#333333">
</g>
      <g
         id="g1583"
         style="fill:#333333">
</g>
      <g
         id="g1585"
         style="fill:#333333">
</g>
      <g
         id="g1587"
         style="fill:#333333">
</g>
      <g
         id="g1589"
         style="fill:#333333">
</g>
      <g
         id="g1591"
         style="fill:#333333">
</g>
      <g
         id="g1593"
         style="fill:#333333">
</g>
      <g
         id="g1595"
         style="fill:#333333">
</g>
      <g
         id="g1597"
         style="fill:#333333">
</g>
      <g
         id="g1599"
         style="fill:#333333">
</g>
      <g
         id="g1601"
         style="fill:#333333">
</g>
      <g
         id="g1603"
         style="fill:#333333">
</g>
      <g
         id="g1605"
         style="fill:#333333">
</g>
      <g
         id="g1607"
         style="fill:#333333">
</g>
    </g>
  </g>
</svg>
