<?xml version="1.0" encoding="UTF-8"?>
<!DOCTYPE svg PUBLIC "-//W3C//DTD SVG 1.1//EN" "http://www.w3.org/Graphics/SVG/1.1/DTD/svg11.dtd">
<!-- Creator: CorelDRAW X6 -->
<svg xmlns="http://www.w3.org/2000/svg" xml:space="preserve" width="104.987mm" height="6.7732mm" version="1.1" style="shape-rendering:geometricPrecision; text-rendering:geometricPrecision; image-rendering:optimizeQuality; fill-rule:evenodd; clip-rule:evenodd"
viewBox="0 0 10499 677"
 xmlns:xlink="http://www.w3.org/1999/xlink">
 <defs>
  <style type="text/css">
   <![CDATA[
    .fil1 {fill:#1286BF}
    .fil4 {fill:#C5C6C6}
    .fil5 {fill:#D9DADA}
    .fil2 {fill:#91D043}
    .fil3 {fill:#727271;fill-rule:nonzero}
    .fil0 {fill:#646D74;fill-rule:nonzero}
   ]]>
  </style>
 </defs>
 <g id="Layer_x0020_1">
  <metadata id="CorelCorpID_0Corel-Layer"/>
  <path class="fil0" d="M1366 386l66 0c2,21 11,38 27,50 16,12 35,18 58,18 28,0 49,-6 61,-18 13,-12 19,-26 19,-41 0,-14 -5,-26 -16,-35 -11,-9 -29,-17 -56,-24l-71 -20c-55,-16 -83,-51 -83,-106 0,-36 13,-66 39,-89 26,-24 61,-35 107,-35 25,0 46,4 65,11 18,7 33,17 44,29 11,12 19,26 24,41 5,15 8,31 8,47l-66 0c-5,-46 -30,-69 -75,-69 -14,0 -27,3 -38,8 -11,5 -20,12 -26,21 -6,9 -9,19 -9,30 0,25 15,42 45,50l95 27c31,9 53,22 66,40 13,18 19,40 19,68 0,27 -7,50 -21,69 -14,20 -32,34 -55,44 -23,10 -47,15 -72,15 -47,0 -84,-12 -111,-35 -27,-23 -41,-55 -42,-94z"/>
  <path class="fil0" d="M3507 386l66 0c2,21 11,38 27,50 16,12 35,18 58,18 28,0 49,-6 61,-18 13,-12 19,-26 19,-41 0,-14 -5,-26 -16,-35 -11,-9 -29,-17 -56,-24l-71 -20c-55,-16 -83,-51 -83,-106 0,-36 13,-66 39,-89 26,-24 61,-35 107,-35 25,0 46,4 65,11 18,7 33,17 44,29 11,12 19,26 24,41 5,15 8,31 8,47l-66 0c-5,-46 -30,-69 -75,-69 -14,0 -27,3 -38,8 -11,5 -20,12 -26,21 -6,9 -9,19 -9,30 0,25 15,42 45,50l95 27c31,9 53,22 66,40 13,18 19,40 19,68 0,27 -7,50 -21,69 -14,20 -32,34 -55,44 -23,10 -47,15 -72,15 -47,0 -84,-12 -111,-35 -27,-23 -41,-55 -42,-94z"/>
  <polygon class="fil0" points="1683,89 1762,89 1871,391 1990,89 2069,89 1850,626 1773,626 1829,483 "/>
  <path class="fil0" d="M2184 495l-73 0 0 -406 70 0 0 46c15,-18 32,-32 50,-40 18,-8 39,-13 63,-13 53,0 94,16 122,47 28,31 43,76 43,135l0 231 -73 0 0 -216c0,-43 -8,-75 -24,-96 -16,-21 -41,-31 -74,-31 -36,0 -63,12 -79,37 -16,25 -25,65 -25,121l0 185z"/>
  <path class="fil0" d="M2601 289c0,41 14,76 41,103 27,28 61,42 100,42 36,0 68,-14 95,-42 27,-28 41,-61 41,-98 0,-40 -13,-74 -41,-103 -27,-28 -59,-43 -97,-43 -38,0 -71,13 -98,41 -27,27 -41,60 -41,99zm273 206l0 -50c-19,19 -40,34 -63,44 -23,10 -48,15 -74,15 -61,0 -112,-20 -152,-61 -40,-41 -61,-92 -61,-153 0,-29 5,-56 15,-81 10,-26 24,-48 43,-68 20,-21 43,-37 67,-47 24,-10 52,-15 83,-15 28,0 53,5 77,15 23,10 45,25 64,45l0 -49 74 0 0 406 -74 0z"/>
  <path class="fil0" d="M3101 289c0,40 13,74 40,103 27,28 59,42 96,42 38,0 71,-14 98,-41 27,-27 41,-60 41,-99 0,-41 -13,-76 -41,-103 -27,-28 -60,-42 -99,-42 -36,0 -68,14 -95,42 -27,28 -41,61 -41,98zm2 157l0 181 -73 0 0 -538 74 0 0 50c19,-19 40,-34 63,-44 23,-10 48,-15 74,-15 61,0 112,20 153,61 40,41 61,92 61,153 0,28 -5,55 -15,81 -10,26 -25,48 -44,68 -20,21 -43,37 -67,47 -24,10 -52,15 -83,15 -27,0 -53,-5 -77,-15 -23,-10 -45,-25 -65,-45z"/>
  <path class="fil0" d="M4190 254c-9,-33 -25,-59 -47,-78 -22,-18 -49,-27 -80,-27 -32,0 -60,9 -83,28 -23,19 -40,44 -49,77l259 0zm-262 66c6,34 22,62 46,83 24,21 54,32 87,32 24,0 46,-6 66,-17 20,-12 36,-28 47,-49l82 0c-19,45 -45,80 -78,103 -34,24 -73,36 -117,36 -30,0 -57,-5 -82,-16 -25,-11 -47,-26 -68,-48 -19,-20 -34,-43 -44,-69 -11,-26 -16,-53 -16,-81 0,-28 5,-55 15,-80 10,-25 24,-48 43,-68 20,-22 43,-39 68,-50 25,-11 53,-17 83,-17 36,0 69,8 99,25 31,17 56,40 76,69 12,18 21,39 26,61 6,22 8,47 8,75l0 11 -342 0z"/>
  <path class="fil1" d="M330 485c78,67 196,59 268,-14l133 -133 44 -44c21,-21 55,-22 77,-1l0 0c22,21 22,56 0,77l-176 176c-118,118 -311,125 -431,8 -60,-59 -91,-137 -91,-216 0,-78 30,-157 91,-216 119,-117 313,-110 431,8l16 16c-27,27 -58,58 -76,77l-17 -17c-73,-73 -191,-81 -268,-14 -89,78 -89,216 0,294z"/>
  <path class="fil2" d="M1087 192c-78,-67 -196,-59 -268,14l-133 133 -44 44c-21,21 -55,22 -77,1l0 0c-22,-21 -22,-56 0,-77l176 -176c118,-118 311,-125 431,-8 60,59 91,137 91,216 0,78 -30,157 -91,216 -119,117 -313,110 -431,-8l-16 -16c27,-27 58,-58 76,-77l17 17c73,73 191,81 268,14 89,-78 89,-216 0,-294z"/>
  <path class="fil3" d="M4838 492c20,0 40,-4 58,-12 18,-8 33,-18 44,-30l-19 -18c-9,10 -21,19 -35,25 -14,6 -29,9 -46,9 -19,0 -36,-4 -51,-13 -15,-9 -27,-21 -35,-37 -8,-16 -12,-34 -12,-55 0,-20 4,-38 12,-54 8,-16 20,-28 35,-37 15,-9 32,-13 52,-13 16,0 31,3 45,9 14,6 25,15 34,25l20 -18c-12,-14 -27,-25 -45,-32 -18,-7 -36,-11 -55,-11 -25,0 -47,6 -66,17 -19,11 -34,27 -45,46 -11,20 -16,43 -16,68 0,25 5,48 16,68 11,20 25,35 44,46 19,11 41,16 65,16z"/>
  <polygon id="1" class="fil3" points="5006,490 5034,490 5034,100 5006,100 "/>
  <path id="2" class="fil3" d="M5237 492c25,0 47,-5 66,-16 20,-11 35,-26 47,-46 11,-20 17,-43 17,-68 0,-26 -6,-49 -17,-69 -11,-20 -27,-36 -47,-46 -20,-11 -42,-16 -66,-16 -19,0 -37,3 -54,10 -16,7 -30,16 -41,28 -11,12 -20,26 -26,42 -6,16 -9,33 -9,51 0,18 3,35 9,51 6,16 15,30 26,42 11,12 25,21 41,28 17,7 34,10 54,10zm0 -26c-20,0 -37,-5 -53,-14 -16,-9 -28,-22 -36,-38 -8,-16 -13,-33 -13,-52 0,-19 4,-37 13,-53 8,-16 20,-29 36,-38 16,-10 34,-14 53,-14 14,0 27,3 40,8 13,5 23,12 32,21 9,9 16,20 22,33 5,13 8,27 8,43 0,20 -5,38 -14,54 -9,16 -21,28 -37,37 -15,9 -33,13 -51,13z"/>
  <path id="3" class="fil3" d="M5615 233l0 127c0,16 -2,30 -7,44 -5,13 -11,25 -19,34 -8,9 -17,16 -28,21 -11,5 -21,8 -33,8 -11,0 -21,-2 -29,-5 -8,-3 -16,-8 -22,-15 -6,-7 -11,-16 -14,-27 -3,-11 -5,-25 -5,-41l0 -145 -28 0 0 154c0,34 8,61 25,79 16,18 39,27 69,27 17,0 34,-4 50,-13 16,-9 29,-21 40,-37l1 0 0 48 28 0 0 -257 -28 0z"/>
  <path id="4" class="fil3" d="M5933 100l0 183 -1 0c-11,-17 -25,-30 -42,-39 -17,-9 -36,-14 -56,-14 -18,0 -35,3 -50,10 -16,7 -29,16 -40,28 -11,12 -19,26 -26,42 -6,16 -9,34 -9,52 0,19 3,37 10,53 7,16 16,30 27,41 11,11 25,20 40,26 15,6 32,9 49,9 14,0 28,-2 40,-6 13,-4 23,-10 33,-18 9,-8 18,-17 24,-27l1 0 0 49 27 0 0 -390 -28 0zm-96 366c-19,0 -37,-4 -52,-13 -15,-9 -27,-21 -35,-37 -8,-16 -12,-33 -12,-52 0,-16 3,-31 8,-44 5,-14 12,-25 21,-34 9,-9 20,-16 32,-21 12,-5 25,-8 38,-8 14,0 27,3 39,8 12,6 22,13 31,23 8,10 15,21 20,34 5,13 7,27 7,42 0,15 -3,29 -8,42 -5,13 -12,24 -21,32 -9,9 -19,16 -31,21 -12,5 -24,7 -37,7z"/>
  <path id="5" class="fil3" d="M6304 492c20,0 40,-4 58,-12 18,-8 33,-18 44,-30l-19 -18c-9,10 -21,19 -35,25 -14,6 -29,9 -46,9 -19,0 -36,-4 -51,-13 -15,-9 -27,-21 -35,-37 -8,-16 -12,-34 -12,-55 0,-20 4,-38 12,-54 8,-16 20,-28 35,-37 15,-9 32,-13 52,-13 16,0 31,3 45,9 14,6 25,15 34,25l20 -18c-12,-14 -27,-25 -45,-32 -18,-7 -36,-11 -55,-11 -25,0 -47,6 -66,17 -19,11 -34,27 -45,46 -11,20 -16,43 -16,68 0,25 5,48 16,68 11,20 25,35 44,46 19,11 41,16 65,16z"/>
  <path id="6" class="fil3" d="M6583 492c25,0 47,-5 66,-16 20,-11 35,-26 47,-46 11,-20 17,-43 17,-68 0,-26 -6,-49 -17,-69 -11,-20 -27,-36 -47,-46 -20,-11 -42,-16 -66,-16 -19,0 -37,3 -54,10 -16,7 -30,16 -41,28 -11,12 -20,26 -26,42 -6,16 -9,33 -9,51 0,18 3,35 9,51 6,16 15,30 26,42 11,12 25,21 41,28 17,7 34,10 54,10zm0 -26c-20,0 -37,-5 -53,-14 -16,-9 -28,-22 -36,-38 -8,-16 -13,-33 -13,-52 0,-19 4,-37 13,-53 8,-16 20,-29 36,-38 16,-10 34,-14 53,-14 14,0 27,3 40,8 13,5 23,12 32,21 9,9 16,20 22,33 5,13 8,27 8,43 0,20 -5,38 -14,54 -9,16 -21,28 -37,37 -15,9 -33,13 -51,13z"/>
  <path id="7" class="fil3" d="M7078 230c-13,0 -26,2 -38,7 -12,4 -23,11 -33,19 -10,8 -18,18 -25,30l-2 0c-6,-18 -16,-32 -29,-42 -13,-9 -30,-14 -49,-14 -18,0 -35,5 -51,14 -16,9 -29,22 -40,38l-1 0 0 -49 -28 0 0 257 28 0 0 -127c0,-32 8,-57 24,-77 16,-19 37,-29 61,-29 21,0 37,7 48,21 11,14 17,37 17,69l0 144 28 0 0 -128c0,-16 2,-31 7,-44 4,-13 10,-25 18,-33 8,-9 16,-16 27,-21 10,-5 21,-8 33,-8 11,0 20,2 28,5 8,3 15,8 20,15 6,7 10,17 13,29 3,12 4,26 4,43l0 142 28 0 0 -151c0,-36 -7,-64 -22,-82 -15,-18 -36,-28 -65,-28z"/>
  <path id="8" class="fil3" d="M7541 230c-13,0 -26,2 -38,7 -12,4 -23,11 -33,19 -10,8 -18,18 -25,30l-2 0c-6,-18 -16,-32 -29,-42 -13,-9 -30,-14 -49,-14 -18,0 -35,5 -51,14 -16,9 -29,22 -40,38l-1 0 0 -49 -28 0 0 257 28 0 0 -127c0,-32 8,-57 24,-77 16,-19 37,-29 61,-29 21,0 37,7 48,21 11,14 17,37 17,69l0 144 28 0 0 -128c0,-16 2,-31 7,-44 4,-13 10,-25 18,-33 8,-9 16,-16 27,-21 10,-5 21,-8 33,-8 11,0 20,2 28,5 8,3 15,8 20,15 6,7 10,17 13,29 3,12 4,26 4,43l0 142 28 0 0 -151c0,-36 -7,-64 -22,-82 -15,-18 -36,-28 -65,-28z"/>
  <path id="9" class="fil3" d="M7886 233l0 127c0,16 -2,30 -7,44 -5,13 -11,25 -19,34 -8,9 -17,16 -28,21 -11,5 -21,8 -33,8 -11,0 -21,-2 -29,-5 -8,-3 -16,-8 -22,-15 -6,-7 -11,-16 -14,-27 -3,-11 -5,-25 -5,-41l0 -145 -28 0 0 154c0,34 8,61 25,79 16,18 39,27 69,27 17,0 34,-4 50,-13 16,-9 29,-21 40,-37l1 0 0 48 28 0 0 -257 -28 0z"/>
  <path id="10" class="fil3" d="M8126 230c-21,0 -40,5 -58,14 -17,9 -31,22 -42,39l-1 0 0 -50 -28 0 0 257 28 0 0 -127c0,-32 9,-58 26,-77 17,-19 40,-29 68,-29 8,0 14,1 21,2 6,2 12,4 18,8 6,4 10,9 14,15 4,6 7,14 9,24 2,10 3,21 3,34l0 149 28 0 0 -152c0,-37 -8,-64 -23,-81 -15,-17 -37,-26 -64,-26z"/>
  <path id="11" class="fil3" d="M8311 178c7,0 12,-2 17,-7 5,-4 7,-10 7,-16 0,-7 -2,-12 -7,-17 -5,-5 -10,-7 -17,-7 -7,0 -12,2 -17,7 -5,5 -7,10 -7,17 0,4 1,8 3,12 2,3 5,6 8,8 4,2 8,3 12,3zm-14 312l28 0 0 -257 -28 0 0 257z"/>
  <path id="12" class="fil3" d="M8522 492c20,0 40,-4 58,-12 18,-8 33,-18 44,-30l-19 -18c-9,10 -21,19 -35,25 -14,6 -29,9 -46,9 -19,0 -36,-4 -51,-13 -15,-9 -27,-21 -35,-37 -8,-16 -12,-34 -12,-55 0,-20 4,-38 12,-54 8,-16 20,-28 35,-37 15,-9 32,-13 52,-13 16,0 31,3 45,9 14,6 25,15 34,25l20 -18c-12,-14 -27,-25 -45,-32 -18,-7 -36,-11 -55,-11 -25,0 -47,6 -66,17 -19,11 -34,27 -45,46 -11,20 -16,43 -16,68 0,25 5,48 16,68 11,20 25,35 44,46 19,11 41,16 65,16z"/>
  <path id="13" class="fil3" d="M8893 233l0 50 -1 0c-11,-17 -25,-30 -42,-39 -17,-9 -36,-14 -56,-14 -24,0 -45,6 -65,18 -19,12 -34,28 -44,48 -11,20 -16,43 -16,68 0,19 3,37 10,53 7,16 16,30 27,41 11,11 25,20 40,26 15,6 32,9 49,9 22,0 41,-5 57,-14 17,-9 30,-22 41,-38l1 0 0 49 27 0 0 -257 -28 0zm-96 233c-19,0 -37,-4 -52,-13 -15,-9 -27,-21 -35,-37 -8,-16 -12,-33 -12,-52 0,-16 3,-31 8,-44 5,-14 12,-25 21,-34 9,-9 20,-16 32,-21 12,-5 25,-8 38,-8 18,0 35,5 50,14 15,10 26,22 34,39 8,16 12,34 12,54 0,15 -3,29 -8,42 -5,13 -12,24 -21,32 -9,9 -19,16 -31,21 -12,5 -24,7 -37,7z"/>
  <path id="14" class="fil3" d="M9073 492c21,0 41,-5 59,-16l-7 -25c-17,10 -33,15 -49,15 -14,0 -24,-5 -30,-13 -5,-9 -8,-23 -8,-42l0 -152 94 0 0 -26 -94 0 0 -93 -28 3 0 90 -34 0 0 26 34 0 0 159c0,25 5,43 14,56 10,13 26,19 48,19z"/>
  <path id="15" class="fil3" d="M9211 178c7,0 12,-2 17,-7 5,-4 7,-10 7,-16 0,-7 -2,-12 -7,-17 -5,-5 -10,-7 -17,-7 -7,0 -12,2 -17,7 -5,5 -7,10 -7,17 0,4 1,8 3,12 2,3 5,6 8,8 4,2 8,3 12,3zm-14 312l28 0 0 -257 -28 0 0 257z"/>
  <path id="16" class="fil3" d="M9428 492c25,0 47,-5 66,-16 20,-11 35,-26 47,-46 11,-20 17,-43 17,-68 0,-26 -6,-49 -17,-69 -11,-20 -27,-36 -47,-46 -20,-11 -42,-16 -66,-16 -19,0 -37,3 -54,10 -16,7 -30,16 -41,28 -11,12 -20,26 -26,42 -6,16 -9,33 -9,51 0,18 3,35 9,51 6,16 15,30 26,42 11,12 25,21 41,28 17,7 34,10 54,10zm0 -26c-20,0 -37,-5 -53,-14 -16,-9 -28,-22 -36,-38 -8,-16 -13,-33 -13,-52 0,-19 4,-37 13,-53 8,-16 20,-29 36,-38 16,-10 34,-14 53,-14 14,0 27,3 40,8 13,5 23,12 32,21 9,9 16,20 22,33 5,13 8,27 8,43 0,20 -5,38 -14,54 -9,16 -21,28 -37,37 -15,9 -33,13 -51,13z"/>
  <path id="17" class="fil3" d="M9756 230c-21,0 -40,5 -58,14 -17,9 -31,22 -42,39l-1 0 0 -50 -28 0 0 257 28 0 0 -127c0,-32 9,-58 26,-77 17,-19 40,-29 68,-29 8,0 14,1 21,2 6,2 12,4 18,8 6,4 10,9 14,15 4,6 7,14 9,24 2,10 3,21 3,34l0 149 28 0 0 -152c0,-37 -8,-64 -23,-81 -15,-17 -37,-26 -64,-26z"/>
  <path id="18" class="fil3" d="M9998 492c14,0 27,-2 38,-6 11,-4 21,-9 28,-15 7,-7 13,-14 16,-22 4,-8 6,-17 6,-27 0,-9 -1,-18 -4,-25 -5,-14 -17,-25 -34,-34 -7,-4 -25,-10 -52,-20 -1,0 -2,-1 -3,-1 -5,-2 -10,-3 -12,-4 -3,-1 -6,-2 -11,-5 -5,-2 -8,-4 -10,-5 -2,-1 -5,-3 -8,-6 -3,-2 -5,-5 -7,-7 -2,-2 -3,-5 -4,-9 -1,-3 -2,-7 -2,-11 0,-8 2,-15 7,-21 5,-6 11,-11 18,-14 7,-3 16,-5 24,-5 28,0 52,9 73,27l15 -22c-24,-21 -53,-31 -85,-31 -23,0 -43,6 -58,19 -15,12 -23,28 -23,47 0,8 1,16 4,23 3,7 6,13 10,18 4,5 10,9 17,14 7,4 14,8 20,11 7,3 15,6 24,9 2,1 4,1 7,3 6,2 11,4 14,5 3,1 7,3 12,4 5,2 9,4 11,5 2,1 5,3 9,5 4,2 6,4 8,6 2,2 4,4 5,6 2,2 3,5 4,8 1,3 1,6 1,9 0,13 -5,24 -16,32 -11,8 -25,13 -44,13 -19,0 -35,-3 -48,-8 -13,-5 -25,-13 -35,-24l-16 22c28,24 61,36 99,36z"/>
  <rect class="fil4" x="4464" y="71" width="11" height="496"/>
  <rect class="fil5" x="4468" y="71" width="11" height="496"/>
 </g>
</svg>
