<?xml version="1.0" encoding="UTF-8"?>
<!DOCTYPE svg PUBLIC "-//W3C//DTD SVG 1.1//EN" "http://www.w3.org/Graphics/SVG/1.1/DTD/svg11.dtd">
<!-- Creator: CorelDRAW X6 -->
<svg xmlns="http://www.w3.org/2000/svg" xml:space="preserve" width="5.15276in" height="3.96693in" version="1.1" style="shape-rendering:geometricPrecision; text-rendering:geometricPrecision; image-rendering:optimizeQuality; fill-rule:evenodd; clip-rule:evenodd"
viewBox="0 0 5153 3967"
 xmlns:xlink="http://www.w3.org/1999/xlink">
 <defs>
  <style type="text/css">
   <![CDATA[
    .str1 {stroke:#2B2B2B;stroke-width:83.3346}
    .str2 {stroke:#2B2B2B;stroke-width:100}
    .str0 {stroke:#2B2B2B;stroke-width:133.335}
    .fil0 {fill:none}
    .fil2 {fill:black}
    .fil1 {fill:#2B2B2B}
   ]]>
  </style>
   <clipPath id="id0">
    <rect x="5696" y="-383" width="9556" height="8389"/>
   </clipPath>
 </defs>
 <g id="Layer_x0020_1">
  <metadata id="CorelCorpID_0Corel-Layer"/>
  <g id="_687633552">
   <rect class="fil0 str0" x="5013" y="4232" width="885" height="885" rx="201" ry="201"/>
   <rect class="fil0 str0" x="5898" y="6474" width="885" height="885" rx="201" ry="201"/>
   <rect class="fil0 str0" x="4119" y="6474" width="885" height="885" rx="201" ry="201"/>
   <path class="fil0 str0" d="M6357 6474l0 -433c0,-143 -117,-260 -260,-260l-1293 0c-143,0 -260,117 -260,260l0 433"/>
   <line class="fil0 str0" x1="5456" y1="5781" x2="5456" y2= "5118" />
  </g>
  <g id="_687631952">
   <circle class="fil0 str1" cx="10922" cy="417" r="615"/>
   <circle class="fil0 str1" cx="12135" cy="-351" r="615"/>
   <circle class="fil0 str1" cx="9695" cy="-351" r="615"/>
   <path class="fil0 str1" d="M10634 1135c0,0 292,150 557,-7 0,0 737,5 857,548l0 668c0,0 41,46 -341,170l0 -437 -38 0 -68 464c0,0 -944,182 -1366,-12l-62 -465 -67 0 0 444c0,0 -309,-131 -366,-198l0 -442c0,0 -48,-707 894,-733z"/>
   <path class="fil0 str1" d="M11728 370l124 0c0,0 332,150 592,0 0,0 792,-2 879,647l0 548c0,0 -189,143 -378,180l0 -428 -45 12 -61 435c0,0 -230,83 -585,92 0,0 14,-774 -769,-880 0,0 258,-235 242,-606z"/>
   <path class="fil0 str1" d="M10128 373l-124 0c0,0 -332,150 -592,0 -440,-1 -879,254 -879,736l0 459c0,0 189,143 378,180l0 -428 45 12 61 435c0,0 230,83 585,92 0,0 -14,-774 769,-880 0,0 -258,-235 -242,-606z"/>
  </g>
  <g id="one-finger-tap-gesture-of-outlined-hand-symbol.svg">
   <g>
    <g>
     <path class="fil1" d="M14598 1639l0 -124c-124,-103 -206,-258 -206,-433 0,-309 258,-567 567,-567 309,0 567,258 567,567 0,134 -52,268 -134,361 41,0 72,10 113,21 82,-113 124,-247 124,-392 0,-371 -299,-670 -670,-670 -371,0 -670,299 -670,670 0,237 124,443 309,567z"/>
     <path class="fil1" d="M15423 1073c0,-258 -206,-464 -464,-464 -258,0 -464,206 -464,464 0,113 41,216 103,289l0 -289c0,-196 165,-361 361,-361 196,0 361,165 361,361l0 289c62,-72 103,-175 103,-289z"/>
     <path class="fil1" d="M16196 1846c-62,0 -113,21 -155,52l0 0c0,-144 -113,-258 -258,-258 -62,0 -124,21 -175,62 -41,-103 -134,-165 -237,-165 -62,0 -113,21 -155,52l0 -515c0,-144 -113,-258 -258,-258 -144,0 -258,113 -258,258l0 917c-206,-186 -433,-330 -577,-186 -206,206 227,608 557,1216 237,423 567,577 897,577 484,0 876,-392 876,-876l0 -618c0,-144 -113,-258 -258,-258zm155 484l0 392c0,402 -350,773 -773,773 -392,0 -618,-216 -804,-515 -402,-680 -691,-989 -577,-1103 113,-113 392,134 608,361l0 -1165c0,-82 72,-155 155,-155 82,0 155,72 155,155l0 1082 103 0 0 -361c0,-82 72,-155 155,-155 82,0 155,72 155,155l0 258 103 0 0 -155c0,-82 72,-155 155,-155 82,0 155,72 155,155l0 258 103 0 0 -52c0,-82 72,-155 155,-155 82,0 155,72 155,155l0 227 0 0z"/>
    </g>
   </g>
   <g>
   </g>
   <g>
   </g>
   <g>
   </g>
   <g>
   </g>
   <g>
   </g>
   <g>
   </g>
   <g>
   </g>
   <g>
   </g>
   <g>
   </g>
   <g>
   </g>
   <g>
   </g>
   <g>
   </g>
   <g>
   </g>
   <g>
   </g>
   <g>
   </g>
  </g>
  <path class="fil2" d="M33451 15641l506 197c18,31 48,54 82,62l492 123 1686 1686 186 -186 -1713 -1713c-17,-17 -38,-29 -61,-35l-472 -119 -449 -786 385 -385 786 449 119 472c6,23 18,44 35,61l1713 1713 186 -186 -1686 -1686 -123 -491c-9,-35 -31,-65 -62,-82l-922 -527c-51,-29 -116,-21 -158,21l-527 527c-42,42 -52,107 -23,158l21 725zm0 0z"/>
  <path class="fil2" d="M35523 20514c-24,-40 -67,-64 -113,-64l-791 0c-46,0 -89,24 -113,64l-395 659c-25,42 -25,94 0,136l395 659c24,40 67,64 113,64l791 0c46,0 89,-24 113,-64l395 -659c25,-42 25,-94 0,-136l-395 -659zm-187 1254l-641 0 -316 -527 316 -527 641 0 316 527 -316 527zm0 0z"/>
  <path class="fil2" d="M40247 21543l-7003 -6440 -1131 -1504 1504 1131 6630 6813zm0 0z"/>
  <g style="clip-path:url(#id0)">
   <image id="Untitled-1_x0020_copy.jpg" transform="matrix(1 0 0 1 3119.88 6022.39)" x="2576" y="-6405" width="9556" height="8389" xlink:href="services_Images\services_ImgID1.png"/>
  </g>
  <g id="_687618512">
   <polyline class="fil0 str2" points="2367,1557 1723,914 1664,693 1296,480 1079,697 1288,1059 1475,1109 2145,1779 "/>
   <path class="fil0 str2" d="M1813 2343l1142 -1142c0,0 -100,-796 686,-707l-326 342 84 314 312 84 337 -337c0,0 143,746 -655,705l-1171 1171c27,674 -647,898 -968,554 -218,-234 -276,-737 181,-929 127,-54 251,-37 378,-55z"/>
   <polygon class="fil0 str2" points="1505,2669 1807,2669 1948,2914 1817,3142 1526,3142 1383,2895 "/>
   <line class="fil0 str2" x1="2035" y1="2543" x2="3153" y2= "1425" />
   <path class="fil0 str2" d="M3086 1969l105 105c0,0 -105,132 0,192 0,0 44,61 170,-16l607 601c200,214 69,450 0,513 -117,80 -229,167 -448,53l-658 -658c0,0 78,-115 0,-193 0,0 -112,-57 -173,24l-142 -142"/>
   <line class="fil0 str2" x1="3165" y1="2557" x2="3672" y2= "3064" />
   <line class="fil0 str2" x1="3520" y1="3417" x2="4023" y2= "2914" />
  </g>
 </g>
</svg>
