<?xml version="1.0" encoding="UTF-8" standalone="no"?>
<!-- Created with Inkscape (http://www.inkscape.org/) -->

<svg
   xmlns:dc="http://purl.org/dc/elements/1.1/"
   xmlns:cc="http://creativecommons.org/ns#"
   xmlns:rdf="http://www.w3.org/1999/02/22-rdf-syntax-ns#"
   xmlns:svg="http://www.w3.org/2000/svg"
   xmlns="http://www.w3.org/2000/svg"
   xmlns:sodipodi="http://sodipodi.sourceforge.net/DTD/sodipodi-0.dtd"
   xmlns:inkscape="http://www.inkscape.org/namespaces/inkscape"
   width="120mm"
   height="146mm"
   viewBox="0 0 120 146"
   version="1.1"
   id="svg1653"
   inkscape:version="0.92.4 (5da689c313, 2019-01-14)"
   sodipodi:docname="smst-email 2.svg">
  <defs
     id="defs1647">
    <inkscape:path-effect
       effect="bend_path"
       id="path-effect999"
       is_visible="true"
       bendpath="M 0,0 H 1"
       prop_scale="1"
       scale_y_rel="false"
       vertical="false" />
    <clipPath
       clipPathUnits="userSpaceOnUse"
       id="clipPath960">
      <path
         sodipodi:type="spiral"
         style="fill:none;fill-rule:evenodd;stroke:#000000;stroke-width:0.26458332"
         id="path962"
         sodipodi:cx="182.49234"
         sodipodi:cy="163.14963"
         sodipodi:expansion="1"
         sodipodi:revolution="3"
         sodipodi:radius="32.859501"
         sodipodi:argument="-18.32476"
         sodipodi:t0="0"
         d="m 182.49234,163.14963 c 1.42581,0.82547 -0.40927,2.32922 -1.37198,2.36979 -2.60889,0.10994 -3.84614,-2.93934 -3.3676,-5.11376 0.856,-3.88952 5.33909,-5.51392 8.85553,-4.3654 5.16052,1.68549 7.21975,7.76727 5.36321,12.5973 -2.47448,6.43766 -10.20502,8.94111 -16.33907,6.36102 -7.71909,-3.24678 -10.67037,-12.64719 -7.35883,-20.08085 4.01071,-9.00316 15.09182,-12.40416 23.82262,-8.35663 10.28894,4.76987 14.14081,17.53798 9.35444,27.56439 -5.52605,11.57588 -19.98518,15.87936 -31.30617,10.35225 -12.86362,-6.28025 -17.61923,-22.43309 -11.35005,-35.04794 7.03307,-14.15196 24.88152,-19.36008 38.78971,-12.34786 15.44073,7.78489 21.10166,27.33035 13.34567,42.53148" />
    </clipPath>
    <clipPath
       id="clipPath1006"
       clipPathUnits="userSpaceOnUse">
      <g
         inkscape:label="Clip"
         id="use1008"
         style="fill:none;stroke:#000000;stroke-width:1;stroke-miterlimit:4;stroke-dasharray:none;stroke-opacity:1">
        <path
           style="fill:none;fill-opacity:1;stroke:#000000;stroke-width:1;stroke-linecap:butt;stroke-linejoin:miter;stroke-miterlimit:4;stroke-dasharray:none;stroke-opacity:1"
           d="m 186.94705,91.870621 h -35.13796 c 0,0 -4.00904,0.53454 -4.00904,4.94449 l 0.0668,46.438079 c 0,0 0.90459,4.40281 6.57423,3.93034 l 32.50595,0.0945 v -6.14212 h -28.77344 l 20.17448,-17.05617 8.59896,6.18936 v -7.32839 l -33.66798,-23.319269 -0.20045,7.082639 19.9784,13.89802 -19.18289,16.28158 -0.18899,-38.931549 33.26191,-0.18899 z"
           id="path2356"
           inkscape:connector-curvature="0"
           sodipodi:nodetypes="cccccccccccccccccc" />
        <path
           sodipodi:nodetypes="cccccccccccccccccc"
           inkscape:connector-curvature="0"
           id="path2358"
           d="m 186.62763,91.870621 h 35.13796 c 0,0 4.00904,0.53454 4.00904,4.94449 l -0.0668,46.438079 c 0,0 -0.90459,4.40281 -6.57423,3.93034 l -32.50595,0.0945 v -6.14212 h 28.77344 l -20.17448,-17.05617 -8.59896,6.18936 v -7.32839 l 33.66798,-23.319269 0.20045,7.082639 -19.9784,13.89802 19.18289,16.28158 0.18899,-38.931549 -33.26191,-0.18899 z"
           style="fill:none;fill-opacity:1;stroke:#000000;stroke-width:1;stroke-linecap:butt;stroke-linejoin:miter;stroke-miterlimit:4;stroke-dasharray:none;stroke-opacity:1" />
      </g>
    </clipPath>
    <inkscape:path-effect
       effect="bend_path"
       id="path-effect999-1" />
    <clipPath
       clipPathUnits="userSpaceOnUse"
       id="clipPath960-0">
      <path
         sodipodi:type="spiral"
         style="fill:none;fill-rule:evenodd;stroke:#000000;stroke-width:0.26458332"
         id="path962-5"
         sodipodi:cx="182.49234"
         sodipodi:cy="163.14963"
         sodipodi:expansion="1"
         sodipodi:revolution="3"
         sodipodi:radius="32.859501"
         sodipodi:argument="-18.32476"
         sodipodi:t0="0"
         d="m 182.49234,163.14963 c 1.42581,0.82547 -0.40927,2.32922 -1.37198,2.36979 -2.60889,0.10994 -3.84614,-2.93934 -3.3676,-5.11376 0.856,-3.88952 5.33909,-5.51392 8.85553,-4.3654 5.16052,1.68549 7.21975,7.76727 5.36321,12.5973 -2.47448,6.43766 -10.20502,8.94111 -16.33907,6.36102 -7.71909,-3.24678 -10.67037,-12.64719 -7.35883,-20.08085 4.01071,-9.00316 15.09182,-12.40416 23.82262,-8.35663 10.28894,4.76987 14.14081,17.53798 9.35444,27.56439 -5.52605,11.57588 -19.98518,15.87936 -31.30617,10.35225 -12.86362,-6.28025 -17.61923,-22.43309 -11.35005,-35.04794 7.03307,-14.15196 24.88152,-19.36008 38.78971,-12.34786 15.44073,7.78489 21.10166,27.33035 13.34567,42.53148" />
    </clipPath>
    <clipPath
       id="clipPath1006-9"
       clipPathUnits="userSpaceOnUse">
      <g
         id="use1008-3"
         inkscape:label="Clip">
        <path
           sodipodi:nodetypes="cccccccccccccccccc"
           inkscape:connector-curvature="0"
           id="path2420"
           d="m 186.94705,91.870621 h -35.13796 c 0,0 -4.00904,0.53454 -4.00904,4.94449 l 0.0668,46.438079 c 0,0 0.90459,4.40281 6.57423,3.93034 l 32.50595,0.0945 v -6.14212 h -28.77344 l 20.17448,-17.05617 8.59896,6.18936 v -7.32839 l -33.66798,-23.319269 -0.20045,7.082639 19.9784,13.89802 -19.18289,16.28158 -0.18899,-38.931549 33.26191,-0.18899 z"
           style="fill:#818282;fill-opacity:1;stroke:none;stroke-width:0.26458332px;stroke-linecap:butt;stroke-linejoin:miter;stroke-opacity:1" />
        <path
           style="fill:#818282;fill-opacity:1;stroke:none;stroke-width:0.26458332px;stroke-linecap:butt;stroke-linejoin:miter;stroke-opacity:1"
           d="m 186.62763,91.870621 h 35.13796 c 0,0 4.00904,0.53454 4.00904,4.94449 l -0.0668,46.438079 c 0,0 -0.90459,4.40281 -6.57423,3.93034 l -32.50595,0.0945 v -6.14212 h 28.77344 l -20.17448,-17.05617 -8.59896,6.18936 v -7.32839 l 33.66798,-23.319269 0.20045,7.082639 -19.9784,13.89802 19.18289,16.28158 0.18899,-38.931549 -33.26191,-0.18899 z"
           id="path2422"
           inkscape:connector-curvature="0"
           sodipodi:nodetypes="cccccccccccccccccc" />
      </g>
    </clipPath>
  </defs>
  <sodipodi:namedview
     id="base"
     pagecolor="#ffffff"
     bordercolor="#666666"
     borderopacity="1.0"
     inkscape:pageopacity="0.0"
     inkscape:pageshadow="2"
     inkscape:zoom="0.7"
     inkscape:cx="167.85714"
     inkscape:cy="301.84338"
     inkscape:document-units="mm"
     inkscape:current-layer="layer1"
     showgrid="false"
     inkscape:window-width="1366"
     inkscape:window-height="705"
     inkscape:window-x="-8"
     inkscape:window-y="-8"
     inkscape:window-maximized="1" />
  <metadata
     id="metadata1650">
    <rdf:RDF>
      <cc:Work
         rdf:about="">
        <dc:format>image/svg+xml</dc:format>
        <dc:type
           rdf:resource="http://purl.org/dc/dcmitype/StillImage" />
        <dc:title></dc:title>
      </cc:Work>
    </rdf:RDF>
  </metadata>
  <g
     inkscape:label="Layer 1"
     inkscape:groupmode="layer"
     id="layer1"
     transform="translate(0,-151)">
    <path
       style="fill:#818282;fill-opacity:1;stroke:none;stroke-width:0.26458332px;stroke-linecap:butt;stroke-linejoin:miter;stroke-opacity:1"
       d="m 75.969636,163.05477 -51.97203,0.047 c -10.91406,0.94494 -11.81168,11.24479 -11.81168,11.24479 l -0.18913,105.45558 c 1.60639,11.76451 11.57552,11.95327 11.57552,11.95327 l 52.25521,0.0946 c 11.24478,-1.5119 11.71763,-11.33936 11.71763,-11.33936 v -28.01741 l -6.0477,-0.047 -0.13849,17.7772 -63.26694,-0.15399 -0.0475,-93.45476 63.40543,-0.33073 0.0946,10.58333 6.00067,-0.0946 0.14159,-11.76465 C 86.316636,163.716 75.969706,163.05476 75.969706,163.05476 Z m -32.7117,6.17689 h 13.29634 c 1.20271,1.00226 0,2.00453 0,2.00453 l -13.02918,-0.0667 c -1.60362,-0.60136 -0.26716,-1.93786 -0.26716,-1.93786 z m 14.0317,107.26477 c 0,0 2.0713,0.40085 2.4722,2.4722 0.40091,2.07134 0.26716,3.20724 -2.40554,4.67723 l -14.76654,-0.0667 c 0,0 -2.33847,-0.7351 -2.73937,-2.40554 0,0 -1.06911,-3.60831 3.14038,-4.61057 z"
       id="path963"
       inkscape:connector-curvature="0" />
    <path
       sodipodi:nodetypes="cccccccccccccccccccccccccccccccccccccc"
       inkscape:connector-curvature="0"
       id="path996"
       d="m 38.769726,192.64448 c 0,0 -4.009057,0.53446 -4.009057,4.94441 l 0.06666,46.43799 c 0,0 0.904634,4.40298 6.574277,3.93051 l 32.186665,0.0935 v 10e-4 l 0.159679,-5.3e-4 0.159681,5.3e-4 v -10e-4 l 32.186669,-0.0935 c 5.66964,0.47247 6.57427,-3.93051 6.57427,-3.93051 l 0.0667,-46.43799 c 0,-4.40995 -4.00906,-4.94441 -4.00906,-4.94441 h -34.818549 -0.31936 z m 34.978226,5.8937 33.102368,0.1881 -0.009,1.95699 -33.093069,22.92057 -33.092553,-22.92057 -0.0093,-1.95699 z m -33.057412,9.39323 19.326984,13.44465 -19.182807,16.2817 z m 66.11483,0 -0.14418,29.72635 -19.182811,-16.2817 z m -41.496695,16.92248 c 10.405927,7.93577 6.470732,7.49114 16.878556,0 l 20.174479,17.0558 H 73.907633 73.588273 45.134196 Z"
       style="fill:#818282;fill-opacity:1;stroke:none;stroke-width:1;stroke-linecap:butt;stroke-linejoin:miter;stroke-miterlimit:4;stroke-dasharray:none;stroke-opacity:1" />
  </g>
</svg>
