<?xml version="1.0" encoding="UTF-8"?>
<!DOCTYPE svg PUBLIC "-//W3C//DTD SVG 1.1//EN" "http://www.w3.org/Graphics/SVG/1.1/DTD/svg11.dtd">
<!-- Creator: CorelDRAW X6 -->
<svg xmlns="http://www.w3.org/2000/svg" xml:space="preserve" width="41.4866mm" height="6.4346mm" version="1.1" style="shape-rendering:geometricPrecision; text-rendering:geometricPrecision; image-rendering:optimizeQuality; fill-rule:evenodd; clip-rule:evenodd"
viewBox="0 0 4149 643"
 xmlns:xlink="http://www.w3.org/1999/xlink">
 <defs>
  <style type="text/css">
   <![CDATA[
    .fil1 {fill:#1286BF}
    .fil2 {fill:#91D043}
    .fil0 {fill:#646D74;fill-rule:nonzero}
   ]]>
  </style>
 </defs>
 <g id="Layer_x0020_1">
  <metadata id="CorelCorpID_0Corel-Layer"/>
  <path class="fil0" d="M1228 366l66 0c2,21 11,38 27,50 16,12 35,18 58,18 28,0 49,-6 61,-18 13,-12 19,-26 19,-41 0,-14 -5,-26 -16,-35 -11,-9 -29,-17 -56,-24l-71 -20c-55,-16 -83,-51 -83,-106 0,-36 13,-66 39,-89 26,-24 61,-35 107,-35 25,0 46,4 65,11 18,7 33,17 44,29 11,12 19,26 24,41 5,15 8,31 8,47l-66 0c-5,-46 -30,-69 -75,-69 -14,0 -27,3 -38,8 -11,5 -20,12 -26,21 -6,9 -9,19 -9,30 0,25 15,42 45,50l95 27c31,9 53,22 66,40 13,18 19,40 19,68 0,27 -7,50 -21,69 -14,20 -32,34 -55,44 -23,10 -47,15 -72,15 -47,0 -84,-12 -111,-35 -27,-23 -41,-55 -42,-94z"/>
  <path class="fil0" d="M3369 366l66 0c2,21 11,38 27,50 16,12 35,18 58,18 28,0 49,-6 61,-18 13,-12 19,-26 19,-41 0,-14 -5,-26 -16,-35 -11,-9 -29,-17 -56,-24l-71 -20c-55,-16 -83,-51 -83,-106 0,-36 13,-66 39,-89 26,-24 61,-35 107,-35 25,0 46,4 65,11 18,7 33,17 44,29 11,12 19,26 24,41 5,15 8,31 8,47l-66 0c-5,-46 -30,-69 -75,-69 -14,0 -27,3 -38,8 -11,5 -20,12 -26,21 -6,9 -9,19 -9,30 0,25 15,42 45,50l95 27c31,9 53,22 66,40 13,18 19,40 19,68 0,27 -7,50 -21,69 -14,20 -32,34 -55,44 -23,10 -47,15 -72,15 -47,0 -84,-12 -111,-35 -27,-23 -41,-55 -42,-94z"/>
  <polygon class="fil0" points="1545,69 1623,69 1733,371 1852,69 1930,69 1712,607 1635,607 1691,464 "/>
  <path class="fil0" d="M2046 475l-73 0 0 -406 70 0 0 46c15,-18 32,-32 50,-40 18,-8 39,-13 63,-13 53,0 94,16 122,47 28,31 43,76 43,135l0 231 -73 0 0 -216c0,-43 -8,-75 -24,-96 -16,-21 -41,-31 -74,-31 -36,0 -63,12 -79,37 -16,25 -25,65 -25,121l0 185z"/>
  <path class="fil0" d="M2463 269c0,41 14,76 41,103 27,28 61,42 100,42 36,0 68,-14 95,-42 27,-28 41,-61 41,-98 0,-40 -13,-74 -41,-103 -27,-28 -59,-43 -97,-43 -38,0 -71,13 -98,41 -27,27 -41,60 -41,99zm273 206l0 -50c-19,19 -40,34 -63,44 -23,10 -48,15 -74,15 -61,0 -112,-20 -152,-61 -40,-41 -61,-92 -61,-153 0,-29 5,-56 15,-81 10,-26 24,-48 43,-68 20,-21 43,-37 67,-47 24,-10 52,-15 83,-15 28,0 53,5 77,15 23,10 45,25 64,45l0 -49 74 0 0 406 -74 0z"/>
  <path class="fil0" d="M2963 269c0,40 13,74 40,103 27,28 59,42 96,42 38,0 71,-14 98,-41 27,-27 41,-60 41,-99 0,-41 -13,-76 -41,-103 -27,-28 -60,-42 -99,-42 -36,0 -68,14 -95,42 -27,28 -41,61 -41,98zm2 157l0 181 -73 0 0 -538 74 0 0 50c19,-19 40,-34 63,-44 23,-10 48,-15 74,-15 61,0 112,20 153,61 40,41 61,92 61,153 0,28 -5,55 -15,81 -10,26 -25,48 -44,68 -20,21 -43,37 -67,47 -24,10 -52,15 -83,15 -27,0 -53,-5 -77,-15 -23,-10 -45,-25 -65,-45z"/>
  <path class="fil0" d="M4052 235c-9,-33 -25,-59 -47,-78 -22,-18 -49,-27 -80,-27 -32,0 -60,9 -83,28 -23,19 -40,44 -49,77l259 0zm-262 66c6,34 22,62 46,83 24,21 54,32 87,32 24,0 46,-6 66,-17 20,-12 36,-28 47,-49l82 0c-19,45 -45,80 -78,103 -34,24 -73,36 -117,36 -30,0 -57,-5 -82,-16 -25,-11 -47,-26 -68,-48 -19,-20 -34,-43 -44,-69 -11,-26 -16,-53 -16,-81 0,-28 5,-55 15,-80 10,-25 24,-48 43,-68 20,-22 43,-39 68,-50 25,-11 53,-17 83,-17 36,0 69,8 99,25 31,17 56,40 76,69 12,18 21,39 26,61 6,22 8,47 8,75l0 11 -342 0z"/>
  <g id="_693891328">
   <path class="fil1" d="M192 466c78,67 196,59 268,-14l133 -133 44 -44c21,-21 55,-22 77,-1l0 0c22,21 22,56 0,77l-176 176c-118,118 -311,125 -431,8 -60,-59 -91,-137 -91,-216 0,-78 30,-157 91,-216 119,-117 313,-110 431,8l16 16c-27,27 -58,58 -76,77l-17 -17c-73,-73 -191,-81 -268,-14 -89,78 -89,216 0,294z"/>
   <path class="fil2" d="M949 172c-78,-67 -196,-59 -268,14l-133 133 -44 44c-21,21 -55,22 -77,1l0 0c-22,-21 -22,-56 0,-77l176 -176c118,-118 311,-125 431,-8 60,59 91,137 91,216 0,78 -30,157 -91,216 -119,117 -313,110 -431,-8l-16 -16c27,-27 58,-58 76,-77l17 17c73,73 191,81 268,14 89,-78 89,-216 0,-294z"/>
  </g>
 </g>
</svg>
