<?xml version="1.0" encoding="UTF-8"?>
<!DOCTYPE svg PUBLIC "-//W3C//DTD SVG 1.1//EN" "http://www.w3.org/Graphics/SVG/1.1/DTD/svg11.dtd">
<!-- Creator: CorelDRAW X6 -->
<svg xmlns="http://www.w3.org/2000/svg" xml:space="preserve" width="27.0932mm" height="12.7mm" version="1.1" style="shape-rendering:geometricPrecision; text-rendering:geometricPrecision; image-rendering:optimizeQuality; fill-rule:evenodd; clip-rule:evenodd"
viewBox="0 0 2709 1270"
 xmlns:xlink="http://www.w3.org/1999/xlink">
 <defs>
  <style type="text/css">
   <![CDATA[
    .fil2 {fill:#2873B9;fill-rule:nonzero}
    .fil3 {fill:#318A3E;fill-rule:nonzero}
    .fil0 {fill:#434242;fill-rule:nonzero}
    .fil4 {fill:#E22526;fill-rule:nonzero}
    .fil1 {fill:#F2BB0B;fill-rule:nonzero}
   ]]>
  </style>
 </defs>
 <g id="Layer_x0020_1">
  <metadata id="CorelCorpID_0Corel-Layer"/>
  <g id="_684113712">
   <polygon class="fil0" points="208,982 141,982 39,719 117,719 175,894 234,719 311,719 "/>
   <path class="fil0" d="M445 774c-31,0 -51,22 -56,55l111 0c-4,-33 -24,-55 -55,-55zm126 102l-181 0c7,34 31,51 64,51 25,0 43,-8 63,-27l42 37c-24,30 -59,49 -106,49 -78,0 -136,-55 -136,-135l0 -1c0,-74 53,-136 129,-136 87,0 127,68 127,141l0 1c0,7 0,12 -1,18z"/>
   <path class="fil0" d="M740 986c-78,0 -136,-60 -136,-135l0 -1c0,-74 57,-136 137,-136 49,0 80,17 104,44l-45 49c-17,-17 -33,-29 -59,-29 -37,0 -63,33 -63,71l0 1c0,40 26,72 66,72 25,0 42,-11 60,-28l43 44c-25,28 -54,48 -106,48z"/>
   <path class="fil0" d="M973 984c-45,0 -76,-18 -76,-78l0 -123 -31 0 0 -63 31 0 0 -67 74 0 0 67 61 0 0 63 -61 0 0 111c0,17 7,25 24,25 14,0 26,-3 36,-9l0 59c-16,9 -34,15 -58,15z"/>
   <path class="fil0" d="M1230 792c-49,0 -79,30 -79,92l0 96 -74 0 0 -261 74 0 0 52c15,-36 39,-59 83,-57l0 77 -4 0z"/>
   <path class="fil0" d="M1412 875c-13,-6 -29,-10 -47,-10 -32,0 -51,13 -51,36l0 1c0,20 17,32 40,32 35,0 58,-19 58,-46l0 -13zm-1 105l0 -28c-18,20 -43,33 -79,33 -49,0 -89,-28 -89,-80l0 -1c0,-57 43,-83 105,-83 26,0 45,4 64,11l0 -4c0,-31 -19,-48 -56,-48 -28,0 -48,5 -72,14l-18 -56c29,-13 57,-21 101,-21 81,0 116,42 116,112l0 151 -71 0z"/>
   <path class="fil0" d="M1860 980l0 -145c0,-35 -16,-53 -43,-53 -28,0 -45,18 -45,53l0 145 -74 0 0 -145c0,-35 -16,-53 -43,-53 -28,0 -45,18 -45,53l0 145 -74 0 0 -261 74 0 0 37c17,-22 39,-42 77,-42 34,0 60,15 73,41 23,-27 50,-41 86,-41 55,0 88,33 88,96l0 170 -74 0z"/>
   <path class="fil0" d="M1992 719l74 0 0 261 -74 0 0 -261zm0 261zm-2 -355l78 0 0 66 -78 0 0 -66z"/>
   <path class="fil0" d="M2290 980l0 -145c0,-35 -17,-53 -45,-53 -28,0 -46,18 -46,53l0 145 -74 0 0 -261 74 0 0 37c17,-22 39,-42 76,-42 56,0 88,37 88,97l0 169 -74 0z"/>
   <path class="fil0" d="M2608 849c0,-43 -29,-72 -63,-72 -35,0 -64,28 -64,72l0 1c0,43 29,72 64,72 35,0 63,-29 63,-72l0 -1zm-1 131l0 -37c-18,24 -43,42 -81,42 -61,0 -119,-48 -119,-135l0 -1c0,-87 57,-135 119,-135 39,0 64,18 81,39l0 -128 74 0 0 355 -74 0z"/>
   <path class="fil1" d="M365 17c-14,-2 -29,-3 -44,-3 -15,0 -30,1 -44,3l0 92c31,16 60,35 88,56l0 -148z"/>
   <path class="fil2" d="M45 211c93,12 177,52 244,111 15,-25 33,-49 52,-71 -71,-61 -157,-103 -252,-122 -19,25 -33,52 -44,82z"/>
   <path class="fil3" d="M29 291c0,5 0,10 0,15 0,26 3,51 10,75 111,21 200,104 229,212 17,3 35,5 54,5 13,0 25,-1 37,-2 -31,-161 -164,-285 -329,-305z"/>
   <path class="fil4" d="M349 381c22,28 41,59 57,92 30,-96 108,-172 206,-197 -3,-30 -11,-58 -22,-85 -104,27 -191,97 -240,191z"/>
   <path class="fil0" d="M1219 1100l-25 0 0 103 -12 0 0 -103 -15 0 0 -9 15 0 0 -24c0,-9 2,-16 7,-21 5,-5 11,-8 20,-8l10 0 0 10 -8 0c-11,0 -17,6 -17,18l0 24 25 0 0 9z"/>
   <path class="fil0" d="M1315 1146c0,-18 -3,-30 -10,-37 -7,-6 -14,-10 -23,-10 -9,0 -17,3 -23,10 -6,6 -10,19 -10,37 0,18 3,31 10,37 6,6 14,10 23,10 9,0 17,-3 23,-10 6,-6 10,-19 10,-37zm12 0c0,21 -5,36 -14,45 -8,8 -18,12 -31,12 -12,0 -23,-4 -31,-12 -9,-9 -14,-24 -14,-45 0,-21 5,-36 14,-45 8,-8 18,-12 31,-12 12,0 23,4 31,12 9,9 14,24 14,45z"/>
   <path class="fil0" d="M1432 1100l-9 9c-6,-6 -13,-9 -21,-9 -9,0 -17,3 -22,10 -5,7 -8,15 -8,24l0 69 -12 0 0 -111 12 0 0 15c7,-11 18,-16 33,-16 11,0 20,4 27,11z"/>
   <path class="fil0" d="M1522 1140c0,-9 -2,-16 -4,-21 -2,-6 -6,-10 -11,-13 -5,-3 -11,-5 -18,-5 -7,0 -12,2 -18,5 -5,3 -9,8 -11,13 -2,6 -4,13 -4,21l66 0zm12 9l-77 0c0,29 12,44 36,44 12,0 22,-5 31,-14l9 7c-11,11 -25,17 -40,17 -32,0 -47,-19 -47,-57 0,-18 4,-32 12,-42 8,-10 19,-15 33,-15 14,0 25,5 33,14 8,10 12,23 12,40l0 5z"/>
   <polygon class="fil0" points="1641,1091 1600,1202 1589,1202 1548,1091 1561,1091 1594,1188 1628,1091 "/>
   <path class="fil0" d="M1733 1140c0,-9 -2,-16 -4,-21 -2,-6 -6,-10 -11,-13 -5,-3 -11,-5 -18,-5 -6,0 -12,2 -18,5 -5,3 -9,8 -11,13 -2,6 -4,13 -4,21l66 0zm12 9l-77 0c0,29 12,44 36,44 12,0 22,-5 31,-14l9 7c-11,11 -25,17 -40,17 -32,0 -47,-19 -47,-57 0,-18 4,-32 12,-42 8,-10 19,-15 33,-15 14,0 25,5 33,14 8,10 12,23 12,40l0 5z"/>
   <path class="fil0" d="M1849 1100l-9 9c-6,-6 -13,-9 -21,-9 -9,0 -17,3 -22,10 -5,7 -8,15 -8,24l0 69 -12 0 0 -111 12 0 0 15c7,-11 18,-16 33,-16 11,0 20,4 27,11z"/>
   <path class="fil0" d="M1993 1140c0,-9 -2,-16 -4,-21 -2,-6 -6,-10 -11,-13 -5,-3 -11,-5 -18,-5 -6,0 -12,2 -18,5 -5,3 -9,8 -11,13 -2,6 -4,13 -4,21l66 0zm12 9l-77 0c0,29 12,44 36,44 12,0 22,-5 31,-14l9 7c-11,11 -25,17 -40,17 -32,0 -47,-19 -47,-57 0,-18 4,-32 12,-42 8,-10 19,-15 33,-15 14,0 25,5 33,14 8,10 12,23 12,40l0 5z"/>
   <polygon class="fil0" points="2112,1091 2071,1202 2060,1202 2019,1091 2032,1091 2066,1188 2099,1091 "/>
   <path class="fil0" d="M2204 1146c0,-18 -3,-30 -10,-37 -7,-6 -14,-10 -23,-10 -9,0 -17,3 -23,10 -6,6 -10,19 -10,37 0,18 3,31 10,37 6,6 14,10 23,10 9,0 17,-3 23,-10 6,-6 10,-19 10,-37zm12 0c0,21 -5,36 -14,45 -8,8 -18,12 -31,12 -12,0 -23,-4 -31,-12 -9,-9 -14,-24 -14,-45 0,-21 5,-36 14,-45 8,-8 18,-12 31,-12 12,0 23,4 31,12 9,9 14,24 14,45z"/>
   <path class="fil0" d="M2286 1202l-10 0c-18,0 -27,-10 -27,-29l0 -136 12 0 0 135c0,6 1,11 4,14 3,3 7,5 13,5l8 0 0 10z"/>
   <polygon class="fil0" points="2385,1091 2345,1202 2333,1202 2292,1091 2305,1091 2339,1188 2372,1091 "/>
   <path class="fil0" d="M2418 1202l-12 0 0 -111 12 0 0 111zm3 -157c0,2 -1,5 -3,6 -2,2 -4,3 -6,3 -2,0 -5,-1 -6,-3 -2,-2 -3,-4 -3,-6 0,-2 1,-5 3,-6 2,-2 4,-3 6,-3 2,0 5,1 6,3 2,2 3,4 3,6z"/>
   <path class="fil0" d="M2544 1202l-12 0 0 -69c0,-22 -10,-33 -31,-33 -10,0 -18,3 -23,9 -6,6 -8,14 -8,25l0 69 -12 0 0 -111 12 0 0 13c8,-10 19,-15 33,-15 13,0 23,4 30,11 7,7 11,18 11,30l0 71z"/>
   <path class="fil0" d="M2651 1146c0,-14 -2,-25 -6,-32 -5,-10 -14,-15 -26,-15 -12,0 -21,5 -26,15 -4,7 -6,18 -6,32 0,14 2,25 6,32 5,10 14,15 26,15 12,0 21,-5 26,-15 4,-7 6,-18 6,-32zm12 62c0,14 -4,26 -12,35 -8,9 -19,13 -33,13 -8,0 -15,-1 -20,-3 -5,-2 -11,-6 -17,-12l8 -8c5,4 9,7 12,9 4,2 10,3 16,3 11,0 20,-4 26,-11 5,-7 8,-16 8,-27l0 -20c-8,10 -19,16 -33,16 -12,0 -21,-3 -27,-10 -10,-10 -14,-25 -14,-47 0,-22 5,-38 14,-47 6,-6 16,-10 27,-10 14,0 25,5 33,16l0 -14 12 0 0 118z"/>
  </g>
 </g>
</svg>
