<?xml version="1.0" encoding="UTF-8"?>
<!DOCTYPE svg PUBLIC "-//W3C//DTD SVG 1.1//EN" "http://www.w3.org/Graphics/SVG/1.1/DTD/svg11.dtd">
<!-- Creator: CorelDRAW X6 -->
<svg xmlns="http://www.w3.org/2000/svg" xml:space="preserve" width="50mm" height="60mm" version="1.1" style="shape-rendering:geometricPrecision; text-rendering:geometricPrecision; image-rendering:optimizeQuality; fill-rule:evenodd; clip-rule:evenodd"
viewBox="0 0 5000 6000"
 xmlns:xlink="http://www.w3.org/1999/xlink">
 <defs>
  <style type="text/css">
   <![CDATA[
    .str0 {stroke:#687378;stroke-width:211.67}
    .str1 {stroke:#687378;stroke-width:211.67;stroke-linecap:round;stroke-linejoin:round}
    .str2 {stroke:#687378;stroke-width:338.67}
    .str3 {stroke:#687378;stroke-width:338.67;stroke-linecap:round;stroke-linejoin:round}
    .str4 {stroke:#687378;stroke-width:592.67}
    .fil0 {fill:none}
    .fil2 {fill:#FEFEFE}
    .fil1 {fill:#687378}
   ]]>
  </style>
   <clipPath id="id0">
    <rect x="-28330" y="691" width="7055" height="7055"/>
   </clipPath>
   <clipPath id="id1">
    <rect x="-11195" y="-4930" width="5433" height="5433"/>
   </clipPath>
   <clipPath id="id2">
    <rect x="9760" y="44" width="4763" height="4763"/>
   </clipPath>
 </defs>
 <g id="Layer_x0020_1">
  <metadata id="CorelCorpID_0Corel-Layer"/>
  <g style="clip-path:url(#id0)">
   <image id="_199792-200.png" transform="matrix(1 0 0 1 -30830.1 4745.86)" x="2500" y="-4055" width="7055" height="7055" xlink:href="voice_Images\voice_ImgID1.png"/>
  </g>
  <path class="fil0 str0" d="M45981 -961l1914 0c262,0 476,214 476,476l0 1041c0,262 -214,479 -476,476l-1041 -12 -610 549c-46,27 -75,-8 -71,-52l-7 -485 -185 0c-262,0 -414,-214 -414,-476l0 -1041c0,-262 153,-476 414,-476z"/>
  <path class="fil0 str1" d="M47229 1470l0 1520c0,148 -122,270 -270,270l-2595 0c-149,0 -270,-122 -270,-270l0 -4649c0,-148 122,-270 270,-270l2595 0c149,0 270,122 270,270l0 282"/>
  <line class="fil0 str1" x1="45255" y1="2601" x2="46017" y2= "2601" />
  <line class="fil0 str1" x1="46174" y1="335" x2="47757" y2= "335" />
  <line class="fil0 str1" x1="46174" y1="-265" x2="47757" y2= "-265" />
  <g style="clip-path:url(#id1)">
   <image id="bell-icon-17.png" transform="matrix(1 0 0 1 -13695.4 -2496.95)" x="2500" y="-2433" width="5433" height="5433" xlink:href="voice_Images\voice_ImgID2.png"/>
  </g>
  <g id="_690846688">
   <circle class="fil1" cx="-10727" cy="1473" r="282"/>
   <path class="fil1" d="M-10140 5328c133,0 159,194 163,352 9,382 -317,745 -749,751 -432,7 -753,-398 -744,-751 4,-151 35,-350 174,-351l1156 -2z"/>
   <path class="fil0 str2" d="M-12743 5471l3948 0c210,3 333,-28 178,-192 -249,-263 -481,-575 -753,-1128 -124,-404 -236,-817 -232,-1319 8,-427 -108,-955 -948,-1104 -145,-26 -191,-26 -335,-1 -637,115 -874,342 -976,988 -18,111 -14,173 -15,283 -2,348 -89,689 -202,1027 -144,400 -364,859 -764,1249 -95,93 -53,205 98,197z"/>
   <path class="fil2" d="M-11143 5687c4,80 43,370 409,415 68,10 82,88 -7,85 -115,-5 -454,-56 -495,-494 -8,-83 89,-82 93,-5z"/>
  </g>
  <g style="clip-path:url(#id2)">
   <image id="download.png" transform="matrix(0.6 0 0 0.6 8259.66 3006.91)" x="2500" y="-4938" width="7938" height="7938" xlink:href="voice_Images\voice_ImgID3.png"/>
  </g>
  <g id="_690836800">
   <path class="fil0 str2" d="M3400 1188l0 1981c0,979 -1804,924 -1804,0l0 -1981c0,-1198 1804,-1171 1804,0z"/>
   <path class="fil0 str3" d="M876 2381c0,0 -203,1494 779,2039 580,264 1362,247 1874,-160 251,-199 497,-515 562,-831 45,-218 71,-555 29,-1070"/>
   <line class="fil0 str3" x1="1556" y1="5700" x2="3437" y2= "5700" />
   <line class="fil0 str4" x1="2523" y1="4595" x2="2523" y2= "5700" />
  </g>
 </g>
</svg>
