<?xml version="1.0" encoding="UTF-8"?>
<!DOCTYPE svg PUBLIC "-//W3C//DTD SVG 1.1//EN" "http://www.w3.org/Graphics/SVG/1.1/DTD/svg11.dtd">
<!-- Creator: CorelDRAW X6 -->
<svg xmlns="http://www.w3.org/2000/svg" xml:space="preserve" width="42.3332mm" height="42.3332mm" version="1.1" style="shape-rendering:geometricPrecision; text-rendering:geometricPrecision; image-rendering:optimizeQuality; fill-rule:evenodd; clip-rule:evenodd"
viewBox="0 0 4233 4233"
 xmlns:xlink="http://www.w3.org/1999/xlink">
 <defs>
  <style type="text/css">
   <![CDATA[
    .str0 {stroke:#2B2A29;stroke-width:7.62}
    .str1 {stroke:#FE5B54;stroke-width:135.47}
    .str2 {stroke:#FE5B54;stroke-width:135.47;stroke-linecap:round;stroke-linejoin:round}
    .fil3 {fill:none}
    .fil0 {fill:#5B6678}
    .fil2 {fill:#FE5B54}
    .fil1 {fill:white}
   ]]>
  </style>
   <clipPath id="id0">
    <rect x="4574" y="-74" width="4335" height="4335"/>
   </clipPath>
   <clipPath id="id1">
    <rect x="17204" y="-2777" width="11227" height="5182"/>
   </clipPath>
 </defs>
 <g id="Layer_x0020_1">
  <metadata id="CorelCorpID_0Corel-Layer"/>
  <rect class="fil0" x="11197" y="2483" width="873" height="68" rx="36" ry="36"/>
  <path class="fil0" d="M10941 2150l-421 -348 1040 -841c63,-41 136,-41 199,0l1013 841 -470 389 0 -452c-23,-77 -50,-122 -145,-145l-1058 0c-81,18 -136,63 -149,149l-9 407z"/>
  <rect class="fil0" x="11203" y="1856" width="873" height="68" rx="36" ry="36"/>
  <path class="fil0" d="M10439 1892l0 1230 597 -534c32,-23 77,14 50,50l-556 538c-9,14 23,27 51,29l2129 0c41,-2 54,-16 63,-29l-579 -543c-36,-27 5,-104 59,-59l547 529c36,18 45,0 59,-59l0 -1153 -1054 859c-104,68 -208,59 -299,0l-1068 -859z"/>
  <rect class="fil0" x="11197" y="2057" width="873" height="68" rx="36" ry="36"/>
  <rect class="fil0" x="11197" y="2265" width="873" height="68" rx="36" ry="36"/>
  <path class="fil1" d="M15545 1796c0,1169 -948,2117 -2117,2117 -1169,0 -2117,-948 -2117,-2117 0,-1169 948,-2117 2117,-2117 1169,0 2117,948 2117,2117zm8467 0c0,1169 -948,2117 -2117,2117 -1169,0 -2117,-948 -2117,-2117 0,-1169 948,-2117 2117,-2117 1169,0 2117,948 2117,2117zm4233 5027c0,1169 -948,2117 -2117,2117 -1169,0 -2117,-948 -2117,-2117 0,-1169 948,-2117 2117,-2117 1169,0 2117,948 2117,2117z"/>
  <rect class="fil2 str0" x="-2908" y="1376" width="965" height="914"/>
  <g style="clip-path:url(#id0)">
   <image id="chatbot-06-512.png" transform="matrix(1 0 0 1 2456.86 2143.86)" x="2117" y="-2218" width="4335" height="4335" xlink:href="chatbot_Images\chatbot_ImgID1.png"/>
  </g>
  <g id="_749534528">
   <rect class="fil3 str1" x="584" y="1154" width="3065" height="2392" rx="1001" ry="1001"/>
   <circle class="fil3 str1" cx="946" cy="598" r="145"/>
   <circle class="fil3 str1" cx="3282" cy="598" r="145"/>
   <circle class="fil3 str1" cx="2659" cy="2322" r="145"/>
   <circle class="fil3 str1" cx="2103" cy="2322" r="145"/>
   <circle class="fil3 str1" cx="1547" cy="2322" r="145"/>
   <line class="fil3 str1" x1="1240" y1="1216" x2="1008" y2= "729" />
   <line class="fil3 str1" x1="3002" y1="1220" x2="3223" y2= "730" />
   <line class="fil3 str2" x1="1558" y1="3780" x2="2715" y2= "3780" />
   <path class="fil3 str2" d="M1057 1699c99,-105 211,-179 334,-222"/>
   <path class="fil3 str1" d="M1647 1679l912 0c330,0 601,270 601,601l0 89c0,417 -465,573 -464,583l11 334c2,52 -275,-21 -304,-316l-756 0c-330,0 -601,-270 -601,-601l0 -89c0,-330 270,-601 601,-601z"/>
  </g>
  <g style="clip-path:url(#id1)">
   <image id="tmp2.jpg" transform="matrix(1 0 0 1 15087.6 287.85)" x="2117" y="-3065" width="11227" height="5182" xlink:href="chatbot_Images\chatbot_ImgID2.png"/>
  </g>
 </g>
</svg>
