<?xml version="1.0" encoding="UTF-8"?>
<!DOCTYPE svg PUBLIC "-//W3C//DTD SVG 1.1//EN" "http://www.w3.org/Graphics/SVG/1.1/DTD/svg11.dtd">
<!-- Creator: CorelDRAW X6 -->
<svg xmlns="http://www.w3.org/2000/svg" xml:space="preserve" width="42.3332mm" height="42.3332mm" version="1.1" style="shape-rendering:geometricPrecision; text-rendering:geometricPrecision; image-rendering:optimizeQuality; fill-rule:evenodd; clip-rule:evenodd"
viewBox="0 0 4233 4233"
 xmlns:xlink="http://www.w3.org/1999/xlink">
 <defs>
  <style type="text/css">
   <![CDATA[
    .str0 {stroke:#F6CC2C;stroke-width:135.47}
    .str1 {stroke:#F6CC2C;stroke-width:135.47;stroke-linecap:round;stroke-linejoin:round}
    .fil0 {fill:none}
   ]]>
  </style>
   <clipPath id="id0">
    <rect x="4479" y="252" width="3691" height="3611"/>
   </clipPath>
    <clipPath id="id1">
     <rect transform="matrix(9.47889 0 0 9.47889 -15584.7 -16200.6)" x="2117" y="1736" width="389" height="381"/>
    </clipPath>
 </defs>
 <g id="Layer_x0020_1">
  <metadata id="CorelCorpID_0Corel-Layer"/>
  <rect class="fil0 str0" x="508" y="508" width="3217" height="3217" rx="204" ry="204"/>
  <circle class="fil0 str1" cx="1326" cy="1469" r="290"/>
  <path class="fil0 str1" d="M1326 975l0 173m0 641l0 1509"/>
  <circle class="fil0 str1" cx="2962" cy="1810" r="290"/>
  <path class="fil0 str1" d="M2962 975l0 514m0 641l0 1169"/>
  <circle class="fil0 str1" cx="2130" cy="2703" r="290"/>
  <path class="fil0 str1" d="M2130 3266l0 -242m0 -641l0 -1441"/>
  <g style="clip-path:url(#id0)">
   <image id="tmp2.jpg" style="clip-path:url(#id1)" transform="matrix(9.47889 0 0 9.47889 -15584.7 -16200.6)" x="-5097" y="-2739" width="11227" height="5182" xlink:href="rcs_Images\rcs_ImgID1.png"/>
  </g>
 </g>
</svg>
