<?xml version="1.0" encoding="UTF-8"?>
<!DOCTYPE svg PUBLIC "-//W3C//DTD SVG 1.1//EN" "http://www.w3.org/Graphics/SVG/1.1/DTD/svg11.dtd">
<!-- Creator: CorelDRAW X6 -->
<svg xmlns="http://www.w3.org/2000/svg" xml:space="preserve" width="42.3332mm" height="42.3332mm" version="1.1" style="shape-rendering:geometricPrecision; text-rendering:geometricPrecision; image-rendering:optimizeQuality; fill-rule:evenodd; clip-rule:evenodd"
viewBox="0 0 4233 4233"
 xmlns:xlink="http://www.w3.org/1999/xlink">
 <defs>
  <style type="text/css">
   <![CDATA[
    .str0 {stroke:#2B2A29;stroke-width:7.62}
    .str1 {stroke:#FF2DB6;stroke-width:135.47}
    .str2 {stroke:#FF2DB6;stroke-width:135.47;stroke-linecap:round;stroke-linejoin:round}
    .fil3 {fill:none}
    .fil2 {fill:#51C23B}
    .fil1 {fill:#5B6678}
    .fil0 {fill:white}
   ]]>
  </style>
   <clipPath id="id0">
    <rect x="4574" y="-74" width="4335" height="4335"/>
   </clipPath>
   <clipPath id="id1">
    <rect x="7399" y="734" width="2438" height="2438"/>
   </clipPath>
   <clipPath id="id2">
    <rect x="17204" y="-2777" width="11227" height="5182"/>
   </clipPath>
 </defs>
 <g id="Layer_x0020_1">
  <metadata id="CorelCorpID_0Corel-Layer"/>
  <path class="fil0" d="M4072 3129l0 -2037c0,-511 -418,-928 -928,-928l-2024 0c0,0 -266,28 -409,143 -144,116 3107,2983 3107,2983l61 308c0,0 168,-166 193,-469z"/>
  <rect class="fil1" x="11197" y="2483" width="873" height="68" rx="36" ry="36"/>
  <path class="fil1" d="M10941 2150l-421 -348 1040 -841c63,-41 136,-41 199,0l1013 841 -470 389 0 -452c-23,-77 -50,-122 -145,-145l-1058 0c-81,18 -136,63 -149,149l-9 407z"/>
  <rect class="fil1" x="11203" y="1856" width="873" height="68" rx="36" ry="36"/>
  <path class="fil1" d="M10439 1892l0 1230 597 -534c32,-23 77,14 50,50l-556 538c-9,14 23,27 51,29l2129 0c41,-2 54,-16 63,-29l-579 -543c-36,-27 5,-104 59,-59l547 529c36,18 45,0 59,-59l0 -1153 -1054 859c-104,68 -208,59 -299,0l-1068 -859z"/>
  <rect class="fil1" x="11197" y="2057" width="873" height="68" rx="36" ry="36"/>
  <rect class="fil1" x="11197" y="2265" width="873" height="68" rx="36" ry="36"/>
  <path class="fil0" d="M15545 1796c0,1169 -948,2117 -2117,2117 -1169,0 -2117,-948 -2117,-2117 0,-1169 948,-2117 2117,-2117 1169,0 2117,948 2117,2117zm8467 0c0,1169 -948,2117 -2117,2117 -1169,0 -2117,-948 -2117,-2117 0,-1169 948,-2117 2117,-2117 1169,0 2117,948 2117,2117zm4233 5027c0,1169 -948,2117 -2117,2117 -1169,0 -2117,-948 -2117,-2117 0,-1169 948,-2117 2117,-2117 1169,0 2117,948 2117,2117z"/>
  <rect class="fil2 str0" x="-2908" y="1376" width="965" height="914"/>
  <g style="clip-path:url(#id0)">
   <image id="chatbot-06-512.png" transform="matrix(1 0 0 1 2456.86 2143.86)" x="2117" y="-2218" width="4335" height="4335" xlink:href="social media_Images\social media_ImgID1.png"/>
  </g>
  <g style="clip-path:url(#id1)">
   <image id="images.jpg" transform="matrix(1.28001 0 0 1.28001 4689.5 463.327)" x="2117" y="212" width="1905" height="1905" xlink:href="social media_Images\social media_ImgID2.png"/>
  </g>
  <g id="_755076528">
   <circle class="fil3 str1" cx="2127" cy="2125" r="523"/>
   <line class="fil3 str2" x1="2127" y1="1601" x2="2127" y2= "981" />
   <line class="fil3 str2" x1="2589" y1="1856" x2="3128" y2= "1551" />
   <line class="fil3 str2" x1="2589" y1="3471" x2="3128" y2= "3166" />
   <line class="fil3 str2" x1="1675" y1="1853" x2="1135" y2= "1548" />
   <line class="fil3 str2" x1="1675" y1="3469" x2="1135" y2= "3164" />
   <line class="fil3 str2" x1="1672" y1="2375" x2="1132" y2= "2680" />
   <line class="fil3 str2" x1="1672" y1="764" x2="1132" y2= "1069" />
   <line class="fil3 str2" x1="2582" y1="2391" x2="3122" y2= "2696" />
   <line class="fil3 str2" x1="2582" y1="780" x2="3122" y2= "1085" />
   <line class="fil3 str2" x1="2127" y1="2652" x2="2127" y2= "3209" />
   <line class="fil3 str2" x1="3488" y1="1799" x2="3488" y2= "2419" />
   <line class="fil3 str2" x1="742" y1="1799" x2="742" y2= "2419" />
   <circle class="fil3 str1" cx="2127" cy="530" r="298"/>
   <circle class="fil3 str1" cx="2127" cy="3703" r="298"/>
   <circle class="fil3 str1" cx="3512" cy="1319" r="298"/>
   <circle class="fil3 str1" cx="3508" cy="2910" r="298"/>
   <circle class="fil3 str1" cx="726" cy="1319" r="298"/>
   <circle class="fil3 str1" cx="721" cy="2910" r="298"/>
  </g>
  <g style="clip-path:url(#id2)">
   <image id="tmp2.jpg" transform="matrix(1 0 0 1 15087.6 287.85)" x="2117" y="-3065" width="11227" height="5182" xlink:href="social media_Images\social media_ImgID3.png"/>
  </g>
 </g>
</svg>
