<?xml version="1.0" encoding="UTF-8"?>
<!DOCTYPE svg PUBLIC "-//W3C//DTD SVG 1.1//EN" "http://www.w3.org/Graphics/SVG/1.1/DTD/svg11.dtd">
<!-- Creator: CorelDRAW X6 -->
<svg xmlns="http://www.w3.org/2000/svg" xml:space="preserve" width="84.6666mm" height="25.4mm" version="1.1" style="shape-rendering:geometricPrecision; text-rendering:geometricPrecision; image-rendering:optimizeQuality; fill-rule:evenodd; clip-rule:evenodd"
viewBox="0 0 8467 2540"
 xmlns:xlink="http://www.w3.org/1999/xlink">
 <defs>
  <style type="text/css">
   <![CDATA[
    .fil0 {fill:#04C5DE}
    .fil1 {fill:#5B6568;fill-rule:nonzero}
   ]]>
  </style>
 </defs>
 <g id="Layer_x0020_1">
  <metadata id="CorelCorpID_0Corel-Layer"/>
  <path class="fil0" d="M717 111l1026 0c284,0 590,276 590,572l0 831c-50,207 -84,486 -209,361l-255 -255c-54,-59 -80,-136 -72,-235l0 -558c-11,-95 -45,-195 -217,-217l-675 0c-173,0 -240,139 -240,240l0 558c11,229 128,257 234,262l329 0c-95,-279 72,-296 134,-257 129,60 584,534 948,892 97,80 87,120 -16,125l-206 0 -570 -248 -802 0c-285,0 -557,-258 -565,-551l-24 -898c-4,-304 285,-623 589,-623z"/>
  <path class="fil1" d="M3493 936l-287 0c-4,-28 -17,-49 -39,-64 -21,-15 -46,-22 -74,-22 -32,0 -60,8 -82,25 -22,17 -33,42 -33,76 0,0 0,0 0,0 0,0 0,0 0,0 0,1 0,2 0,2 0,0 0,0 0,0 -1,28 9,50 31,65 22,15 46,28 71,36 12,3 23,6 34,9 11,3 21,6 30,9 99,29 187,68 265,116 78,48 117,133 117,255 0,57 -10,111 -31,160 -21,49 -51,94 -93,133 -32,29 -70,54 -114,75 -43,21 -88,35 -133,44 -12,1 -24,3 -35,4 -12,1 -24,2 -35,2 -125,0 -229,-39 -312,-117 -83,-78 -127,-179 -131,-304l300 0c7,40 24,73 51,99 26,26 61,40 104,40 35,0 67,-10 95,-30 28,-20 42,-49 42,-87 0,-37 -14,-65 -41,-85 -27,-20 -58,-36 -92,-48 -13,-6 -26,-11 -39,-14 -13,-4 -25,-8 -36,-12 -10,-3 -20,-6 -29,-9 -9,-3 -18,-6 -26,-9 -16,-6 -32,-12 -46,-18 -15,-6 -29,-12 -44,-20 -12,-6 -24,-13 -36,-21 -13,-8 -25,-18 -39,-30 -40,-34 -69,-72 -89,-115 -20,-43 -30,-90 -30,-142 0,-114 42,-205 126,-274 84,-69 179,-104 287,-104 101,0 193,36 273,108 81,72 121,161 121,264z"/>
  <path id="1" class="fil1" d="M3664 1823l0 -1222 269 0 0 112 4 0c19,-40 49,-71 90,-94 41,-23 85,-39 130,-47 16,-3 33,-5 50,-7 17,-1 33,-2 47,-2 63,0 124,13 182,39 58,26 106,64 144,114 6,6 11,12 15,18 4,6 9,13 13,20 4,-7 9,-14 14,-21 5,-7 11,-12 17,-17 38,-46 85,-81 141,-106 56,-25 113,-40 172,-44 7,-1 15,-2 22,-2 7,0 15,0 22,0 72,0 140,11 204,34 64,23 120,62 169,118 56,60 91,126 105,197 14,71 21,147 21,226l0 684 -293 0 0 -651c0,-15 0,-31 -1,-49 -1,-18 -2,-35 -3,-53 -3,-24 -7,-47 -13,-69 -6,-23 -15,-43 -26,-61 -16,-25 -39,-45 -68,-61 -29,-15 -60,-25 -93,-30 -3,0 -6,0 -10,0 -4,0 -8,0 -12,0 -41,0 -80,9 -116,26 -36,18 -65,44 -87,79 -15,22 -25,47 -31,75 -6,28 -10,56 -13,84 -1,19 -2,37 -2,55 0,18 0,35 0,53 0,3 0,6 0,10 0,4 0,7 0,10l0 580 -293 0 0 -651c0,-38 -2,-76 -6,-114 -4,-37 -17,-74 -41,-109 -21,-32 -48,-57 -83,-74 -35,-17 -71,-25 -109,-25 -96,0 -158,31 -187,93 -29,62 -46,129 -49,203 -1,16 -2,32 -2,49 0,16 0,32 0,49l0 580 -293 0z"/>
  <path id="2" class="fil1" d="M6950 601l0 1222 -269 0 0 -165 -4 0c-37,53 -85,96 -146,130 -60,34 -123,57 -187,68 -13,1 -27,3 -41,4 -14,1 -28,2 -41,2 -94,0 -179,-18 -256,-54 -76,-36 -141,-86 -194,-149 -49,-59 -86,-126 -112,-203 -26,-76 -40,-157 -40,-243 0,-85 12,-164 36,-236 24,-72 64,-140 120,-203 62,-72 130,-125 206,-160 76,-35 158,-52 248,-52 84,0 161,18 232,54 71,36 130,89 179,158l0 -174 269 0zm-278 609c0,-101 -33,-187 -98,-257 -65,-70 -150,-104 -255,-103 -107,-1 -195,34 -264,106 -68,72 -103,162 -103,269 0,100 36,184 107,253 71,68 156,102 255,100 106,1 192,-33 258,-104 66,-71 99,-158 99,-262l0 -2z"/>
  <path id="3" class="fil1" d="M7143 1823l0 -1222 267 0 0 110 4 0c32,-50 69,-87 110,-111 41,-24 92,-36 152,-36l22 -2 0 284c-10,1 -21,3 -31,3 -10,1 -21,3 -31,6 -21,4 -41,11 -62,19 -21,8 -39,19 -55,32 -37,29 -60,64 -69,103 -10,39 -14,80 -14,125 0,6 0,11 0,17 0,5 0,11 0,17l0 657 -293 0z"/>
  <polygon id="4" class="fil1" points="7869,1823 7869,861 7725,861 7725,601 7869,601 7869,193 8162,193 8162,601 8338,601 8338,861 8162,861 8162,1823 "/>
 </g>
</svg>
