<?xml version="1.0" encoding="UTF-8"?>
<!DOCTYPE svg PUBLIC "-//W3C//DTD SVG 1.1//EN" "http://www.w3.org/Graphics/SVG/1.1/DTD/svg11.dtd">
<!-- Creator: CorelDRAW X6 -->
<svg xmlns="http://www.w3.org/2000/svg" xml:space="preserve" width="142.24mm" height="134.62mm" version="1.1" style="shape-rendering:geometricPrecision; text-rendering:geometricPrecision; image-rendering:optimizeQuality; fill-rule:evenodd; clip-rule:evenodd"
viewBox="0 0 14224 13462"
 xmlns:xlink="http://www.w3.org/1999/xlink">
 <defs>
  <style type="text/css">
   <![CDATA[
    .str0 {stroke:#05c4de;stroke-width:677.33}
    .fil0 {fill:none}
    .fil1 {fill:#05c4de}
   ]]>
  </style>
 </defs>
 <g id="Layer_x0020_1">
  <metadata id="CorelCorpID_0Corel-Layer"/>
  <g id="_685274480">
   <line class="fil0 str0" x1="61602" y1="18173" x2="69811" y2= "18173" />
   <line class="fil0 str0" x1="66199" y1="22049" x2="73192" y2= "22049" />
   <line class="fil0 str0" x1="69852" y1="22360" x2="69852" y2= "20256" />
   <path class="fil0 str0" d="M71943 10124c1808,918 2948,2774 2948,4801 0,2974 -2411,5384 -5384,5384 -1703,0 -3305,-805 -4321,-2172"/>
   <circle class="fil0 str0" cx="70446" cy="10566" r="1561"/>
   <path class="fil0 str0" d="M64776 10688l3622 3435c162,154 169,412 15,574l-525 553c-144,152 -387,158 -539,14l-3640 -3452c-152,-144 -158,-387 -14,-539l542 -572c144,-152 387,-158 539,-14z"/>
   <path class="fil0 str0" d="M69573 11464l-57 56 -1837 1819c0,0 -2220,-2110 -2220,-2110l5592 -5498c98,-96 255,-95 352,2 724,732 2138,1803 1802,2135l-1682 1665"/>
   <line class="fil0 str0" x1="72343" y1="6607" x2="73914" y2= "5076" />
  </g>
  <path class="fil1" d="M10134 3097l384 -622 -8932 0c-794,0 -1355,530 -1357,1338l2 6270c89,708 569,1135 1272,1135l500 0 495 8c821,-1 1163,222 1643,565l1557 1039c297,218 531,369 781,375 243,5 501,-128 842,-379l1654 -1116c593,-446 1163,-515 1709,-483 1122,67 2032,-49 2104,-1322l0 -5570 -613 987 0 3975 -7 491c-13,899 -499,825 -1234,837 -153,2 -301,1 -463,-1 -470,-6 -1166,48 -1888,614l-1918 1287c-105,82 -195,100 -327,0l-2066 -1396c-409,-291 -1004,-509 -1506,-509l-1120 1 -52 0c-418,0 -718,-171 -754,-630l0 -6162c0,-480 264,-727 734,-728l8560 -5z"/>
  <rect class="fil1" x="2273" y="8536" width="8456" height="595" rx="623" ry="623"/>
  <path class="fil1" d="M2570 6588l5863 0 -135 595 -5728 0c-164,0 -298,-134 -298,-298l0 0c0,-164 134,-298 298,-298z"/>
  <path class="fil1" d="M2570 4628l6613 0 -368 595 -6245 0c-164,0 -298,-134 -298,-298l0 0c0,-164 134,-298 298,-298z"/>
  <path class="fil1" d="M11937 1351l1439 912 -2540 4101c-6,83 -628,603 -1428,1250 -174,170 -737,485 -546,-315l335 -1439c38,-162 106,-326 208,-459l2532 -4050zm-2258 4436l709 454 -665 549 -249 -160 206 -844z"/>
  <path class="fil1" d="M12132 1007l1466 909 296 -458c178,-276 117,-552 -162,-740l-600 -364c-528,-343 -778,299 -1001,652z"/>
 </g>
</svg>
