<?xml version="1.0" encoding="UTF-8"?>
<!DOCTYPE svg PUBLIC "-//W3C//DTD SVG 1.1//EN" "http://www.w3.org/Graphics/SVG/1.1/DTD/svg11.dtd">
<!-- Creator: CorelDRAW X6 -->
<svg xmlns="http://www.w3.org/2000/svg" xml:space="preserve" width="177.8mm" height="180.34mm" version="1.1" style="shape-rendering:geometricPrecision; text-rendering:geometricPrecision; image-rendering:optimizeQuality; fill-rule:evenodd; clip-rule:evenodd"
viewBox="0 0 17780 18034"
 xmlns:xlink="http://www.w3.org/1999/xlink">
 <defs>
  <style type="text/css">
   <![CDATA[
    .str0 {stroke:white;stroke-width:677.33}
    .fil1 {fill:none}
    .fil0 {fill:white}
   ]]>
  </style>
 </defs>
 <g id="Layer_x0020_1">
  <metadata id="CorelCorpID_0Corel-Layer"/>
  <g id="_713638192">
   <path class="fil0" d="M12700 16953c-1961,-161 -3471,-1800 -3471,-3768 0,-1977 1523,-3620 3494,-3770l-23 7537 0 1z"/>
   <path class="fil0" d="M13254 16953c1961,-161 3471,-1800 3471,-3768 0,-1977 -1523,-3620 -3494,-3770l23 7537 0 1z"/>
   <path class="fil1 str0" d="M1356 13031l6446 -10895c605,-1022 1938,-1360 2959,-754l564 335c1021,606 1359,1937 754,2959l-6446 10895c-605,1022 -1938,1360 -2959,754l-564 -335c-1021,-606 -1359,-1937 -754,-2959z"/>
   <path class="fil0 str0" d="M1356 13031l3255 -5501 4247 2591 -3225 5450c-605,1022 -1938,1360 -2959,754l-564 -335c-1021,-606 -1359,-1937 -754,-2959z"/>
  </g>
 </g>
</svg>
