<?xml version="1.0" encoding="UTF-8"?>
<!DOCTYPE svg PUBLIC "-//W3C//DTD SVG 1.1//EN" "http://www.w3.org/Graphics/SVG/1.1/DTD/svg11.dtd">
<!-- Creator: CorelDRAW X6 -->
<svg xmlns="http://www.w3.org/2000/svg" xml:space="preserve" width="177.8mm" height="180.34mm" version="1.1" style="shape-rendering:geometricPrecision; text-rendering:geometricPrecision; image-rendering:optimizeQuality; fill-rule:evenodd; clip-rule:evenodd"
viewBox="0 0 17780 18034"
 xmlns:xlink="http://www.w3.org/1999/xlink">
 <defs>
  <style type="text/css">
   <![CDATA[
    .str1 {stroke:#00AFE8;stroke-width:677.33}
    .str0 {stroke:#00AFE8;stroke-width:846.67}
    .fil0 {fill:none}
    .fil1 {fill:#00AFE8}
   ]]>
  </style>
 </defs>
 <g id="Layer_x0020_1">
  <metadata id="CorelCorpID_0Corel-Layer"/>
  <path class="fil0 str0" d="M3737 3735l0 -1511c0,-559 457,-1016 1016,-1016l6974 0c975,9 4714,3960 4710,4670l0 9845c0,559 -457,1016 -1016,1016l-10668 0c-559,0 -1016,-457 -1016,-1016l0 -3601"/>
  <line class="fil0 str1" x1="10603" y1="6711" x2="6396" y2= "6711" />
  <line class="fil0 str1" x1="10603" y1="4857" x2="5734" y2= "4857" />
  <line class="fil0 str1" x1="14678" y1="8484" x2="8301" y2= "8484" />
  <line class="fil0 str1" x1="14730" y1="10389" x2="10180" y2= "10389" />
  <line class="fil0 str1" x1="14704" y1="12215" x2="10735" y2= "12215" />
  <line class="fil0 str1" x1="14730" y1="14067" x2="11238" y2= "14067" />
  <path class="fil0 str1" d="M11727 1208l0 3673c73,840 357,1045 1091,1091l3618 0"/>
  <path class="fil1" d="M6664 13286c157,-1446 1471,-2245 2335,-2335l-5947 -5854c-400,-207 -2368,1105 -2262,2262l5874 5927z"/>
  <path class="fil1" d="M10120 14384l-609 -1799c0,0 -939,225 -1164,1283l1773 516z"/>
 </g>
</svg>
