<?xml version="1.0" encoding="UTF-8"?>
<!DOCTYPE svg PUBLIC "-//W3C//DTD SVG 1.1//EN" "http://www.w3.org/Graphics/SVG/1.1/DTD/svg11.dtd">
<!-- Creator: CorelDRAW X6 -->
<svg xmlns="http://www.w3.org/2000/svg" xml:space="preserve" width="42.3332mm" height="42.3332mm" version="1.1" style="shape-rendering:geometricPrecision; text-rendering:geometricPrecision; image-rendering:optimizeQuality; fill-rule:evenodd; clip-rule:evenodd"
viewBox="0 0 4233 4233"
 xmlns:xlink="http://www.w3.org/1999/xlink">
 <defs>
  <style type="text/css">
   <![CDATA[
    .str0 {stroke:#00A26D;stroke-width:135.47;stroke-linecap:round;stroke-linejoin:round}
    .fil3 {fill:none}
    .fil1 {fill:#FEFEFE}
    .fil2 {fill:#5B6678}
    .fil0 {fill:#6E838F}
   ]]>
  </style>
   <clipPath id="id0">
    <rect x="11023" y="133" width="3209" height="3268"/>
   </clipPath>
   <clipPath id="id1">
    <rect x="-4319" y="726" width="3497" height="3497"/>
   </clipPath>
   <clipPath id="id2">
    <rect x="5783" y="-1126" width="11227" height="5182"/>
   </clipPath>
   <clipPath id="id3">
    <rect x="9714" y="382" width="4335" height="4335"/>
   </clipPath>
 </defs>
 <g id="Layer_x0020_1">
  <metadata id="CorelCorpID_0Corel-Layer"/>
  <g style="clip-path:url(#id0)">
   <image id="Untitled-1.jpg" transform="matrix(1 0 0 1 8905.98 1284.33)" x="2117" y="-1151" width="3209" height="3268" xlink:href="email_Images\email_ImgID1.png"/>
  </g>
  <path class="fil0" d="M15164 5244l0 -1251 -711 -771 -1642 0c-91,-4 -163,4 -161,127l-40 3277c7,178 92,229 220,220l1442 -20 -227 -120 -1317 5 41 -3365 1546 -4 -3 741c13,39 46,59 90,70l604 4 0 1011 157 76zm-725 -1827l-8 618 559 -8 -550 -610z"/>
  <polygon class="fil1" points="14523,3602 14523,3932 14814,3932 "/>
  <circle class="fil0" cx="14734" cy="6024" r="771"/>
  <polygon class="fil1" points="14554,5884 14554,6265 14934,6265 14934,5884 15174,5884 14754,5464 14323,5894 "/>
  <polygon class="fil1" points="14313,6405 15184,6405 15184,6535 14313,6535 "/>
  <rect class="fil0" x="13132" y="4443" width="1462" height="150" rx="60" ry="60"/>
  <rect class="fil0" x="13102" y="4923" width="1462" height="144" rx="58" ry="58"/>
  <path class="fil0" d="M13182 5374l955 0 -158 151 -797 0c-44,0 -80,-27 -80,-60l0 -30c0,-33 36,-60 80,-60z"/>
  <path class="fil0" d="M13182 5814l679 0 -7 151 -672 0c-44,0 -80,-27 -80,-60l0 -30c0,-33 36,-60 80,-60z"/>
  <g id="_750806880">
   <path class="fil2" d="M6770 3432l642 0c29,81 81,134 157,157l1290 0c77,-32 134,-86 167,-167l639 0 0 -179 -667 0c-26,-73 -79,-122 -176,-126l-378 0 0 -264 -466 0 0 264 -390 0c-76,23 -131,69 -164,138l-655 0 0 176z"/>
   <path class="fil2" d="M8218 549l1347 0c290,25 315,189 340,340l0 1347c0,189 -113,478 -428,428l-2619 0c-187,-45 -331,-131 -340,-340l0 -1800c50,-239 164,-302 321,-321l1051 0 327 346z"/>
  </g>
  <g style="clip-path:url(#id1)">
   <image id="Magnifi-Glass-2-2-icon.png" transform="matrix(1 0 0 1 -6435.52 2105.94)" x="2117" y="-1380" width="3497" height="3497" xlink:href="email_Images\email_ImgID2.png"/>
  </g>
  <g style="clip-path:url(#id2)">
   <image id="tmp2.jpg" transform="matrix(1 0 0 1 3666.07 1938.85)" x="2117" y="-3065" width="11227" height="5182" xlink:href="email_Images\email_ImgID3.png"/>
  </g>
  <g style="clip-path:url(#id3)">
   <image id="Mail-Read-icon.png" transform="matrix(1 0 0 1 7596.85 2600.16)" x="2117" y="-2218" width="4335" height="4335" xlink:href="email_Images\email_ImgID4.png"/>
  </g>
  <g id="_750841456">
   <polyline class="fil3 str0" points="396,3800 1706,2736 2103,2414 3795,3814 "/>
   <line class="fil3 str0" x1="330" y1="1437" x2="1706" y2= "2736" />
   <line class="fil3 str0" x1="3882" y1="1415" x2="2484" y2= "2730" />
   <path class="fil3 str0" d="M330 1437l0 2028c-4,285 83,444 268,465l2875 0c301,-12 435,-163 429,-429l0 -2085c-1910,-1612 -1888,-1349 -3573,22z"/>
   <polyline class="fil3 str0" points="1062,2128 1062,1079 3087,1079 3087,2130 3087,2130 "/>
   <path class="fil3 str0" d="M1461 1568c69,0 1291,0 1291,0"/>
   <line class="fil3 str0" x1="1453" y1="2020" x2="2781" y2= "2020" />
  </g>
 </g>
</svg>
