<?xml version="1.0" encoding="UTF-8"?>
<!DOCTYPE svg PUBLIC "-//W3C//DTD SVG 1.1//EN" "http://www.w3.org/Graphics/SVG/1.1/DTD/svg11.dtd">
<!-- Creator: CorelDRAW X6 -->
<svg xmlns="http://www.w3.org/2000/svg" xml:space="preserve" width="42.3332mm" height="42.3332mm" version="1.1" style="shape-rendering:geometricPrecision; text-rendering:geometricPrecision; image-rendering:optimizeQuality; fill-rule:evenodd; clip-rule:evenodd"
viewBox="0 0 4233 4233"
 xmlns:xlink="http://www.w3.org/1999/xlink"
 enable-background="new 0 0 768 1024">
 <defs>
  <style type="text/css">
   <![CDATA[
    .str4 {stroke:black;stroke-width:7.62}
    .str5 {stroke:#2B2A29;stroke-width:7.62}
    .str3 {stroke:#A4AAAB;stroke-width:16.93}
    .str9 {stroke:#51C23B;stroke-width:33.87}
    .str2 {stroke:#DB57E9;stroke-width:33.87}
    .str0 {stroke:#DB57E9;stroke-width:135.47}
    .str8 {stroke:#51C23B;stroke-width:135.48}
    .str1 {stroke:#DB57E9;stroke-width:135.48}
    .str6 {stroke:#FEFEFE;stroke-width:135.49}
    .str7 {stroke:#FEFEFE;stroke-width:135.49;stroke-linecap:round;stroke-linejoin:round}
    .fil2 {fill:none}
    .fil9 {fill:#51C23B}
    .fil8 {fill:#5B6678}
    .fil6 {fill:#95D84B}
    .fil4 {fill:#B3BBBE}
    .fil1 {fill:#DB57E9}
    .fil3 {fill:white}
    .fil0 {fill:#FF8E27;fill-rule:nonzero}
    .fil7 {fill:black;fill-opacity:0.000000}
    .fil5 {fill:url(#id9)}
   ]]>
  </style>
   <clipPath id="id0">
    <path d="M14089 -1328l3710 -116 75 4217 -3710 -28 -75 -4072z"/>
   </clipPath>
   <clipPath id="id1">
    <rect x="-4961" y="252" width="3996" height="3996"/>
   </clipPath>
   <clipPath id="id2">
    <path d="M4600 319l3863 0 -62 3844 -3863 0 62 -3844z"/>
   </clipPath>
   <clipPath id="id3">
    <path d="M38823 5350l4145 0 0 -4145 -4145 0 0 4145 0 0z"/>
   </clipPath>
   <clipPath id="id4">
    <path d="M38823 5350l4145 0 0 -4145 -4145 0 0 4145 0 0z"/>
   </clipPath>
   <clipPath id="id5">
    <path d="M35002 12113l11567 0 0 -6502 -11567 0 0 6502 0 0z"/>
   </clipPath>
   <clipPath id="id6">
    <path d="M35002 12113l11567 0 0 -6502 -11567 0 0 6502 0 0z"/>
   </clipPath>
   <clipPath id="id7">
    <path d="M34647 17693l11567 0 0 -6502 -11567 0 0 6502 0 0z"/>
   </clipPath>
   <clipPath id="id8">
    <path d="M34647 17693l11567 0 0 -6502 -11567 0 0 6502 0 0z"/>
   </clipPath>
  <linearGradient id="id9" gradientUnits="userSpaceOnUse" x1="21080.6" y1="6742.8" x2="25154.8" y2="4474.66">
   <stop offset="0" style="stop-color:white"/>
   <stop offset="1" style="stop-color:#D4D9DC"/>
  </linearGradient>
 </defs>
 <g id="Layer_x0020_1">
  <metadata id="CorelCorpID_0Corel-Layer"/>
  <g style="clip-path:url(#id0)">
   <image id="tmp2.jpg" transform="matrix(10.0197 0 0 10.0197 -79490.4 13275.6)" x="2117" y="-3065" width="11227" height="5182" xlink:href="push notifications_Images\push notifications_ImgID1.png"/>
  </g>
  <g style="clip-path:url(#id1)">
   <image id="mobile-12-512.png" transform="matrix(1 0 0 1 -7077.31 2131.13)" x="2117" y="-1880" width="3996" height="3996" xlink:href="push notifications_Images\push notifications_ImgID2.png"/>
  </g>
  <path class="fil0" d="M-7577 263l25 -76c57,20 98,37 124,52 -7,-64 -10,-109 -11,-133l78 0c-1,35 -5,79 -12,133 37,-18 79,-36 126,-51l25 76c-45,15 -90,25 -133,30 22,19 52,53 92,101l-64 46c-21,-28 -45,-67 -73,-115 -27,50 -50,89 -70,115l-63 -46c41,-51 71,-85 89,-101 -46,-9 -90,-19 -131,-30z"/>
  <path id="1" class="fil0" d="M-7128 919l47 -228 -91 0 0 -80 107 0 40 -194 -147 0 0 -80 163 0 47 -230 81 0 -47 230 168 0 47 -230 80 0 -47 230 93 0 0 80 -109 0 -40 194 149 0 0 80 -165 0 -47 228 -81 0 47 -228 -168 0 -47 228 -80 0zm143 -309l168 0 40 -194 -168 0 -40 194z"/>
  <g style="clip-path:url(#id2)">
   <image id="tmp2.jpg_0" transform="matrix(9.70861 0 0 9.70861 -85972 6053.26)" x="2117" y="-3065" width="11227" height="5182" xlink:href="push notifications_Images\push notifications_ImgID3.png"/>
  </g>
  <circle class="fil1" cx="1235" cy="1473" r="101"/>
  <path class="fil2 str0" d="M3312 2107l0 1154c7,397 -2,473 -335,487l-2139 -14c-279,-8 -271,-143 -273,-468l0 -1959c0,-192 68,-332 260,-332l1860 14"/>
  <line class="fil2 str1" x1="618" y1="1874" x2="2853" y2= "1871" />
  <circle class="fil1" cx="942" cy="1478" r="101"/>
  <path class="fil1 str2" d="M3838 1543c0,-2 0,-2 -2,-3 -8,-15 -17,-27 -29,-35 -84,-56 -134,-210 -149,-457 -12,-183 -123,-332 -267,-378 11,-20 17,-43 17,-69 0,-70 -49,-127 -108,-127 -59,0 -108,56 -108,127 0,24 6,49 17,69 -143,46 -255,195 -267,378 -17,247 -67,401 -149,457 -24,17 -40,50 -46,101 -3,32 -5,99 17,125 6,6 14,11 21,11l329 0c15,105 91,184 184,184 93,0 171,-79 184,-184l329 0c8,0 17,-5 21,-11 21,-26 20,-93 17,-125 -3,-24 -8,-46 -15,-62l0 0 3 0zm-537 -995c26,0 46,24 46,55 0,30 -21,55 -46,55 -26,0 -46,-24 -46,-55 0,-30 21,-55 46,-55zm0 1306c-59,0 -108,-47 -122,-113l244 0c-14,64 -64,113 -122,113l0 0 0 0zm491 -184l-983 0c-2,-12 -2,-29 0,-49 3,-32 11,-49 15,-52 104,-70 162,-238 180,-514 12,-183 142,-325 296,-325 154,0 285,143 296,325 9,133 27,241 55,325 12,26 24,52 29,73 14,27 29,52 47,73 32,37 32,59 61,73 2,6 3,15 3,24 2,20 3,23 1,35l-1 12 2 -2z"/>
  <ellipse class="fil1" cx="3307" cy="613" rx="75" ry="82"/>
  <rect class="fil1" x="1575" y="1397" width="1084" height="169"/>
 </g>
 <g id="Layer_x0020_1_1">
  <metadata id="CorelCorpID_1Corel-Layer"/>
  <path class="fil3" d="M25074 6622l0 -2037c0,-511 -418,-928 -928,-928l-2024 0c0,0 -266,28 -409,143 -144,116 3107,2983 3107,2983l61 308c0,0 168,-166 193,-469l0 0z"/>
  <path class="fil4 str3" d="M24115 7562l-2024 0c-511,0 -928,-418 -928,-928l0 -2037c0,0 18,-436 296,-607 295,-182 3326,3226 3326,3226 0,0 -139,346 -670,346z"/>
  <path class="fil5" d="M22118 3704l1999 0c500,0 905,405 905,905l0 1999c0,500 -405,905 -905,905l-1999 0c-500,0 -905,-405 -905,-905l0 -1999c0,-500 405,-905 905,-905z"/>
  <path class="fil3" d="M39177 7409c0,1169 -948,2117 -2117,2117 -1169,0 -2117,-948 -2117,-2117 0,-1169 948,-2117 2117,-2117 1169,0 2117,948 2117,2117zm8468 0c0,1169 -948,2117 -2117,2117 -1169,0 -2117,-948 -2117,-2117 0,-1169 948,-2117 2117,-2117 1169,0 2117,948 2117,2117zm4233 5027c0,1169 -948,2117 -2117,2117 -1169,0 -2117,-948 -2117,-2117 0,-1169 948,-2117 2117,-2117 1169,0 2117,948 2117,2117z"/>
  <g style="clip-path:url(#id3)">
   <g id="_749590848">
   </g>
  </g>
  <polyline class="fil2" points="38823,5350 42969,5350 42969,1205 38823,1205 38823,5350 "/>
  <g style="clip-path:url(#id4)">
   <path id="1" class="fil2 str4" d="M38823 1205l4145 4145m0 -4145l-4145 4145"/>
  </g>
  <rect class="fil2 str5" x="32412" y="8721" width="593" height="1863"/>
 </g>
 <g id="Layer_x0020_1_0">
  <metadata id="CorelCorpID_2Corel-Layer"/>
  <circle class="fil6 str6" cx="10507" cy="4595" r="1943"/>
 </g>
 <g id="Layer_x0020_1_1_2">
  <metadata id="CorelCorpID_3Corel-Layer"/>
  <g style="clip-path:url(#id5)">
   <polygon class="fil7" points="35002,5610 46569,5610 46569,12113 35002,12113 "/>
  </g>
  <g style="clip-path:url(#id6)">
   <g id="_749583040">
    <path id="1" class="fil8" d="M42018 7349l801 0c20,0 36,15 36,34l0 0c0,19 -16,34 -36,34l-801 0c-20,0 -36,-15 -36,-34l0 0c0,-19 16,-34 36,-34z"/>
    <path class="fil8" d="M41726 7017l-421 -348 1040 -841c63,-41 136,-41 199,0l1013 841 -470 389 0 -452c-23,-77 -50,-122 -145,-145l-1058 0c-81,18 -136,63 -149,149l-9 407 0 0z"/>
    <path class="fil8" d="M42025 6723l801 0c20,0 36,15 36,34l0 0c0,19 -16,34 -36,34l-801 0c-20,0 -36,-15 -36,-34l0 0c0,-19 16,-34 36,-34z"/>
    <path class="fil8" d="M41224 6759l0 1230 597 -534c32,-23 77,14 50,50l-556 538c-9,14 23,27 51,29l2129 0c41,-2 54,-16 63,-29l-579 -543c-36,-27 5,-104 59,-59l547 529c36,18 45,0 59,-59l0 -1153 -1054 859c-104,68 -208,59 -299,0l-1068 -859 1 1z"/>
    <path class="fil8" d="M42018 6924l801 0c20,0 36,15 36,34l0 0c0,19 -16,34 -36,34l-801 0c-20,0 -36,-15 -36,-34l0 0c0,-19 16,-34 36,-34z"/>
    <path class="fil8" d="M42018 7132l801 0c20,0 36,15 36,34l0 0c0,19 -16,34 -36,34l-801 0c-20,0 -36,-15 -36,-34l0 0c0,-19 16,-34 36,-34z"/>
    <path class="fil6" d="M46569 7962c-227,-821 -982,-1427 -1873,-1427 -1070,0 -1943,873 -1943,1943 0,1070 873,1943 1943,1943 892,0 1646,-606 1873,-1427l0 -1033z"/>
    <path class="fil2 str6" d="M39532 8888l527 0c68,0 123,55 123,123l0 858c0,68 -55,123 -123,123l-650 0 -675 0 0 0 -3 0 0 0 -3 0 0 0 -3 0 0 0 -3 0 0 0 -3 0 0 0 -3 0 0 0 -3 -1 0 0 -3 -1 0 0 -3 -1 0 0 -3 -1 0 0 -3 -1 0 0 -3 -1 0 0 -3 -1 0 0 -3 -1 -3 -1 0 0 -3 -1 0 0 -3 -1 0 0 -3 -1 0 0 -3 -1 0 0 -3 -1c-2,-1 -3,-2 -5,-3l0 0 -3 -2 -2 -2 0 0 -2 -2 0 0 -2 -2 0 0 -2 -2 0 0 -2 -2 0 0 -2 -2 0 0 -2 -2 0 0 -2 -2 0 0 -2 -2 -2 -2 0 0 -2 -2 0 0 -2 -2 0 0 -2 -2 0 0 -2 -2 0 0 -2 -2 0 0 -2 -2 0 0 -2 -2 0 0 -2 -2 -2 -3 0 0c-1,-2 -2,-3 -3,-5l-1 -3 0 0 -1 -3 0 0 -1 -3 0 0 -1 -3 0 0 -1 -3 0 0 -1 -3 -1 -3 0 0 -1 -3 0 0 -1 -3 0 0 -1 -3 0 0 -1 -3 0 0 -1 -3 0 0 -1 -3 0 0 -1 -3 0 0 0 -3 0 0 0 -3 0 0 0 -3 0 0 0 -3 0 0 0 -3 0 0 0 -3 0 0 0 -858 0 -262c0,-68 55,-123 123,-123l675 0c68,0 123,55 123,123l0 139 0 0 0 0m-211 0l176 0"/>
    <path class="fil2 str6" d="M39516 10340c0,-67 -55,-122 -122,-122 -67,0 -122,55 -122,122 0,67 55,122 122,122 67,0 122,-55 122,-122"/>
    <path class="fil2 str7" d="M38473 10342l799 0m244 0l806 0"/>
    <line class="fil2 str6" x1="39395" y1="9987" x2="39395" y2= "10218" />
    <line class="fil2 str7" x1="39322" y1="8888" x2="39498" y2= "8888" />
   </g>
  </g>
  <polygon class="fil2" points="35002,12113 46569,12113 46569,5610 35002,5610 35002,12113 "/>
  <polyline class="fil2" points="35002,12113 46569,12113 46569,5610 35002,5610 35002,12113 "/>
 </g>
 <g id="Layer_x0020_1_2">
  <metadata id="CorelCorpID_4Corel-Layer"/>
  <g id="_749579520">
   <path class="fil8" d="M27015 15282c-33,0 -55,2 -67,5l0 212c14,3 31,4 54,4 86,0 139,-44 139,-116 0,-66 -45,-105 -127,-105l1 0 0 0z"/>
   <path class="fil8" d="M26654 14319c-91,-91 -239,-91 -330,0l-1036 1036c-91,91 -91,239 0,330l1036 1036c91,91 239,91 330,0l1036 -1036c44,-44 68,-103 68,-165 0,-62 -25,-121 -68,-165l-1036 -1036zm-542 978l-276 0 0 164 258 0 0 132 -258 0 0 288 -162 0 0 -717 437 0 0 133 1 0zm619 3l-196 0 0 581 -162 0 0 -581 -194 0 0 -136 551 0 0 136 1 0 0 0zm506 252c-55,51 -138,76 -234,76 -21,0 -40,-1 -55,-4l0 258 -161 0 0 -708c50,-9 120,-15 219,-15 100,0 172,19 220,59 46,35 76,95 76,165 0,71 -22,131 -65,170l0 -1 0 0z"/>
   <path class="fil8" d="M27708 13934c-23,-2 -44,-13 -57,-32 -167,-231 -438,-374 -727,-374 -21,0 -42,1 -63,2 -19,1 -37,-4 -52,-16 -175,-134 -388,-207 -611,-207 -399,0 -753,234 -914,587 -11,24 -34,41 -60,44 -441,55 -783,432 -783,888 0,404 269,746 637,857 -22,-51 -34,-106 -34,-164 0,-74 20,-144 56,-206 -181,-88 -306,-273 -306,-488 0,-299 243,-542 543,-542 15,0 30,1 45,2 86,7 164,-49 185,-133 73,-291 333,-494 632,-494 171,0 333,66 456,186 42,41 102,58 159,46 37,-8 74,-11 111,-11 209,0 396,118 488,307 32,67 103,106 176,99 18,-2 37,-3 54,-3 299,0 543,243 543,542 0,214 -125,399 -306,488 36,62 56,132 56,206 0,57 -12,113 -34,164 368,-111 637,-453 637,-857 0,-472 -367,-860 -830,-893l-1 2 0 0z"/>
  </g>
 </g>
 <g id="Layer_x0020_1_3">
  <metadata id="CorelCorpID_5Corel-Layer"/>
  <g style="clip-path:url(#id7)">
   <polygon class="fil7" points="34647,11191 46214,11191 46214,17693 34647,17693 "/>
  </g>
  <g style="clip-path:url(#id8)">
   <g id="_749580640">
   </g>
  </g>
  <polygon class="fil2" points="34647,17693 46214,17693 46214,11191 34647,11191 34647,17693 "/>
  <polyline class="fil2" points="34647,17693 46214,17693 46214,11190 34647,11190 34647,17693 "/>
  <path class="fil2 str6" d="M29395 13094l527 0c68,0 123,55 123,123l0 858c0,68 -55,123 -123,123l-650 0 -675 0 0 0 -3 0 0 0 -3 0 0 0 -3 0 0 0 -3 0 0 0 -3 0 0 0 -3 0 0 0 -3 -1 0 0 -3 -1 0 0 -3 -1 0 0 -3 -1 0 0 -3 -1 0 0 -3 -1 0 0 -3 -1 0 0 -3 -1 -3 -1 0 0 -3 -1 0 0 -3 -1 0 0 -3 -1 0 0 -3 -1 0 0 -3 -1c-2,-1 -3,-2 -5,-3l0 0 -3 -2 -2 -2 0 0 -2 -2 0 0 -2 -2 0 0 -2 -2 0 0 -2 -2 0 0 -2 -2 0 0 -2 -2 0 0 -2 -2 0 0 -2 -2 -2 -2 0 0 -2 -2 0 0 -2 -2 0 0 -2 -2 0 0 -2 -2 0 0 -2 -2 0 0 -2 -2 0 0 -2 -2 0 0 -2 -2 -2 -3 0 0c-1,-2 -2,-3 -3,-5l-1 -3 0 0 -1 -3 0 0 -1 -3 0 0 -1 -3 0 0 -1 -3 0 0 -1 -3 -1 -3 0 0 -1 -3 0 0 -1 -3 0 0 -1 -3 0 0 -1 -3 0 0 -1 -3 0 0 -1 -3 0 0 -1 -3 0 0 0 -3 0 0 0 -3 0 0 0 -3 0 0 0 -3 0 0 0 -3 0 0 0 -3 0 0 0 -858 0 -262c0,-68 55,-123 123,-123l675 0c68,0 123,55 123,123l0 139 0 0 0 0zm-211 0l176 0"/>
  <circle class="fil2 str6" cx="29257" cy="14545" r="122"/>
  <path class="fil2 str7" d="M28336 14547l799 0m244 0l806 0"/>
  <line class="fil2 str6" x1="29258" y1="14192" x2="29258" y2= "14423" />
  <line class="fil2 str7" x1="29185" y1="13094" x2="29361" y2= "13094" />
 </g>
 <g id="Layer_x0020_1_1_5">
  <metadata id="CorelCorpID_6Corel-Layer"/>
  <circle class="fil8" cx="22597" cy="5113" r="66"/>
  <path class="fil2 str8" d="M23928 5580l-1 766c0,126 -103,229 -229,229l-1299 0c-126,0 -229,-103 -229,-229l0 -1285c0,-126 103,-229 229,-229l1088 2"/>
  <line class="fil2 str8" x1="22170" y1="5421" x2="23529" y2= "5419" />
  <circle class="fil8" cx="22405" cy="5116" r="66"/>
  <path class="fil9 str9" d="M24322 5181c0,-1 0,-1 -1,-2 -5,-10 -11,-18 -19,-23 -55,-37 -88,-138 -98,-300 -8,-120 -81,-218 -175,-248 7,-13 11,-28 11,-45 0,-46 -32,-83 -71,-83 -39,0 -71,37 -71,83 0,16 4,32 11,45 -94,30 -167,128 -175,248 -11,162 -44,263 -98,300 -16,11 -26,33 -30,66 -2,21 -3,65 11,82 4,4 9,7 14,7l216 0c10,69 60,121 121,121 61,0 112,-52 121,-121l216 0c5,0 11,-3 14,-7 14,-17 13,-61 11,-82 -2,-16 -5,-30 -10,-41l0 0 2 0zm-352 -653c17,0 30,16 30,36 0,20 -14,36 -30,36 -17,0 -30,-16 -30,-36 0,-20 14,-36 30,-36zm0 857c-39,0 -71,-31 -80,-74l160 0c-9,42 -42,74 -80,74l0 0 0 0zm322 -121l-645 0c-1,-8 -1,-19 0,-32 2,-21 7,-32 10,-34 68,-46 106,-156 118,-337 8,-120 93,-213 194,-213 101,0 187,94 194,213 6,87 18,158 36,213 8,17 16,34 19,48 9,18 19,34 31,48 21,24 21,39 40,48 1,4 2,10 2,16 1,13 1,24 0,32l0 -1 1 -1z"/>
  <ellipse class="fil9" cx="23979" cy="4571" rx="49" ry="54"/>
  <path class="fil9" d="M22172 5403l1361 -47c-179,-114 -72,-306 8,-593l-1219 57 -167 152 16 432 1 -1z"/>
 </g>
</svg>
