<?xml version="1.0" encoding="UTF-8" standalone="no"?>
<!-- Created with Inkscape (http://www.inkscape.org/) -->

<svg
   xmlns:dc="http://purl.org/dc/elements/1.1/"
   xmlns:cc="http://creativecommons.org/ns#"
   xmlns:rdf="http://www.w3.org/1999/02/22-rdf-syntax-ns#"
   xmlns:svg="http://www.w3.org/2000/svg"
   xmlns="http://www.w3.org/2000/svg"
   xmlns:sodipodi="http://sodipodi.sourceforge.net/DTD/sodipodi-0.dtd"
   xmlns:inkscape="http://www.inkscape.org/namespaces/inkscape"
   width="167mm"
   height="170mm"
   viewBox="0 0 167 170"
   version="1.1"
   id="svg8"
   inkscape:version="0.92.4 (5da689c313, 2019-01-14)"
   sodipodi:docname="ksfg-bg-blue.svg">
  <defs
     id="defs2">
    <clipPath
       id="clipPath31"
       clipPathUnits="userSpaceOnUse">
      <path
         inkscape:connector-curvature="0"
         id="path33"
         d="M -18.898809,10.494047 195.79166,12.761905 194.27976,203.2619 -13.607143,197.21428 Z"
         style="fill:none;stroke:#000000;stroke-width:0.26458332px;stroke-linecap:butt;stroke-linejoin:miter;stroke-opacity:1" />
    </clipPath>
  </defs>
  <sodipodi:namedview
     id="base"
     pagecolor="#ffffff"
     bordercolor="#666666"
     borderopacity="1.0"
     inkscape:pageopacity="0.0"
     inkscape:pageshadow="2"
     inkscape:zoom="0.7"
     inkscape:cx="291.66871"
     inkscape:cy="285.1977"
     inkscape:document-units="mm"
     inkscape:current-layer="layer1"
     showgrid="false"
     inkscape:window-width="1366"
     inkscape:window-height="705"
     inkscape:window-x="-8"
     inkscape:window-y="-8"
     inkscape:window-maximized="1" />
  <metadata
     id="metadata5">
    <rdf:RDF>
      <cc:Work
         rdf:about="">
        <dc:format>image/svg+xml</dc:format>
        <dc:type
           rdf:resource="http://purl.org/dc/dcmitype/StillImage" />
        <dc:title></dc:title>
      </cc:Work>
    </rdf:RDF>
  </metadata>
  <g
     inkscape:label="Layer 1"
     inkscape:groupmode="layer"
     id="layer1"
     transform="translate(0,-127)">
    <path
       style="fill:#04ade6;fill-opacity:1;stroke:none;stroke-width:0.26458332px;stroke-linecap:butt;stroke-linejoin:miter;stroke-opacity:1"
       d="m -0.26791014,292.89116 0.188988,-165.93154 166.12053214,0.18899 z"
       id="path39"
       inkscape:connector-curvature="0" />
    <path
       style="fill:#0b95c4;fill-opacity:1;stroke:none;stroke-width:0.26458332px;stroke-linecap:butt;stroke-linejoin:miter;stroke-opacity:1"
       d="m 97.944496,127.02198 -73.706629,74.22645 8.619627,7.95094 -10.69082,10.62416 7.820194,9.2785 -7.21868,7.15874 8.52506,8.34419 26.860452,-26.49689 1.430751,1.91596 3.407687,8.41899 -6.127636,7.20805 8.061465,8.15261 -20.592687,21.87338 8.598958,8.50439 -14.268378,13.98519 8.315253,8.22069 21.63899,-21.44985 55.244687,-53.84426 -8.68629,-10.15649 13.25655,-12.72842 -7.9375,-8.59896 20.41065,-20.03288 -8.59896,-8.7881 9.92187,-9.73274 -8.12663,-8.69352 -26.60975,26.24594 -8.35246,-8.11837 8.0517,-8.05118 -8.552961,-8.48631 10.122901,-10.52339 -6.53205,-6.43178 z"
       id="path35"
       inkscape:connector-curvature="0"
       sodipodi:nodetypes="cccccccccccccccccccccccccccccccc" />
    <path
       style="fill:#e2f1ee;fill-opacity:1;stroke:none;stroke-width:0.26458332px;stroke-linecap:butt;stroke-linejoin:miter;stroke-opacity:1"
       d="m 76.951388,266.8409 c 1.040927,-2.23078 0.892898,-4.99201 1.161503,-5.83586 l -0.14174,-5.00819 c 0,0 -0.0684,-0.63907 0.14867,-0.56863 l 0.0403,-2.73866 c 0,0 0.70871,-10.72507 0.47247,-12.28422 -0.23623,-1.55916 0.28348,-2.97657 0.28348,-2.97657 0,0 0.23624,-0.23623 0.28349,-0.99218 0.0472,-0.75596 0.14174,-3.92151 0.0945,-4.63021 -0.0472,-0.70871 0.28348,-3.49628 0.28348,-3.49628 l -0.0945,-1.79539 0.89769,-4.44122 3.73252,0.28348 c 0,0 0.85044,3.77977 0.61421,4.11049 -0.23624,0.33073 -0.0945,2.88207 0.0472,3.68527 0.14174,0.8032 0.42523,2.31511 0.42523,2.31511 0,0 0.51973,0.28348 0.42522,0.99218 -0.0945,0.70871 0.14173,3.49628 0.18899,3.77977 0.0472,0.28348 0,5.10267 -0.0945,5.71689 -0.0945,0.61421 0.33072,8.03199 0.33072,8.03199 l -0.18899,3.49628 c 0,0 -0.14173,1.84263 -0.14173,2.36235 0,0.51972 -0.223406,0.72393 0.09112,1.40021 -3.157032,3.85281 -8.859336,8.59339 -8.859336,8.59339 z"
       id="path867"
       inkscape:connector-curvature="0"
       sodipodi:nodetypes="cccccccccccccccccccccscc" />
    <path
       style="fill:#e2f1ee;fill-opacity:1;stroke:#bfded2;stroke-width:0.26458332px;stroke-linecap:butt;stroke-linejoin:miter;stroke-opacity:1"
       d="m 85.977311,221.92832 c 0.21639,-1.22376 0.73008,-0.76287 1.20272,-0.53454 l 0.66817,1.67043 c 1.06243,1.17698 1.08201,1.77086 0.90203,3.24065 1.69357,1.57112 1.0934,2.4676 1.43658,3.64154 l -0.0334,4.77745 c 0.6225,-0.14671 0.81664,0.0279 1.10249,0.13363 0.14229,1.14776 -0.42677,3.87063 0.83521,2.53906 0.6974,-0.82268 1.48819,-2.67249 2.27179,-4.44336 l 0.80181,-4.14267 1.20272,-3.37428 0.13363,-3.10701 -0.23386,-1.40316 1.30294,1.20271 c 0.62747,0.60596 1.20831,1.22358 1.13589,2.00452 0.22151,1.3278 0.57104,1.9131 1.23613,0.66818 0.400899,-0.88583 0.801809,-0.88477 1.202709,-1.10249 1.07187,0.67232 1.82943,2.13042 2.73951,3.20723 l 0.73499,0.96886 0.70159,-1.26954 c 0.75595,1.58398 1.87085,2.45004 2.97337,3.34087 -1.21833,-6.20381 -2.54352,-12.31602 -6.81537,-15.90253 l 1.83747,-0.50113 c 0.33409,-0.33326 0.66818,-0.91535 1.00227,-1.60362 l 0.93544,1.1359 0.33408,0.23386 0.20046,-0.7684 c 0.40095,-0.19511 0.67862,0.16455 0.90203,0.7684 0.81716,0.52537 1.5759,1.63608 2.47224,1.36975 l 0.10023,-0.86862 1.83748,1.00226 0.30068,-0.33409 0.0668,-0.63476 c 1.46737,0.066 1.73996,1.02806 2.57246,1.5702 0.63294,0.22819 1.32743,0.27177 2.13816,-0.0334 0.56758,0.41278 1.09172,0.91244 1.57021,1.5034 0.90943,0.41601 1.73539,0.33121 2.55751,0.22333 -2.59826,-3.19763 -3.97399,-6.052 -7.79576,-9.59115 -0.43785,-0.45576 -2.24381,-1.33248 -3.77976,-2.12611 -0.0538,-0.60501 0.81835,-0.28409 1.32292,-0.33073 -0.11284,-0.44915 0.0622,-0.64642 0.66146,-0.47247 0.3911,0.15014 0.62053,0.0416 0.56696,-0.51972 -1.76692,-3.13854 -4.16508,-5.89832 -9.02418,-7.18155 l -3.921499,-1.74814 c 0.42354,-0.60885 4.082559,0.0149 6.189359,0.0472 -1.54308,-1.93277 -2.69847,-3.52779 -6.152589,-5.80802 -0.58368,-0.21657 -1.84408,-0.51984 -2.87159,-0.38134 -1.42985,-0.4622 -2.44158,-1.79868 -4.77195,-0.37798 -0.80099,0.67188 -1.8103,1.69791 -3.49628,3.87426 -1.19033,-3.62333 -1.41953,-7.16025 -3.72885,-8.77371 -2.45004,-1.68024 -5.59306,1.22331 -5.81245,2.92118 -0.15772,1.57232 0.20899,2.4425 0.0919,3.44293 l 0.33073,0.0472 c -0.0915,0.92658 0.0723,0.95969 0.14174,1.32292 0.54955,-0.16551 0.89718,-0.66757 1.18118,-1.27567 0.3759,-0.0589 0.39629,0.59333 0.42522,1.22842 0.39373,0.0256 0.78745,0.1049 1.18118,-0.47247 -0.0429,1.45107 -0.62629,2.63192 -1.55916,3.63802 -4.542535,-3.24702 -7.09152,-10.18368 -13.483017,-8.70613 -0.79226,0.14469 -1.58452,0.42189 -2.37678,0.98327 -1.278993,1.31472 -1.302202,2.62945 -1.36812,3.94417 l 1.102487,-0.13363 c -0.172765,0.75546 -1.014053,1.73375 -0.233862,2.17156 0.58182,-0.19661 1.015196,0.003 1.837478,-0.83521 0.44244,0.0725 0.533876,0.28535 0.534541,0.53453 l 2.104747,0.0334 c 0.499422,0.0771 -0.136868,1.06276 -0.467723,1.80407 l 0.634767,0.50113 c 0.308979,-0.36268 0.583057,-0.769 1.23612,-0.70158 0.193871,0.50746 0.26581,1.05846 -0.7684,2.00452 l -3.040189,-0.60135 c -4.445708,0.0176 -6.173123,-0.83792 -8.715002,1.64258 -2.050672,2.00269 -3.741024,3.85096 -5.450284,5.70733 0.532545,0.17669 0.963063,-0.42651 4.073779,-1.59234 0.502998,0.15749 0.383179,0.31498 0.377975,0.47247 l 1.748139,0.18899 c 0.09562,0.3146 0.274941,0.60131 -0.141739,1.08668 h 0.944938 c 0.692957,-0.49954 1.385914,-1.21523 2.078871,-1.13393 l 0.330729,0.8032 c 0.08953,0.53819 0.454474,0.34196 0.803198,0.18898 1.101978,-0.85179 0.843044,-0.49388 1.228423,-0.7087 0.138489,-0.0352 1.33285,1.57156 -2.409597,1.46466 -3.436071,0.35668 -6.892932,1.07719 -10.504699,4.50856 -3.955332,3.87086 -2.807755,5.8617 -3.741772,8.61944 -0.0218,0.44497 -0.166008,1.01236 0.668174,0.60136 0.517531,0.30939 0.974445,0.13384 1.403164,-0.26727 0.928564,-0.92857 1.808407,-1.80841 2.472243,-2.47225 1.039398,-0.79442 2.069012,-1.56731 2.672697,-1.40316 l 0.133633,1.06907 c 1.439427,-0.51021 2.781029,-1.21608 4.026942,-2.11332 0.219731,-0.15824 0.436485,-0.32243 0.650275,-0.49255 0.305492,0.22506 0.08016,1.11365 0.06682,1.73725 0.411194,-0.18247 1.042618,-0.69529 1.135896,-0.40089 l 0.601356,0.46772 c 0.346409,0.2649 1.160389,-0.40535 1.937705,-1.00227 0.191614,-0.66818 0.964414,-1.33635 1.670434,-2.00453 0.337382,0.33409 0.756191,0.66818 0.668173,1.00227 1.06707,-0.71886 2.251594,-1.94669 3.073601,-1.60361 -0.0276,1.06123 -1.191781,2.34977 -2.539061,3.67494 -1.644447,1.58534 -3.823465,2.84172 -4.409948,5.07812 0.135074,0.86604 -1.40859,2.27525 -0.935442,3.67496 l 0.935442,6.1472 c 0.218474,2.23875 1.080849,3.29702 1.80407,4.6104 0.199137,0.93284 0.407732,1.83101 0.868627,1.80407 0.231433,-0.87934 0.194929,-4.17011 0.267269,-6.48129 1.063487,-1.58137 2.006339,-3.3236 2.53906,-5.61266 0.06207,-0.9593 0.405688,-1.82474 1.002261,-2.60587 0.640473,0.2996 0.827727,-0.42054 1.135896,-0.86862 l 1.737251,-4.6104 c 0.57032,0.5349 1.746458,1.16301 1.269529,1.5368 l -2.23838,6.78196 c -0.01931,3.51178 0.53743,5.60729 1.457795,8.57942 0.871454,2.8011 2.114315,5.15651 3.319646,7.55697 0.500737,-0.22996 0.370619,-1.34311 0.467722,-2.13816 0.724431,-0.91974 1.100929,-1.90906 0.935443,-3.00678 l -0.668174,-3.0736 c 0.428382,-0.10274 0.991711,-0.0975 1.00226,-0.53454 l -0.601355,-2.80633 1.069078,0.40091 c 0.834011,0.014 1.49833,-0.085 1.5368,-0.60136 l 0.0668,-2.20497 1.13589,1.33635 0.0668,-2.07134 1.73725,2.00452 v 3.20723 c 0,0 0.0668,4.47677 0.0668,4.67722 0,0.20045 0.66817,3.74177 0.66817,3.74177 l 0.33409,2.47225 1.60361,-1.73726 2.00451,-5.34539 0.0668,-1.13589 -0.735,-0.56795 c 0.16437,-0.54257 0.49498,-0.58641 0.33409,-2.10475 0.55855,-0.47488 0.83557,-2.49816 1.23613,-3.842 l 0.60136,-2.23838 z"
       id="path45"
       inkscape:connector-curvature="0"
       sodipodi:nodetypes="ccccccccccccccccccccccccccccccccccccccccccccccccccccccccccccccccccccccccccccccccccccccccccscccccccccccccccccccccccccccccccccccscccccccccc" />
    <path
       style="fill:#ffffff;stroke:#ffffff;stroke-width:0.26458332px;stroke-linecap:butt;stroke-linejoin:miter;stroke-opacity:0.94117647"
       d="m 115.51059,210.68617 c 1.68429,2.06123 3.12525,4.34437 4.79589,6.42078 v 0"
       id="path853"
       inkscape:connector-curvature="0"
       sodipodi:nodetypes="ccc" />
  </g>
</svg>
